<?xml version="1.0" encoding="utf-8"?>
<!-- Generator: Adobe Illustrator 27.0.0, SVG Export Plug-In . SVG Version: 6.00 Build 0)  -->
<svg version="1.1" id="Capa_1" xmlns="http://www.w3.org/2000/svg" xmlns:xlink="http://www.w3.org/1999/xlink" x="0px" y="0px"
	 viewBox="0 0 254.3 128.9" style="enable-background:new 0 0 254.3 128.9;" xml:space="preserve">
<style type="text/css">
	.st0{fill:#959595;}
	.st1{fill:#002C5F;}
</style>
<polygon class="st0" points="185.5,91.4 207.8,55.2 181.3,55.2 181.3,39.4 207.8,39.4 185.5,3.2 204.9,3.2 231.2,47.3 203.8,91.4 
	"/>
<g>
	<g>
		<path class="st1" d="M126.7,107.4c2.6,0,4,1.5,4,4.4v8.4h-2l-0.4-1.7h-0.1c-0.4,0.7-0.9,1.1-1.4,1.5c-0.5,0.3-1.2,0.5-2,0.5
			c-1,0-1.8-0.4-2.4-1.1c-0.5-0.7-0.8-1.7-0.8-2.7c0-1.3,0.4-2.3,1.2-2.9s1.9-1,3.4-1.1l1.7-0.1V112c0-0.8-0.1-1.4-0.4-1.8
			s-0.7-0.6-1.3-0.6c-0.4,0-0.9,0.1-1.3,0.2c-0.5,0.2-1,0.4-1.5,0.6l-0.8-1.9C123.8,107.7,125.2,107.4,126.7,107.4z M128,114.2h-1.1
			c-0.9,0-1.5,0.3-1.9,0.6c-0.4,0.4-0.6,0.9-0.6,1.6c0,1.2,0.5,1.8,1.5,1.8c0.6,0,1.1-0.3,1.5-0.8s0.6-1.2,0.6-2.2V114.2z"/>
		<path class="st1" d="M145.8,115.5c0,1-0.2,1.8-0.6,2.5c-0.4,0.7-1,1.3-1.7,1.7c-0.8,0.4-1.7,0.6-2.7,0.6c-0.7,0-1.4-0.1-2.1-0.2
			c-0.7-0.1-1.3-0.4-1.9-0.6v-2.8c0.6,0.4,1.3,0.6,2,0.8c0.7,0.2,1.4,0.3,2,0.3c0.8,0,1.3-0.2,1.7-0.6s0.6-0.9,0.6-1.5
			s-0.2-1.2-0.6-1.6c-0.4-0.4-1.1-0.9-2.1-1.4c-0.6-0.4-1.2-0.7-1.7-1.1s-0.9-0.9-1.2-1.5s-0.4-1.3-0.4-2.2c0-1.4,0.4-2.5,1.3-3.3
			c0.9-0.8,2-1.2,3.5-1.2c0.7,0,1.4,0.1,2.1,0.3c0.7,0.2,1.3,0.4,1.9,0.7l-0.8,2.4c-1.1-0.6-2.1-0.9-3.1-0.9c-0.7,0-1.2,0.2-1.5,0.5
			c-0.4,0.4-0.5,0.8-0.5,1.4c0,0.4,0.1,0.8,0.2,1.1c0.2,0.3,0.4,0.6,0.8,0.9c0.4,0.3,0.9,0.6,1.6,0.9c1.1,0.6,2,1.2,2.6,1.9
			C145.5,113.5,145.8,114.4,145.8,115.5z"/>
		<path class="st1" d="M153,120.2h-6.1v-1.5l1.7-0.6v-12.2l-1.7-0.6v-1.5h6.1v1.5l-1.7,0.6V118l1.7,0.6V120.2z"/>
		<path class="st1" d="M164.8,120.2h-3l-2.7-6.2l-2.8,6.2h-2.9l4.2-8.5l-3.8-8h2.9l2.5,5.7l2.5-5.7h2.9l-3.8,8.1L164.8,120.2z"/>
		<path class="st1" d="M174.5,120.4c-1.6,0-2.8-0.5-3.6-1.6c-0.8-1-1.2-2.7-1.2-4.9c0-2,0.4-3.6,1.3-4.8c0.8-1.2,2.1-1.7,3.7-1.7
			c0.6,0,1.2,0.1,1.7,0.2s1,0.3,1.4,0.6l-0.8,2.1c-0.4-0.2-0.7-0.3-1.1-0.4c-0.4-0.1-0.7-0.2-1.1-0.2c-1.6,0-2.4,1.4-2.4,4.3
			c0,2.8,0.8,4.2,2.4,4.2c0.5,0,1-0.1,1.4-0.2s0.9-0.3,1.3-0.6v2.3C176.6,120.1,175.6,120.4,174.5,120.4z"/>
		<path class="st1" d="M188.7,113.9c0,1.3-0.2,2.4-0.5,3.4c-0.4,1-0.9,1.7-1.6,2.3c-0.7,0.6-1.7,0.8-2.8,0.8s-2-0.3-2.7-0.8
			s-1.3-1.3-1.7-2.3s-0.6-2.1-0.6-3.4c0-2,0.4-3.6,1.2-4.7c0.8-1.2,2.1-1.7,3.8-1.7c1.5,0,2.7,0.6,3.6,1.7S188.7,111.8,188.7,113.9z
			 M181.5,113.9c0,1.4,0.2,2.5,0.5,3.2c0.4,0.7,0.9,1.1,1.7,1.1s1.4-0.4,1.7-1.1c0.4-0.7,0.5-1.8,0.5-3.2c0-1.4-0.2-2.4-0.5-3.1
			c-0.4-0.7-0.9-1-1.7-1s-1.4,0.3-1.7,1C181.7,111.4,181.5,112.5,181.5,113.9z"/>
		<path class="st1" d="M202.6,107.4c1.2,0,2,0.4,2.6,1.1s0.9,1.9,0.9,3.4v8.3h-2.7v-7.6c0-1.9-0.5-2.8-1.6-2.8c-0.8,0-1.3,0.3-1.6,1
			s-0.5,1.6-0.5,2.9v6.6H197v-7.6c0-1-0.1-1.7-0.4-2.1c-0.3-0.5-0.7-0.7-1.2-0.7c-0.8,0-1.4,0.4-1.6,1.1c-0.3,0.7-0.4,1.8-0.4,3.2
			v6.2h-2.7v-12.5h2.1l0.3,1.6h0.2c0.3-0.6,0.7-1.1,1.2-1.4s1.2-0.5,1.8-0.5c0.8,0,1.4,0.2,1.9,0.5s0.8,0.8,1.1,1.4h0.2
			C200.2,108,201.2,107.4,202.6,107.4z"/>
		<path class="st1" d="M214.2,107.4c1.3,0,2.3,0.6,3,1.7s1.1,2.7,1.1,4.8c0,2.1-0.4,3.7-1.1,4.8c-0.7,1.1-1.7,1.7-2.9,1.7
			c-0.7,0-1.3-0.2-1.8-0.5s-0.9-0.8-1.2-1.3h-0.1c0,0.4,0.1,0.7,0.1,1.1c0,0.3,0,0.6,0,0.9v5.2h-2.7v-18.1h2.2l0.4,1.7h0.1
			C212,108,213,107.4,214.2,107.4z M213.5,109.6c-0.8,0-1.4,0.3-1.7,0.9s-0.5,1.6-0.5,3v0.5c0,1.4,0.2,2.4,0.5,3.1s0.9,1,1.7,1
			c1.4,0,2.1-1.4,2.1-4.2c0-1.4-0.2-2.5-0.5-3.2C214.7,110,214.2,109.6,213.5,109.6z"/>
		<path class="st1" d="M224.6,107.4c2.6,0,4,1.5,4,4.4v8.4h-2l-0.4-1.7h-0.1c-0.4,0.7-0.9,1.1-1.4,1.5c-0.5,0.3-1.2,0.5-2,0.5
			c-1,0-1.8-0.4-2.4-1.1c-0.5-0.7-0.8-1.7-0.8-2.7c0-1.3,0.4-2.3,1.2-2.9c0.8-0.7,1.9-1,3.4-1.1l1.7-0.1V112c0-0.8-0.1-1.4-0.4-1.8
			c-0.3-0.4-0.7-0.6-1.3-0.6c-0.4,0-0.9,0.1-1.3,0.2c-0.5,0.2-1,0.4-1.5,0.6l-0.8-1.9C221.8,107.7,223.1,107.4,224.6,107.4z
			 M225.9,114.2h-1.1c-0.9,0-1.5,0.3-1.9,0.6c-0.4,0.4-0.6,0.9-0.6,1.6c0,1.2,0.5,1.8,1.5,1.8c0.6,0,1.1-0.3,1.5-0.8
			s0.6-1.2,0.6-2.2V114.2z"/>
		<path class="st1" d="M236.8,107.4c1.1,0,2,0.4,2.7,1.1c0.6,0.7,0.9,1.8,0.9,3.4v8.3h-2.7v-7.7c0-0.9-0.1-1.6-0.4-2.1
			s-0.7-0.7-1.3-0.7c-0.8,0-1.4,0.3-1.8,1c-0.3,0.7-0.5,1.8-0.5,3.3v6.2H231v-12.5h2.1l0.3,1.6h0.2c0.3-0.6,0.7-1.1,1.3-1.4
			C235.5,107.6,236.1,107.4,236.8,107.4z"/>
		<path class="st1" d="M241.4,107.6h2.8l1.8,6.6c0.1,0.4,0.2,0.9,0.3,1.3s0.2,0.9,0.2,1.3h0.1c0-0.4,0.1-0.8,0.2-1.2
			c0.1-0.4,0.2-0.9,0.3-1.4l1.8-6.6h2.8l-4.2,14c-0.4,1.4-1,2.4-1.6,3c-0.7,0.6-1.5,1-2.5,1c-0.3,0-0.5,0-0.8,0
			c-0.2,0-0.5-0.1-0.7-0.1v-2.3c0.2,0,0.3,0.1,0.5,0.1s0.3,0,0.5,0c0.5,0,0.9-0.2,1.2-0.5c0.3-0.4,0.6-0.9,0.8-1.8l0.3-1
			L241.4,107.6z"/>
	</g>
	<polygon class="st1" points="251.8,91.4 233.6,91.4 221.1,71.2 230.4,56.3 	"/>
	<polygon class="st1" points="221,22.1 232.5,3.2 251.8,3.2 230.4,37.9 	"/>
	<polygon class="st1" points="115.4,75.6 157.7,75.6 157.7,65.7 125.9,65.7 125.9,52.4 148.8,52.4 148.8,42.5 125.9,42.5 125.9,29 
		157.7,29 157.7,19.1 115.4,19.1 115.4,42.5 125.9,42.5 125.9,52.4 115.4,52.4 	"/>
	<g>
		<path class="st1" d="M12.9,51.6h20.6c4.7,0,8.1,3.1,8.1,7.1s-3.4,7-8.1,7H12.9V51.6z M12.9,29h18.5c4.6,0,7,3,7,6.3
			c0,3.4-2.4,6.4-7,6.4H12.9V29z M2.5,75.6h32.2c9.9,0,17.4-6.3,17.4-16.4C52,52,47.8,47.4,42,45.5c4.2-1.9,6.9-6,6.9-11.2
			c0-10.1-7.7-15.1-16.3-15.1H2.5v22.6h10.4v9.9H2.5V75.6z"/>
		<polygon class="st1" points="58.9,75.6 69.4,75.6 69.4,40.7 84,55.5 98.7,40.7 98.7,75.6 109.1,75.6 109.1,17.9 84,42.9 
			58.9,17.9 		"/>
		<path class="st1" d="M4.2,85.8c0.2,0,0.5,0,0.6,0c0.5,0,1,0.2,1,0.8c0,0.5-0.4,0.7-0.5,0.8c-0.2,0.1-0.7,0.1-1.1,0.1V85.8z
			 M4.2,88.6c0.7,0,1.1,0,1.4,0.2S6,89.3,6,89.6c0,0.4-0.2,0.7-0.6,0.8c-0.3,0.1-0.8,0.1-1.2,0.1V88.6z M4.2,91.4
			c0.9,0,1.9,0,2.6-0.4c0.6-0.4,0.8-1.1,0.8-1.6c0-0.6-0.3-1.2-0.8-1.4c-0.2-0.1-0.4-0.1-0.6-0.2c0.4-0.1,0.8-0.3,1-0.8
			c0.1-0.2,0.2-0.4,0.2-0.7c0-0.3-0.1-0.7-0.4-1.1c-0.4-0.4-1-0.5-1.9-0.5c-0.3,0-0.9,0-1.2,0H2.6l-0.1,0.1c0,0.9,0.1,1.2,0.1,2.5
			s0,2.7,0,4h0.1L4.2,91.4L4.2,91.4z"/>
		<path class="st1" d="M12.6,86.3c0.2,0.2,0.3,0.5,0.3,0.8C13,87.5,13,87.8,13,88c0,1.4-0.3,2.4-1.4,2.4c-1.3,0-1.4-1.5-1.4-2.4
			c0-1.1,0.3-1.7,0.7-2c0.2-0.2,0.5-0.2,0.7-0.2C12.1,85.8,12.4,86,12.6,86.3 M14.1,85.7c-0.2-0.2-0.3-0.4-0.6-0.5
			c-0.5-0.3-1.1-0.5-1.8-0.5c-0.6,0-1.2,0.1-1.7,0.4c-1.1,0.7-1.3,1.7-1.4,2.1c-0.1,0.3-0.1,0.6-0.1,1c0,0.6,0.1,1.8,1,2.7
			c0.7,0.7,1.7,0.8,2.2,0.8c0.7,0,1.5-0.2,2-0.6c0.9-0.8,1.1-2,1.1-2.8C14.8,86.6,14.3,85.9,14.1,85.7"/>
		<path class="st1" d="M20.2,90.1c-1,0.1-1.8,0.1-2.1,0.1h-0.2c0-2.5,0-3.1,0.1-5.4l-0.1-0.1c-0.8,0-1,0-1.7,0l-0.1,0.1
			c0,0.7,0,1,0,2.1c0,1.5,0,3,0,4.4v0.1c1.8,0,2.2,0,3.9,0v-0.1L20.2,90.1L20.2,90.1z"/>
		<path class="st1" d="M23.6,87.4c-0.8-0.3-1.2-0.5-1.2-0.9c0-0.3,0.3-0.7,0.9-0.7c0.7,0,1.1,0.3,1.5,0.5h0.1l0.1-1.2V85
			c-0.4-0.2-0.8-0.3-1.7-0.3c-1.8,0-2.4,1-2.4,2c0,1.1,0.9,1.6,1.4,1.8l0.3,0.1c0.6,0.3,1.1,0.5,1.1,1c0,0.4-0.3,0.8-1.1,0.8
			c-0.9,0-1.3-0.4-1.6-0.6h-0.1l-0.1,1.3l0.1,0.1c0.1,0,0.2,0.1,0.3,0.1c0.2,0.1,0.8,0.2,1.5,0.2c0.3,0,1,0,1.6-0.3
			c0.8-0.4,1.1-1.1,1.1-1.9c0-0.5-0.2-1.1-0.7-1.5c-0.3-0.2-0.5-0.3-0.7-0.4H23.6z"/>
		<path class="st1" d="M28,88.5l0.5-1.6l0.3-1.1l0.3,1.2l0.3,1.5H28z M30,84.8c-0.9,0-1.1,0-2.1,0l-0.1,0.1
			c-0.5,1.6-0.8,2.5-2.2,6.5v0.1h1.5l0.1-0.1l0.5-1.7h2l0.4,1.7l0.1,0.1c0.7,0,0.9,0,1.6,0v-0.1C30.7,87.3,30.6,86.9,30,84.8
			L30,84.8z"/>
		<path class="st1" d="M35.4,87.4c-0.8-0.3-1.2-0.5-1.2-0.9c0-0.3,0.3-0.7,0.9-0.7c0.7,0,1.1,0.3,1.5,0.5h0.1l0.1-1.2V85
			c-0.4-0.2-0.8-0.3-1.7-0.3c-1.8,0-2.4,1-2.4,2c0,1.1,0.9,1.6,1.4,1.8l0.3,0.1c0.6,0.3,1.1,0.5,1.1,1c0,0.4-0.3,0.8-1.1,0.8
			c-0.9,0-1.3-0.4-1.6-0.6h-0.1l-0.1,1.3l0.1,0.1c0.1,0,0.2,0.1,0.3,0.1c0.2,0.1,0.8,0.2,1.5,0.2c0.3,0,1,0,1.6-0.3
			c0.8-0.4,1.1-1.1,1.1-1.9c0-0.5-0.2-1.1-0.7-1.5c-0.3-0.2-0.5-0.3-0.7-0.4H35.4z"/>
		<path class="st1" d="M44.1,91.3c0-1.2-0.1-1.5-0.1-2.7l2.1-3.8v-0.1c-0.7,0-0.9,0-1.5,0l-0.1,0.1c-0.5,1.2-0.8,1.7-1.2,2.4
			c-0.1-0.2-0.6-1.1-0.7-1.3c-0.2-0.3-0.3-0.6-0.6-1.2h-0.1c-0.8,0-1,0.1-1.8,0.1v0.1c0.3,0.5,1.5,2.6,1.8,3
			c0.1,0.2,0.3,0.5,0.4,0.7v0.3c0,0.9,0,1.3-0.1,2.4v0.1C43.2,91.4,43.4,91.4,44.1,91.3L44.1,91.3z"/>
		<path class="st1" d="M56.8,84.8c-1,0-1.1,0-2.2,0l-0.1,0.1l-0.4,1.5l-0.4,1.4l-0.4,1.6l-0.4-1.7l-0.3-1.1l-0.5-1.8l0,0
			c-1,0-1.2,0-2.2,0l-0.1,0.1c-0.1,2.8-0.1,3.5-0.3,6.5v0.1c0.6,0,0.8,0,1.3,0l0.1-0.1v-1.8l0.1-1.8V86l0.4,1.7l0.4,1.3l0.6,2.4
			l0.1,0.1c0.6,0,0.7,0,1.4,0l0.1-0.1l0.5-2l0.4-1.4l0.5-2v1.7v1.4v2.2v0.1c0.6,0,0.9,0,1.6,0v-0.1c-0.1-1.1-0.1-2.1-0.2-3.2
			c0-0.6,0-1.2-0.1-1.8C56.8,85.5,56.8,85.4,56.8,84.8L56.8,84.8z"/>
		<path class="st1" d="M63.1,90.1c-1.1,0.1-1.4,0.1-2.6,0.1v-1.6h2.2l0.1-0.1l0.1-1.1l-0.1-0.1h-2.3v-1.5c1.1,0,1.3,0,2.4,0v-0.1
			l0.1-1.1l0,0h-4.1l-0.1,0.1c0.1,0.9,0.1,1.3,0.1,3.8c0,1.2,0,1.8,0,2.7l0,0H63l0.1-0.1V90.1L63.1,90.1z"/>
		<path class="st1" d="M65.9,85.9c0.1,0,0.3,0,0.4,0c0.4,0,1.1,0,1.1,0.8c0,0.3-0.1,0.6-0.4,0.8c-0.3,0.2-0.6,0.2-1.1,0.2V85.9z
			 M66.4,88.8c0.6,1.1,0.8,1.3,1.4,2.6h0.1c0.3,0,0.6,0,0.9,0s0.6,0,0.9,0l0.1-0.1c-0.4-0.5-0.5-0.6-1.1-1.7
			c-0.3-0.5-0.5-0.7-0.7-1.1c0.4-0.2,1.3-0.6,1.3-1.8c0-0.4-0.1-1.3-0.9-1.7c-0.5-0.3-1-0.3-2.1-0.2h-0.7h-1.1l-0.1,0.1
			c0,0.9,0.1,1.9,0.1,4.5c0,0.9,0,1.3,0,2.1v0.1c0.7,0,0.8,0,1.6,0l0.1-0.1c-0.1-1.1-0.1-1.4-0.1-2.5L66.4,88.8z"/>
		<path class="st1" d="M75.4,89.7c-0.2,0.2-0.7,0.5-1.5,0.5c-1.1,0-1.8-0.8-1.8-2.1c0-0.8,0.3-2.2,1.8-2.2c0.7,0,1.1,0.3,1.3,0.4
			h0.1l0.1-1.3v-0.1c-0.3-0.1-0.9-0.3-1.7-0.3c-2.4,0-3.3,1.9-3.3,3.5c0,1.8,1.1,3.4,3.4,3.4c0.8,0,1.3-0.2,1.6-0.3v-0.1V89.7
			L75.4,89.7z"/>
		<path class="st1" d="M78.2,88.5l0.5-1.6l0.3-1.1l0.3,1.2l0.3,1.5H78.2z M80.2,84.8c-0.9,0-1.1,0-2.1,0L78,84.9
			c-0.5,1.6-0.8,2.5-2.2,6.5v0.1h1.5l0.1-0.1l0.5-1.7h2l0.4,1.7l0.1,0.1c0.7,0,0.9,0,1.6,0v-0.1C80.9,87.3,80.8,86.9,80.2,84.8
			L80.2,84.8z"/>
		<path class="st1" d="M84.8,90.2c0-0.9,0-1.8,0-2.7c0-0.5,0-1,0-1.5c0.2,0,0.4,0,0.6,0c0.6,0,1.7,0,1.7,2c0,1.2-0.4,1.7-0.7,1.9
			C86,90.2,85.3,90.2,84.8,90.2 M84.3,91.4c0.2,0,0.5,0,0.7,0c1.1,0,2.7,0,3.4-1.7c0.3-0.6,0.3-1.4,0.3-1.8c0-0.9-0.2-1.6-0.4-2
			c-0.6-1.2-1.8-1.2-2.9-1.2c-0.4,0-0.9,0-1.3,0h-1L83,84.8c0,0.9,0.1,1.7,0.1,4.3c0,0.9,0,1.5,0,2.2h0.1L84.3,91.4L84.3,91.4z"/>
		<path class="st1" d="M94,86.3c0.2,0.2,0.3,0.5,0.3,0.8c0.1,0.4,0.1,0.7,0.1,0.9c0,1.4-0.3,2.4-1.4,2.4c-1.3,0-1.4-1.5-1.4-2.4
			c0-1.1,0.3-1.7,0.7-2c0.3-0.2,0.5-0.2,0.7-0.2C93.5,85.8,93.8,86,94,86.3 M95.5,85.7c-0.2-0.2-0.3-0.4-0.6-0.5
			c-0.5-0.3-1.1-0.5-1.8-0.5c-0.6,0-1.2,0.1-1.7,0.4c-1.1,0.7-1.3,1.7-1.4,2.1c-0.1,0.3-0.1,0.6-0.1,1c0,0.6,0.1,1.8,1,2.7
			c0.7,0.7,1.7,0.8,2.2,0.8c0.7,0,1.5-0.2,2-0.6c0.9-0.8,1.1-2,1.1-2.8C96.2,86.6,95.7,85.9,95.5,85.7"/>
		<path class="st1" d="M100.3,87.4c-0.8-0.3-1.2-0.5-1.2-0.9c0-0.3,0.3-0.7,0.9-0.7c0.7,0,1.1,0.3,1.5,0.5h0.1l0.1-1.2V85
			c-0.4-0.2-0.8-0.3-1.7-0.3c-1.8,0-2.4,1-2.4,2c0,1.1,0.9,1.6,1.4,1.8l0.3,0.1c0.6,0.3,1.1,0.5,1.1,1c0,0.4-0.3,0.8-1.1,0.8
			c-0.9,0-1.3-0.4-1.6-0.6h-0.1l-0.1,1.3l0.1,0.1c0.1,0,0.2,0.1,0.3,0.1c0.2,0.1,0.8,0.2,1.5,0.2c0.3,0,1,0,1.6-0.3
			c0.8-0.4,1.1-1.1,1.1-1.9c0-0.5-0.2-1.1-0.7-1.5c-0.3-0.2-0.5-0.3-0.7-0.4H100.3z"/>
		<path class="st1" d="M110.1,90.1c-1.1,0.1-1.4,0.1-2.6,0.1v-1.6h2.2l0.1-0.1l0.1-1.1v-0.1h-2.3v-1.5c1.1,0,1.3,0,2.4,0v-0.1
			l0.1-1.1l0,0H106l-0.1,0.1c0.1,0.9,0.1,1.3,0.1,3.8c0,1.2,0,1.8-0.1,2.7h0.1h4.1l0.1-0.1L110.1,90.1L110.1,90.1z"/>
		<path class="st1" d="M113.8,87.4c-0.8-0.3-1.2-0.5-1.2-0.9c0-0.3,0.3-0.7,0.9-0.7c0.7,0,1.1,0.3,1.5,0.5h0.1l0.1-1.2V85
			c-0.4-0.2-0.8-0.3-1.7-0.3c-1.8,0-2.4,1-2.4,2c0,1.1,0.9,1.6,1.4,1.8l0.3,0.1c0.6,0.3,1.1,0.5,1.1,1c0,0.4-0.3,0.8-1.1,0.8
			c-0.8,0-1.3-0.4-1.6-0.6h-0.1l-0.1,1.3l0.1,0.1c0.1,0,0.2,0.1,0.3,0.1c0.2,0.1,0.8,0.2,1.5,0.2c0.3,0,1,0,1.6-0.3
			c0.8-0.4,1.1-1.1,1.1-1.9c0-0.5-0.2-1.1-0.7-1.5c-0.3-0.2-0.5-0.3-0.7-0.4H113.8z"/>
		<path class="st1" d="M118.3,85.9c0.2,0,0.4,0,0.6,0c0.8,0,1.1,0.4,1.1,1c0,0.1,0,0.7-0.5,0.9c-0.3,0.1-0.6,0.2-1.2,0.2V85.9z
			 M117.9,84.8h-1.2l-0.1,0.1c0,1.2,0.1,2,0.1,3.1s0,2.3-0.1,3.4l0.1,0.1c0.7,0,0.8,0,1.6,0v-0.1c0-1,0-1.3,0-2.2c1,0,2.2,0,2.8-0.8
			c0.3-0.3,0.5-0.9,0.5-1.5c0-0.4-0.1-1.3-0.9-1.7c-0.6-0.3-1.4-0.3-2.1-0.3L117.9,84.8z"/>
		<path class="st1" d="M123.7,88.5l0.5-1.6l0.3-1.1l0.3,1.2l0.3,1.5H123.7z M125.7,84.8c-0.9,0-1.1,0-2.1,0l-0.1,0.1
			c-0.5,1.6-0.8,2.5-2.2,6.5v0.1h1.5l0.1-0.1l0.5-1.7h2l0.4,1.7l0.1,0.1c0.7,0,0.9,0,1.6,0v-0.1C126.4,87.3,126.3,86.9,125.7,84.8
			L125.7,84.8z"/>
		<path class="st1" d="M133,82.9c-0.2,0.2-0.5,0.4-0.8,0.4c-0.2,0-0.4-0.1-0.6-0.1l-0.4-0.1c-0.2-0.1-0.3-0.1-0.5-0.1
			c-0.4,0-0.6,0.2-0.8,0.3v0.1v1h0.1c0.2-0.1,0.5-0.3,0.8-0.3c0.2,0,0.4,0.1,0.6,0.1l0.3,0.1c0.2,0.1,0.3,0.1,0.5,0.1
			c0.4,0,0.7-0.2,0.9-0.4v-0.1L133,82.9L133,82.9z M134.2,84.8c-0.6,0-0.8,0-1.3,0v0.1l0.1,1.3v1.3V89l0,0c-0.3-0.5-0.3-0.5-0.8-1.2
			l-0.8-1.2c-0.7-1.1-0.8-1.3-1.1-1.6h-0.1c-0.7,0-0.9,0-1.5,0l-0.1,0.1c0.1,1.5,0.1,2.5,0.1,3.8c0,0.9,0,1.8,0,2.7v0.1
			c0.6,0,0.8,0,1.4,0v-0.1l-0.1-2.1v-1.1l-0.1-1.2l0,0c0.4,0.7,0.6,1,1.2,1.9l0.9,1.4l0.8,1.2h0.1c0.6,0,0.7,0,1.2,0l0,0
			c0-1.4,0-2.3,0-3.4C134.3,86.9,134.3,85.9,134.2,84.8L134.2,84.8z"/>
		<path class="st1" d="M139.5,86.3c0.2,0.2,0.3,0.5,0.3,0.8c0.1,0.4,0.1,0.7,0.1,0.9c0,1.4-0.3,2.4-1.4,2.4c-1.3,0-1.4-1.5-1.4-2.4
			c0-1.1,0.3-1.7,0.7-2c0.3-0.2,0.5-0.2,0.7-0.2C139,85.8,139.3,86,139.5,86.3 M141,85.7c-0.2-0.2-0.3-0.4-0.6-0.5
			c-0.5-0.3-1.1-0.5-1.8-0.5c-0.6,0-1.2,0.1-1.7,0.4c-1.1,0.7-1.4,1.7-1.4,2.1c-0.1,0.3-0.1,0.6-0.1,1c0,0.6,0.1,1.8,1,2.7
			c0.7,0.7,1.7,0.8,2.2,0.8c0.7,0,1.5-0.2,2-0.6c0.9-0.8,1.1-2,1.1-2.8C141.7,86.6,141.2,85.9,141,85.7"/>
		<path class="st1" d="M147.1,90.1c-1,0.1-1.8,0.1-2.1,0.1h-0.2c0-2.5,0-3.1,0.1-5.4l-0.1-0.1c-0.8,0-1,0-1.7,0l-0.1,0.1
			c0,0.7,0,1,0,2.1c0,1.5,0,3,0,4.4v0.1c1.8,0,2.2,0,3.9,0v-0.1L147.1,90.1L147.1,90.1z"/>
		<path class="st1" d="M152.5,90.1c-1.1,0.1-1.4,0.1-2.6,0.1v-1.6h2.2l0.1-0.1v-1.1v-0.1h-2.3v-1.5c1.1,0,1.3,0,2.4,0l0.1-0.1
			l0.1-1.1l0,0h-4.1l-0.1,0.1c0.1,0.9,0.1,1.3,0.1,3.8c0,1.2,0,1.8,0,2.7l0,0h4.1l0.1-0.1L152.5,90.1L152.5,90.1z"/>
		<path class="st1" d="M156.2,87.4c-0.8-0.3-1.2-0.5-1.2-0.9c0-0.3,0.3-0.7,0.9-0.7c0.7,0,1.1,0.3,1.5,0.5h0.1l0.1-1.2V85
			c-0.4-0.2-0.8-0.3-1.7-0.3c-1.8,0-2.4,1-2.4,2c0,1.1,0.9,1.6,1.4,1.8l0.3,0.1c0.6,0.3,1.1,0.5,1.1,1c0,0.4-0.3,0.8-1.1,0.8
			c-0.9,0-1.3-0.4-1.6-0.6h-0.1l-0.1,1.3l0.1,0.1c0.1,0,0.2,0.1,0.3,0.1c0.2,0.1,0.8,0.2,1.5,0.2c0.3,0,1,0,1.6-0.3
			c0.8-0.4,1.1-1.1,1.1-1.9c0-0.5-0.2-1.1-0.7-1.5c-0.3-0.2-0.5-0.3-0.7-0.4H156.2z"/>
	</g>
</g>
</svg>
