<?xml version="1.0" encoding="utf-8"?>
<!-- Generator: Adobe Illustrator 26.0.0, SVG Export Plug-In . SVG Version: 6.00 Build 0)  -->
<svg version="1.1" id="Layer_1" xmlns="http://www.w3.org/2000/svg" xmlns:xlink="http://www.w3.org/1999/xlink" x="0px" y="0px"
	 viewBox="0 0 140 56" style="enable-background:new 0 0 140 56;" xml:space="preserve">
<style type="text/css">
	.st0{fill:url(#path3366-copy-2_00000126304750920174853690000000571782776555526835_);}
	.st1{fill:url(#path3388-copy-2_00000064339414188012781510000012124009539345807278_);}
	.st2{fill:url(#path3410-copy-2_00000118392732923922884460000018272331329787169456_);}
	.st3{fill:url(#path3466-copy-2_00000161626391762607291540000010277775374770907539_);}
	.st4{fill:url(#path3490-copy-2_00000088845125151139109890000015394321721632882855_);}
	.st5{fill:url(#path3512-copy-2_00000171713031032095074920000013784938464183747261_);}
	.st6{fill:url(#path3534-copy-2_00000000219739470679091030000004840161516727231647_);}
	.st7{fill:url(#path3556-copy-2_00000010283354575873173100000006208625474581889936_);}
	.st8{fill:url(#path3578-copy-2_00000057831660014053438710000002368742387816414099_);}
	.st9{fill:url(#path3600-copy-2_00000077318082835591238160000018269668832312972206_);}
	.st10{fill:url(#path3622-copy-2_00000095299435377061439290000007718158379109115039_);}
	.st11{fill:url(#path3644-copy-2_00000065046539909536242170000006455991468117888445_);}
	.st12{fill:url(#path3666-copy-2_00000024001203277268632870000006057021784013968781_);}
	.st13{fill:url(#path3688-copy-2_00000101787607106214673280000005975852614640210081_);}
	.st14{fill:url(#path3710-copy-2_00000115480796640418693390000001343179457086392495_);}
	
		.st15{fill:url(#EnergyAmérica_00000070813069425933813560000008961733660857579677_);stroke:url(#EnergyAmérica_00000041977221281474577100000015938024932642233762_);stroke-width:5.000000e-02;}
	.st16{fill:url(#SVGID_1_);stroke:url(#SVGID_00000172437337734831126550000010341256386586001569_);stroke-width:5.000000e-02;}
</style>
<g id="Page-1_8_">
	<g id="Logo-Cox-Energy-América_8_">
		<g id="Group-4_8_">
			<g id="Group-3_8_" transform="translate(346.222772, 63.093365)">
				
					<linearGradient id="path3366-copy-2_00000166663807871985303880000007150113928010902701_" gradientUnits="userSpaceOnUse" x1="-627.17" y1="442.8756" x2="-627.17" y2="442.7509" gradientTransform="matrix(138.54 0 0 184.3477 86614.4688 -81672.7188)">
					<stop  offset="0" style="stop-color:#495660"/>
					<stop  offset="0.8749" style="stop-color:#748084"/>
					<stop  offset="1" style="stop-color:#748084"/>
				</linearGradient>
				<path id="path3366-copy-2_8_" style="fill:url(#path3366-copy-2_00000166663807871985303880000007150113928010902701_);" d="
					M-275.7-50.6c-1.9,0.9-3.6,2.2-5.1,3.8l0,0c-1.5,1.7-2.7,3.6-3.6,6l0,0c-0.9,2.3-1.4,4.9-1.4,7.8l0,0c0,2.1,0.3,4,0.9,5.6l0,0
					c0.6,1.6,1.4,3,2.5,4.1l0,0c1,1.1,2.3,2,3.8,2.5l0,0c1.5,0.6,3.1,0.9,4.9,0.9l0,0c2,0,4-0.4,6-1.3l0,0c1.1-0.5,2.2-1.2,3.1-1.9
					l0,0c-0.5-0.9-0.9-1.8-1.3-2.8l0,0c-0.6-1.7-1-3.6-1.1-5.6l0,0c-0.3,0.7-0.7,1.3-1.1,1.8l0,0c-0.8,1-1.6,1.9-2.5,2.4l0,0
					c-0.9,0.6-1.8,0.9-2.7,0.9l0,0c-1.4,0-2.6-0.6-3.4-1.8l0,0c-0.8-1.2-1.2-3-1.2-5.2l0,0c0-1.8,0.2-3.4,0.7-4.9l0,0
					c0.5-1.5,1.1-2.7,1.9-3.8l0,0c0.8-1,1.6-1.9,2.5-2.4l0,0c0.9-0.6,1.8-0.9,2.7-0.9l0,0c1.4,0,2.5,0.6,3.4,1.8l0,0
					c0.4,0.6,0.7,1.4,0.9,2.3l0,0c0.1-0.4,0.3-0.8,0.4-1.1l0,0c1-2.5,2.3-4.8,3.8-6.7l0,0c-0.9-0.9-2-1.5-3.2-2l0,0
					c-1.5-0.6-3.1-0.9-4.9-0.9l0,0C-271.8-51.9-273.8-51.5-275.7-50.6"/>
				
					<linearGradient id="path3388-copy-2_00000054236515779914495490000004147950496910545063_" gradientUnits="userSpaceOnUse" x1="-627.8434" y1="442.8756" x2="-627.8434" y2="442.7509" gradientTransform="matrix(160.8248 0 0 184.3477 100724.0391 -81672.7188)">
					<stop  offset="0" style="stop-color:#495660"/>
					<stop  offset="0.8749" style="stop-color:#748084"/>
					<stop  offset="1" style="stop-color:#748084"/>
				</linearGradient>
				<path id="path3388-copy-2_8_" style="fill:url(#path3388-copy-2_00000054236515779914495490000004147950496910545063_);" d="
					M-252.7-50.6c-1.9,0.9-3.6,2.2-5.1,3.8l0,0c-1.5,1.7-2.7,3.6-3.6,6l0,0c-0.9,2.3-1.4,4.9-1.4,7.8l0,0c0,2.1,0.3,4,0.9,5.6l0,0
					c0.6,1.6,1.4,3,2.5,4.1l0,0c1,1.1,2.3,2,3.8,2.5l0,0c1.5,0.6,3.1,0.9,4.9,0.9l0,0c2,0,4-0.4,6-1.3l0,0c1.9-0.9,3.6-2.2,5.1-3.8
					l0,0c1.5-1.7,2.7-3.6,3.6-6l0,0c0.9-2.3,1.4-4.9,1.4-7.8l0,0c0-2.1-0.3-4-0.9-5.6l0,0c-0.6-1.6-1.4-3-2.5-4.1l0,0
					c-1-1.1-2.3-2-3.8-2.6l0,0c-1.5-0.6-3.1-0.9-4.9-0.9l0,0C-248.8-51.9-250.8-51.5-252.7-50.6 M-253.7-28.2
					c-0.8-1.2-1.2-3-1.2-5.2l0,0c0-1.8,0.2-3.4,0.7-4.9l0,0c0.5-1.5,1.1-2.7,1.9-3.8l0,0c0.8-1,1.6-1.9,2.5-2.4l0,0
					c0.9-0.6,1.8-0.9,2.7-0.9l0,0c1.4,0,2.5,0.6,3.4,1.8l0,0c0.8,1.2,1.2,3,1.2,5.2l0,0c0,1.8-0.2,3.4-0.7,4.9l0,0
					c-0.5,1.5-1.1,2.7-1.9,3.8l0,0c-0.8,1-1.6,1.9-2.5,2.4l0,0c-0.9,0.6-1.8,0.9-2.7,0.9l0,0C-251.8-26.4-252.9-27-253.7-28.2"/>
				
					<linearGradient id="path3410-copy-2_00000178908371018881914270000010409526970567192240_" gradientUnits="userSpaceOnUse" x1="-628.4407" y1="442.9054" x2="-628.4407" y2="442.7773" gradientTransform="matrix(176.6782 0 0 180.9072 110809.0312 -80154.4141)">
					<stop  offset="0" style="stop-color:#495660"/>
					<stop  offset="0.8749" style="stop-color:#748084"/>
					<stop  offset="1" style="stop-color:#748084"/>
				</linearGradient>
				<path id="path3410-copy-2_8_" style="fill:url(#path3410-copy-2_00000178908371018881914270000010409526970567192240_);" d="
					M-231.4-51.5l5.2,15.2l-4.9,6.6l-7,9.2c0,0,6.7,2.1,10.4-3l0,0c2.1-2.9,3.9-5.2,4-5.4l0,0l2.9,8.4h8.4l-5.5-16.1l3.6-4.8l7-9.2
					c0,0-6.7-2.1-10.4,3.1l0,0c-1,1.3-1.9,2.5-2.6,3.4l0,0l0,0l-0.1,0l-2.5-7.5H-231.4L-231.4-51.5z"/>
			</g>
			
				<linearGradient id="path3466-copy-2_00000041982842062077026470000004735064254611531926_" gradientUnits="userSpaceOnUse" x1="-280.0651" y1="506.2614" x2="-279.9566" y2="506.3325" gradientTransform="matrix(302.5229 0 0 178.809 84727.9297 -90513.9766)">
				<stop  offset="0" style="stop-color:#008050"/>
				<stop  offset="1" style="stop-color:#DBE341"/>
			</linearGradient>
			<path id="path3466-copy-2_8_" style="fill:url(#path3466-copy-2_00000041982842062077026470000004735064254611531926_);" d="
				M24.9,0.3c-0.4,0-0.8,0.1-1.1,0.1l0,0c0.4,0.9,0.8,1.8,1.1,2.6l0,0c1.4,3.3,2.6,5.9,3.7,7.8l0,0c3.2-0.4,6.3-0.9,9.3-1.3l0,0V7.2
				c-0.7-1.9-1.4-3.8-2.1-5.7l0,0c-2.7-0.9-5.6-1.4-8.6-1.4l0,0C26.4,0.2,25.6,0.2,24.9,0.3 M15.4,2.9c-1.3,0.6-2.6,1.4-3.8,2.2l0,0
				c-0.1,0.1-0.2,0.2-0.4,0.2l0,0l0.4,1.2c0.6,2.1,1.3,4.2,2,6.4l0,0l1.8-0.3c3.3-0.4,6.4-0.9,9.4-1.3l0,0V5.8
				c-0.4-1.6-0.9-3.4-1.5-5.4l0,0C20.5,0.8,17.9,1.7,15.4,2.9 M37.8,4.3V2.3C37.4,2.1,37.2,2.1,37,2l0,0L37.8,4.3z M37.8,4.3
				l1.9,5.1l1.6-0.2V4.4c-1.3-0.8-2.7-1.6-3.6-2l0,0V4.3z M41.4,9.1l2-0.3V5.7c-0.6-0.5-1.3-0.9-2-1.4l0,0V9.1z M43.4,8.9l3.2-0.5
				c-0.4-0.5-1.6-1.6-3.2-2.6l0,0V8.9z M24.9,11.4l1.1-0.2c-0.2-1.5-0.6-3.3-1.1-5.4l0,0V11.4L24.9,11.4z M3.4,14.4l8.2-1.2v-1.3
				c-0.6-1.8-1.2-3.9-1.7-5.6l0,0C7.9,7.8,4.5,11.9,3.4,14.4 M37.8,9.6l0.8-0.1l-0.8-2.2V9.6z M43.4,9.9l-2,0.3l-1.2,0.2l1.2,3.2
				c0.7,1.7,1.3,3.4,2,5.2l0,0l0.4,1.1c2.4-0.1,5.4-0.5,9.1-1.1l0,0c-1.2-3.5-3-6.7-5.4-9.4l0,0L43.4,9.9L43.4,9.9z M37.8,10.7
				c-2.7,0.4-5.6,0.8-8.6,1.2l0,0c3.3,5.3,5.6,4.2,8.6-0.3l0,0c0.2-0.3,0.4-0.7,0.7-1l0,0L37.8,10.7z M37.8,14.9
				c-0.4,1.3-0.4,2.4,0,3.2l0,0c0.5,0.9,1.6,1.5,3.6,1.7l0,0v-3.2c-0.7-1.8-1.4-3.7-2.1-5.5l0,0C38.6,12.6,38.1,13.9,37.8,14.9
				 M11.6,13.2l0.4-0.1c-0.1-0.4-0.2-0.8-0.4-1.2l0,0V13.2z M24.9,12.6c-3,0.5-6.2,0.9-9.4,1.4l0,0l-0.6,0.1
				c0.2,0.1,0.4,0.2,0.6,0.3l0,0c4.8,2.3,7.8,3.4,9.4,2.5l0,0c1-0.6,1.4-2,1.2-4.5l0,0L24.9,12.6z M11.6,14.6l-9,1.4
				C1,19.4,0.1,23.2,0.1,27.2l0,0c0,1.4,0.1,2.8,0.3,4.1l0,0C5,30,8.7,28.9,11.6,27.9l0,0c1.4-0.5,2.7-1,3.8-1.4l0,0v-2.1
				c-1-3.4-2-6.6-3-9.9l0,0L11.6,14.6L11.6,14.6z M15.4,18.9v-3.2c-0.4-0.2-0.8-0.5-1.2-0.7l0,0C14.6,16.3,15,17.6,15.4,18.9
				 M15.4,18.9c0.7,2.2,1.4,4.4,2.1,6.7l0,0c6.6-3.1,4.9-5.6-2.1-9.9l0,0V18.9L15.4,18.9z M41.4,19.8c0.4,0,0.8,0.1,1.2,0.1l0,0
				c-0.4-1.1-0.8-2.2-1.2-3.2l0,0V19.8z M15.4,26.5c0.2-0.1,0.4-0.2,0.6-0.2l0,0l-0.6-1.9V26.5z"/>
			
				<linearGradient id="path3490-copy-2_00000176033956966851268830000002656461377479236016_" gradientUnits="userSpaceOnUse" x1="-280.0057" y1="505.6528" x2="-280.0057" y2="505.4785" gradientTransform="matrix(307.7948 0 0 201.5206 86211.6406 -101845.0078)">
				<stop  offset="0" style="stop-color:#454345"/>
				<stop  offset="0.34" style="stop-color:#454345"/>
				<stop  offset="0.91" style="stop-color:#808085"/>
				<stop  offset="1" style="stop-color:#808085"/>
			</linearGradient>
			<path id="path3490-copy-2_8_" style="fill:url(#path3490-copy-2_00000176033956966851268830000002656461377479236016_);" d="
				M51.4,19.7c-0.6,0.2-1.1,0.4-1.6,0.5l0,0c-1.5,0.5-2.8,1-4,1.5l0,0c-0.4,0.2-0.8,0.4-1.1,0.5l0,0l1.1,2.8
				c0.9,2.4,1.8,4.8,2.8,7.3l0,0l1.2-0.4l1.6-0.6l2.6-0.9c0.1-1.1,0.2-2.1,0.2-3.2l0,0c0-2.8-0.4-5.5-1.2-8.1l0,0
				C52.4,19.3,51.9,19.5,51.4,19.7 M45.7,31.1v-2.9c-0.7-1.8-1.4-3.7-2.1-5.5l0,0C38.9,25.3,40.3,27.6,45.7,31.1 M45.7,31.1
				c0.4,0.3,0.9,0.6,1.4,0.9l0,0c-0.5-1.3-1-2.5-1.4-3.8l0,0V31.1z M18.5,29l1.1,3.6c0.8,2.6,1.6,5.2,2.4,7.9l0,0
				c0.6-1.2,1.1-2.4,1.6-3.4l0,0v-7.4c-0.8-0.5-2.2-0.8-4-0.8l0,0H18.5z M15.1,29.3c-3.5,0.4-8.2,1.3-14.6,2.6l0,0
				c1,5.6,3.7,10.6,7.5,14.5l0,0c2.4-0.9,4.8-1.7,7.1-2.5l0,0c1.5-0.6,3-1.1,4.5-1.6l0,0v-4c-0.9-3.1-1.8-6.2-2.8-9.2l0,0
				C16.3,29.2,15.7,29.3,15.1,29.3 M23.6,37.1c1.6-3.8,1.8-6.2,0-7.4l0,0V37.1L23.6,37.1z M39.2,30.6c-1.5,0.4-2,2-1.6,5.4l0,0
				l1.6-0.6c2.2-0.8,4.4-1.5,6.5-2.2l0,0v-0.9c-2.5-1.2-4.4-1.9-5.7-1.9l0,0C39.7,30.5,39.5,30.5,39.2,30.6 M51.4,32.7l-1.6,0.6
				L49,33.5l0.8,2l1.5,4c0.1-0.1,0.1-0.2,0.2-0.2l0,0c1.3-2.2,2.2-4.8,2.4-7.5l0,0L51.4,32.7z M45.7,33.2l1.1-0.4
				c-0.4-0.2-0.7-0.4-1.1-0.5l0,0V33.2z M23.6,40.3c-0.1,0.2-0.3,0.4-0.4,0.7l0,0l0.4-0.2c3.8-1.3,7.4-2.6,10.9-3.8l0,0
				c-1.5-2.5-2.9-3.6-4.2-3.6l0,0C28.3,33.5,26.3,35.9,23.6,40.3 M45.7,34.7c-2.1,0.7-4.2,1.5-6.5,2.3l0,0l-1.4,0.5
				c0.3,1.7,0.8,3.8,1.4,6.4l0,0c0.5,1.9,1.1,4.1,1.8,6.5l0,0c1.7-1,3.2-2.2,4.6-3.6l0,0c1.5-1.4,2.8-3,4-4.8l0,0v-3.3
				c-0.6-1.6-1.2-3.3-1.8-4.9l0,0L45.7,34.7L45.7,34.7z M19.6,42.3l1.1-0.4l-1.1-3.6V42.3z M23.6,42.5l-0.8,0.3l0.8,2.6
				c0.9,2.9,1.8,5.8,2.7,8.7l0,0c0.3,0,0.6,0,0.8,0l0,0c4.4,0,8.5-1,12.1-2.9l0,0v-4.3c-1.5-3.7-2.8-6.6-4-8.7l0,0
				C31.6,39.7,27.7,41.1,23.6,42.5 M49.7,42.1c0.2-0.4,0.5-0.8,0.8-1.2l0,0l-0.8-2V42.1z M19.6,44.1l-4.5,1.6l-5.6,2
				c1,1.2,3.1,2.7,5.6,3.9l0,0c1.4,0.7,3,1.3,4.5,1.8l0,0c1.4,0.4,2.8,0.7,4,0.8l0,0v-2.7c-0.8-2.7-1.6-5.4-2.3-7.8l0,0L19.6,44.1
				L19.6,44.1z M39.2,51.4c0.5-0.2,1-0.5,1.4-0.8l0,0c-0.5-1.3-1-2.4-1.4-3.5l0,0V51.4z M23.6,54.1h0.8c-0.3-0.9-0.6-1.8-0.8-2.7
				l0,0V54.1z"/>
			
				<linearGradient id="path3512-copy-2_00000135649406095781791870000002497400822834832260_" gradientUnits="userSpaceOnUse" x1="-278.2595" y1="510.6333" x2="-278.2595" y2="509.9568" gradientTransform="matrix(64.7367 0 0 43.1457 18042.4473 -21989.0293)">
				<stop  offset="0" style="stop-color:#495660"/>
				<stop  offset="0.8749" style="stop-color:#748084"/>
				<stop  offset="1" style="stop-color:#748084"/>
			</linearGradient>
			<path id="path3512-copy-2_8_" style="fill:url(#path3512-copy-2_00000135649406095781791870000002497400822834832260_);" d="
				M23.6,40.3c-0.1,0.2-0.3,0.4-0.4,0.7l0,0l0.4-0.2c3.8-1.3,7.4-2.6,10.9-3.8l0,0c-1.5-2.5-2.9-3.6-4.2-3.6l0,0
				C28.3,33.5,26.3,35.9,23.6,40.3"/>
			
				<linearGradient id="path3534-copy-2_00000138573488887325353370000016052090271940191125_" gradientUnits="userSpaceOnUse" x1="-275.6072" y1="508.6015" x2="-275.6072" y2="508.1582" gradientTransform="matrix(36.5527 0 0 66.3982 10095.918 -33727.5781)">
				<stop  offset="0" style="stop-color:#495660"/>
				<stop  offset="0.8749" style="stop-color:#748084"/>
				<stop  offset="1" style="stop-color:#748084"/>
			</linearGradient>
			<path id="path3534-copy-2_8_" style="fill:url(#path3534-copy-2_00000138573488887325353370000016052090271940191125_);" d="
				M18.5,28.9l1.1,3.6c0.8,2.6,1.6,5.3,2.4,8l0,0c0.6-1.2,1.1-2.4,1.6-3.4l0,0c1.6-3.8,1.8-6.2,0-7.4l0,0c-0.8-0.5-2.2-0.8-4-0.8
				l0,0H18.5z"/>
			
				<linearGradient id="path3556-copy-2_00000139988218076769165460000016489666162694737037_" gradientUnits="userSpaceOnUse" x1="-279.5012" y1="506.8401" x2="-279.5012" y2="506.5309" gradientTransform="matrix(72.53 0 0 94.5685 20316.3828 -47888.457)">
				<stop  offset="0" style="stop-color:#495660"/>
				<stop  offset="0.8749" style="stop-color:#748084"/>
				<stop  offset="1" style="stop-color:#748084"/>
			</linearGradient>
			<path id="path3556-copy-2_8_" style="fill:url(#path3556-copy-2_00000139988218076769165460000016489666162694737037_);" d="
				M45.7,34.7c-2.1,0.7-4.2,1.5-6.5,2.3l0,0l-1.4,0.5c0.3,1.7,0.8,3.8,1.4,6.4l0,0c0.5,1.9,1.1,4.1,1.8,6.5l0,0
				c1.7-1,3.2-2.2,4.6-3.6l0,0c1.5-1.4,2.8-3,4-4.8l0,0c0.2-0.4,0.5-0.8,0.8-1.2l0,0l-0.8-2c-0.6-1.6-1.2-3.3-1.8-4.9l0,0L45.7,34.7
				L45.7,34.7z"/>
			
				<linearGradient id="path3578-copy-2_00000130606454245692700880000004026814832006543753_" gradientUnits="userSpaceOnUse" x1="-279.1084" y1="510.6771" x2="-279.1084" y2="510.0177" gradientTransform="matrix(27.5421 0 0 44.2893 7738.5962 -22574.9512)">
				<stop  offset="0" style="stop-color:#495660"/>
				<stop  offset="0.8749" style="stop-color:#748084"/>
				<stop  offset="1" style="stop-color:#748084"/>
			</linearGradient>
			<path id="path3578-copy-2_8_" style="fill:url(#path3578-copy-2_00000130606454245692700880000004026814832006543753_);" d="
				M51.4,32.7l-1.6,0.6L49,33.5l0.8,2l1.5,4c0.1-0.1,0.1-0.2,0.2-0.2l0,0c1.3-2.2,2.2-4.8,2.4-7.5l0,0L51.4,32.7z"/>
			
				<linearGradient id="path3600-copy-2_00000173140750532082793430000004773222237854026629_" gradientUnits="userSpaceOnUse" x1="-279.6283" y1="508.7544" x2="-279.6283" y2="508.3675" gradientTransform="matrix(54.6391 0 0 75.4964 15328.0479 -38366.5234)">
				<stop  offset="0" style="stop-color:#495660"/>
				<stop  offset="0.8749" style="stop-color:#748084"/>
				<stop  offset="1" style="stop-color:#748084"/>
			</linearGradient>
			<path id="path3600-copy-2_8_" style="fill:url(#path3600-copy-2_00000173140750532082793430000004773222237854026629_);" d="
				M51.4,19.7c-0.6,0.2-1.1,0.4-1.6,0.5l0,0c-1.5,0.5-2.8,1-4,1.5l0,0c-0.4,0.2-0.8,0.4-1.1,0.5l0,0l1.1,2.8
				c0.9,2.4,1.8,4.8,2.8,7.3l0,0l1.2-0.4l1.6-0.6l2.6-0.9c0.1-1.1,0.2-2.1,0.2-3.2l0,0c0-2.8-0.4-5.5-1.2-8.1l0,0
				C52.4,19.3,51.9,19.5,51.4,19.7"/>
			
				<linearGradient id="path3622-copy-2_00000169558086430544271330000005983144509668401069_" gradientUnits="userSpaceOnUse" x1="-279.2202" y1="506.6764" x2="-279.2202" y2="506.3557" gradientTransform="matrix(102.5934 0 0 91.1181 28677.9023 -46124.7969)">
				<stop  offset="0" style="stop-color:#495660"/>
				<stop  offset="0.8749" style="stop-color:#748084"/>
				<stop  offset="1" style="stop-color:#748084"/>
			</linearGradient>
			<path id="path3622-copy-2_8_" style="fill:url(#path3622-copy-2_00000169558086430544271330000005983144509668401069_);" d="
				M23.6,42.5l-0.8,0.3l0.8,2.6c0.9,2.9,1.8,5.8,2.7,8.7l0,0c0.3,0,0.6,0,0.8,0l0,0c4.4,0,8.5-1,12.1-2.9l0,0c0.5-0.2,1-0.5,1.4-0.8
				l0,0c-0.5-1.3-1-2.4-1.4-3.5l0,0c-1.5-3.7-2.8-6.6-4-8.7l0,0C31.6,39.7,27.7,41.1,23.6,42.5"/>
			
				<linearGradient id="path3644-copy-2_00000070076722522986257870000000995123925184766336_" gradientUnits="userSpaceOnUse" x1="-278.4978" y1="510.4803" x2="-278.4978" y2="509.9312" gradientTransform="matrix(36.6395 0 0 53.2626 10247.9893 -27146.9355)">
				<stop  offset="0" style="stop-color:#495660"/>
				<stop  offset="0.8749" style="stop-color:#748084"/>
				<stop  offset="1" style="stop-color:#748084"/>
			</linearGradient>
			<path id="path3644-copy-2_8_" style="fill:url(#path3644-copy-2_00000070076722522986257870000000995123925184766336_);" d="
				M45.7,31.1c0.4,0.3,0.9,0.6,1.4,0.9l0,0c-0.5-1.3-1-2.5-1.4-3.8l0,0c-0.7-1.8-1.4-3.7-2.1-5.5l0,0C38.9,25.3,40.3,27.6,45.7,31.1
				"/>
			
				<linearGradient id="path3666-copy-2_00000102546410053190032830000012007510869627664811_" gradientUnits="userSpaceOnUse" x1="-278.5038" y1="506.9852" x2="-278.5038" y2="506.689" gradientTransform="matrix(115.9085 0 0 98.6956 32291.5859 -49994.5859)">
				<stop  offset="0" style="stop-color:#495660"/>
				<stop  offset="0.8749" style="stop-color:#748084"/>
				<stop  offset="1" style="stop-color:#748084"/>
			</linearGradient>
			<path id="path3666-copy-2_8_" style="fill:url(#path3666-copy-2_00000102546410053190032830000012007510869627664811_);" d="
				M15.1,29.3c-3.5,0.4-8.2,1.3-14.6,2.6l0,0c1,5.6,3.7,10.6,7.5,14.5l0,0c2.4-0.9,4.8-1.7,7.1-2.5l0,0c1.5-0.6,3-1.1,4.5-1.6l0,0
				l1.1-0.4l-1.1-3.6c-0.9-3.1-1.8-6.2-2.8-9.2l0,0C16.3,29.2,15.7,29.3,15.1,29.3"/>
			
				<linearGradient id="path3688-copy-2_00000128473263858386819040000010154920074811548320_" gradientUnits="userSpaceOnUse" x1="-278.9626" y1="513.6689" x2="-278.9626" y2="512.7482" gradientTransform="matrix(53.3061 0 0 31.7431 14912.5752 -16262.8604)">
				<stop  offset="0" style="stop-color:#495660"/>
				<stop  offset="0.8749" style="stop-color:#748084"/>
				<stop  offset="1" style="stop-color:#748084"/>
			</linearGradient>
			<path id="path3688-copy-2_8_" style="fill:url(#path3688-copy-2_00000128473263858386819040000010154920074811548320_);" d="
				M39.2,30.6c-1.5,0.4-2,2-1.6,5.4l0,0l1.6-0.6c2.2-0.8,4.4-1.5,6.5-2.2l0,0l1.1-0.4c-0.4-0.2-0.7-0.4-1.1-0.5l0,0
				c-2.5-1.2-4.4-1.9-5.7-1.9l0,0C39.7,30.5,39.5,30.5,39.2,30.6"/>
			
				<linearGradient id="path3710-copy-2_00000087402787122065795780000013908851185389717920_" gradientUnits="userSpaceOnUse" x1="-278.1548" y1="507.6257" x2="-278.1548" y2="507.145" gradientTransform="matrix(85.845 0 0 61.5374 23895.1719 -31195.3516)">
				<stop  offset="0" style="stop-color:#495660"/>
				<stop  offset="0.8749" style="stop-color:#748084"/>
				<stop  offset="1" style="stop-color:#748084"/>
			</linearGradient>
			<path id="path3710-copy-2_8_" style="fill:url(#path3710-copy-2_00000087402787122065795780000013908851185389717920_);" d="
				M19.6,44.1l-4.5,1.6l-5.6,2c1,1.2,3.1,2.7,5.6,3.9l0,0c1.4,0.7,3,1.4,4.5,1.8l0,0c1.4,0.4,2.8,0.8,4,0.8l0,0h0.8
				c-0.3-1-0.6-1.9-0.8-2.8l0,0c-0.8-2.7-1.6-5.5-2.3-7.9l0,0L19.6,44.1z"/>
		</g>
	</g>
	<g>
		
			<linearGradient id="EnergyAmérica_00000115503471739258593370000007470381211112944032_" gradientUnits="userSpaceOnUse" x1="140.5496" y1="50.1626" x2="61.514" y2="50.1626">
			<stop  offset="0" style="stop-color:#DBE241"/>
			<stop  offset="0.221" style="stop-color:#83BC47"/>
			<stop  offset="1" style="stop-color:#40964C"/>
		</linearGradient>
		
			<linearGradient id="EnergyAmérica_00000116936861796051122440000015699802126641649036_" gradientUnits="userSpaceOnUse" x1="100.6751" y1="50.1626" x2="135.1612" y2="50.1626">
			<stop  offset="0" style="stop-color:#DBE241"/>
			<stop  offset="1" style="stop-color:#69A94A"/>
		</linearGradient>
		
			<path id="EnergyAmérica_8_" style="fill:url(#EnergyAmérica_00000115503471739258593370000007470381211112944032_);stroke:url(#EnergyAmérica_00000116936861796051122440000015699802126641649036_);stroke-width:5.000000e-02;" d="
			M106.2,45.4L106.2,45.4L106.2,45.4c0,0.1,0,0.2,0,0.2l0,0.1l0,0c0,0.1,0,0.1-0.1,0.1c0,0-0.1,0.1-0.1,0.1c0,0-0.1,0-0.1,0H103
			l-0.5,2.4h2.5c0,0,0.1,0,0.1,0c0,0,0,0.1,0,0.1l0,0.1l0,0l0,0.2l0,0c0,0,0,0.1,0,0.1s0,0.1-0.1,0.1c0,0,0,0.1-0.1,0.1
			c0,0-0.1,0-0.1,0h-2.5l-0.5,2.8h3c0,0,0.1,0,0.1,0c0,0,0,0.1,0,0.1l0,0.1l0,0c0,0,0,0.1,0,0.1l0,0.1l0,0c0,0,0,0.1-0.1,0.1
			c0,0-0.1,0.1-0.1,0.1c0,0-0.1,0-0.1,0H101c0,0-0.1,0-0.1,0s-0.1,0-0.1-0.1c0,0,0-0.1-0.1-0.1c0,0,0-0.1,0-0.1l1.4-6.9
			c0-0.2,0.1-0.3,0.2-0.3c0.1-0.1,0.2-0.1,0.3-0.1h3.6C106.2,45.2,106.2,45.3,106.2,45.4z M111.7,48.6c0,0.1,0,0.3,0,0.4
			c0,0.1,0,0.3-0.1,0.4l-0.7,3.3c0,0,0,0.1,0,0.1c0,0,0,0-0.1,0.1c0,0-0.1,0-0.2,0c-0.1,0-0.1,0-0.2,0c-0.1,0-0.2,0-0.2,0
			c-0.1,0-0.1,0-0.1,0c0,0-0.1,0-0.1-0.1c0,0,0,0,0-0.1l0.6-3.3c0-0.1,0-0.2,0.1-0.4l0-0.2c0,0,0-0.1,0-0.1c0-0.2-0.1-0.4-0.2-0.6
			c-0.1-0.1-0.3-0.2-0.5-0.2c-0.2,0-0.4,0.1-0.6,0.2c-0.2,0.1-0.4,0.3-0.6,0.5c-0.2,0.2-0.3,0.5-0.5,0.8c-0.1,0.3-0.3,0.6-0.3,0.9
			l-0.5,2.4c0,0,0,0.1,0,0.1c0,0,0,0-0.1,0.1c0,0-0.1,0-0.2,0c-0.1,0-0.1,0-0.2,0c-0.1,0-0.2,0-0.2,0c-0.1,0-0.1,0-0.1,0
			c0,0-0.1,0-0.1-0.1c0,0,0,0,0-0.1l1.1-5.4c0,0,0-0.1,0-0.1c0,0,0,0,0.1-0.1c0,0,0.1,0,0.1,0l0.1,0c0,0,0.1,0,0.1,0l0.1,0
			c0.1,0,0.1,0,0.2,0s0.1,0,0.1,0c0,0,0,0,0.1,0.1c0,0,0,0,0,0.1l-0.2,1c0.1-0.1,0.2-0.3,0.3-0.4c0.1-0.2,0.3-0.3,0.5-0.4
			c0.2-0.1,0.4-0.2,0.6-0.3c0.2-0.1,0.4-0.1,0.7-0.1c0.3,0,0.5,0,0.7,0.1c0.2,0.1,0.3,0.2,0.4,0.3c0.1,0.1,0.2,0.3,0.2,0.5
			C111.7,48.2,111.7,48.4,111.7,48.6z M118.1,48.5c0,0.3-0.1,0.5-0.2,0.7c-0.1,0.2-0.3,0.4-0.6,0.6c-0.3,0.2-0.6,0.3-1,0.4
			c-0.4,0.1-0.9,0.1-1.5,0.1h-0.6c0,0.1,0,0.3-0.1,0.4s0,0.2,0,0.3c0,0.4,0.1,0.7,0.3,0.9c0.2,0.2,0.5,0.3,0.9,0.3
			c0.2,0,0.5,0,0.7-0.1c0.2,0,0.4-0.1,0.5-0.1c0.1,0,0.2-0.1,0.3-0.1l0.2-0.1c0,0,0.1,0,0.1,0c0,0,0.1,0,0.1,0c0,0,0,0.1,0,0.1
			c0,0,0,0.1,0,0.1s0,0.1,0,0.2c0,0.1,0,0.1-0.1,0.2c0,0.1-0.1,0.1-0.1,0.1c0,0-0.1,0.1-0.2,0.1c-0.1,0-0.3,0.1-0.4,0.1
			c-0.2,0-0.3,0.1-0.5,0.1c-0.2,0-0.4,0-0.6,0c-0.3,0-0.6,0-0.9-0.1c-0.3-0.1-0.5-0.2-0.6-0.4c-0.2-0.2-0.3-0.4-0.4-0.6
			c-0.1-0.2-0.1-0.5-0.1-0.9c0-0.3,0-0.5,0.1-0.8c0-0.3,0.1-0.6,0.2-0.9c0.1-0.3,0.2-0.6,0.4-0.8s0.4-0.5,0.6-0.7
			c0.2-0.2,0.5-0.4,0.8-0.5c0.3-0.1,0.6-0.2,1-0.2c0.3,0,0.6,0,0.8,0.1c0.2,0.1,0.4,0.2,0.6,0.3c0.1,0.1,0.3,0.3,0.3,0.4
			S118.1,48.4,118.1,48.5z M117.1,48.6c0-0.2-0.1-0.4-0.2-0.5c-0.2-0.1-0.4-0.2-0.7-0.2c-0.3,0-0.5,0-0.7,0.1
			c-0.2,0.1-0.4,0.2-0.5,0.4c-0.1,0.2-0.3,0.3-0.4,0.5c-0.1,0.2-0.2,0.4-0.3,0.6h0.6c0.4,0,0.7,0,1-0.1c0.3-0.1,0.5-0.1,0.7-0.2
			c0.2-0.1,0.3-0.2,0.3-0.3C117.1,48.9,117.1,48.7,117.1,48.6z M123.2,47.4L123.2,47.4L123.2,47.4l0,0.2l0,0c0,0.1,0,0.1,0,0.2
			c0,0.1,0,0.1-0.1,0.2s0,0.1-0.1,0.1c0,0-0.1,0.1-0.1,0.1c0,0-0.1,0-0.1,0c0,0-0.1,0-0.1-0.1c0,0-0.1,0-0.2-0.1c-0.1,0-0.1,0-0.2,0
			c-0.1,0-0.3,0.1-0.5,0.2c-0.2,0.1-0.3,0.3-0.5,0.5c-0.2,0.2-0.3,0.5-0.5,0.7c-0.1,0.3-0.2,0.6-0.3,0.9l-0.5,2.4c0,0,0,0.1,0,0.1
			c0,0,0,0-0.1,0.1c0,0-0.1,0-0.2,0l-0.1,0c0,0-0.1,0-0.1,0c-0.1,0-0.2,0-0.2,0c-0.1,0-0.1,0-0.1,0c0,0-0.1,0-0.1-0.1c0,0,0,0,0-0.1
			l1-5.4c0,0,0-0.1,0-0.1c0,0,0,0,0.1-0.1c0,0,0.1,0,0.1,0l0.1,0c0,0,0.1,0,0.1,0l0.1,0c0.1,0,0.1,0,0.2,0c0.1,0,0.1,0,0.1,0
			c0,0,0,0,0.1,0.1c0,0,0,0,0,0.1l-0.2,1c0.1-0.2,0.2-0.3,0.3-0.5c0.1-0.2,0.3-0.3,0.4-0.4c0.1-0.1,0.3-0.2,0.5-0.3
			c0.2-0.1,0.3-0.1,0.5-0.1c0.1,0,0.1,0,0.2,0c0.1,0,0.1,0,0.2,0c0.1,0,0.1,0,0.2,0c0,0,0.1,0,0.1,0.1
			C123.2,47.3,123.2,47.4,123.2,47.4z M127.9,53.2c-0.1,0.3-0.2,0.6-0.3,0.8c-0.1,0.2-0.3,0.4-0.5,0.6c-0.2,0.2-0.5,0.3-0.8,0.4
			c-0.3,0.1-0.6,0.1-1,0.1c-0.3,0-0.6,0-0.9-0.1c-0.3-0.1-0.5-0.1-0.6-0.2c-0.1,0-0.1-0.1-0.1-0.1c0,0,0-0.1,0-0.1l0-0.1
			c0,0,0-0.1,0-0.1c0,0,0-0.1,0-0.1l0-0.1l0,0c0,0,0-0.1,0.1-0.1c0,0,0-0.1,0.1-0.1c0,0,0.1,0,0.1,0c0,0,0.1,0,0.1,0l0.1,0
			c0.1,0,0.2,0.1,0.3,0.1c0.1,0.1,0.3,0.1,0.4,0.1c0.2,0,0.4,0.1,0.6,0.1c0.2,0,0.4,0,0.6-0.1s0.3-0.1,0.4-0.2s0.2-0.2,0.3-0.3
			c0.1-0.1,0.1-0.3,0.2-0.5c0.1-0.4,0.1-0.7,0.2-0.9l0.1-0.4c0-0.1,0-0.1,0.1-0.2c-0.1,0.1-0.2,0.3-0.3,0.4s-0.3,0.3-0.5,0.4
			c-0.2,0.1-0.4,0.2-0.6,0.3c-0.2,0.1-0.4,0.1-0.7,0.1c-0.3,0-0.5,0-0.7-0.1c-0.2-0.1-0.4-0.2-0.5-0.4c-0.1-0.2-0.2-0.4-0.3-0.6
			c-0.1-0.2-0.1-0.5-0.1-0.8c0-0.2,0-0.5,0.1-0.8c0-0.3,0.1-0.6,0.2-0.9s0.2-0.6,0.4-0.9c0.1-0.3,0.3-0.5,0.5-0.7
			c0.2-0.2,0.4-0.4,0.7-0.5c0.3-0.1,0.6-0.2,0.9-0.2c0.3,0,0.6,0.1,0.9,0.2c0.2,0.1,0.5,0.3,0.7,0.6l0.1-0.5c0-0.1,0.1-0.1,0.1-0.1
			c0.1,0,0.2,0,0.3,0c0.1,0,0.1,0,0.2,0c0.1,0,0.1,0,0.1,0c0,0,0.1,0,0.1,0.1c0,0,0,0,0,0.1L127.9,53.2z M127.8,48.8
			c-0.2-0.3-0.4-0.5-0.6-0.6c-0.2-0.1-0.4-0.2-0.7-0.2c-0.2,0-0.4,0-0.6,0.1c-0.2,0.1-0.3,0.2-0.4,0.4c-0.1,0.2-0.2,0.4-0.3,0.6
			c-0.1,0.2-0.2,0.4-0.2,0.7s-0.1,0.4-0.1,0.7c0,0.2,0,0.4,0,0.6c0,0.2,0,0.3,0,0.5c0,0.1,0.1,0.3,0.1,0.4c0.1,0.1,0.1,0.2,0.2,0.2
			c0.1,0.1,0.2,0.1,0.4,0.1c0.2,0,0.4-0.1,0.6-0.2c0.2-0.1,0.4-0.3,0.6-0.5s0.4-0.5,0.5-0.8c0.1-0.3,0.2-0.6,0.3-1L127.8,48.8z
			 M135.1,47.4c0,0,0,0.1,0,0.1c0,0,0,0.1,0,0.1c-0.1,0.4-0.3,0.7-0.4,1.1s-0.3,0.8-0.5,1.2s-0.4,0.9-0.7,1.3
			c-0.2,0.4-0.5,0.8-0.7,1.2l-1.7,2.4c0,0-0.1,0.1-0.1,0.1c0,0-0.1,0-0.1,0.1s-0.1,0-0.2,0c-0.1,0-0.2,0-0.3,0c-0.1,0-0.2,0-0.3,0
			c-0.1,0-0.1,0-0.2-0.1c0,0-0.1-0.1,0-0.1s0-0.1,0.1-0.1l1.4-1.9l-0.9-5.3l0,0l0-0.1c0,0,0-0.1,0-0.1c0,0,0-0.1,0-0.1
			s0-0.1,0.1-0.1c0,0,0.1,0,0.2,0l0.1,0l0,0l0.1,0c0.1,0,0.2,0,0.2,0c0.1,0,0.1,0,0.1,0c0,0,0.1,0,0.1,0.1l0,0l0,0l0.7,4.4h0
			c0.2-0.3,0.5-0.7,0.7-1.1c0.2-0.4,0.4-0.7,0.5-1.1c0.2-0.4,0.3-0.7,0.5-1.1c0.1-0.4,0.3-0.8,0.4-1.1c0,0,0-0.1,0-0.1
			c0,0,0.1,0,0.1-0.1c0,0,0.1,0,0.2,0l0.2,0c0,0,0.1,0,0.1,0c0.2,0,0.3,0,0.3,0C135.1,47.3,135.1,47.3,135.1,47.4z"/>
		<linearGradient id="SVGID_1_" gradientUnits="userSpaceOnUse" x1="140.7928" y1="50.1628" x2="71.7086" y2="50.1628">
			<stop  offset="0" style="stop-color:#DBE241"/>
			<stop  offset="0.221" style="stop-color:#83BC47"/>
			<stop  offset="1" style="stop-color:#40964C"/>
		</linearGradient>
		
			<linearGradient id="SVGID_00000012439699169546266420000011388606210983076781_" gradientUnits="userSpaceOnUse" x1="100.6094" y1="50.1628" x2="135.2267" y2="50.1628">
			<stop  offset="0" style="stop-color:#DBE241"/>
			<stop  offset="1" style="stop-color:#69A94A"/>
		</linearGradient>
		
			<path style="fill:url(#SVGID_1_);stroke:url(#SVGID_00000012439699169546266420000011388606210983076781_);stroke-width:5.000000e-02;" d="
			M125.3,55.2c-0.3,0-0.6,0-0.9-0.1c-0.3-0.1-0.5-0.1-0.7-0.2c-0.1,0-0.1-0.1-0.1-0.1c0,0,0-0.1,0-0.1l0-0.1c0,0,0-0.1,0-0.1
			c0,0,0-0.1,0-0.1l0-0.1c0-0.1,0-0.1,0.1-0.1c0,0,0.1-0.1,0.1-0.1c0.1-0.1,0.2-0.1,0.3,0l0.1,0c0.1,0,0.2,0.1,0.3,0.1
			c0.1,0,0.3,0.1,0.4,0.1c0.2,0,0.4,0.1,0.6,0.1c0.2,0,0.4,0,0.6-0.1c0.2,0,0.3-0.1,0.4-0.2c0.1-0.1,0.2-0.2,0.3-0.3
			c0.1-0.1,0.1-0.3,0.2-0.5c0.1-0.4,0.1-0.7,0.2-0.9l0-0.1c0,0,0,0-0.1,0.1c-0.1,0.2-0.3,0.3-0.5,0.4c-0.2,0.1-0.4,0.2-0.6,0.3
			c-0.2,0.1-0.4,0.1-0.7,0.1c-0.3,0-0.6-0.1-0.8-0.2c-0.2-0.1-0.4-0.2-0.5-0.4c-0.1-0.2-0.2-0.4-0.3-0.6c-0.1-0.2-0.1-0.5-0.1-0.8
			c0-0.2,0-0.5,0.1-0.8c0-0.3,0.1-0.6,0.2-0.9c0.1-0.3,0.2-0.6,0.4-0.9c0.1-0.3,0.3-0.5,0.5-0.8c0.2-0.2,0.5-0.4,0.7-0.5
			c0.3-0.1,0.6-0.2,0.9-0.2c0.4,0,0.7,0.1,0.9,0.2c0.2,0.1,0.4,0.3,0.6,0.5l0.1-0.4c0-0.1,0.1-0.1,0.2-0.2c0.1,0,0.2,0,0.4,0
			c0.1,0,0.1,0,0.2,0c0.1,0,0.1,0,0.1,0c0.1,0,0.1,0.1,0.1,0.1c0,0,0,0.1,0,0.1l-1.1,5.8c-0.1,0.3-0.2,0.6-0.3,0.9
			c-0.1,0.2-0.3,0.5-0.5,0.6c-0.2,0.2-0.5,0.3-0.8,0.4C126,55.1,125.7,55.2,125.3,55.2z M123.9,53.9C123.9,53.9,123.9,54,123.9,53.9
			c-0.1,0-0.1,0.1-0.1,0.1c0,0,0,0.1,0,0.1l0,0.1c0,0,0,0.1,0,0.1c0,0,0,0.1,0,0.1l0,0.1c0,0,0,0,0,0.1c0,0,0,0.1,0.1,0.1
			c0.1,0.1,0.4,0.2,0.6,0.2c0.3,0.1,0.5,0.1,0.9,0.1c0.4,0,0.7,0,1-0.1c0.3-0.1,0.5-0.2,0.7-0.3c0.2-0.1,0.4-0.3,0.5-0.6
			c0.1-0.2,0.2-0.5,0.3-0.8h0l1.1-5.8c0,0,0,0,0,0c0,0,0,0,0,0c0,0,0,0-0.1,0c-0.1,0-0.1,0-0.2,0c-0.1,0-0.3,0-0.3,0
			c-0.1,0-0.1,0.1-0.1,0.1l-0.1,0.7L128,48c-0.2-0.2-0.4-0.4-0.6-0.6c-0.2-0.1-0.5-0.2-0.9-0.2c-0.3,0-0.6,0.1-0.9,0.2
			c-0.3,0.1-0.5,0.3-0.7,0.5c-0.2,0.2-0.4,0.5-0.5,0.7c-0.1,0.3-0.3,0.6-0.4,0.8c-0.1,0.3-0.2,0.6-0.2,0.9c0,0.3-0.1,0.5-0.1,0.8
			c0,0.3,0,0.5,0.1,0.7c0.1,0.2,0.1,0.4,0.3,0.6c0.1,0.2,0.3,0.3,0.5,0.4c0.2,0.1,0.4,0.1,0.7,0.1c0.2,0,0.4,0,0.6-0.1
			c0.2-0.1,0.4-0.2,0.6-0.3c0.2-0.1,0.3-0.3,0.5-0.4c0.1-0.1,0.2-0.3,0.3-0.4l0.1,0c0,0.1,0,0.1-0.1,0.2l-0.1,0.4
			c-0.1,0.2-0.1,0.5-0.2,0.9c0,0.2-0.1,0.4-0.2,0.5c-0.1,0.1-0.2,0.3-0.3,0.4c-0.1,0.1-0.3,0.2-0.5,0.2c-0.2,0-0.4,0.1-0.6,0.1
			c-0.3,0-0.5,0-0.7-0.1c-0.2,0-0.3-0.1-0.4-0.1c-0.1-0.1-0.2-0.1-0.3-0.1L123.9,53.9C124,54,123.9,53.9,123.9,53.9z M130.3,55.2
			c-0.1,0-0.2,0-0.3,0c-0.1,0-0.1,0-0.2-0.1c-0.1,0-0.1-0.1-0.1-0.2c0-0.1,0-0.1,0.1-0.2l1.4-1.8l-0.9-5.3c0,0,0-0.1,0-0.1
			c0-0.1,0-0.1,0-0.1c0,0,0.1-0.1,0.1-0.1c0,0,0.1,0,0.2,0l0.2,0c0.1,0,0.2,0,0.3,0c0.1,0,0.1,0,0.2,0c0,0,0.1,0.1,0.1,0.1l0,0.1
			l0.7,4.3c0.2-0.3,0.4-0.6,0.6-0.9c0.2-0.4,0.4-0.7,0.5-1.1c0.2-0.4,0.3-0.7,0.4-1.1c0.1-0.4,0.3-0.8,0.4-1.1c0,0,0-0.1,0.1-0.1
			c0,0,0.1-0.1,0.1-0.1c0,0,0.1,0,0.2,0l0.2,0c0,0,0.1,0,0.1,0c0.2,0,0.3,0,0.4,0c0.1,0,0.1,0.1,0.1,0.2c0,0,0,0.1,0,0.1
			c0,0.1,0,0.1,0,0.1c-0.1,0.4-0.3,0.7-0.4,1.1c-0.2,0.4-0.3,0.8-0.5,1.2c-0.2,0.4-0.4,0.9-0.7,1.3c-0.2,0.4-0.5,0.8-0.7,1.2
			l-1.7,2.4c0,0-0.1,0.1-0.1,0.1c0,0-0.1,0-0.1,0.1c-0.1,0-0.1,0-0.2,0C130.5,55.2,130.4,55.2,130.3,55.2z M130.9,47.3l-0.2,0
			c-0.1,0-0.1,0-0.1,0c0,0,0,0,0,0c0,0,0,0,0,0.1c0,0,0,0.1,0,0.1l0,0.1l0.9,5.3l0,0l-1.4,1.9c0,0.1-0.1,0.1-0.1,0.1c0,0,0,0,0,0
			c0,0,0.1,0,0.1,0c0.1,0,0.1,0,0.2,0c0.1,0,0.2,0,0.2,0c0.1,0,0.1,0,0.2,0c0,0,0.1,0,0.1-0.1c0,0,0.1,0,0.1-0.1l1.7-2.4
			c0.3-0.4,0.5-0.8,0.7-1.2c0.3-0.5,0.5-0.9,0.7-1.3c0.2-0.4,0.4-0.8,0.5-1.2c0.1-0.4,0.3-0.8,0.4-1.1c0,0,0-0.1,0-0.1
			c0,0,0-0.1,0-0.1c0,0,0,0,0,0c0,0-0.1,0-0.3,0c0,0-0.1,0-0.1,0l-0.2,0c-0.1,0-0.1,0-0.1,0c0,0-0.1,0-0.1,0c0,0,0,0,0,0
			c-0.1,0.4-0.3,0.8-0.4,1.1c-0.1,0.4-0.3,0.8-0.5,1.1c-0.2,0.4-0.3,0.7-0.5,1.1c-0.2,0.4-0.4,0.7-0.7,1.1l0,0h-0.1l0-0.1l-0.7-4.5
			c0,0,0,0,0,0c0,0-0.1,0-0.1,0C131.1,47.3,131,47.3,130.9,47.3z M115.3,53.1c-0.4,0-0.7,0-0.9-0.1c-0.3-0.1-0.5-0.2-0.7-0.4
			c-0.2-0.2-0.3-0.4-0.4-0.6c-0.1-0.3-0.1-0.6-0.1-0.9c0-0.3,0-0.5,0.1-0.8c0-0.3,0.1-0.6,0.2-0.9c0.1-0.3,0.2-0.6,0.4-0.8
			c0.2-0.3,0.4-0.5,0.6-0.7c0.2-0.2,0.5-0.4,0.8-0.5c0.3-0.1,0.7-0.2,1-0.2c0.3,0,0.6,0,0.8,0.1c0.2,0.1,0.4,0.2,0.6,0.3
			c0.2,0.1,0.3,0.3,0.3,0.5c0.1,0.2,0.1,0.3,0.1,0.5c0,0.3-0.1,0.5-0.2,0.8c-0.1,0.2-0.3,0.4-0.6,0.6c-0.3,0.2-0.6,0.3-1,0.4
			c-0.4,0.1-0.9,0.1-1.5,0.1h-0.6c0,0.1,0,0.2,0,0.3c0,0.1,0,0.2,0,0.3c0,0.4,0.1,0.7,0.3,0.9c0.2,0.2,0.5,0.3,0.9,0.3
			c0.2,0,0.5,0,0.7-0.1c0.2,0,0.4-0.1,0.5-0.1c0.1,0,0.2-0.1,0.3-0.1l0.2-0.1c0,0,0.1,0,0.1,0c0.1,0,0.1,0,0.1,0.1c0,0,0,0.1,0,0.1
			c0,0,0,0.1,0,0.2c0,0.1,0,0.1,0,0.2c0,0.1,0,0.1-0.1,0.2c0,0.1-0.1,0.1-0.1,0.1c-0.1,0.1-0.1,0.1-0.3,0.2c-0.1,0-0.3,0.1-0.4,0.1
			c-0.2,0-0.3,0.1-0.5,0.1C115.7,53.1,115.5,53.1,115.3,53.1z M116.3,47.2c-0.4,0-0.7,0.1-1,0.2c-0.3,0.1-0.6,0.3-0.8,0.5
			c-0.2,0.2-0.4,0.4-0.6,0.7c-0.2,0.3-0.3,0.5-0.4,0.8c-0.1,0.3-0.2,0.6-0.2,0.9c0,0.3-0.1,0.6-0.1,0.8c0,0.3,0,0.6,0.1,0.8
			c0.1,0.2,0.2,0.4,0.4,0.6c0.2,0.2,0.4,0.3,0.6,0.4c0.3,0.1,0.5,0.1,0.9,0.1c0.2,0,0.4,0,0.6,0c0.2,0,0.4-0.1,0.5-0.1
			c0.2,0,0.3-0.1,0.4-0.1c0.1-0.1,0.2-0.1,0.2-0.1c0,0,0-0.1,0.1-0.1c0,0,0-0.1,0.1-0.2c0-0.1,0-0.1,0-0.2c0-0.1,0-0.1,0-0.1
			c0,0,0-0.1,0-0.1c0,0,0,0,0,0c0,0,0,0-0.1,0l-0.2,0.1c-0.1,0-0.2,0.1-0.3,0.1c-0.1,0-0.3,0.1-0.5,0.1c-0.2,0-0.4,0.1-0.7,0.1
			c-0.4,0-0.8-0.1-1-0.3c-0.2-0.2-0.3-0.5-0.3-1c0-0.1,0-0.2,0-0.4c0-0.1,0-0.3,0.1-0.4l0-0.1h0.7c0.6,0,1.1,0,1.5-0.1
			c0.4-0.1,0.7-0.2,1-0.3c0.3-0.1,0.4-0.3,0.6-0.5c0.1-0.2,0.2-0.4,0.2-0.7c0-0.1,0-0.3-0.1-0.5c-0.1-0.2-0.2-0.3-0.3-0.4
			c-0.1-0.1-0.3-0.2-0.5-0.3C116.9,47.3,116.6,47.2,116.3,47.2z M119.6,53c-0.1,0-0.2,0-0.2,0c-0.1,0-0.1,0-0.2,0
			c0,0-0.1-0.1-0.1-0.1c0,0,0-0.1,0-0.1l1-5.4c0,0,0-0.1,0-0.1c0,0,0.1-0.1,0.1-0.1c0,0,0.1,0,0.1,0l0.1,0c0,0,0.1,0,0.1,0l0.1,0
			c0.1,0,0.2,0,0.2,0c0.1,0,0.1,0,0.1,0c0.1,0,0.1,0.1,0.1,0.1c0,0,0,0.1,0,0.1l-0.1,0.6c0-0.1,0.1-0.1,0.1-0.2
			c0.1-0.2,0.3-0.3,0.4-0.4c0.1-0.1,0.3-0.2,0.5-0.3c0.2-0.1,0.5-0.1,0.7-0.1c0.1,0,0.1,0,0.2,0c0.1,0,0.1,0,0.2,0.1
			c0.1,0,0.1,0,0.1,0.1c0,0,0.1,0.1,0.1,0.2v0l0,0.3c0,0.1,0,0.1,0,0.2c0,0.1,0,0.1-0.1,0.2c0,0.1-0.1,0.1-0.1,0.1
			c-0.1,0.1-0.2,0.1-0.3,0.1c0,0-0.1,0-0.1-0.1c0,0-0.1,0-0.1,0c-0.1,0-0.1,0-0.2,0c-0.1,0-0.3,0.1-0.4,0.2
			c-0.2,0.1-0.3,0.3-0.5,0.5c-0.2,0.2-0.3,0.4-0.4,0.7c-0.1,0.3-0.2,0.6-0.3,0.9l-0.5,2.4c0,0,0,0.1-0.1,0.1c0,0-0.1,0.1-0.1,0.1
			c0,0-0.1,0-0.2,0L119.6,53C119.7,53,119.6,53,119.6,53z M120.7,47.3L120.7,47.3c-0.1,0-0.2,0-0.2,0l-0.1,0c0,0-0.1,0-0.1,0
			c0,0,0,0-0.1,0c0,0,0,0,0,0l-1,5.4c0,0,0,0,0,0c0,0,0,0,0,0c0,0,0.1,0,0.1,0c0.1,0,0.1,0,0.2,0c0,0,0,0,0,0c0,0,0.1,0,0.1,0l0.1,0
			c0.1,0,0.1,0,0.1,0c0,0,0.1,0,0.1,0c0,0,0,0,0-0.1l0.5-2.4c0.1-0.3,0.2-0.6,0.3-0.9c0.1-0.3,0.3-0.5,0.5-0.7
			c0.2-0.2,0.3-0.4,0.5-0.5c0.2-0.1,0.3-0.2,0.5-0.2c0.1,0,0.2,0,0.2,0c0.1,0,0.1,0,0.2,0.1c0,0,0.1,0,0.1,0c0,0,0.1,0,0.1,0
			c0,0,0,0,0,0c0,0,0-0.1,0.1-0.1c0-0.1,0-0.1,0.1-0.2c0-0.1,0-0.1,0-0.2l0-0.2c0,0,0-0.1,0-0.1c0,0,0,0-0.1,0c0,0-0.1,0-0.1,0
			c-0.1,0-0.1,0-0.2,0c-0.2,0-0.4,0-0.6,0.1c-0.1,0.1-0.3,0.2-0.4,0.3c-0.1,0.1-0.3,0.2-0.4,0.4c-0.1,0.1-0.2,0.3-0.3,0.5l-0.1,0
			l0.2-1c0,0,0,0,0,0c0,0,0,0,0,0c0,0-0.1,0-0.1,0C120.8,47.3,120.8,47.3,120.7,47.3z M110.5,53c-0.1,0-0.2,0-0.2,0
			c-0.1,0-0.1,0-0.2,0c0,0-0.1-0.1-0.1-0.1c0,0,0-0.1,0-0.1l0.6-3.3c0-0.1,0-0.2,0.1-0.4l0-0.2c0,0,0-0.1,0-0.1c0-0.2,0-0.4-0.1-0.5
			c-0.1-0.1-0.2-0.2-0.5-0.2c-0.2,0-0.4,0.1-0.6,0.2c-0.2,0.1-0.4,0.3-0.6,0.5c-0.2,0.2-0.3,0.5-0.5,0.7c-0.1,0.3-0.2,0.6-0.3,0.9
			l-0.5,2.4c0,0,0,0.1-0.1,0.1c0,0-0.1,0.1-0.1,0.1c0,0-0.1,0-0.2,0c-0.1,0-0.1,0-0.2,0c-0.1,0-0.2,0-0.2,0c-0.1,0-0.1,0-0.2,0
			c0,0-0.1-0.1-0.1-0.1c0,0,0-0.1,0-0.1l1.1-5.4c0,0,0-0.1,0-0.1c0,0,0.1-0.1,0.1-0.1c0,0,0.1,0,0.1,0l0.1,0c0,0,0.1,0,0.1,0l0.1,0
			c0.1,0,0.2,0,0.2,0c0.1,0,0.1,0,0.1,0c0.1,0,0.1,0.1,0.1,0.1c0,0,0,0.1,0,0.1l-0.1,0.7c0,0,0.1-0.1,0.1-0.1
			c0.1-0.2,0.3-0.3,0.5-0.4c0.2-0.1,0.4-0.2,0.6-0.3c0.2-0.1,0.5-0.1,0.7-0.1c0.3,0,0.5,0,0.7,0.1c0.2,0.1,0.3,0.2,0.4,0.3
			c0.1,0.1,0.2,0.3,0.2,0.5c0,0.2,0.1,0.4,0.1,0.6c0,0.1,0,0.3,0,0.4c0,0.1,0,0.3-0.1,0.4l-0.7,3.3c0,0,0,0.1-0.1,0.1
			c0,0-0.1,0.1-0.1,0.1c0,0-0.1,0-0.2,0C110.7,53,110.6,53,110.5,53z M110.1,47.9c0.3,0,0.4,0.1,0.6,0.3c0.1,0.2,0.2,0.4,0.2,0.6
			c0,0,0,0.1,0,0.1l0,0.2c0,0.1,0,0.2-0.1,0.4l-0.6,3.3c0,0,0,0,0,0c0,0,0,0,0,0c0,0,0.1,0,0.1,0c0.1,0,0.1,0,0.2,0
			c0.1,0,0.2,0,0.2,0s0.1,0,0.1,0c0,0,0.1,0,0.1,0c0,0,0,0,0-0.1l0.7-3.3c0-0.1,0-0.3,0.1-0.4c0-0.1,0-0.3,0-0.4
			c0-0.2,0-0.4-0.1-0.5c0-0.2-0.1-0.3-0.2-0.4c-0.1-0.1-0.2-0.2-0.4-0.3c-0.2-0.1-0.4-0.1-0.6-0.1c-0.2,0-0.4,0-0.7,0.1
			c-0.2,0.1-0.4,0.2-0.6,0.3c-0.2,0.1-0.3,0.3-0.5,0.4c-0.1,0.1-0.2,0.3-0.3,0.4l-0.1,0l0.2-1c0,0,0,0,0,0c0,0,0,0,0,0
			c0,0-0.1,0-0.1,0c-0.1,0-0.1,0-0.2,0l-0.1,0c0,0-0.1,0-0.1,0l-0.1,0c0,0,0,0-0.1,0c0,0,0,0-0.1,0c0,0,0,0,0,0l-1.1,5.4
			c0,0,0,0,0,0s0,0,0,0c0,0,0,0,0,0c0,0,0.1,0,0.1,0c0.1,0,0.1,0,0.2,0c0.1,0,0.2,0,0.2,0c0.1,0,0.1,0,0.1,0c0,0,0.1,0,0.1,0
			c0,0,0,0,0-0.1l0.5-2.4c0.1-0.3,0.2-0.7,0.3-1c0.1-0.3,0.3-0.6,0.5-0.8c0.2-0.2,0.4-0.4,0.6-0.5C109.7,48,109.9,47.9,110.1,47.9z
			 M104.6,53H101c-0.1,0-0.1,0-0.1,0c-0.1,0-0.1,0-0.1-0.1c0,0-0.1-0.1-0.1-0.2c0,0,0-0.1,0-0.1l1.4-6.9c0-0.2,0.1-0.3,0.2-0.4
			c0.1-0.1,0.2-0.1,0.3-0.1h3.6c0.1,0,0.2,0,0.2,0.3l0,0.1c0,0,0,0.1,0,0.1l0,0.2c0,0.1,0,0.1-0.1,0.2c0,0-0.1,0.1-0.1,0.1
			c0,0-0.1,0.1-0.1,0.1H103l-0.4,2.3h2.4c0.1,0,0.1,0,0.2,0.1c0,0,0,0.1,0,0.2l0,0.1l0,0.2c0,0.1,0,0.1,0,0.2c0,0.1,0,0.1-0.1,0.1
			c0,0-0.1,0.1-0.1,0.1c0,0-0.1,0.1-0.1,0.1h-2.5l-0.5,2.6h2.9c0.1,0,0.1,0,0.1,0.1c0,0,0.1,0.1,0.1,0.2l0,0.1c0,0,0,0.1,0,0.1
			l0,0.1c0,0.1,0,0.1-0.1,0.2c0,0-0.1,0.1-0.1,0.1C104.7,53,104.7,53,104.6,53z M102.5,45.3c-0.1,0-0.2,0-0.2,0.1
			c-0.1,0.1-0.1,0.1-0.2,0.3l-1.4,6.9c0,0,0,0.1,0,0.1c0,0,0,0.1,0,0.1c0,0,0,0,0.1,0.1c0,0,0.1,0,0.1,0h3.6c0,0,0,0,0.1,0
			c0,0,0,0,0.1-0.1c0,0,0-0.1,0-0.1l0-0.1c0,0,0-0.1,0-0.1l0-0.1c0-0.1,0-0.1,0-0.1c0,0,0,0,0,0h-3.1l0-0.1l0.6-2.8h2.6
			c0,0,0,0,0.1,0c0,0,0,0,0.1-0.1c0,0,0-0.1,0-0.1c0,0,0-0.1,0-0.1l0-0.2c0,0,0-0.1,0-0.1c0,0,0,0-0.1,0h-2.6l0-0.1l0.5-2.5h3
			c0,0,0,0,0.1,0c0,0,0,0,0.1-0.1c0,0,0-0.1,0-0.1l0-0.1c0,0,0-0.1,0-0.1l0-0.1c0-0.1,0-0.1-0.1-0.1H102.5z M125.5,52.3
			c-0.2,0-0.3,0-0.4-0.1c-0.1-0.1-0.2-0.2-0.3-0.3c-0.1-0.1-0.1-0.2-0.1-0.4c0-0.1,0-0.3,0-0.5c0-0.2,0-0.4,0-0.6
			c0-0.2,0.1-0.5,0.1-0.7c0.1-0.2,0.1-0.4,0.2-0.7c0.1-0.2,0.2-0.4,0.3-0.6c0.1-0.2,0.3-0.3,0.5-0.4c0.2-0.1,0.4-0.2,0.6-0.2
			c0.3,0,0.5,0.1,0.7,0.2c0.2,0.1,0.4,0.4,0.6,0.6l0,0l0,0l-0.2,1c-0.1,0.3-0.2,0.7-0.3,1c-0.1,0.3-0.3,0.6-0.5,0.8
			c-0.2,0.2-0.4,0.4-0.6,0.5C126,52.2,125.7,52.3,125.5,52.3z M126.5,48.1c-0.2,0-0.4,0-0.5,0.1c-0.2,0.1-0.3,0.2-0.4,0.4
			c-0.1,0.2-0.2,0.3-0.3,0.6c-0.1,0.2-0.2,0.4-0.2,0.6c-0.1,0.2-0.1,0.4-0.1,0.7c0,0.2,0,0.4,0,0.6c0,0.2,0,0.3,0,0.5
			c0,0.1,0.1,0.3,0.1,0.3c0.1,0.1,0.1,0.2,0.2,0.2c0.1,0.1,0.2,0.1,0.3,0.1c0.2,0,0.4-0.1,0.6-0.2c0.2-0.1,0.4-0.3,0.6-0.5
			c0.2-0.2,0.3-0.5,0.5-0.7c0.1-0.3,0.2-0.6,0.3-0.9l0.2-1c-0.2-0.3-0.4-0.4-0.6-0.6C127,48.1,126.7,48.1,126.5,48.1z M115,49.6
			h-0.7l0-0.1c0.1-0.2,0.2-0.4,0.3-0.6c0.1-0.2,0.2-0.4,0.4-0.5c0.2-0.2,0.3-0.3,0.5-0.4c0.2-0.1,0.4-0.1,0.7-0.1
			c0.3,0,0.5,0.1,0.7,0.2c0.2,0.1,0.3,0.3,0.3,0.5c0,0.1,0,0.3-0.1,0.4c-0.1,0.1-0.2,0.2-0.4,0.3c-0.2,0.1-0.4,0.2-0.7,0.2
			C115.8,49.6,115.4,49.6,115,49.6z M114.5,49.5h0.5c0.4,0,0.7,0,1-0.1c0.3-0.1,0.5-0.1,0.6-0.2c0.2-0.1,0.3-0.2,0.3-0.3
			c0.1-0.1,0.1-0.2,0.1-0.3c0-0.2-0.1-0.3-0.2-0.4c-0.1-0.1-0.4-0.2-0.6-0.2c-0.2,0-0.5,0-0.6,0.1c-0.2,0.1-0.4,0.2-0.5,0.3
			c-0.1,0.1-0.3,0.3-0.4,0.5C114.6,49.1,114.6,49.3,114.5,49.5z"/>
	</g>
</g>
</svg>
