<?xml version="1.0" encoding="utf-8"?>
<!-- Generator: Adobe Illustrator 23.0.4, SVG Export Plug-In . SVG Version: 6.00 Build 0)  -->
<svg version="1.1" id="Capa_1" xmlns="http://www.w3.org/2000/svg" xmlns:xlink="http://www.w3.org/1999/xlink" x="0px" y="0px"
	 viewBox="0 0 360 219" style="enable-background:new 0 0 360 219;" xml:space="preserve">
<style type="text/css">
	.st0{fill:#F2F1F3;}
	.st1{fill:#70BC48;}
	.st2{clip-path:url(#SVGID_2_);fill:#70BC48;stroke:#FFFFFF;stroke-width:2;stroke-miterlimit:10;}
</style>
<g>
	<path class="st0" d="M180,25.1c-46.6,0-84.4,37.8-84.4,84.4s37.8,84.4,84.4,84.4s84.4-37.8,84.4-84.4S226.6,25.1,180,25.1z
		 M180,176c-36.7,0-66.5-29.8-66.5-66.5S143.3,43,180,43s66.5,29.8,66.5,66.5S216.7,176,180,176z"/>
	<g>
		<defs>
			<path id="SVGID_1_" d="M180,25.1c-46.6,0-84.4,37.8-84.4,84.4s37.8,84.4,84.4,84.4s84.4-37.8,84.4-84.4S226.6,25.1,180,25.1z
				 M180,176c-36.7,0-66.5-29.8-66.5-66.5S143.3,43,180,43s66.5,29.8,66.5,66.5S216.7,176,180,176z"/>
		</defs>
		<clipPath id="SVGID_2_">
			<use xlink:href="#SVGID_1_"  style="overflow:visible;"/>
		</clipPath>
		<polygon class="st2" points="230,143.1 236,95.3 197.2,68.4 179.3,50.5 179.3,5.7 248,17.6 280.8,68.4 277.8,134.1 259.9,167 
			197,214 109,190 91,136 122,126 145,149 165,163 187,166 211,153 		"/>
	</g>
</g>
<g>
	<path class="st1" d="M146.2,109.8c0-7.2,4.1-12.4,11.1-12.4c2.9,0,5.3,1,7.1,2.5l-2.3,3.9c-1.3-1.2-2.7-1.9-4.8-1.9
		c-3.5,0-6,3-6,6.8c0,0.2,0,0.3,0,0.5c1.1-1.6,3.5-3.1,6.1-3.1c4.3,0,8.2,2.7,8.2,7.8c0,4.7-3.7,8.2-9.2,8.2
		C149.3,122.1,146.2,116.5,146.2,109.8z M160.5,114.1c0-2.5-2.2-3.6-4.4-3.6c-1.8,0-3.5,0.8-4.7,2.3c0.2,2.3,1.5,4.8,4.8,4.8
		C159,117.6,160.5,115.7,160.5,114.1z"/>
	<path class="st1" d="M168,115.5c0-2.9,2.3-5.1,5.1-6.1c-2.7-0.9-4.7-2.7-4.7-5.6c0-4.5,4.8-6.3,9.2-6.3c4.4,0,9.2,1.8,9.2,6.3
		c0,3-2.1,4.7-4.7,5.6c2.8,1,5.1,3.2,5.1,6.1c0,4.4-4.6,6.6-9.6,6.6C172.6,122.1,168,119.9,168,115.5z M182.1,114.8
		c0-2-3-2.9-4.4-3.1c-1.5,0.2-4.4,1.1-4.4,3.1c0,1.7,1.9,2.8,4.4,2.8C180.1,117.6,182.1,116.5,182.1,114.8z M181.7,104.6
		c0-1.7-1.7-2.7-4-2.7c-2.4,0-4,1-4,2.7c0,1.8,2.6,2.5,4,2.8C179.1,107.1,181.7,106.3,181.7,104.6z"/>
	<path class="st1" d="M189.4,103.4c0-3.4,2.4-6,6.1-6c3.7,0,6.1,2.6,6.1,6c0,3.3-2.4,5.9-6.1,5.9
		C191.8,109.3,189.4,106.7,189.4,103.4z M198.4,103.4c0-2-1.2-3.2-2.9-3.2c-1.6,0-2.8,1.2-2.8,3.2c0,1.9,1.2,3.1,2.8,3.1
		C197.2,106.5,198.4,105.3,198.4,103.4z M193.2,121.7l15.3-23.9h2.7l-15.3,23.9H193.2z M202.6,116.2c0-3.4,2.4-6,6.1-6
		s6.1,2.7,6.1,6c0,3.3-2.4,5.9-6.1,5.9S202.6,119.5,202.6,116.2z M211.5,116.2c0-2-1.2-3.2-2.9-3.2c-1.6,0-2.8,1.2-2.8,3.2
		c0,1.9,1.2,3.1,2.8,3.1C210.3,119.3,211.5,118.1,211.5,116.2z"/>
</g>
</svg>
