<?xml version="1.0" encoding="utf-8"?>
<!-- Generator: Adobe Illustrator 23.0.4, SVG Export Plug-In . SVG Version: 6.00 Build 0)  -->
<svg version="1.1" id="Capa_1" xmlns="http://www.w3.org/2000/svg" xmlns:xlink="http://www.w3.org/1999/xlink" x="0px" y="0px"
	 viewBox="0 0 360 219" style="enable-background:new 0 0 360 219;" xml:space="preserve">
<style type="text/css">
	.st0{fill:#F2F1F3;}
	.st1{fill:#70BC48;}
	.st2{clip-path:url(#SVGID_2_);fill:#70BC48;stroke:#FFFFFF;stroke-width:2;stroke-miterlimit:10;}
</style>
<g>
	<path class="st0" d="M180,25.1c-46.6,0-84.4,37.8-84.4,84.4s37.8,84.4,84.4,84.4s84.4-37.8,84.4-84.4S226.6,25.1,180,25.1z
		 M180,176c-36.7,0-66.5-29.8-66.5-66.5S143.3,43,180,43s66.5,29.8,66.5,66.5S216.7,176,180,176z"/>
	<g>
		<defs>
			<path id="SVGID_1_" d="M180,25.1c-46.6,0-84.4,37.8-84.4,84.4s37.8,84.4,84.4,84.4s84.4-37.8,84.4-84.4S226.6,25.1,180,25.1z
				 M180,176c-36.7,0-66.5-29.8-66.5-66.5S143.3,43,180,43s66.5,29.8,66.5,66.5S216.7,176,180,176z"/>
		</defs>
		<clipPath id="SVGID_2_">
			<use xlink:href="#SVGID_1_"  style="overflow:visible;"/>
		</clipPath>
		<polygon class="st2" points="122,126 145,149 165,163 187,166 211,153 230,143.1 236,95.3 197.2,68.4 179.3,50.5 179.3,5.7 
			248,17.6 280.8,68.4 277.8,134.1 259.9,167 197,214 109,190 91,136 87,94 96,75 125,86 		"/>
	</g>
</g>
<g>
	<path class="st1" d="M145.9,117.5c0-2.9,2.3-5.1,5.1-6.1c-2.7-0.9-4.7-2.7-4.7-5.6c0-4.5,4.8-6.3,9.2-6.3c4.4,0,9.2,1.8,9.2,6.3
		c0,3-2.1,4.7-4.7,5.6c2.8,1,5.1,3.2,5.1,6.1c0,4.4-4.6,6.6-9.6,6.6S145.9,121.9,145.9,117.5z M160,116.7c0-2-3-2.9-4.4-3.1
		c-1.5,0.2-4.4,1.1-4.4,3.1c0,1.7,1.9,2.8,4.4,2.8C158,119.6,160,118.5,160,116.7z M159.5,106.6c0-1.7-1.7-2.7-4-2.7
		c-2.4,0-4.1,1-4.1,2.7c0,1.8,2.6,2.5,4.1,2.8C157,109.1,159.5,108.3,159.5,106.6z"/>
	<path class="st1" d="M168.1,120.5l2.8-3.5c1.6,1.7,3.8,2.6,6.3,2.6c2.8,0,4.4-1.6,4.4-3.5c0-2.1-1.6-3.5-4.3-3.5
		c-2,0-3.6,0.6-5,1.9l-3.5-1V99.8h16.4v4.5H174v5.8c1.1-1.1,3.1-2,5.3-2c4,0,7.7,2.9,7.7,7.7c0,5.1-3.8,8.3-9.6,8.3
		C173.2,124.1,170.2,122.7,168.1,120.5z"/>
	<path class="st1" d="M189.1,105.4c0-3.4,2.4-6,6.1-6c3.7,0,6.1,2.6,6.1,6c0,3.3-2.4,5.9-6.1,5.9
		C191.5,111.3,189.1,108.7,189.1,105.4z M198,105.4c0-2-1.2-3.2-2.9-3.2c-1.6,0-2.8,1.2-2.8,3.2c0,1.9,1.2,3.1,2.8,3.1
		C196.8,108.5,198,107.3,198,105.4z M192.8,123.7l15.3-23.9h2.7l-15.3,23.9H192.8z M202.3,118.2c0-3.4,2.4-6,6.1-6s6.1,2.7,6.1,6
		c0,3.3-2.4,5.9-6.1,5.9S202.3,121.5,202.3,118.2z M211.2,118.2c0-2-1.2-3.2-2.9-3.2c-1.6,0-2.8,1.2-2.8,3.2c0,1.9,1.2,3.1,2.8,3.1
		C210,121.3,211.2,120.1,211.2,118.2z"/>
</g>
</svg>
