<?xml version="1.0" encoding="utf-8"?>
<!-- Generator: Adobe Illustrator 26.0.2, SVG Export Plug-In . SVG Version: 6.00 Build 0)  -->
<svg version="1.1" id="Capa_1" xmlns="http://www.w3.org/2000/svg" xmlns:xlink="http://www.w3.org/1999/xlink" x="0px" y="0px"
	 viewBox="0 0 1141 568" style="enable-background:new 0 0 1141 568;" xml:space="preserve">
<style type="text/css">
	.st0{fill:url(#SVGID_1_);}
	.st1{opacity:8.000000e-02;fill:#4C555A;}
	.st2{fill:#38434D;}
	.st3{fill:#4C555A;}
	.st4{fill:#71AF47;}
	.st5{fill:#31783C;}
	.st6{fill:none;stroke:#31783C;stroke-width:2;stroke-linecap:round;stroke-linejoin:round;}
	.st7{fill:none;stroke:#38434D;stroke-width:2;stroke-linecap:round;stroke-linejoin:round;}
	.st8{fill:none;stroke:#4C555A;stroke-width:2;stroke-linecap:round;stroke-linejoin:round;}
	.st9{fill:none;stroke:#71AF47;stroke-width:2;stroke-linecap:round;stroke-linejoin:round;}
	.st10{fill:none;stroke:#85C453;stroke-width:1.5;stroke-miterlimit:2;}
	.st11{fill:none;stroke:#85C453;stroke-width:1.5;stroke-miterlimit:2;stroke-dasharray:3.8861,3.8861;}
	.st12{fill:none;stroke:#85C453;stroke-width:1.5;stroke-miterlimit:2;stroke-dasharray:3.9634,3.9634;}
	.st13{fill:#85C453;}
	.st14{fill:#FEFFFE;}
	.st15{fill:#F2C706;}
	.st16{fill:#B1FCD5;}
	.st17{fill:#4BC9DA;}
	.st18{fill:#2F383F;}
	.st19{fill:#7D8F9E;}
	.st20{fill:#FFFFFF;}
	.st21{fill:#C9C9C9;}
	.st22{fill:url(#SVGID_00000072245013288698093390000010824476580479120540_);}
	.st23{fill:#65B33F;}
	.st24{fill:url(#SVGID_00000039813096656339429730000001317323429671211672_);}
	.st25{fill:none;stroke:#C9C9C9;stroke-miterlimit:10;}
	.st26{fill:url(#SVGID_00000071529114496026918820000004299749532332967055_);}
</style>
<linearGradient id="SVGID_1_" gradientUnits="userSpaceOnUse" x1="965.8931" y1="372.9833" x2="965.8931" y2="-503.1369">
	<stop  offset="0" style="stop-color:#55AD3F"/>
	<stop  offset="1" style="stop-color:#FFE50F"/>
</linearGradient>
<path class="st0" d="M965.9,561L965.9,561c-77.7,0-140.8-63-140.8-140.8V149.2c0-77.7,63-140.8,140.8-140.8h0
	c77.7,0,140.8,63,140.8,140.8v271.1C1106.7,498,1043.6,561,965.9,561z"/>
<g>
	<path class="st3" d="M294.9,190.4h8.6v1.6h-3.3v10.6h-2V192h-3.3V190.4z"/>
	<path class="st3" d="M307.5,202.7h-2v-9.7h2v1.4c0.6-1,1.5-1.6,2.9-1.6v2.1h-0.5c-1.5,0-2.4,0.6-2.4,2.7V202.7z"/>
	<path class="st3" d="M316.2,192.8c1.6,0,2.8,0.8,3.4,1.6v-1.4h2v9.7h-2v-1.4c-0.6,0.8-1.8,1.6-3.4,1.6c-2.5,0-4.6-2.1-4.6-5.1
		S313.7,192.8,316.2,192.8z M316.7,194.5c-1.5,0-3,1.1-3,3.2s1.4,3.3,3,3.3c1.5,0,3-1.2,3-3.3C319.6,195.7,318.2,194.5,316.7,194.5z
		"/>
	<path class="st3" d="M331.2,197.2c0-1.8-1-2.7-2.4-2.7c-1.5,0-2.5,0.9-2.5,2.7v5.4h-2v-9.7h2v1.1c0.7-0.8,1.7-1.3,2.9-1.3
		c2.3,0,4,1.4,4,4.2v5.7h-2V197.2z"/>
	<path class="st3" d="M339.3,202.8c-2.3,0-4-1.4-4.1-3.1h2.1c0.1,0.8,0.8,1.4,1.9,1.4c1.2,0,1.8-0.5,1.8-1.2c0-1.9-5.7-0.8-5.7-4.4
		c0-1.6,1.4-2.8,3.7-2.8c2.2,0,3.7,1.2,3.8,3.1h-2c-0.1-0.8-0.7-1.4-1.8-1.4c-1.1,0-1.6,0.4-1.6,1.1c0,2,5.5,0.9,5.6,4.4
		C343,201.6,341.6,202.8,339.3,202.8z"/>
	<path class="st3" d="M344.9,190.4c0-0.7,0.6-1.3,1.3-1.3c0.7,0,1.3,0.6,1.3,1.3s-0.6,1.3-1.3,1.3
		C345.5,191.7,344.9,191.1,344.9,190.4z M345.2,192.9h2v9.7h-2V192.9z"/>
	<path class="st3" d="M350.2,194.6H349v-1.6h1.1v-2.4h2v2.4h2.4v1.6h-2.4v5.4c0,0.7,0.3,1,1.1,1h1.2v1.7H353c-1.7,0-2.8-0.7-2.8-2.7
		V194.6z"/>
	<path class="st3" d="M356.2,190.4c0-0.7,0.6-1.3,1.3-1.3c0.7,0,1.3,0.6,1.3,1.3s-0.6,1.3-1.3,1.3
		C356.7,191.7,356.2,191.1,356.2,190.4z M356.4,192.9h2v9.7h-2V192.9z"/>
	<path class="st3" d="M365.3,202.8c-2.8,0-4.9-2-4.9-5c0-3.1,2.2-5,5-5s5,2,5,5C370.4,200.9,368.1,202.8,365.3,202.8z M365.3,201.1
		c1.5,0,3-1.1,3-3.3c0-2.2-1.4-3.3-2.9-3.3c-1.5,0-2.9,1.1-2.9,3.3C362.5,200,363.8,201.1,365.3,201.1z"/>
	<path class="st3" d="M379.3,197.2c0-1.8-1-2.7-2.4-2.7c-1.5,0-2.5,0.9-2.5,2.7v5.4h-2v-9.7h2v1.1c0.7-0.8,1.7-1.3,2.9-1.3
		c2.3,0,4,1.4,4,4.2v5.7h-2V197.2z"/>
	<path class="st3" d="M388.2,190.4c0-0.7,0.6-1.3,1.3-1.3c0.7,0,1.3,0.6,1.3,1.3s-0.6,1.3-1.3,1.3
		C388.8,191.7,388.2,191.1,388.2,190.4z M388.5,192.9h2v9.7h-2V192.9z"/>
	<path class="st3" d="M400,197.2c0-1.8-1-2.7-2.4-2.7c-1.5,0-2.5,0.9-2.5,2.7v5.4h-2v-9.7h2v1.1c0.7-0.8,1.7-1.3,2.9-1.3
		c2.3,0,4,1.4,4,4.2v5.7h-2V197.2z"/>
	<path class="st3" d="M408,192.9h2l2,7.8l2.1-7.8h2.1l2,7.8l2-7.8h2l-3,9.7h-2.1l-2-7.2l-2,7.2h-2.1L408,192.9z"/>
	<path class="st3" d="M428,202.8c-2.8,0-4.9-2-4.9-5c0-3.1,2.2-5,5-5s5,2,5,5C433.1,200.9,430.8,202.8,428,202.8z M428,201.1
		c1.5,0,3-1.1,3-3.3c0-2.2-1.4-3.3-2.9-3.3c-1.5,0-2.9,1.1-2.9,3.3C425.2,200,426.5,201.1,428,201.1z"/>
	<path class="st3" d="M437.1,202.7h-2v-9.7h2v1.4c0.6-1,1.5-1.6,2.9-1.6v2.1h-0.5c-1.5,0-2.4,0.6-2.4,2.7V202.7z"/>
	<path class="st3" d="M441.8,189.6h2v13.1h-2V189.6z"/>
	<path class="st3" d="M450.4,192.8c1.3,0,2.6,0.6,3.4,1.5v-4.7h2v13.1h-2v-1.5c-0.6,0.9-1.8,1.6-3.4,1.6c-2.6,0-4.6-2.1-4.6-5.1
		S447.9,192.8,450.4,192.8z M450.9,194.5c-1.5,0-3,1.1-3,3.2s1.4,3.3,3,3.3c1.5,0,3-1.2,3-3.3C453.8,195.7,452.4,194.5,450.9,194.5z
		"/>
	<path class="st3" d="M467.3,202.8c-2.8,0-4.9-2-4.9-5c0-3.1,2-5,4.9-5c2.8,0,4.7,1.9,4.7,4.8c0,0.3,0,0.7-0.1,1h-7.4
		c0.1,1.6,1.3,2.6,2.8,2.6c1.2,0,1.9-0.6,2.3-1.4h2.2C471.2,201.5,469.7,202.8,467.3,202.8z M464.5,196.9h5.4c0-1.5-1.2-2.5-2.7-2.5
		C465.8,194.5,464.7,195.4,464.5,196.9z"/>
	<path class="st3" d="M474,189.6h2v13.1h-2V189.6z"/>
	<path class="st3" d="M482.8,202.8c-2.8,0-4.9-2-4.9-5c0-3.1,2-5,4.9-5c2.8,0,4.7,1.9,4.7,4.8c0,0.3,0,0.7-0.1,1h-7.4
		c0.1,1.6,1.3,2.6,2.8,2.6c1.2,0,1.9-0.6,2.3-1.4h2.2C486.8,201.5,485.2,202.8,482.8,202.8z M480.1,196.9h5.4c0-1.5-1.2-2.5-2.7-2.5
		C481.4,194.5,480.3,195.4,480.1,196.9z"/>
	<path class="st3" d="M493.7,192.8c2.4,0,3.9,1.2,4.5,3.2H496c-0.3-0.9-1.1-1.5-2.3-1.5c-1.6,0-2.7,1.2-2.7,3.3
		c0,2.1,1.1,3.3,2.7,3.3c1.2,0,1.9-0.5,2.3-1.5h2.2c-0.5,1.9-2.1,3.2-4.5,3.2c-2.8,0-4.8-2-4.8-5
		C488.9,194.8,490.9,192.8,493.7,192.8z"/>
	<path class="st3" d="M500.5,194.6h-1.1v-1.6h1.1v-2.4h2v2.4h2.4v1.6h-2.4v5.4c0,0.7,0.3,1,1.1,1h1.2v1.7h-1.6
		c-1.7,0-2.8-0.7-2.8-2.7V194.6z"/>
	<path class="st3" d="M508.8,202.7h-2v-9.7h2v1.4c0.6-1,1.5-1.6,2.9-1.6v2.1h-0.5c-1.5,0-2.4,0.6-2.4,2.7V202.7z"/>
	<path class="st3" d="M513.3,190.4c0-0.7,0.6-1.3,1.3-1.3c0.7,0,1.3,0.6,1.3,1.3s-0.6,1.3-1.3,1.3
		C513.8,191.7,513.3,191.1,513.3,190.4z M513.5,192.9h2v9.7h-2V192.9z"/>
	<path class="st3" d="M522.3,192.8c2.4,0,3.9,1.2,4.5,3.2h-2.2c-0.3-0.9-1.1-1.5-2.3-1.5c-1.6,0-2.7,1.2-2.7,3.3
		c0,2.1,1.1,3.3,2.7,3.3c1.2,0,1.9-0.5,2.3-1.5h2.2c-0.5,1.9-2.1,3.2-4.5,3.2c-2.8,0-4.8-2-4.8-5
		C517.5,194.8,519.5,192.8,522.3,192.8z"/>
	<path class="st3" d="M528.5,190.4c0-0.7,0.6-1.3,1.3-1.3c0.7,0,1.3,0.6,1.3,1.3s-0.6,1.3-1.3,1.3
		C529.1,191.7,528.5,191.1,528.5,190.4z M528.8,192.9h2v9.7h-2V192.9z"/>
	<path class="st3" d="M533.8,194.6h-1.1v-1.6h1.1v-2.4h2v2.4h2.4v1.6h-2.4v5.4c0,0.7,0.3,1,1.1,1h1.2v1.7h-1.6
		c-1.7,0-2.8-0.7-2.8-2.7V194.6z"/>
	<path class="st3" d="M546.7,192.9h2.1l-6,14.3h-2.1l2-4.7l-3.8-9.6h2.2l2.7,7.4L546.7,192.9z"/>
	<path class="st3" d="M558.9,192.8c1.6,0,2.8,0.7,3.4,1.6v-1.4h2v9.9c0,2.7-1.7,4.6-4.8,4.6c-2.6,0-4.5-1.3-4.8-3.4h2
		c0.3,1,1.4,1.7,2.8,1.7c1.6,0,2.7-1,2.7-2.9v-1.6c-0.6,0.8-1.8,1.6-3.4,1.6c-2.6,0-4.6-2.1-4.6-5.1S556.3,192.8,558.9,192.8z
		 M559.3,194.5c-1.5,0-3,1.1-3,3.2s1.4,3.3,3,3.3c1.5,0,3-1.2,3-3.3C562.2,195.7,560.8,194.5,559.3,194.5z"/>
	<path class="st3" d="M571.1,202.8c-2.8,0-4.9-2-4.9-5c0-3.1,2-5,4.9-5c2.8,0,4.7,1.9,4.7,4.8c0,0.3,0,0.7-0.1,1h-7.4
		c0.1,1.6,1.3,2.6,2.8,2.6c1.2,0,1.9-0.6,2.3-1.4h2.2C575,201.5,573.5,202.8,571.1,202.8z M568.3,196.9h5.4c0-1.5-1.2-2.5-2.7-2.5
		C569.7,194.5,568.6,195.4,568.3,196.9z"/>
	<path class="st3" d="M584.7,197.2c0-1.8-1-2.7-2.4-2.7c-1.5,0-2.5,0.9-2.5,2.7v5.4h-2v-9.7h2v1.1c0.7-0.8,1.7-1.3,2.9-1.3
		c2.3,0,4,1.4,4,4.2v5.7h-2V197.2z"/>
	<path class="st3" d="M593.5,202.8c-2.8,0-4.9-2-4.9-5c0-3.1,2-5,4.9-5c2.8,0,4.7,1.9,4.7,4.8c0,0.3,0,0.7-0.1,1h-7.4
		c0.1,1.6,1.3,2.6,2.8,2.6c1.2,0,1.9-0.6,2.3-1.4h2.2C597.4,201.5,595.9,202.8,593.5,202.8z M590.7,196.9h5.4c0-1.5-1.2-2.5-2.7-2.5
		C592,194.5,590.9,195.4,590.7,196.9z"/>
	<path class="st3" d="M602.2,202.7h-2v-9.7h2v1.4c0.6-1,1.5-1.6,2.9-1.6v2.1h-0.5c-1.5,0-2.4,0.6-2.4,2.7V202.7z"/>
	<path class="st3" d="M610.9,192.8c1.6,0,2.8,0.8,3.4,1.6v-1.4h2v9.7h-2v-1.4c-0.6,0.8-1.8,1.6-3.4,1.6c-2.5,0-4.6-2.1-4.6-5.1
		S608.3,192.8,610.9,192.8z M611.3,194.5c-1.5,0-3,1.1-3,3.2s1.4,3.3,3,3.3c1.5,0,3-1.2,3-3.3C614.3,195.7,612.9,194.5,611.3,194.5z
		"/>
	<path class="st3" d="M619.3,194.6h-1.1v-1.6h1.1v-2.4h2v2.4h2.4v1.6h-2.4v5.4c0,0.7,0.3,1,1.1,1h1.2v1.7h-1.6
		c-1.7,0-2.8-0.7-2.8-2.7V194.6z"/>
	<path class="st3" d="M625.3,190.4c0-0.7,0.6-1.3,1.3-1.3c0.7,0,1.3,0.6,1.3,1.3s-0.6,1.3-1.3,1.3
		C625.8,191.7,625.3,191.1,625.3,190.4z M625.5,192.9h2v9.7h-2V192.9z"/>
	<path class="st3" d="M634.4,202.8c-2.8,0-4.9-2-4.9-5c0-3.1,2.2-5,5-5s5,2,5,5C639.5,200.9,637.2,202.8,634.4,202.8z M634.4,201.1
		c1.5,0,3-1.1,3-3.3c0-2.2-1.4-3.3-2.9-3.3c-1.5,0-2.9,1.1-2.9,3.3C631.6,200,632.9,201.1,634.4,201.1z"/>
	<path class="st3" d="M648.4,197.2c0-1.8-1-2.7-2.4-2.7c-1.5,0-2.5,0.9-2.5,2.7v5.4h-2v-9.7h2v1.1c0.7-0.8,1.7-1.3,2.9-1.3
		c2.3,0,4,1.4,4,4.2v5.7h-2V197.2z"/>
</g>
<g>
	<path class="st3" d="M144,258.9c-1.8,0-3.1-1.1-3.2-2.5h1.6c0.1,0.6,0.6,1.1,1.5,1.1c0.9,0,1.4-0.4,1.4-0.9c0-1.5-4.4-0.6-4.4-3.4
		c0-1.2,1.1-2.2,2.9-2.2c1.7,0,2.9,0.9,2.9,2.4h-1.6c-0.1-0.7-0.6-1.1-1.4-1.1c-0.8,0-1.3,0.3-1.3,0.9c0,1.5,4.3,0.7,4.4,3.4
		C146.9,257.9,145.8,258.9,144,258.9z"/>
	<path class="st3" d="M151.9,258.9c-2.2,0-3.8-1.5-3.8-3.9c0-2.4,1.7-3.9,3.9-3.9s3.9,1.5,3.9,3.9
		C155.8,257.4,154.1,258.9,151.9,258.9z M151.9,257.5c1.2,0,2.3-0.8,2.3-2.6c0-1.7-1.1-2.5-2.3-2.5c-1.2,0-2.2,0.8-2.2,2.5
		C149.7,256.7,150.7,257.5,151.9,257.5z"/>
	<path class="st3" d="M157.4,248.6h1.6v10.2h-1.6V248.6z"/>
	<path class="st3" d="M164.1,251.1c1.3,0,2.2,0.6,2.6,1.2v-1.1h1.6v7.6h-1.6v-1.1c-0.5,0.6-1.4,1.3-2.7,1.3c-2,0-3.6-1.6-3.6-4
		C160.5,252.6,162.1,251.1,164.1,251.1z M164.4,252.4c-1.2,0-2.3,0.9-2.3,2.5c0,1.6,1.1,2.6,2.3,2.6c1.2,0,2.3-0.9,2.3-2.6
		C166.7,253.3,165.6,252.4,164.4,252.4z"/>
	<path class="st3" d="M172,258.8h-1.6v-7.6h1.6v1.1c0.4-0.8,1.2-1.2,2.3-1.2v1.6h-0.4c-1.2,0-1.9,0.5-1.9,2.1V258.8z"/>
	<path class="st3" d="M183.5,251.1c2,0,3.6,1.5,3.6,3.9c0,2.3-1.6,4-3.6,4c-1.3,0-2.1-0.6-2.6-1.2v4.7h-1.6v-11.2h1.6v1.1
		C181.3,251.7,182.2,251.1,183.5,251.1z M183.1,252.4c-1.2,0-2.3,0.9-2.3,2.5c0,1.6,1.1,2.6,2.3,2.6c1.2,0,2.3-1,2.3-2.6
		C185.4,253.3,184.3,252.4,183.1,252.4z"/>
	<path class="st3" d="M188.6,248.6h1.6v3.5c0.5-0.6,1.4-1,2.4-1c1.7,0,3,1.1,3,3.2v4.5H194v-4.2c0-1.4-0.8-2.1-1.9-2.1
		c-1.2,0-1.9,0.7-1.9,2.1v4.2h-1.6V248.6z"/>
	<path class="st3" d="M200.8,258.9c-2.2,0-3.8-1.5-3.8-3.9c0-2.4,1.7-3.9,3.9-3.9s3.9,1.5,3.9,3.9
		C204.8,257.4,203,258.9,200.8,258.9z M200.8,257.5c1.2,0,2.3-0.8,2.3-2.6c0-1.7-1.1-2.5-2.3-2.5c-1.2,0-2.2,0.8-2.2,2.5
		C198.6,256.7,199.6,257.5,200.8,257.5z"/>
	<path class="st3" d="M206.6,252.5h-0.9v-1.3h0.9v-1.9h1.6v1.9h1.8v1.3h-1.8v4.2c0,0.6,0.2,0.8,0.9,0.8h1v1.3h-1.2
		c-1.4,0-2.2-0.6-2.2-2.1V252.5z"/>
	<path class="st3" d="M214.7,258.9c-2.2,0-3.8-1.5-3.8-3.9c0-2.4,1.7-3.9,3.9-3.9s3.9,1.5,3.9,3.9
		C218.7,257.4,216.9,258.9,214.7,258.9z M214.7,257.5c1.2,0,2.3-0.8,2.3-2.6c0-1.7-1.1-2.5-2.3-2.5c-1.2,0-2.2,0.8-2.2,2.5
		C212.5,256.7,213.6,257.5,214.7,257.5z"/>
	<path class="st3" d="M221,251.2l2.1,6.2l2.2-6.2h1.7l-2.9,7.6h-1.9l-2.9-7.6H221z"/>
	<path class="st3" d="M231.5,258.9c-2.2,0-3.8-1.5-3.8-3.9c0-2.4,1.7-3.9,3.9-3.9s3.9,1.5,3.9,3.9
		C235.4,257.4,233.6,258.9,231.5,258.9z M231.5,257.5c1.2,0,2.3-0.8,2.3-2.6c0-1.7-1.1-2.5-2.3-2.5c-1.2,0-2.2,0.8-2.2,2.5
		C229.3,256.7,230.3,257.5,231.5,257.5z"/>
	<path class="st3" d="M237,248.6h1.6v10.2H237V248.6z"/>
	<path class="st3" d="M240.8,252.5h-0.9v-1.3h0.9v-1.9h1.6v1.9h1.8v1.3h-1.8v4.2c0,0.6,0.2,0.8,0.9,0.8h1v1.3H243
		c-1.4,0-2.2-0.6-2.2-2.1V252.5z"/>
	<path class="st3" d="M248.8,251.1c1.3,0,2.2,0.6,2.6,1.2v-1.1h1.6v7.6h-1.6v-1.1c-0.5,0.6-1.4,1.3-2.7,1.3c-2,0-3.6-1.6-3.6-4
		C245.2,252.6,246.8,251.1,248.8,251.1z M249.1,252.4c-1.2,0-2.3,0.9-2.3,2.5c0,1.6,1.1,2.6,2.3,2.6c1.2,0,2.3-0.9,2.3-2.6
		C251.4,253.3,250.3,252.4,249.1,252.4z"/>
	<path class="st3" d="M254.9,249.2c0-0.6,0.4-1,1-1c0.6,0,1,0.4,1,1c0,0.6-0.4,1-1,1C255.3,250.2,254.9,249.7,254.9,249.2z
		 M255.1,251.2h1.6v7.6h-1.6V251.2z"/>
	<path class="st3" d="M261.9,251.1c1.9,0,3.1,0.9,3.5,2.5h-1.7c-0.3-0.7-0.9-1.2-1.8-1.2c-1.3,0-2.1,0.9-2.1,2.6
		c0,1.7,0.8,2.6,2.1,2.6c0.9,0,1.5-0.4,1.8-1.2h1.7c-0.4,1.5-1.6,2.5-3.5,2.5c-2.2,0-3.7-1.5-3.7-3.9
		C258.2,252.6,259.7,251.1,261.9,251.1z"/>
</g>
<g>
	<path class="st14" d="M902.3,179.5c2.7-2.4,5.6-4.5,5.6-6.8c0-1.2-0.5-2-1.9-2c-1.3,0-2,0.9-2,2.2h-1.8c0.1-2.5,1.7-3.7,3.7-3.7
		c2.4,0,3.7,1.4,3.7,3.5c0,2.8-2.9,5-4.7,6.7h5.1v1.5h-7.7V179.5z"/>
	<path class="st14" d="M919.1,169.3v1.6h-5.3v3.2c0.4-0.6,1.4-1.1,2.4-1.1c2.9,0,3.7,2.1,3.7,3.9c0,2.3-1.3,4.1-4,4.1
		c-2.4,0-3.8-1.3-4.1-3.1h1.8c0.2,1,1.1,1.6,2.3,1.6c1.6,0,2.3-1.1,2.3-2.5c0-1.5-0.8-2.4-2.3-2.4c-1.1,0-1.8,0.6-2.1,1.5h-1.7v-6.7
		H919.1z"/>
	<path class="st14" d="M926,169.1c3.3,0,4.1,2.6,4.1,5.9c0,3.4-0.9,5.9-4.1,5.9s-4.1-2.6-4.1-5.9C921.8,171.7,922.7,169.1,926,169.1
		z M926,170.8c-2.1,0-2.4,2-2.4,4.2c0,2.3,0.2,4.3,2.4,4.3s2.4-2,2.4-4.3C928.3,172.8,928.1,170.8,926,170.8z"/>
	<path class="st14" d="M946.7,173.1h-2.2c-0.6-1.1-1.6-1.7-3-1.7c-2.2,0-3.8,1.6-3.8,4s1.6,4,3.8,4c2,0,3.3-1.2,3.5-3.1h-4.2v-1.5
		h6.1v1.4c-0.3,2.6-2.5,4.8-5.5,4.8c-3.1,0-5.7-2.3-5.7-5.7c0-3.3,2.5-5.7,5.7-5.7C943.8,169.7,945.8,170.9,946.7,173.1z"/>
	<path class="st14" d="M947.9,169.9h1.9l2.3,9l2.5-9h2l2.3,9l2.3-9h1.9l-3.3,11.1h-2.1l-2.3-8.4l-2.5,8.4l-2,0L947.9,169.9z"/>
	<path class="st14" d="M969.6,172c2.3,0,4.1,1.8,4.1,4.5c0,2.7-1.8,4.6-4.1,4.6c-1.5,0-2.5-0.7-3.1-1.4v5.5h-1.8v-13h1.8v1.3
		C967.1,172.7,968.1,172,969.6,172z M969.2,173.6c-1.4,0-2.7,1.1-2.7,3c0,1.9,1.3,3,2.7,3c1.4,0,2.7-1.1,2.7-3
		C971.9,174.6,970.6,173.6,969.2,173.6z"/>
	<path class="st14" d="M983.5,181.1c-2.5,0-4.4-1.8-4.4-4.5s2-4.5,4.5-4.5c2.5,0,4.5,1.8,4.5,4.5S986,181.1,983.5,181.1z
		 M983.5,179.5c1.4,0,2.7-1,2.7-3s-1.3-3-2.6-3c-1.4,0-2.6,1-2.6,3S982.1,179.5,983.5,179.5z"/>
	<path class="st14" d="M990.1,173.6h-1v-1.5h1v-0.6c0-2,1-2.9,3.3-2.9v1.5c-1.1,0-1.5,0.4-1.5,1.4v0.6h1.6v1.5h-1.6v7.3h-1.8V173.6z
		"/>
	<path class="st14" d="M1002.5,181.1c-2.1,0-3.6-1.2-3.7-2.8h1.9c0.1,0.7,0.8,1.3,1.8,1.3c1.1,0,1.6-0.4,1.6-1.1
		c0-1.7-5.1-0.7-5.1-4c0-1.4,1.3-2.5,3.4-2.5c2,0,3.3,1.1,3.4,2.8h-1.8c-0.1-0.8-0.7-1.3-1.6-1.3c-1,0-1.5,0.4-1.5,1
		c0,1.8,5,0.8,5.1,4C1005.8,180,1004.5,181.1,1002.5,181.1z"/>
	<path class="st14" d="M1011.6,181.1c-2.5,0-4.4-1.8-4.4-4.5s2-4.5,4.5-4.5c2.5,0,4.5,1.8,4.5,4.5S1014.1,181.1,1011.6,181.1z
		 M1011.6,179.5c1.4,0,2.7-1,2.7-3s-1.3-3-2.6-3c-1.4,0-2.6,1-2.6,3S1010.2,179.5,1011.6,179.5z"/>
	<path class="st14" d="M1018,169.1h1.8v11.8h-1.8V169.1z"/>
	<path class="st14" d="M1025.7,172c1.5,0,2.5,0.7,3,1.4v-1.3h1.8v8.8h-1.8v-1.3c-0.6,0.7-1.6,1.5-3.1,1.5c-2.3,0-4.1-1.9-4.1-4.6
		C1021.6,173.8,1023.4,172,1025.7,172z M1026.1,173.6c-1.4,0-2.7,1-2.7,2.9c0,1.9,1.3,3,2.7,3c1.4,0,2.7-1.1,2.7-3
		C1028.7,174.7,1027.5,173.6,1026.1,173.6z"/>
	<path class="st14" d="M1034.8,180.9h-1.8v-8.8h1.8v1.3c0.5-0.9,1.4-1.4,2.6-1.4v1.9h-0.5c-1.3,0-2.2,0.6-2.2,2.4V180.9z"/>
	<path class="st14" d="M1047.1,176.4h-2v4.5h-1.8v-11.1h3.8c2.6,0,3.9,1.5,3.9,3.3C1051,174.7,1050,176.4,1047.1,176.4z M1047.1,175
		c1.4,0,2.1-0.7,2.1-1.8c0-1.1-0.6-1.8-2.1-1.8h-2v3.6H1047.1z"/>
	<path class="st14" d="M1060.4,169.9h1.9l-4.2,11.1h-2.1l-4.2-11.1h1.9l3.3,9.2L1060.4,169.9z"/>
	<path class="st14" d="M906.5,200.2c-2.5,0-4.4-1.8-4.4-4.5c0-2.8,1.8-4.5,4.4-4.5c2.5,0,4.3,1.7,4.3,4.3c0,0.3,0,0.6-0.1,0.9H904
		c0.1,1.5,1.2,2.3,2.5,2.3c1.1,0,1.7-0.5,2.1-1.2h2C910,199,908.6,200.2,906.5,200.2z M904,194.9h4.9c0-1.4-1.1-2.2-2.5-2.2
		C905.2,192.7,904.2,193.5,904,194.9z"/>
	<path class="st14" d="M918.8,195.2c0-1.6-0.9-2.4-2.2-2.4c-1.3,0-2.2,0.8-2.2,2.4v4.9h-1.8v-8.8h1.8v1c0.6-0.7,1.6-1.1,2.6-1.1
		c2.1,0,3.6,1.3,3.6,3.7v5.2h-1.8V195.2z"/>
	<path class="st14" d="M926.7,200.2c-2.5,0-4.4-1.8-4.4-4.5c0-2.8,1.8-4.5,4.4-4.5c2.5,0,4.3,1.7,4.3,4.3c0,0.3,0,0.6-0.1,0.9h-6.7
		c0.1,1.5,1.2,2.3,2.5,2.3c1.1,0,1.7-0.5,2.1-1.2h2C930.2,199,928.8,200.2,926.7,200.2z M924.2,194.9h4.9c0-1.4-1.1-2.2-2.5-2.2
		C925.3,192.7,924.4,193.5,924.2,194.9z"/>
	<path class="st14" d="M934.5,200.1h-1.8v-8.8h1.8v1.3c0.5-0.9,1.4-1.4,2.6-1.4v1.9h-0.5c-1.3,0-2.2,0.6-2.2,2.4V200.1z"/>
	<path class="st14" d="M942.4,191.2c1.4,0,2.5,0.7,3,1.4v-1.3h1.8v8.9c0,2.4-1.5,4.2-4.3,4.2c-2.3,0-4.1-1.2-4.3-3.1h1.8
		c0.3,0.9,1.2,1.5,2.5,1.5c1.4,0,2.5-0.9,2.5-2.6v-1.5c-0.6,0.7-1.6,1.5-3,1.5c-2.3,0-4.1-1.9-4.1-4.6S940.1,191.2,942.4,191.2z
		 M942.8,192.7c-1.4,0-2.7,1-2.7,2.9s1.3,3,2.7,3c1.4,0,2.7-1.1,2.7-3C945.4,193.8,944.1,192.7,942.8,192.7z"/>
	<path class="st14" d="M955.7,191.3h1.9l-5.4,12.9h-1.9l1.8-4.3l-3.5-8.6h2l2.5,6.7L955.7,191.3z"/>
	<path class="st14" d="M962.8,189c0-0.7,0.5-1.2,1.2-1.2c0.6,0,1.1,0.5,1.1,1.2c0,0.7-0.5,1.2-1.1,1.2
		C963.3,190.1,962.8,189.6,962.8,189z M963.1,191.3h1.8v8.8h-1.8V191.3z"/>
	<path class="st14" d="M973.5,195.2c0-1.6-0.9-2.4-2.2-2.4c-1.3,0-2.2,0.8-2.2,2.4v4.9h-1.8v-8.8h1.8v1c0.6-0.7,1.6-1.1,2.6-1.1
		c2.1,0,3.6,1.3,3.6,3.7v5.2h-1.8V195.2z"/>
	<path class="st14" d="M983.6,189v9.6h3.7v1.5h-5.6V189H983.6z"/>
	<path class="st14" d="M992.4,191.2c1.5,0,2.5,0.7,3,1.4v-1.3h1.8v8.8h-1.8v-1.3c-0.6,0.8-1.6,1.5-3.1,1.5c-2.3,0-4.1-1.9-4.1-4.6
		S990.1,191.2,992.4,191.2z M992.8,192.7c-1.4,0-2.7,1-2.7,2.9s1.3,3,2.7,3c1.4,0,2.7-1.1,2.7-3
		C995.4,193.8,994.1,192.7,992.8,192.7z"/>
	<path class="st14" d="M1000,192.8h-1v-1.5h1v-2.2h1.8v2.2h2.1v1.5h-2.1v4.9c0,0.7,0.3,0.9,1,0.9h1.1v1.5h-1.4
		c-1.6,0-2.5-0.7-2.5-2.4V192.8z"/>
	<path class="st14" d="M1012.3,197.8h-4.6l-0.8,2.3h-1.9l4-11.1h2.1l4,11.1h-1.9L1012.3,197.8z M1010,191.2l-1.8,5.2h3.6L1010,191.2
		z"/>
	<path class="st14" d="M1029.2,195.2c0-1.6-0.9-2.4-2.2-2.4c-1.3,0-2.2,0.8-2.2,2.4v4.9h-1.8v-4.9c0-1.6-0.9-2.4-2.2-2.4
		c-1.3,0-2.2,0.8-2.2,2.4v4.9h-1.8v-8.8h1.8v1c0.6-0.7,1.5-1.1,2.6-1.1c1.4,0,2.6,0.6,3.2,1.7c0.5-1.1,1.8-1.7,3.1-1.7
		c2.1,0,3.6,1.3,3.6,3.7v5.2h-1.8V195.2z"/>
	<path class="st14" d="M907.6,210.3c2.3,0,4.1,1.8,4.1,4.5c0,2.7-1.8,4.6-4.1,4.6c-1.5,0-2.5-0.7-3.1-1.4v1.3h-1.8v-11.8h1.8v4.3
		C905.1,210.9,906.2,210.3,907.6,210.3z M907.2,211.9c-1.4,0-2.7,1.1-2.7,3c0,1.9,1.3,3,2.7,3c1.4,0,2.7-1.1,2.7-3
		C909.9,212.9,908.5,211.9,907.2,211.9z"/>
	<path class="st14" d="M919.5,210.4h1.9l-5.4,12.9h-1.9l1.8-4.3l-3.5-8.6h2l2.5,6.7L919.5,210.4z"/>
	<path class="st14" d="M926.5,217.7c2.7-2.4,5.6-4.5,5.6-6.8c0-1.2-0.5-2-1.9-2c-1.3,0-2,0.9-2,2.2h-1.8c0.1-2.5,1.7-3.7,3.7-3.7
		c2.4,0,3.7,1.4,3.7,3.5c0,2.8-2.9,5-4.7,6.7h5.1v1.5h-7.7V217.7z"/>
	<path class="st14" d="M940,207.4c3.3,0,4.1,2.6,4.1,5.9c0,3.4-0.9,5.9-4.1,5.9s-4.1-2.6-4.1-5.9C935.9,209.9,936.8,207.4,940,207.4
		z M940,209c-2.1,0-2.4,2-2.4,4.2c0,2.3,0.2,4.3,2.4,4.3s2.4-2,2.4-4.3C942.4,211.1,942.2,209,940,209z"/>
	<path class="st14" d="M949.9,207.3c2.3,0,3.6,1.3,3.6,3c0,1.4-0.9,2.3-1.8,2.6v0.1c1.2,0.4,2,1.4,2,3c0,1.8-1.3,3.3-3.7,3.3
		c-2.2,0-3.9-1.1-4-3.4h1.8c0.1,1.1,0.9,1.9,2.2,1.9c1.4,0,2-0.8,2-1.9c0-1.5-1-2.1-2.9-2.1h-0.4v-1.5h0.4c1.6,0,2.6-0.5,2.6-1.7
		c0-1-0.7-1.7-1.9-1.7c-1.3,0-1.9,0.8-2,1.6h-1.8C946.2,208.4,947.8,207.3,949.9,207.3z"/>
	<path class="st14" d="M959.7,207.4c3.3,0,4.1,2.6,4.1,5.9c0,3.4-0.9,5.9-4.1,5.9s-4.1-2.6-4.1-5.9
		C955.6,209.9,956.5,207.4,959.7,207.4z M959.7,209c-2.1,0-2.4,2-2.4,4.2c0,2.3,0.2,4.3,2.4,4.3s2.4-2,2.4-4.3
		C962.1,211.1,961.8,209,959.7,209z"/>
</g>
<g>
	<path class="st14" d="M897.6,101.9c-4.4,0-8-3.3-8-8c0-4.7,3.6-8,8-8c4.4,0,8,3.3,8,8C905.5,98.6,902,101.9,897.6,101.9z
		 M897.6,99.1c2.8,0,4.8-2,4.8-5.2s-1.9-5.2-4.8-5.2c-2.8,0-4.8,2-4.8,5.2S894.7,99.1,897.6,99.1z"/>
	<path class="st14" d="M915.1,89.2c3.2,0,5.6,2.5,5.6,6.3s-2.5,6.4-5.6,6.4c-1.9,0-3.3-1-4.1-2v7.7h-3.1V89.4h3.1v1.8
		C911.7,90.1,913.1,89.2,915.1,89.2z M914.2,91.9c-1.7,0-3.3,1.3-3.3,3.6c0,2.3,1.6,3.6,3.3,3.6c1.7,0,3.3-1.3,3.3-3.7
		C917.5,93.2,915.9,91.9,914.2,91.9z"/>
	<path class="st14" d="M930.2,89.2c3.2,0,5.6,2.5,5.6,6.3s-2.5,6.4-5.6,6.4c-1.9,0-3.3-1-4.1-2v7.7H923V89.4h3.1v1.8
		C926.8,90.1,928.3,89.2,930.2,89.2z M929.4,91.9c-1.7,0-3.3,1.3-3.3,3.6c0,2.3,1.6,3.6,3.3,3.6c1.7,0,3.3-1.3,3.3-3.7
		C932.6,93.2,931.1,91.9,929.4,91.9z"/>
	<path class="st14" d="M943.6,102c-3.6,0-6.3-2.5-6.3-6.4c0-3.9,2.8-6.4,6.4-6.4s6.4,2.5,6.4,6.4C950.1,99.5,947.2,102,943.6,102z
		 M943.6,99.2c1.7,0,3.2-1.2,3.2-3.7c0-2.5-1.5-3.7-3.2-3.7c-1.7,0-3.1,1.2-3.1,3.7C940.5,98,941.9,99.2,943.6,99.2z"/>
	<path class="st14" d="M955.5,101.8h-3.1V89.4h3.1v1.9c0.8-1.3,2.1-2.1,3.8-2.1v3.3h-0.8c-1.9,0-3,0.7-3,3.1V101.8z"/>
	<path class="st14" d="M961.9,92h-1.5v-2.6h1.5v-3.1h3.1v3.1h2.8V92H965v6c0,0.8,0.3,1.2,1.3,1.2h1.4v2.6h-2c-2.4,0-3.9-1-3.9-3.8
		V92z"/>
	<path class="st14" d="M981.7,101.8h-3.1v-1.6c-0.8,1-2.1,1.7-3.7,1.7c-2.9,0-5-1.9-5-5.3v-7.2h3.1v6.8c0,2,1.1,3.1,2.7,3.1
		c1.7,0,2.8-1.1,2.8-3.1v-6.8h3.1V101.8z"/>
	<path class="st14" d="M993.4,94.9c0-2-1.1-3.1-2.7-3.1c-1.7,0-2.8,1.1-2.8,3.1v6.8h-3.1V89.4h3.1v1.5c0.8-1,2.1-1.7,3.7-1.7
		c2.9,0,4.9,1.9,4.9,5.3v7.2h-3.1V94.9z"/>
	<path class="st14" d="M999.2,86.1c0-1,0.8-1.8,1.9-1.8c1.1,0,1.9,0.8,1.9,1.8s-0.8,1.8-1.9,1.8C1000,87.9,999.2,87.1,999.2,86.1z
		 M999.5,89.4h3.1v12.4h-3.1V89.4z"/>
	<path class="st14" d="M1006.2,92h-1.5v-2.6h1.5v-3.1h3.1v3.1h2.8V92h-2.8v6c0,0.8,0.3,1.2,1.3,1.2h1.4v2.6h-2c-2.4,0-3.9-1-3.9-3.8
		V92z"/>
	<path class="st14" d="M1014.1,86.1c0-1,0.8-1.8,1.9-1.8c1.1,0,1.9,0.8,1.9,1.8s-0.8,1.8-1.9,1.8
		C1014.9,87.9,1014.1,87.1,1014.1,86.1z M1014.4,89.4h3.1v12.4h-3.1V89.4z"/>
	<path class="st14" d="M1026,102c-3.6,0-6.2-2.5-6.2-6.4c0-3.9,2.5-6.4,6.2-6.4c3.6,0,6.1,2.4,6.1,6.1c0,0.4,0,0.8-0.1,1.2h-9
		c0.2,1.8,1.4,2.9,3,2.9c1.3,0,2.1-0.7,2.5-1.5h3.4C1031.1,100.2,1029,102,1026,102z M1023,94.4h5.9c0-1.6-1.3-2.7-2.9-2.7
		C1024.4,91.8,1023.2,92.7,1023,94.4z"/>
	<path class="st14" d="M1039.1,102c-3.1,0-5.3-1.8-5.4-4.1h3.1c0.1,0.9,1,1.7,2.2,1.7c1.2,0,1.9-0.6,1.9-1.3c0-2.2-7-0.8-7-5.3
		c0-2.1,1.8-3.7,4.9-3.7c3,0,4.8,1.6,5,4.1h-3c-0.1-1-0.8-1.6-2.1-1.6c-1.2,0-1.8,0.5-1.8,1.2c0,2.3,6.8,0.8,6.9,5.4
		C1044,100.4,1042.1,102,1039.1,102z"/>
	<path class="st14" d="M918.3,112.9c0-1,0.8-1.8,1.9-1.8c1.1,0,1.9,0.8,1.9,1.8c0,1-0.8,1.8-1.9,1.8
		C919.1,114.7,918.3,113.9,918.3,112.9z M918.6,116.2h3.1v12.4h-3.1V116.2z"/>
	<path class="st14" d="M933.5,121.7c0-2-1.1-3.1-2.7-3.1c-1.7,0-2.8,1.1-2.8,3.1v6.8h-3.1v-12.4h3.1v1.5c0.8-1,2.1-1.7,3.7-1.7
		c2.9,0,4.9,1.9,4.9,5.3v7.2h-3.1V121.7z"/>
	<path class="st14" d="M948,113v13.1h5.1v2.5h-8.3V113H948z"/>
	<path class="st14" d="M960,116c2,0,3.3,0.9,4.1,2v-1.8h3.1v12.4H964v-1.8c-0.7,1.1-2.1,2-4.1,2c-3.1,0-5.6-2.6-5.6-6.4
		S956.8,116,960,116z M960.8,118.7c-1.7,0-3.3,1.2-3.3,3.6c0,2.3,1.6,3.7,3.3,3.7c1.7,0,3.3-1.3,3.3-3.6S962.5,118.7,960.8,118.7z"
		/>
	<path class="st14" d="M970.7,118.7h-1.5v-2.6h1.5v-3.1h3.1v3.1h2.8v2.6h-2.8v6c0,0.8,0.3,1.2,1.3,1.2h1.4v2.6h-2
		c-2.4,0-3.9-1-3.9-3.8V118.7z"/>
	<path class="st14" d="M988.4,125.6h-6.2l-1,3h-3.3l5.6-15.6h3.6l5.6,15.6h-3.3L988.4,125.6z M985.3,116.6l-2.3,6.5h4.5L985.3,116.6
		z"/>
	<path class="st14" d="M1012.2,121.7c0-2-1.1-3-2.7-3c-1.7,0-2.8,1-2.8,3v6.8h-3.1v-6.8c0-2-1.1-3-2.7-3c-1.7,0-2.8,1-2.8,3v6.8
		h-3.1v-12.4h3.1v1.5c0.8-1,2.1-1.7,3.6-1.7c1.9,0,3.5,0.8,4.3,2.4c0.8-1.4,2.4-2.4,4.2-2.4c3,0,5.1,1.9,5.1,5.3v7.2h-3.1V121.7z"/>
</g>
<g>
	<path class="st14" d="M908,275.1v3.3h3.2v1.5H908v3.3h-1.7v-3.3h-3.2v-1.5h3.2v-3.3H908z"/>
	<path class="st14" d="M921.3,273.3v1.6H916v3.2c0.4-0.6,1.4-1.1,2.4-1.1c2.9,0,3.7,2.1,3.7,3.9c0,2.3-1.3,4.1-4,4.1
		c-2.4,0-3.8-1.3-4.1-3.1h1.8c0.2,1,1.1,1.6,2.3,1.6c1.6,0,2.3-1.1,2.3-2.5c0-1.5-0.8-2.4-2.3-2.4c-1.1,0-1.8,0.6-2.1,1.5h-1.7v-6.7
		H921.3z"/>
	<path class="st14" d="M925,285c-0.7,0-1.2-0.5-1.2-1.2c0-0.7,0.5-1.2,1.2-1.2c0.6,0,1.1,0.5,1.1,1.2C926.1,284.5,925.6,285,925,285
		z"/>
	<path class="st14" d="M932,273.1c3.3,0,4.1,2.6,4.1,5.9c0,3.4-0.9,5.9-4.1,5.9s-4.1-2.6-4.1-5.9C927.9,275.6,928.8,273.1,932,273.1
		z M932,274.8c-2.1,0-2.4,2-2.4,4.2c0,2.3,0.2,4.3,2.4,4.3s2.4-2,2.4-4.3C934.4,276.8,934.1,274.8,932,274.8z"/>
	<path class="st14" d="M940.2,273.6c1.4,0,2.4,0.9,2.4,2.5c0,1.6-1,2.5-2.4,2.5c-1.4,0-2.4-0.9-2.4-2.5
		C937.8,274.5,938.8,273.6,940.2,273.6z M939.2,276.1c0,1,0.4,1.4,1,1.4c0.6,0,1-0.4,1-1.4c0-1-0.4-1.4-1-1.4
		C939.6,274.7,939.2,275.1,939.2,276.1z M945.7,273.8h1.8l-6.4,11.1h-1.8L945.7,273.8z M946.7,280.1c1.4,0,2.4,0.9,2.4,2.5
		s-1,2.5-2.4,2.5c-1.4,0-2.4-0.9-2.4-2.5S945.3,280.1,946.7,280.1z M945.7,282.6c0,1,0.4,1.4,1,1.4c0.6,0,1-0.4,1-1.4
		c0-1-0.4-1.4-1-1.4C946.1,281.2,945.7,281.6,945.7,282.6z"/>
	<path class="st14" d="M958.7,276c1.5,0,2.5,0.7,3,1.4v-1.3h1.8v8.8h-1.8v-1.3c-0.6,0.8-1.6,1.5-3.1,1.5c-2.3,0-4.1-1.9-4.1-4.6
		S956.4,276,958.7,276z M959.1,277.6c-1.4,0-2.7,1-2.7,2.9s1.3,3,2.7,3c1.4,0,2.7-1.1,2.7-3C961.7,278.6,960.4,277.6,959.1,277.6z"
		/>
	<path class="st14" d="M972.2,280c0-1.6-0.9-2.4-2.2-2.4c-1.3,0-2.2,0.8-2.2,2.4v4.9h-1.8v-8.8h1.8v1c0.6-0.7,1.6-1.1,2.6-1.1
		c2.1,0,3.6,1.3,3.6,3.7v5.2h-1.8V280z"/>
	<path class="st14" d="M982.5,280c0-1.6-0.9-2.4-2.2-2.4c-1.3,0-2.2,0.8-2.2,2.4v4.9h-1.8v-8.8h1.8v1c0.6-0.7,1.6-1.1,2.6-1.1
		c2.1,0,3.6,1.3,3.6,3.7v5.2h-1.8V280z"/>
	<path class="st14" d="M994.6,284.9h-1.8v-1.1c-0.6,0.8-1.6,1.2-2.6,1.2c-2.1,0-3.6-1.3-3.6-3.7v-5.2h1.8v4.9c0,1.6,0.9,2.4,2.2,2.4
		c1.3,0,2.2-0.8,2.2-2.4v-4.9h1.8V284.9z"/>
	<path class="st14" d="M1000.5,276c1.5,0,2.5,0.7,3,1.4v-1.3h1.8v8.8h-1.8v-1.3c-0.6,0.8-1.6,1.5-3.1,1.5c-2.3,0-4.1-1.9-4.1-4.6
		S998.2,276,1000.5,276z M1000.9,277.6c-1.4,0-2.7,1-2.7,2.9s1.3,3,2.7,3c1.4,0,2.7-1.1,2.7-3
		C1003.6,278.6,1002.3,277.6,1000.9,277.6z"/>
	<path class="st14" d="M1007.8,273.1h1.8v11.8h-1.8V273.1z"/>
	<path class="st14" d="M1019.7,276c1.4,0,2.5,0.7,3,1.4v-1.3h1.8v8.9c0,2.4-1.5,4.2-4.3,4.2c-2.3,0-4.1-1.2-4.3-3.1h1.8
		c0.3,0.9,1.2,1.5,2.5,1.5c1.4,0,2.5-0.9,2.5-2.6v-1.5c-0.6,0.7-1.6,1.5-3,1.5c-2.3,0-4.1-1.9-4.1-4.6S1017.4,276,1019.7,276z
		 M1020.1,277.6c-1.4,0-2.7,1-2.7,2.9s1.3,3,2.7,3c1.4,0,2.7-1.1,2.7-3C1022.7,278.6,1021.4,277.6,1020.1,277.6z"/>
	<path class="st14" d="M1028.8,284.9h-1.8v-8.8h1.8v1.3c0.5-0.9,1.4-1.4,2.6-1.4v1.9h-0.5c-1.3,0-2.2,0.6-2.2,2.4V284.9z"/>
	<path class="st14" d="M1036.9,285.1c-2.5,0-4.4-1.8-4.4-4.5c0-2.8,2-4.5,4.5-4.5c2.5,0,4.5,1.8,4.5,4.5
		C1041.5,283.3,1039.4,285.1,1036.9,285.1z M1036.9,283.5c1.4,0,2.7-1,2.7-3s-1.3-2.9-2.6-2.9c-1.4,0-2.6,1-2.6,2.9
		S1035.5,283.5,1036.9,283.5z"/>
	<path class="st14" d="M1042.2,276.1h1.8l1.8,7.1l1.9-7.1h1.9l1.8,7l1.8-7h1.8l-2.7,8.8h-1.9l-1.8-6.5l-1.8,6.5h-1.9L1042.2,276.1z"
		/>
	<path class="st14" d="M1056.7,277.6h-1v-1.5h1V274h1.8v2.2h2.1v1.5h-2.1v4.9c0,0.7,0.3,0.9,1,0.9h1.1v1.5h-1.4
		c-1.6,0-2.5-0.7-2.5-2.4V277.6z"/>
	<path class="st14" d="M1062.3,273.1h1.8v4c0.6-0.7,1.6-1.2,2.7-1.2c2,0,3.5,1.3,3.5,3.7v5.2h-1.8V280c0-1.6-0.9-2.4-2.2-2.4
		c-1.3,0-2.2,0.8-2.2,2.4v4.9h-1.8V273.1z"/>
	<path class="st14" d="M902.5,292.9c0-0.7,0.5-1.2,1.2-1.2c0.6,0,1.1,0.5,1.1,1.2c0,0.7-0.5,1.2-1.1,1.2
		C903,294.1,902.5,293.6,902.5,292.9z M902.7,295.3h1.8v8.8h-1.8V295.3z"/>
	<path class="st14" d="M913.1,299.2c0-1.6-0.9-2.4-2.2-2.4c-1.3,0-2.2,0.8-2.2,2.4v4.9h-1.8v-8.8h1.8v1c0.6-0.7,1.6-1.1,2.6-1.1
		c2.1,0,3.6,1.3,3.6,3.7v5.2h-1.8V299.2z"/>
	<path class="st14" d="M925.2,304.2c-2.5,0-4.4-1.8-4.4-4.5c0-2.8,1.8-4.5,4.4-4.5c2.5,0,4.3,1.7,4.3,4.3c0,0.3,0,0.6-0.1,0.9h-6.7
		c0.1,1.5,1.2,2.3,2.5,2.3c1.1,0,1.7-0.5,2.1-1.2h2C928.7,303,927.3,304.2,925.2,304.2z M922.7,298.9h4.9c0-1.4-1.1-2.2-2.5-2.2
		C923.9,296.7,922.9,297.5,922.7,298.9z"/>
	<path class="st14" d="M937.5,299.2c0-1.6-0.9-2.4-2.2-2.4c-1.3,0-2.2,0.8-2.2,2.4v4.9h-1.8v-8.8h1.8v1c0.6-0.7,1.6-1.1,2.6-1.1
		c2.1,0,3.6,1.3,3.6,3.7v5.2h-1.8V299.2z"/>
	<path class="st14" d="M945.4,304.2c-2.5,0-4.4-1.8-4.4-4.5c0-2.8,1.8-4.5,4.4-4.5c2.5,0,4.3,1.7,4.3,4.3c0,0.3,0,0.6-0.1,0.9h-6.7
		c0.1,1.5,1.2,2.3,2.5,2.3c1.1,0,1.7-0.5,2.1-1.2h2C948.9,303,947.5,304.2,945.4,304.2z M942.9,298.9h4.9c0-1.4-1.1-2.2-2.5-2.2
		C944.1,296.7,943.1,297.5,942.9,298.9z"/>
	<path class="st14" d="M953.2,304.1h-1.8v-8.8h1.8v1.3c0.5-0.9,1.4-1.4,2.6-1.4v1.9h-0.5c-1.3,0-2.2,0.6-2.2,2.4V304.1z"/>
	<path class="st14" d="M961.1,295.1c1.4,0,2.5,0.7,3,1.4v-1.3h1.8v8.9c0,2.4-1.5,4.2-4.3,4.2c-2.3,0-4.1-1.2-4.3-3.1h1.8
		c0.3,0.9,1.2,1.5,2.5,1.5c1.4,0,2.5-0.9,2.5-2.6v-1.5c-0.6,0.7-1.6,1.5-3,1.5c-2.3,0-4.1-1.9-4.1-4.6S958.8,295.1,961.1,295.1z
		 M961.5,296.7c-1.4,0-2.7,1-2.7,2.9s1.3,3,2.7,3c1.4,0,2.7-1.1,2.7-3C964.1,297.8,962.8,296.7,961.5,296.7z"/>
	<path class="st14" d="M974.4,295.3h1.9l-5.4,12.9H969l1.8-4.3l-3.5-8.6h2l2.5,6.7L974.4,295.3z"/>
	<path class="st14" d="M985.3,295.1c1.1,0,2.4,0.5,3,1.4v-4.2h1.8v11.8h-1.8v-1.3c-0.6,0.8-1.6,1.5-3,1.5c-2.3,0-4.1-1.9-4.1-4.6
		S983,295.1,985.3,295.1z M985.7,296.7c-1.4,0-2.7,1-2.7,2.9s1.3,3,2.7,3c1.4,0,2.7-1.1,2.7-3C988.4,297.8,987.1,296.7,985.7,296.7z
		"/>
	<path class="st14" d="M996.4,304.2c-2.5,0-4.4-1.8-4.4-4.5c0-2.8,1.8-4.5,4.4-4.5c2.5,0,4.3,1.7,4.3,4.3c0,0.3,0,0.6-0.1,0.9h-6.7
		c0.1,1.5,1.2,2.3,2.5,2.3c1.1,0,1.7-0.5,2.1-1.2h2C999.9,303,998.5,304.2,996.4,304.2z M993.9,298.9h4.9c0-1.4-1.1-2.2-2.5-2.2
		C995.1,296.7,994.1,297.5,993.9,298.9z"/>
	<path class="st14" d="M1014.9,299.2c0-1.6-0.9-2.4-2.2-2.4c-1.3,0-2.2,0.8-2.2,2.4v4.9h-1.8v-4.9c0-1.6-0.9-2.4-2.2-2.4
		c-1.3,0-2.2,0.8-2.2,2.4v4.9h-1.8v-8.8h1.8v1c0.6-0.7,1.5-1.1,2.6-1.1c1.4,0,2.6,0.6,3.2,1.7c0.5-1.1,1.8-1.7,3.1-1.7
		c2.1,0,3.6,1.3,3.6,3.7v5.2h-1.8V299.2z"/>
	<path class="st14" d="M1022.5,295.1c1.5,0,2.5,0.7,3,1.4v-1.3h1.8v8.8h-1.8v-1.3c-0.6,0.8-1.6,1.5-3.1,1.5c-2.3,0-4.1-1.9-4.1-4.6
		S1020.2,295.1,1022.5,295.1z M1022.9,296.7c-1.4,0-2.7,1-2.7,2.9s1.3,3,2.7,3c1.4,0,2.7-1.1,2.7-3
		C1025.6,297.8,1024.3,296.7,1022.9,296.7z"/>
	<path class="st14" d="M1036,299.2c0-1.6-0.9-2.4-2.2-2.4c-1.3,0-2.2,0.8-2.2,2.4v4.9h-1.8v-8.8h1.8v1c0.6-0.7,1.6-1.1,2.6-1.1
		c2.1,0,3.6,1.3,3.6,3.7v5.2h-1.8V299.2z"/>
	<path class="st14" d="M1043.7,295.1c1.1,0,2.4,0.5,3,1.4v-4.2h1.8v11.8h-1.8v-1.3c-0.6,0.8-1.6,1.5-3,1.5c-2.3,0-4.1-1.9-4.1-4.6
		S1041.4,295.1,1043.7,295.1z M1044.1,296.7c-1.4,0-2.7,1-2.7,2.9s1.3,3,2.7,3c1.4,0,2.7-1.1,2.7-3
		C1046.7,297.8,1045.4,296.7,1044.1,296.7z"/>
</g>
<g>
	<path class="st14" d="M906.5,375.8h-2v4.5h-1.8v-11.1h3.8c2.6,0,3.9,1.5,3.9,3.3C910.4,374.1,909.4,375.8,906.5,375.8z
		 M906.5,374.3c1.4,0,2.1-0.7,2.1-1.8c0-1.1-0.6-1.8-2.1-1.8h-2v3.6H906.5z"/>
	<path class="st14" d="M916,380.4c-2.5,0-4.4-1.8-4.4-4.5c0-2.8,2-4.5,4.5-4.5c2.5,0,4.5,1.8,4.5,4.5
		C920.6,378.6,918.5,380.4,916,380.4z M916,378.8c1.4,0,2.7-1,2.7-3s-1.3-2.9-2.6-2.9c-1.4,0-2.6,1-2.6,2.9S914.6,378.8,916,378.8z"
		/>
	<path class="st14" d="M927.2,371.3c2.3,0,4.1,1.8,4.1,4.5s-1.8,4.6-4.1,4.6c-1.5,0-2.5-0.7-3.1-1.4v5.5h-1.8v-13h1.8v1.3
		C924.7,372,925.8,371.3,927.2,371.3z M926.8,372.9c-1.4,0-2.7,1.1-2.7,2.9c0,1.9,1.3,3,2.7,3c1.4,0,2.7-1.1,2.7-3
		S928.2,372.9,926.8,372.9z"/>
	<path class="st14" d="M941.1,380.3h-1.8v-1.1c-0.6,0.8-1.6,1.2-2.6,1.2c-2.1,0-3.6-1.3-3.6-3.7v-5.2h1.8v4.9c0,1.6,0.9,2.4,2.2,2.4
		c1.3,0,2.2-0.8,2.2-2.4v-4.9h1.8V380.3z"/>
	<path class="st14" d="M943.5,368.5h1.8v11.8h-1.8V368.5z"/>
	<path class="st14" d="M951.3,371.3c1.5,0,2.5,0.7,3,1.4v-1.3h1.8v8.8h-1.8V379c-0.6,0.8-1.6,1.5-3.1,1.5c-2.3,0-4.1-1.9-4.1-4.6
		S948.9,371.3,951.3,371.3z M951.6,372.9c-1.4,0-2.7,1-2.7,2.9s1.3,3,2.7,3c1.4,0,2.7-1.1,2.7-3C954.3,374,953,372.9,951.6,372.9z"
		/>
	<path class="st14" d="M958.8,373h-1v-1.5h1v-2.2h1.8v2.2h2.1v1.5h-2.1v4.9c0,0.7,0.3,0.9,1,0.9h1.1v1.5h-1.4
		c-1.6,0-2.5-0.7-2.5-2.4V373z"/>
	<path class="st14" d="M964.2,369.2c0-0.7,0.5-1.2,1.2-1.2c0.6,0,1.1,0.5,1.1,1.2c0,0.7-0.5,1.2-1.1,1.2
		C964.7,370.3,964.2,369.8,964.2,369.2z M964.5,371.5h1.8v8.8h-1.8V371.5z"/>
	<path class="st14" d="M972.5,380.4c-2.5,0-4.4-1.8-4.4-4.5c0-2.8,2-4.5,4.5-4.5c2.5,0,4.5,1.8,4.5,4.5
		C977,378.6,975,380.4,972.5,380.4z M972.5,378.8c1.4,0,2.7-1,2.7-3s-1.3-2.9-2.6-2.9c-1.4,0-2.6,1-2.6,2.9S971.1,378.8,972.5,378.8
		z"/>
	<path class="st14" d="M985.1,375.4c0-1.6-0.9-2.4-2.2-2.4c-1.3,0-2.2,0.8-2.2,2.4v4.9h-1.8v-8.8h1.8v1c0.6-0.7,1.6-1.1,2.6-1.1
		c2.1,0,3.6,1.3,3.6,3.7v5.2h-1.8V375.4z"/>
	<path class="st14" d="M906.2,390.5c1.4,0,2.5,0.7,3,1.4v-1.3h1.8v8.9c0,2.4-1.5,4.2-4.3,4.2c-2.3,0-4.1-1.2-4.3-3.1h1.8
		c0.3,0.9,1.2,1.5,2.5,1.5c1.4,0,2.5-0.9,2.5-2.6v-1.5c-0.6,0.7-1.6,1.5-3,1.5c-2.3,0-4.1-1.9-4.1-4.6S903.9,390.5,906.2,390.5z
		 M906.6,392.1c-1.4,0-2.7,1-2.7,2.9s1.3,3,2.7,3c1.4,0,2.7-1.1,2.7-3C909.3,393.1,908,392.1,906.6,392.1z"/>
	<path class="st14" d="M915.3,399.4h-1.8v-8.8h1.8v1.3c0.5-0.9,1.4-1.4,2.6-1.4v1.9h-0.5c-1.3,0-2.2,0.6-2.2,2.4V399.4z"/>
	<path class="st14" d="M923.4,399.5c-2.5,0-4.4-1.8-4.4-4.5c0-2.8,2-4.5,4.5-4.5c2.5,0,4.5,1.8,4.5,4.5
		C928,397.8,926,399.5,923.4,399.5z M923.4,398c1.4,0,2.7-1,2.7-3s-1.3-2.9-2.6-2.9c-1.4,0-2.6,1-2.6,2.9S922.1,398,923.4,398z"/>
	<path class="st14" d="M928.8,390.6h1.8l1.8,7.1l1.9-7.1h1.9l1.8,7l1.8-7h1.8l-2.7,8.8H937l-1.8-6.5l-1.8,6.5h-1.9L928.8,390.6z"/>
	<path class="st14" d="M943.2,392.1h-1v-1.5h1v-2.2h1.8v2.2h2.1v1.5h-2.1v4.9c0,0.7,0.3,0.9,1,0.9h1.1v1.5h-1.4
		c-1.6,0-2.5-0.7-2.5-2.4V392.1z"/>
	<path class="st14" d="M948.9,387.6h1.8v4c0.6-0.7,1.6-1.2,2.7-1.2c2,0,3.5,1.3,3.5,3.7v5.2h-1.8v-4.9c0-1.6-0.9-2.4-2.2-2.4
		c-1.3,0-2.2,0.8-2.2,2.4v4.9h-1.8V387.6z"/>
</g>
<g>
	<path class="st14" d="M902.1,456.5h7.7v1.5h-3v9.6h-1.8V458h-3V456.5z"/>
	<path class="st14" d="M913.5,467.6h-1.8v-8.8h1.8v1.3c0.5-0.9,1.4-1.4,2.6-1.4v1.9h-0.5c-1.3,0-2.2,0.6-2.2,2.4V467.6z"/>
	<path class="st14" d="M921.3,458.6c1.5,0,2.5,0.7,3,1.4v-1.3h1.8v8.8h-1.8v-1.3c-0.6,0.8-1.6,1.5-3.1,1.5c-2.3,0-4.1-1.9-4.1-4.6
		S919,458.6,921.3,458.6z M921.7,460.2c-1.4,0-2.7,1-2.7,2.9s1.3,3,2.7,3c1.4,0,2.7-1.1,2.7-3C924.4,461.3,923.1,460.2,921.7,460.2z
		"/>
	<path class="st14" d="M934.9,462.7c0-1.6-0.9-2.4-2.2-2.4c-1.3,0-2.2,0.8-2.2,2.4v4.9h-1.8v-8.8h1.8v1c0.6-0.7,1.6-1.1,2.6-1.1
		c2.1,0,3.6,1.3,3.6,3.7v5.2h-1.8V462.7z"/>
	<path class="st14" d="M942.2,467.7c-2.1,0-3.6-1.2-3.7-2.8h1.9c0.1,0.7,0.8,1.3,1.8,1.3c1.1,0,1.6-0.4,1.6-1.1c0-1.7-5.1-0.7-5.1-4
		c0-1.4,1.3-2.5,3.4-2.5c2,0,3.3,1.1,3.4,2.8h-1.8c-0.1-0.8-0.7-1.3-1.6-1.3c-1,0-1.5,0.4-1.5,1c0,1.8,5,0.8,5.1,4
		C945.5,466.6,944.2,467.7,942.2,467.7z"/>
	<path class="st14" d="M959.9,462.7c0-1.6-0.9-2.4-2.2-2.4c-1.3,0-2.2,0.8-2.2,2.4v4.9h-1.8v-4.9c0-1.6-0.9-2.4-2.2-2.4
		c-1.3,0-2.2,0.8-2.2,2.4v4.9h-1.8v-8.8h1.8v1c0.6-0.7,1.5-1.1,2.6-1.1c1.4,0,2.6,0.6,3.2,1.7c0.5-1.1,1.8-1.7,3.1-1.7
		c2.1,0,3.6,1.3,3.6,3.7v5.2h-1.8V462.7z"/>
	<path class="st14" d="M963.8,456.4c0-0.7,0.5-1.2,1.2-1.2c0.6,0,1.1,0.5,1.1,1.2c0,0.7-0.5,1.2-1.1,1.2
		C964.3,457.6,963.8,457.1,963.8,456.4z M964,458.8h1.8v8.8H964V458.8z"/>
	<path class="st14" d="M971.4,467.7c-2.1,0-3.6-1.2-3.7-2.8h1.9c0.1,0.7,0.8,1.3,1.8,1.3c1.1,0,1.6-0.4,1.6-1.1c0-1.7-5.1-0.7-5.1-4
		c0-1.4,1.3-2.5,3.4-2.5c2,0,3.3,1.1,3.4,2.8h-1.8c-0.1-0.8-0.7-1.3-1.6-1.3c-1,0-1.5,0.4-1.5,1c0,1.8,5,0.8,5.1,4
		C974.8,466.6,973.5,467.7,971.4,467.7z"/>
	<path class="st14" d="M980,467.7c-2.1,0-3.6-1.2-3.7-2.8h1.9c0.1,0.7,0.8,1.3,1.8,1.3c1.1,0,1.6-0.4,1.6-1.1c0-1.7-5.1-0.7-5.1-4
		c0-1.4,1.3-2.5,3.4-2.5c2,0,3.3,1.1,3.4,2.8h-1.8c-0.1-0.8-0.7-1.3-1.6-1.3c-1,0-1.5,0.4-1.5,1c0,1.8,5,0.8,5.1,4
		C983.3,466.6,982,467.7,980,467.7z"/>
	<path class="st14" d="M985,456.4c0-0.7,0.5-1.2,1.2-1.2c0.6,0,1.1,0.5,1.1,1.2c0,0.7-0.5,1.2-1.1,1.2
		C985.6,457.6,985,457.1,985,456.4z M985.3,458.8h1.8v8.8h-1.8V458.8z"/>
	<path class="st14" d="M993.3,467.7c-2.5,0-4.4-1.8-4.4-4.5c0-2.8,2-4.5,4.5-4.5c2.5,0,4.5,1.8,4.5,4.5
		C997.9,465.9,995.8,467.7,993.3,467.7z M993.3,466.1c1.4,0,2.7-1,2.7-3s-1.3-2.9-2.6-2.9c-1.4,0-2.6,1-2.6,2.9
		S991.9,466.1,993.3,466.1z"/>
	<path class="st14" d="M1005.9,462.7c0-1.6-0.9-2.4-2.2-2.4c-1.3,0-2.2,0.8-2.2,2.4v4.9h-1.8v-8.8h1.8v1c0.6-0.7,1.6-1.1,2.6-1.1
		c2.1,0,3.6,1.3,3.6,3.7v5.2h-1.8V462.7z"/>
	<path class="st14" d="M904.5,486.7h-1.8v-8.8h1.8v1.3c0.5-0.9,1.4-1.4,2.6-1.4v1.9h-0.5c-1.3,0-2.2,0.6-2.2,2.4V486.7z"/>
	<path class="st14" d="M912.6,486.8c-2.5,0-4.4-1.8-4.4-4.5c0-2.8,1.8-4.5,4.4-4.5c2.5,0,4.3,1.7,4.3,4.3c0,0.3,0,0.6-0.1,0.9h-6.7
		c0.1,1.5,1.2,2.3,2.5,2.3c1.1,0,1.7-0.5,2.1-1.2h2C916.1,485.6,914.7,486.8,912.6,486.8z M910.1,481.5h4.9c0-1.4-1.1-2.2-2.5-2.2
		C911.3,479.3,910.3,480.1,910.1,481.5z"/>
	<path class="st14" d="M921.8,486.8c-2.1,0-3.6-1.2-3.7-2.8h1.9c0.1,0.7,0.8,1.3,1.8,1.3c1.1,0,1.6-0.4,1.6-1.1c0-1.7-5.1-0.7-5.1-4
		c0-1.4,1.3-2.5,3.4-2.5c2,0,3.3,1.1,3.4,2.8h-1.8c-0.1-0.8-0.7-1.3-1.6-1.3c-1,0-1.5,0.4-1.5,1c0,1.8,5,0.8,5.1,4
		C925.2,485.7,923.9,486.8,921.8,486.8z"/>
	<path class="st14" d="M927.5,479.4h-1v-1.5h1v-2.2h1.8v2.2h2.1v1.5h-2.1v4.9c0,0.7,0.3,0.9,1,0.9h1.1v1.5H930
		c-1.6,0-2.5-0.7-2.5-2.4V479.4z"/>
	<path class="st14" d="M934.9,486.7h-1.8v-8.8h1.8v1.3c0.5-0.9,1.4-1.4,2.6-1.4v1.9h-0.5c-1.3,0-2.2,0.6-2.2,2.4V486.7z"/>
	<path class="st14" d="M939,475.6c0-0.7,0.5-1.2,1.2-1.2c0.6,0,1.1,0.5,1.1,1.2c0,0.7-0.5,1.2-1.1,1.2
		C939.5,476.7,939,476.2,939,475.6z M939.2,477.9h1.8v8.8h-1.8V477.9z"/>
	<path class="st14" d="M947.1,477.8c2.2,0,3.6,1.1,4,2.9h-2c-0.3-0.8-1-1.4-2.1-1.4c-1.5,0-2.4,1.1-2.4,3c0,1.9,1,3,2.4,3
		c1.1,0,1.8-0.5,2.1-1.4h2c-0.5,1.7-1.9,2.9-4,2.9c-2.5,0-4.3-1.8-4.3-4.5C942.8,479.6,944.6,477.8,947.1,477.8z"/>
	<path class="st14" d="M953.3,479.4h-1v-1.5h1v-2.2h1.8v2.2h2.1v1.5h-2.1v4.9c0,0.7,0.3,0.9,1,0.9h1.1v1.5h-1.4
		c-1.6,0-2.5-0.7-2.5-2.4V479.4z"/>
	<path class="st14" d="M958.7,475.6c0-0.7,0.5-1.2,1.2-1.2c0.6,0,1.1,0.5,1.1,1.2c0,0.7-0.5,1.2-1.1,1.2
		C959.2,476.7,958.7,476.2,958.7,475.6z M958.9,477.9h1.8v8.8h-1.8V477.9z"/>
	<path class="st14" d="M966.9,486.8c-2.5,0-4.4-1.8-4.4-4.5c0-2.8,2-4.5,4.5-4.5c2.5,0,4.5,1.8,4.5,4.5
		C971.5,485.1,969.5,486.8,966.9,486.8z M966.9,485.3c1.4,0,2.7-1,2.7-3s-1.3-2.9-2.6-2.9c-1.4,0-2.6,1-2.6,2.9
		S965.6,485.3,966.9,485.3z"/>
	<path class="st14" d="M979.5,481.8c0-1.6-0.9-2.4-2.2-2.4c-1.3,0-2.2,0.8-2.2,2.4v4.9h-1.8v-8.8h1.8v1c0.6-0.7,1.6-1.1,2.6-1.1
		c2.1,0,3.6,1.3,3.6,3.7v5.2h-1.8V481.8z"/>
	<path class="st14" d="M986.8,486.8c-2.1,0-3.6-1.2-3.7-2.8h1.9c0.1,0.7,0.8,1.3,1.8,1.3c1.1,0,1.6-0.4,1.6-1.1c0-1.7-5.1-0.7-5.1-4
		c0-1.4,1.3-2.5,3.4-2.5c2,0,3.3,1.1,3.4,2.8h-1.8c-0.1-0.8-0.7-1.3-1.6-1.3c-1,0-1.5,0.4-1.5,1c0,1.8,5,0.8,5.1,4
		C990.2,485.7,988.9,486.8,986.8,486.8z"/>
</g>
<g>
	<path class="st3" d="M148.2,307.7h1.6l1.6,6.1l1.6-6.1h1.6l1.5,6.1l1.6-6.1h1.5l-2.4,7.6h-1.7l-1.5-5.6l-1.5,5.6h-1.7L148.2,307.7z
		"/>
	<path class="st3" d="M160.3,305.7c0-0.6,0.4-1,1-1c0.6,0,1,0.4,1,1c0,0.6-0.4,1-1,1C160.7,306.7,160.3,306.3,160.3,305.7z
		 M160.5,307.7h1.6v7.6h-1.6V307.7z"/>
	<path class="st3" d="M169.5,311.1c0-1.4-0.8-2.1-1.9-2.1c-1.2,0-1.9,0.7-1.9,2.1v4.2h-1.6v-7.6h1.6v0.9c0.5-0.6,1.3-1,2.3-1
		c1.8,0,3.1,1.1,3.1,3.2v4.5h-1.6V311.1z"/>
	<path class="st3" d="M176.2,307.6c1,0,2,0.5,2.6,1.2v-3.7h1.6v10.2h-1.6v-1.1c-0.5,0.7-1.4,1.3-2.6,1.3c-2,0-3.6-1.6-3.6-4
		S174.1,307.6,176.2,307.6z M176.5,309c-1.2,0-2.3,0.9-2.3,2.5s1.1,2.6,2.3,2.6c1.2,0,2.3-0.9,2.3-2.6
		C178.8,309.9,177.7,309,176.5,309z"/>
</g>
<g>
	<path class="st3" d="M149.3,363.4h1.6v3.5c0.5-0.6,1.4-1,2.4-1c1.7,0,3,1.1,3,3.2v4.5h-1.6v-4.2c0-1.4-0.8-2.1-1.9-2.1
		c-1.2,0-1.9,0.7-1.9,2.1v4.2h-1.6V363.4z"/>
	<path class="st3" d="M158.1,364c0-0.6,0.4-1,1-1c0.6,0,1,0.4,1,1c0,0.6-0.4,1-1,1C158.5,365,158.1,364.6,158.1,364z M158.3,366h1.6
		v7.6h-1.6V366z"/>
	<path class="st3" d="M165,365.9c1,0,2,0.5,2.6,1.2v-3.7h1.6v10.2h-1.6v-1.1c-0.5,0.7-1.4,1.3-2.6,1.3c-2,0-3.6-1.6-3.6-4
		C161.4,367.5,163,365.9,165,365.9z M165.3,367.3c-1.2,0-2.3,0.9-2.3,2.5s1.1,2.6,2.3,2.6c1.2,0,2.3-0.9,2.3-2.6
		C167.6,368.2,166.5,367.3,165.3,367.3z"/>
	<path class="st3" d="M172.8,373.6h-1.6V366h1.6v1.1c0.4-0.8,1.2-1.2,2.3-1.2v1.6h-0.4c-1.2,0-1.9,0.5-1.9,2.1V373.6z"/>
	<path class="st3" d="M179.8,373.8c-2.2,0-3.8-1.5-3.8-3.9c0-2.4,1.7-3.9,3.9-3.9s3.9,1.5,3.9,3.9
		C183.8,372.2,182,373.8,179.8,373.8z M179.8,372.4c1.2,0,2.3-0.8,2.3-2.6c0-1.7-1.1-2.5-2.3-2.5c-1.2,0-2.2,0.8-2.2,2.5
		C177.6,371.5,178.7,372.4,179.8,372.4z"/>
	<path class="st3" d="M188.6,373.8c-2.2,0-3.8-1.5-3.8-3.9c0-2.4,1.5-3.9,3.8-3.9c2.2,0,3.7,1.5,3.7,3.7c0,0.3,0,0.5-0.1,0.8h-5.8
		c0.1,1.3,1,2,2.2,2c1,0,1.5-0.5,1.8-1.1h1.7C191.7,372.7,190.5,373.8,188.6,373.8z M186.4,369.2h4.2c0-1.2-1-1.9-2.1-1.9
		C187.5,367.2,186.6,368,186.4,369.2z"/>
	<path class="st3" d="M193.8,363.4h1.6v10.2h-1.6V363.4z"/>
	<path class="st3" d="M200.7,373.8c-2.2,0-3.8-1.5-3.8-3.9c0-2.4,1.5-3.9,3.8-3.9c2.2,0,3.7,1.5,3.7,3.7c0,0.3,0,0.5-0.1,0.8h-5.8
		c0.1,1.3,1,2,2.2,2c1,0,1.5-0.5,1.8-1.1h1.7C203.8,372.7,202.6,373.8,200.7,373.8z M198.6,369.2h4.2c0-1.2-1-1.9-2.1-1.9
		C199.6,367.2,198.7,368,198.6,369.2z"/>
	<path class="st3" d="M209.2,365.9c1.9,0,3.1,0.9,3.5,2.5H211c-0.3-0.7-0.9-1.2-1.8-1.2c-1.3,0-2.1,0.9-2.1,2.6
		c0,1.7,0.8,2.6,2.1,2.6c0.9,0,1.5-0.4,1.8-1.2h1.7c-0.4,1.5-1.6,2.5-3.5,2.5c-2.2,0-3.7-1.5-3.7-3.9
		C205.4,367.5,207,365.9,209.2,365.9z"/>
	<path class="st3" d="M214.5,367.3h-0.9V366h0.9v-1.9h1.6v1.9h1.8v1.3h-1.8v4.2c0,0.6,0.2,0.8,0.9,0.8h1v1.3h-1.2
		c-1.4,0-2.2-0.6-2.2-2.1V367.3z"/>
	<path class="st3" d="M220.9,373.6h-1.6V366h1.6v1.1c0.4-0.8,1.2-1.2,2.3-1.2v1.6h-0.4c-1.2,0-1.9,0.5-1.9,2.1V373.6z"/>
	<path class="st3" d="M224.4,364c0-0.6,0.4-1,1-1c0.6,0,1,0.4,1,1c0,0.6-0.4,1-1,1C224.9,365,224.4,364.6,224.4,364z M224.6,366h1.6
		v7.6h-1.6V366z"/>
	<path class="st3" d="M231.5,365.9c1.9,0,3.1,0.9,3.5,2.5h-1.7c-0.3-0.7-0.9-1.2-1.8-1.2c-1.3,0-2.1,0.9-2.1,2.6
		c0,1.7,0.8,2.6,2.1,2.6c0.9,0,1.5-0.4,1.8-1.2h1.7c-0.4,1.5-1.6,2.5-3.5,2.5c-2.2,0-3.7-1.5-3.7-3.9
		C227.8,367.5,229.3,365.9,231.5,365.9z"/>
</g>
<g>
	<path class="st3" d="M153.5,423.6c2,0,3.6,1.5,3.6,3.9c0,2.3-1.6,4-3.6,4c-1.3,0-2.1-0.6-2.6-1.2v4.7h-1.6v-11.2h1.6v1.1
		C151.3,424.3,152.3,423.6,153.5,423.6z M153.2,425c-1.2,0-2.3,0.9-2.3,2.5c0,1.6,1.1,2.6,2.3,2.6c1.2,0,2.3-1,2.3-2.6
		S154.3,425,153.2,425z"/>
	<path class="st3" d="M161.9,431.5c-2.2,0-3.8-1.5-3.8-3.9c0-2.4,1.5-3.9,3.8-3.9c2.2,0,3.7,1.5,3.7,3.7c0,0.3,0,0.5-0.1,0.8h-5.8
		c0.1,1.3,1,2,2.2,2c1,0,1.5-0.5,1.8-1.1h1.7C165,430.4,163.8,431.5,161.9,431.5z M159.7,426.9h4.2c0-1.2-1-1.9-2.1-1.9
		C160.8,425,159.9,425.7,159.7,426.9z"/>
	<path class="st3" d="M167.4,425.1h-0.9v-1.3h0.9v-1.9h1.6v1.9h1.8v1.3H169v4.2c0,0.6,0.2,0.8,0.9,0.8h1v1.3h-1.2
		c-1.4,0-2.2-0.6-2.2-2.1V425.1z"/>
	<path class="st3" d="M173.8,431.4h-1.6v-7.6h1.6v1.1c0.4-0.8,1.2-1.2,2.3-1.2v1.6h-0.4c-1.2,0-1.9,0.5-1.9,2.1V431.4z"/>
	<path class="st3" d="M180.8,431.5c-2.2,0-3.8-1.5-3.8-3.9c0-2.4,1.7-3.9,3.9-3.9s3.9,1.5,3.9,3.9
		C184.8,429.9,183,431.5,180.8,431.5z M180.8,430.1c1.2,0,2.3-0.8,2.3-2.6c0-1.7-1.1-2.5-2.3-2.5c-1.2,0-2.2,0.8-2.2,2.5
		C178.6,429.3,179.6,430.1,180.8,430.1z"/>
	<path class="st3" d="M186.3,421.2h1.6v10.2h-1.6V421.2z"/>
	<path class="st3" d="M193.2,431.5c-2.2,0-3.8-1.5-3.8-3.9c0-2.4,1.5-3.9,3.8-3.9c2.2,0,3.7,1.5,3.7,3.7c0,0.3,0,0.5-0.1,0.8h-5.8
		c0.1,1.3,1,2,2.2,2c1,0,1.5-0.5,1.8-1.1h1.7C196.3,430.4,195.1,431.5,193.2,431.5z M191.1,426.9h4.2c0-1.2-1-1.9-2.1-1.9
		C192.1,425,191.2,425.7,191.1,426.9z"/>
	<path class="st3" d="M205.3,431.4h-1.6v-0.9c-0.5,0.6-1.3,1-2.2,1c-1.8,0-3.1-1.1-3.1-3.2v-4.5h1.6v4.2c0,1.4,0.8,2.1,1.9,2.1
		c1.2,0,1.9-0.7,1.9-2.1v-4.2h1.6V431.4z"/>
	<path class="st3" d="M218.2,427.1c0-1.4-0.8-2.1-1.9-2.1c-1.2,0-1.9,0.7-1.9,2.1v4.2h-1.6v-4.2c0-1.4-0.8-2.1-1.9-2.1
		c-1.2,0-1.9,0.7-1.9,2.1v4.2h-1.6v-7.6h1.6v0.9c0.5-0.6,1.3-1,2.2-1c1.2,0,2.2,0.5,2.7,1.5c0.5-0.9,1.5-1.5,2.6-1.5
		c1.8,0,3.1,1.1,3.1,3.2v4.5h-1.6V427.1z"/>
	<path class="st3" d="M229.5,423.6c2,0,3.6,1.5,3.6,3.9c0,2.3-1.6,4-3.6,4c-1.3,0-2.1-0.6-2.6-1.2v1.1h-1.6v-10.2h1.6v3.7
		C227.4,424.2,228.3,423.6,229.5,423.6z M229.2,425c-1.2,0-2.3,0.9-2.3,2.5c0,1.6,1.1,2.6,2.3,2.6c1.2,0,2.3-1,2.3-2.6
		S230.4,425,229.2,425z"/>
	<path class="st3" d="M237.7,423.6c1.3,0,2.2,0.6,2.6,1.2v-1.1h1.6v7.6h-1.6v-1.1c-0.5,0.6-1.4,1.3-2.7,1.3c-2,0-3.6-1.6-3.6-4
		C234.1,425.2,235.7,423.6,237.7,423.6z M238,425c-1.2,0-2.3,0.9-2.3,2.5s1.1,2.6,2.3,2.6c1.2,0,2.3-0.9,2.3-2.6
		C240.3,425.9,239.2,425,238,425z"/>
	<path class="st3" d="M246.7,431.5c-1.8,0-3.1-1.1-3.2-2.5h1.6c0.1,0.6,0.6,1.1,1.5,1.1c0.9,0,1.4-0.4,1.4-0.9
		c0-1.5-4.4-0.6-4.4-3.4c0-1.2,1.1-2.2,2.9-2.2c1.7,0,2.9,0.9,2.9,2.4H248c-0.1-0.7-0.6-1.1-1.4-1.1c-0.8,0-1.3,0.3-1.3,0.9
		c0,1.5,4.3,0.7,4.4,3.4C249.6,430.5,248.5,431.5,246.7,431.5z"/>
	<path class="st3" d="M254.6,431.5c-2.2,0-3.8-1.5-3.8-3.9c0-2.4,1.5-3.9,3.8-3.9c2.2,0,3.7,1.5,3.7,3.7c0,0.3,0,0.5-0.1,0.8h-5.8
		c0.1,1.3,1,2,2.2,2c1,0,1.5-0.5,1.8-1.1h1.7C257.7,430.4,256.5,431.5,254.6,431.5z M252.5,426.9h4.2c0-1.2-1-1.9-2.1-1.9
		C253.5,425,252.6,425.7,252.5,426.9z"/>
	<path class="st3" d="M262.9,423.6c1,0,2,0.5,2.6,1.2v-3.7h1.6v10.2h-1.6v-1.1c-0.5,0.7-1.4,1.3-2.6,1.3c-2,0-3.6-1.6-3.6-4
		C259.3,425.2,260.9,423.6,262.9,423.6z M263.2,425c-1.2,0-2.3,0.9-2.3,2.5s1.1,2.6,2.3,2.6c1.2,0,2.3-0.9,2.3-2.6
		C265.5,425.9,264.4,425,263.2,425z"/>
</g>
<g>
	<path class="st3" d="M128.6,553.2c-1.3,0-2.3-0.7-2.2-1.9h1.1c0,0.6,0.4,1,1.1,1c0.8,0,1.3-0.3,1.3-1c0-1.3-3.1-1-3.1-3
		c0-1.2,1-2,2.4-2c1.4,0,2.2,0.7,2.2,1.8h-1.2c0-0.5-0.3-0.9-1-0.9s-1.2,0.4-1.2,0.9c0,1.3,3.1,1,3.1,3.1
		C131,552.4,130.1,553.2,128.6,553.2z"/>
	<path class="st3" d="M134.2,553.2c-1.4,0-2.3-0.9-2.3-2.2c0-1.8,1.4-3.2,3.2-3.2c1.4,0,2.3,0.9,2.3,2.2
		C137.5,551.8,136.1,553.2,134.2,553.2z M134.4,552.3c1.1,0,2-1.1,2-2.2c0-0.9-0.6-1.4-1.3-1.4c-1.2,0-1.9,1.1-1.9,2.3
		C133.1,551.9,133.7,552.3,134.4,552.3z"/>
	<path class="st3" d="M142.8,553.2h-1.1l0.1-0.6c-0.4,0.4-1.1,0.7-1.7,0.7c-1.2,0-2-0.8-1.8-2.3l0.5-3.1h1.1l-0.5,2.9
		c-0.2,1,0.3,1.5,1.1,1.5c0.8,0,1.4-0.5,1.6-1.4l0.5-3h1.1L142.8,553.2z"/>
	<path class="st3" d="M144.3,553.2l0.9-5.3h1.1l-0.2,0.9c0.4-0.6,1-1,1.8-1l-0.2,1.1h-0.3c-0.8,0-1.4,0.3-1.6,1.4l-0.5,2.8H144.3z"
		/>
	<path class="st3" d="M151.1,547.8c1.3,0,2,0.6,2.1,1.8h-1.2c-0.1-0.5-0.5-0.8-1.1-0.8c-0.9,0-1.6,0.7-1.8,1.8
		c-0.2,1.2,0.3,1.8,1.2,1.8c0.7,0,1.1-0.3,1.4-0.8h1.2c-0.5,1-1.4,1.8-2.7,1.8c-1.5,0-2.4-1.1-2.1-2.7
		C148.3,548.9,149.6,547.8,151.1,547.8z"/>
	<path class="st3" d="M156,553.2c-1.5,0-2.5-1.1-2.2-2.7c0.3-1.7,1.6-2.7,3.1-2.7c1.5,0,2.4,1,2.1,2.6c0,0.2-0.1,0.3-0.1,0.5h-4
		c-0.1,0.9,0.4,1.4,1.3,1.4c0.7,0,1.1-0.3,1.4-0.7h1.2C158.2,552.5,157.3,553.2,156,553.2z M155,550.1h2.9c0.1-0.9-0.4-1.4-1.2-1.4
		C156,548.7,155.3,549.2,155,550.1z"/>
	<path class="st3" d="M160,549.2c-0.4,0-0.6-0.3-0.6-0.7c0.1-0.4,0.4-0.7,0.8-0.7c0.4,0,0.6,0.3,0.6,0.7
		C160.8,548.9,160.4,549.2,160,549.2z M160,553.2c-0.4,0-0.6-0.3-0.6-0.7c0.1-0.4,0.4-0.7,0.8-0.7c0.4,0,0.6,0.3,0.6,0.7
		S160.4,553.2,160,553.2z"/>
	<path class="st3" d="M169.6,547.3H167l-0.4,2h2.3l-0.1,0.8h-2.3l-0.4,2.1h2.6l-0.2,0.9h-3.7l1.2-6.7h3.7L169.6,547.3z"/>
	<path class="st3" d="M174.2,550.2c0.2-1-0.3-1.5-1.1-1.5c-0.8,0-1.4,0.5-1.6,1.5v0l-0.5,3h-1.1l0.9-5.3h1.1l-0.1,0.6
		c0.4-0.4,1.1-0.7,1.7-0.7c1.2,0,2,0.8,1.8,2.3l-0.6,3.1h-1.1L174.2,550.2z"/>
	<path class="st3" d="M178.4,553.2c-1.5,0-2.5-1.1-2.2-2.7c0.3-1.7,1.6-2.7,3.1-2.7c1.5,0,2.4,1,2.1,2.6c0,0.2-0.1,0.3-0.1,0.5h-4
		c-0.1,0.9,0.4,1.4,1.3,1.4c0.7,0,1.1-0.3,1.4-0.7h1.2C180.6,552.5,179.7,553.2,178.4,553.2z M177.4,550.1h2.9
		c0.1-0.9-0.4-1.4-1.2-1.4C178.4,548.7,177.7,549.2,177.4,550.1z"/>
	<path class="st3" d="M182,553.2l0.9-5.3h1.1l-0.2,0.9c0.4-0.6,1-1,1.8-1l-0.2,1.1h-0.3c-0.8,0-1.4,0.3-1.6,1.4l-0.5,2.8H182z"/>
	<path class="st3" d="M188.8,547.8c0.9,0,1.4,0.4,1.7,0.9l0.1-0.8h1.1l-0.9,5.4c-0.3,1.4-1.4,2.5-3,2.5c-1.4,0-2.3-0.7-2.3-1.9h1.1
		c0.1,0.5,0.6,0.9,1.3,0.9c0.8,0,1.6-0.5,1.8-1.6l0.2-0.9c-0.4,0.5-1.1,0.9-2,0.9c-1.4,0-2.3-1.1-2-2.8S187.4,547.8,188.8,547.8z
		 M188.8,548.7c-0.8,0-1.7,0.6-1.9,1.8c-0.2,1.1,0.5,1.8,1.3,1.8c0.8,0,1.7-0.6,1.9-1.8C190.3,549.4,189.7,548.7,188.8,548.7z"/>
	<path class="st3" d="M192.5,547.9h1.2l0.8,4l2.3-4h1.1l-4.6,7.8h-1.1l1.5-2.6L192.5,547.9z"/>
	<path class="st3" d="M201.5,546.5h4.7l-0.2,0.9h-1.8l-1,5.8h-1.1l1-5.8h-1.8L201.5,546.5z"/>
	<path class="st3" d="M206.1,553.2l0.9-5.3h1.1l-0.2,0.9c0.4-0.6,1-1,1.8-1l-0.2,1.1h-0.3c-0.8,0-1.4,0.3-1.6,1.4l-0.5,2.8H206.1z"
		/>
	<path class="st3" d="M212.8,547.8c0.9,0,1.4,0.4,1.7,0.9l0.1-0.8h1.1l-0.9,5.3h-1.1l0.1-0.8c-0.4,0.5-1.1,0.9-2,0.9
		c-1.4,0-2.3-1.1-2-2.8S211.4,547.8,212.8,547.8z M212.9,548.7c-0.8,0-1.7,0.6-1.9,1.8c-0.2,1.1,0.5,1.8,1.3,1.8
		c0.8,0,1.7-0.6,1.9-1.8C214.4,549.4,213.7,548.7,212.9,548.7z"/>
	<path class="st3" d="M220.5,550.2c0.2-1-0.3-1.5-1.1-1.5c-0.8,0-1.4,0.5-1.6,1.5v0l-0.5,3h-1.1l0.9-5.3h1.1l-0.1,0.6
		c0.4-0.4,1.1-0.7,1.7-0.7c1.2,0,2,0.8,1.8,2.3l-0.6,3.1H220L220.5,550.2z"/>
	<path class="st3" d="M224.4,553.2c-1.2,0-2.1-0.7-1.9-1.7h1.1c0,0.5,0.3,0.8,1,0.8c0.6,0,1.1-0.2,1.1-0.6c0-0.9-2.6-0.7-2.6-2.4
		c0-0.9,0.9-1.6,2.1-1.6c1.2,0,2,0.7,1.9,1.7h-1c0-0.5-0.3-0.8-0.9-0.8c-0.5,0-0.9,0.2-0.9,0.6c0,1,2.6,0.8,2.6,2.4
		C226.6,552.7,225.7,553.2,224.4,553.2z"/>
	<path class="st3" d="M228.5,547.9h1.1l-0.9,5.3h-1.1L228.5,547.9z M228.6,546.5c0.1-0.4,0.4-0.7,0.8-0.7c0.4,0,0.6,0.3,0.6,0.7
		c-0.1,0.4-0.4,0.7-0.8,0.7C228.8,547.2,228.6,546.9,228.6,546.5z"/>
	<path class="st3" d="M231.1,548.8h-0.6l0.2-0.9h0.6l0.2-1.3h1.1l-0.2,1.3h1.3l-0.2,0.9h-1.3l-0.5,2.9c-0.1,0.4,0.1,0.6,0.5,0.6h0.7
		l-0.2,0.9h-0.9c-0.9,0-1.4-0.4-1.3-1.5L231.1,548.8z"/>
	<path class="st3" d="M234.6,547.9h1.1l-0.9,5.3h-1.1L234.6,547.9z M234.7,546.5c0.1-0.4,0.4-0.7,0.8-0.7c0.4,0,0.6,0.3,0.6,0.7
		c-0.1,0.4-0.4,0.7-0.8,0.7C234.9,547.2,234.7,546.9,234.7,546.5z"/>
	<path class="st3" d="M238.5,553.2c-1.4,0-2.3-0.9-2.3-2.2c0-1.8,1.4-3.2,3.2-3.2c1.4,0,2.3,0.9,2.3,2.2
		C241.8,551.8,240.4,553.2,238.5,553.2z M238.7,552.3c1.1,0,2-1.1,2-2.2c0-0.9-0.6-1.4-1.3-1.4c-1.2,0-1.9,1.1-1.9,2.3
		C237.4,551.9,238,552.3,238.7,552.3z"/>
	<path class="st3" d="M246.6,550.2c0.2-1-0.3-1.5-1.1-1.5c-0.8,0-1.4,0.5-1.6,1.5v0l-0.5,3h-1.1l0.9-5.3h1.1l-0.1,0.6
		c0.4-0.4,1.1-0.7,1.7-0.7c1.2,0,2,0.8,1.8,2.3l-0.6,3.1h-1.1L246.6,550.2z"/>
	<path class="st3" d="M254.5,553.2c-1.7,0-2.8-1.2-2.8-2.8c0-2.3,1.7-4,4-4c1.7,0,2.9,1.2,2.9,2.8
		C258.5,551.5,256.8,553.2,254.5,553.2z M254.7,552.2c1.6,0,2.7-1.4,2.7-3c0-1.2-0.7-1.9-1.9-1.9c-1.6,0-2.7,1.3-2.7,2.9
		C252.8,551.5,253.5,552.2,254.7,552.2z"/>
	<path class="st3" d="M263.8,553.2h-1.1l0.1-0.6c-0.4,0.4-1.1,0.7-1.7,0.7c-1.2,0-2-0.8-1.8-2.3l0.5-3.1h1.1l-0.5,2.9
		c-0.2,1,0.3,1.5,1.1,1.5c0.8,0,1.4-0.5,1.6-1.4l0.5-3h1.1L263.8,553.2z"/>
	<path class="st3" d="M266.2,548.8h-0.6l0.2-0.9h0.6l0.2-1.3h1.1l-0.2,1.3h1.3l-0.2,0.9h-1.3l-0.5,2.9c-0.1,0.4,0.1,0.6,0.5,0.6h0.7
		l-0.2,0.9h-0.9c-0.9,0-1.4-0.4-1.3-1.5L266.2,548.8z"/>
	<path class="st3" d="M270,546.1h1.1l-1.3,7.1h-1.1L270,546.1z"/>
	<path class="st3" d="M273.6,553.2c-1.4,0-2.3-0.9-2.3-2.2c0-1.8,1.4-3.2,3.2-3.2c1.4,0,2.3,0.9,2.3,2.2
		C276.9,551.8,275.4,553.2,273.6,553.2z M273.7,552.3c1.1,0,2-1.1,2-2.2c0-0.9-0.6-1.4-1.3-1.4c-1.2,0-1.9,1.1-1.9,2.3
		C272.5,551.9,273,552.3,273.7,552.3z"/>
	<path class="st3" d="M279.7,553.2c-1.4,0-2.3-0.9-2.3-2.2c0-1.8,1.4-3.2,3.2-3.2c1.4,0,2.3,0.9,2.3,2.2
		C283,551.8,281.6,553.2,279.7,553.2z M279.9,552.3c1.1,0,2-1.1,2-2.2c0-0.9-0.6-1.4-1.3-1.4c-1.2,0-1.9,1.1-1.9,2.3
		C278.6,551.9,279.2,552.3,279.9,552.3z"/>
	<path class="st3" d="M284.8,546.1h1.1l-0.7,4.1l2.3-2.3h1.5l-2.9,2.6l2,2.6h-1.5l-1.6-2.3l-0.4,2.3h-1.1L284.8,546.1z"/>
	<path class="st3" d="M291.7,552.3c1.9-1.4,3.9-2.7,4.1-4c0.1-0.7-0.1-1.2-0.9-1.2c-0.8,0-1.3,0.5-1.4,1.3h-1.1
		c0.3-1.5,1.4-2.3,2.7-2.3c1.4,0,2.1,0.9,1.9,2.1c-0.3,1.6-2.2,2.9-3.6,4h3l-0.2,0.9h-4.7L291.7,552.3z"/>
	<path class="st3" d="M300.9,546.2c2,0,2.2,1.5,1.9,3.5c-0.3,2-1.2,3.5-3.1,3.5s-2.2-1.5-1.9-3.5
		C298.1,547.7,298.9,546.2,300.9,546.2z M300.7,547.2c-1.3,0-1.6,1.2-1.9,2.5c-0.2,1.3-0.3,2.5,1,2.5s1.6-1.2,1.9-2.5
		C301.9,548.4,302,547.2,300.7,547.2z"/>
	<path class="st3" d="M303.3,552.3c1.9-1.4,3.9-2.7,4.1-4c0.1-0.7-0.1-1.2-0.9-1.2c-0.8,0-1.3,0.5-1.4,1.3H304
		c0.3-1.5,1.4-2.3,2.7-2.3c1.4,0,2.1,0.9,1.9,2.1c-0.3,1.6-2.2,2.9-3.6,4h3l-0.2,0.9h-4.7L303.3,552.3z"/>
	<path class="st3" d="M310.6,547.3h-0.9l0.2-1h2l-1.2,6.8h-1.1L310.6,547.3z"/>
	<path class="st3" d="M319.1,547.8c1.4,0,2.3,1.1,2,2.7c-0.3,1.6-1.6,2.8-3,2.8c-0.9,0-1.4-0.4-1.7-0.9l-0.1,0.8h-1.1l1.3-7.1h1.1
		l-0.5,2.6C317.5,548.2,318.2,547.8,319.1,547.8z M318.7,548.7c-0.8,0-1.7,0.6-1.9,1.8c-0.2,1.1,0.5,1.8,1.3,1.8
		c0.8,0,1.7-0.7,1.9-1.8C320.2,549.3,319.5,548.7,318.7,548.7z"/>
	<path class="st3" d="M322,547.9h1.2l0.8,4l2.3-4h1.1l-4.6,7.8h-1.1l1.5-2.6L322,547.9z"/>
	<path class="st3" d="M336.5,549.8c-0.4,2.1-2,3.3-4.1,3.3h-2.2l1.2-6.7h2.2C335.6,546.5,336.8,547.8,336.5,549.8z M332.5,552.3
		c1.6,0,2.6-1,2.9-2.5c0.3-1.5-0.4-2.5-2-2.5h-1.1l-0.9,5H332.5z"/>
	<path class="st3" d="M343.6,546.5l-1.2,6.7h-1.1l-2.4-5l-0.9,5h-1.1l1.2-6.7h1.1l2.4,5l0.9-5H343.6z"/>
	<path class="st3" d="M344.5,546.5h1.2l1,5.5l3-5.5h1.2l-3.7,6.7h-1.3L344.5,546.5z"/>
</g>
<g>
	<path class="st3" d="M143.9,488.9c-2.2,0-3.8-1.5-3.8-3.9s1.7-3.9,3.9-3.9s3.9,1.5,3.9,3.9S146,488.9,143.9,488.9z M143.9,487.5
		c1.2,0,2.3-0.8,2.3-2.6s-1.1-2.5-2.3-2.5c-1.2,0-2.2,0.8-2.2,2.5S142.7,487.5,143.9,487.5z"/>
	<path class="st3" d="M149.6,482.4h-0.9v-1.3h0.9v-1.9h1.6v1.9h1.8v1.3h-1.8v4.2c0,0.6,0.2,0.8,0.9,0.8h1v1.3h-1.2
		c-1.4,0-2.2-0.6-2.2-2.1V482.4z"/>
	<path class="st3" d="M154.5,478.6h1.6v3.5c0.5-0.6,1.4-1,2.4-1c1.7,0,3,1.1,3,3.2v4.5h-1.6v-4.2c0-1.4-0.8-2.1-1.9-2.1
		c-1.2,0-1.9,0.7-1.9,2.1v4.2h-1.6V478.6z"/>
	<path class="st3" d="M166.7,488.9c-2.2,0-3.8-1.5-3.8-3.9s1.5-3.9,3.8-3.9c2.2,0,3.7,1.5,3.7,3.7c0,0.3,0,0.5-0.1,0.8h-5.8
		c0.1,1.3,1,2,2.2,2c1,0,1.5-0.5,1.8-1.1h1.7C169.8,487.8,168.6,488.9,166.7,488.9z M164.5,484.3h4.2c0-1.2-1-1.9-2.1-1.9
		C165.6,482.4,164.7,483.1,164.5,484.3z"/>
	<path class="st3" d="M173.5,488.8h-1.6v-7.6h1.6v1.1c0.4-0.8,1.2-1.2,2.3-1.2v1.6h-0.4c-1.2,0-1.9,0.5-1.9,2.1V488.8z"/>
	<path class="st3" d="M180,488.9c-1.8,0-3.1-1.1-3.2-2.5h1.6c0.1,0.6,0.6,1.1,1.5,1.1c0.9,0,1.4-0.4,1.4-0.9c0-1.5-4.4-0.6-4.4-3.4
		c0-1.2,1.1-2.2,2.9-2.2c1.7,0,2.9,0.9,2.9,2.4h-1.6c-0.1-0.7-0.6-1.1-1.4-1.1c-0.8,0-1.3,0.3-1.3,0.9c0,1.5,4.3,0.7,4.4,3.4
		C182.9,487.9,181.8,488.9,180,488.9z"/>
</g>
<g>
	<path class="st3" d="M298.7,526.6c2.1-1.9,4.4-3.5,4.4-5.3c0-0.9-0.4-1.6-1.5-1.6c-1,0-1.5,0.7-1.6,1.7h-1.4c0-2,1.3-2.9,2.9-2.9
		c1.8,0,2.9,1.1,2.9,2.7c0,2.2-2.2,3.9-3.7,5.2h4v1.2h-6.1V526.6z"/>
	<path class="st3" d="M309.3,518.5c2.5,0,3.2,2,3.2,4.6c0,2.6-0.7,4.6-3.2,4.6s-3.2-2-3.2-4.6C306.1,520.5,306.8,518.5,309.3,518.5z
		 M309.3,519.8c-1.7,0-1.8,1.6-1.8,3.3c0,1.8,0.2,3.3,1.8,3.3s1.8-1.6,1.8-3.3C311.1,521.4,311,519.8,309.3,519.8z"/>
	<path class="st3" d="M315,519.9h-1.2v-1.3h2.6v9.1H315V519.9z"/>
	<path class="st3" d="M320.2,525.3c0.2,0.8,0.7,1.3,1.6,1.3c1.1,0,1.7-0.8,1.7-3.1c-0.4,0.6-1.2,0.9-2,0.9c-1.6,0-2.9-1-2.9-2.9
		c0-1.8,1.1-3,3-3c2.3,0,3.1,1.6,3.1,4.6c0,3.1-0.6,4.7-3,4.7c-1.9,0-2.8-1.2-2.9-2.5H320.2z M323.4,521.4c0-1.2-0.7-1.8-1.7-1.8
		c-1.1,0-1.7,0.7-1.7,1.8c0,0.9,0.5,1.8,1.8,1.8C322.8,523.1,323.4,522.5,323.4,521.4z"/>
</g>
<g>
	<path class="st3" d="M355.6,526.6c2.1-1.9,4.4-3.5,4.4-5.3c0-0.9-0.4-1.6-1.5-1.6c-1,0-1.5,0.7-1.6,1.7h-1.4c0-2,1.3-2.9,2.9-2.9
		c1.8,0,2.9,1.1,2.9,2.7c0,2.2-2.2,3.9-3.7,5.2h4v1.2h-6.1V526.6z"/>
	<path class="st3" d="M366.2,518.5c2.5,0,3.2,2,3.2,4.6c0,2.6-0.7,4.6-3.2,4.6s-3.2-2-3.2-4.6C362.9,520.5,363.6,518.5,366.2,518.5z
		 M366.2,519.8c-1.7,0-1.8,1.6-1.8,3.3c0,1.8,0.2,3.3,1.8,3.3s1.8-1.6,1.8-3.3C368,521.4,367.9,519.8,366.2,519.8z"/>
	<path class="st3" d="M370.8,526.6c2.1-1.9,4.4-3.5,4.4-5.3c0-0.9-0.4-1.6-1.5-1.6c-1,0-1.5,0.7-1.6,1.7h-1.4c0-2,1.3-2.9,2.9-2.9
		c1.8,0,2.9,1.1,2.9,2.7c0,2.2-2.2,3.9-3.7,5.2h4v1.2h-6.1V526.6z"/>
	<path class="st3" d="M381.4,518.5c2.5,0,3.2,2,3.2,4.6c0,2.6-0.7,4.6-3.2,4.6s-3.2-2-3.2-4.6C378.2,520.5,378.9,518.5,381.4,518.5z
		 M381.4,519.8c-1.7,0-1.8,1.6-1.8,3.3c0,1.8,0.2,3.3,1.8,3.3s1.8-1.6,1.8-3.3C383.3,521.4,383.1,519.8,381.4,519.8z"/>
</g>
<g>
	<path class="st3" d="M416.2,526.6c2.1-1.9,4.4-3.5,4.4-5.3c0-0.9-0.4-1.6-1.5-1.6c-1,0-1.5,0.7-1.6,1.7h-1.4c0-2,1.3-2.9,2.9-2.9
		c1.8,0,2.9,1.1,2.9,2.7c0,2.2-2.2,3.9-3.7,5.2h4v1.2h-6.1V526.6z"/>
	<path class="st3" d="M426.8,518.5c2.5,0,3.2,2,3.2,4.6c0,2.6-0.7,4.6-3.2,4.6s-3.2-2-3.2-4.6C423.5,520.5,424.2,518.5,426.8,518.5z
		 M426.8,519.8c-1.7,0-1.8,1.6-1.8,3.3c0,1.8,0.2,3.3,1.8,3.3s1.8-1.6,1.8-3.3C428.6,521.4,428.4,519.8,426.8,519.8z"/>
	<path class="st3" d="M431.4,526.6c2.1-1.9,4.4-3.5,4.4-5.3c0-0.9-0.4-1.6-1.5-1.6c-1,0-1.5,0.7-1.6,1.7h-1.4c0-2,1.3-2.9,2.9-2.9
		c1.8,0,2.9,1.1,2.9,2.7c0,2.2-2.2,3.9-3.7,5.2h4v1.2h-6.1V526.6z"/>
	<path class="st3" d="M439.7,519.9h-1.2v-1.3h2.6v9.1h-1.4V519.9z"/>
</g>
<g>
	<path class="st3" d="M474.3,526.6c2.1-1.9,4.4-3.5,4.4-5.3c0-0.9-0.4-1.6-1.5-1.6c-1,0-1.5,0.7-1.6,1.7h-1.4c0-2,1.3-2.9,2.9-2.9
		c1.8,0,2.9,1.1,2.9,2.7c0,2.2-2.2,3.9-3.7,5.2h4v1.2h-6.1V526.6z"/>
	<path class="st3" d="M484.8,518.5c2.5,0,3.2,2,3.2,4.6c0,2.6-0.7,4.6-3.2,4.6s-3.2-2-3.2-4.6C481.6,520.5,482.3,518.5,484.8,518.5z
		 M484.8,519.8c-1.7,0-1.8,1.6-1.8,3.3c0,1.8,0.2,3.3,1.8,3.3s1.8-1.6,1.8-3.3C486.7,521.4,486.5,519.8,484.8,519.8z"/>
	<path class="st3" d="M489.5,526.6c2.1-1.9,4.4-3.5,4.4-5.3c0-0.9-0.4-1.6-1.5-1.6c-1,0-1.5,0.7-1.6,1.7h-1.4c0-2,1.3-2.9,2.9-2.9
		c1.8,0,2.9,1.1,2.9,2.7c0,2.2-2.2,3.9-3.7,5.2h4v1.2h-6.1V526.6z"/>
	<path class="st3" d="M496.7,526.6c2.1-1.9,4.4-3.5,4.4-5.3c0-0.9-0.4-1.6-1.5-1.6c-1,0-1.5,0.7-1.6,1.7h-1.4c0-2,1.3-2.9,2.9-2.9
		c1.8,0,2.9,1.1,2.9,2.7c0,2.2-2.2,3.9-3.7,5.2h4v1.2h-6.1V526.6z"/>
</g>
<g>
	<path class="st3" d="M533.4,526.6c2.1-1.9,4.4-3.5,4.4-5.3c0-0.9-0.4-1.6-1.5-1.6c-1,0-1.5,0.7-1.6,1.7h-1.4c0-2,1.3-2.9,2.9-2.9
		c1.8,0,2.9,1.1,2.9,2.7c0,2.2-2.2,3.9-3.7,5.2h4v1.2h-6.1V526.6z"/>
	<path class="st3" d="M544,518.5c2.5,0,3.2,2,3.2,4.6c0,2.6-0.7,4.6-3.2,4.6s-3.2-2-3.2-4.6C540.8,520.5,541.5,518.5,544,518.5z
		 M544,519.8c-1.7,0-1.8,1.6-1.8,3.3c0,1.8,0.2,3.3,1.8,3.3s1.8-1.6,1.8-3.3C545.8,521.4,545.7,519.8,544,519.8z"/>
	<path class="st3" d="M548.6,526.6c2.1-1.9,4.4-3.5,4.4-5.3c0-0.9-0.4-1.6-1.5-1.6c-1,0-1.5,0.7-1.6,1.7h-1.4c0-2,1.3-2.9,2.9-2.9
		c1.8,0,2.9,1.1,2.9,2.7c0,2.2-2.2,3.9-3.7,5.2h4v1.2h-6.1V526.6z"/>
	<path class="st3" d="M558.9,518.4c1.8,0,2.8,1,2.8,2.4c0,1.1-0.7,1.8-1.4,2.1v0.1c0.9,0.3,1.6,1.1,1.6,2.3c0,1.4-1,2.5-2.9,2.5
		c-1.7,0-3.1-0.9-3.1-2.7h1.4c0.1,0.8,0.7,1.5,1.8,1.5c1.1,0,1.6-0.6,1.6-1.5c0-1.2-0.8-1.6-2.3-1.6H558v-1.2h0.3
		c1.3,0,2.1-0.4,2.1-1.4c0-0.8-0.5-1.3-1.5-1.3c-1,0-1.5,0.6-1.5,1.2h-1.4C556,519.3,557.3,518.4,558.9,518.4z"/>
</g>
<g>
	<path class="st3" d="M590.4,526.6c2.1-1.9,4.4-3.5,4.4-5.3c0-0.9-0.4-1.6-1.5-1.6c-1,0-1.5,0.7-1.6,1.7h-1.4c0-2,1.3-2.9,2.9-2.9
		c1.8,0,2.9,1.1,2.9,2.7c0,2.2-2.2,3.9-3.7,5.2h4v1.2h-6.1V526.6z"/>
	<path class="st3" d="M601,518.5c2.5,0,3.2,2,3.2,4.6c0,2.6-0.7,4.6-3.2,4.6s-3.2-2-3.2-4.6C597.8,520.5,598.5,518.5,601,518.5z
		 M601,519.8c-1.7,0-1.8,1.6-1.8,3.3c0,1.8,0.2,3.3,1.8,3.3s1.8-1.6,1.8-3.3C602.9,521.4,602.7,519.8,601,519.8z"/>
	<path class="st3" d="M608.7,518.4c1.8,0,2.8,1,2.8,2.4c0,1.1-0.7,1.8-1.4,2.1v0.1c0.9,0.3,1.6,1.1,1.6,2.3c0,1.4-1,2.5-2.9,2.5
		c-1.7,0-3.1-0.9-3.1-2.7h1.4c0.1,0.8,0.7,1.5,1.8,1.5c1.1,0,1.6-0.6,1.6-1.5c0-1.2-0.8-1.6-2.3-1.6h-0.3v-1.2h0.3
		c1.3,0,2.1-0.4,2.1-1.4c0-0.8-0.5-1.3-1.5-1.3c-1,0-1.5,0.6-1.5,1.2h-1.4C605.8,519.3,607.1,518.4,608.7,518.4z"/>
	<path class="st3" d="M616.4,518.5c2.5,0,3.2,2,3.2,4.6c0,2.6-0.7,4.6-3.2,4.6s-3.2-2-3.2-4.6C613.2,520.5,613.9,518.5,616.4,518.5z
		 M616.4,519.8c-1.7,0-1.8,1.6-1.8,3.3c0,1.8,0.2,3.3,1.8,3.3s1.8-1.6,1.8-3.3C618.3,521.4,618.1,519.8,616.4,519.8z"/>
</g>
<g>
	<path class="st3" d="M649.5,526.6c2.1-1.9,4.4-3.5,4.4-5.3c0-0.9-0.4-1.6-1.5-1.6c-1,0-1.5,0.7-1.6,1.7h-1.4c0-2,1.3-2.9,2.9-2.9
		c1.8,0,2.9,1.1,2.9,2.7c0,2.2-2.2,3.9-3.7,5.2h4v1.2h-6.1V526.6z"/>
	<path class="st3" d="M660,518.5c2.5,0,3.2,2,3.2,4.6c0,2.6-0.7,4.6-3.2,4.6s-3.2-2-3.2-4.6C656.8,520.5,657.5,518.5,660,518.5z
		 M660,519.8c-1.7,0-1.8,1.6-1.8,3.3c0,1.8,0.2,3.3,1.8,3.3s1.8-1.6,1.8-3.3C661.9,521.4,661.7,519.8,660,519.8z"/>
	<path class="st3" d="M669.1,525.8h-4.5v-1.1l4.2-6h1.7v5.9h1.2v1.2h-1.2v1.9h-1.4V525.8z M669.2,524.6v-4.4l-2.9,4.4H669.2z"/>
	<path class="st3" d="M676.1,518.5c2.5,0,3.2,2,3.2,4.6c0,2.6-0.7,4.6-3.2,4.6s-3.2-2-3.2-4.6C672.9,520.5,673.6,518.5,676.1,518.5z
		 M676.1,519.8c-1.7,0-1.8,1.6-1.8,3.3c0,1.8,0.2,3.3,1.8,3.3s1.8-1.6,1.8-3.3C678,521.4,677.8,519.8,676.1,519.8z"/>
</g>
<g>
	<path class="st3" d="M709.4,526.6c2.1-1.9,4.4-3.5,4.4-5.3c0-0.9-0.4-1.6-1.5-1.6c-1,0-1.5,0.7-1.6,1.7h-1.4c0-2,1.3-2.9,2.9-2.9
		c1.8,0,2.9,1.1,2.9,2.7c0,2.2-2.2,3.9-3.7,5.2h4v1.2h-6.1V526.6z"/>
	<path class="st3" d="M720,518.5c2.5,0,3.2,2,3.2,4.6c0,2.6-0.7,4.6-3.2,4.6s-3.2-2-3.2-4.6C716.7,520.5,717.4,518.5,720,518.5z
		 M720,519.8c-1.7,0-1.8,1.6-1.8,3.3c0,1.8,0.2,3.3,1.8,3.3s1.8-1.6,1.8-3.3C721.8,521.4,721.6,519.8,720,519.8z"/>
	<path class="st3" d="M730.6,518.6v1.2h-4.2v2.5c0.3-0.5,1.1-0.8,1.9-0.8c2.2,0,2.9,1.7,2.9,3c0,1.8-1,3.2-3.1,3.2
		c-1.9,0-3-1-3.2-2.5h1.4c0.2,0.8,0.8,1.3,1.8,1.3c1.2,0,1.8-0.8,1.8-2c0-1.2-0.6-1.9-1.8-1.9c-0.8,0-1.4,0.5-1.6,1.1h-1.3v-5.3
		H730.6z"/>
	<path class="st3" d="M736,518.5c2.5,0,3.2,2,3.2,4.6c0,2.6-0.7,4.6-3.2,4.6s-3.2-2-3.2-4.6C732.7,520.5,733.4,518.5,736,518.5z
		 M736,519.8c-1.7,0-1.8,1.6-1.8,3.3c0,1.8,0.2,3.3,1.8,3.3s1.8-1.6,1.8-3.3C737.8,521.4,737.6,519.8,736,519.8z"/>
</g>
<g>
	<path d="M160.4,95.4c-4.1,0-7.2-2-7.4-5.8h4.9c0.1,1.5,1,2.2,2.3,2.2c1.3,0,2.2-0.7,2.2-1.8c0-3.5-9.4-1.6-9.4-8.3
		c0-3.6,2.9-5.6,6.9-5.6c4.1,0,6.9,2,7.1,5.6h-5c-0.1-1.2-0.9-1.9-2.2-2c-1.1,0-1.9,0.5-1.9,1.7c0,3.3,9.3,1.8,9.3,8.1
		C167.3,92.7,164.9,95.4,160.4,95.4z"/>
	<path d="M177,95.4c-4.4,0-7.7-3-7.7-7.7s3.4-7.7,7.8-7.7c4.4,0,7.8,3,7.8,7.7S181.4,95.4,177,95.4z M177,91.4
		c1.6,0,3.2-1.2,3.2-3.7c0-2.6-1.5-3.7-3.1-3.7c-1.7,0-3.1,1.2-3.1,3.7C173.9,90.2,175.3,91.4,177,91.4z"/>
	<path d="M187.3,75.3h4.6v19.9h-4.6V75.3z"/>
	<path d="M200.9,80c2.2,0,3.8,1,4.6,2.3v-2.1h4.6v15h-4.6v-2.1c-0.8,1.3-2.4,2.3-4.6,2.3c-3.7,0-6.6-3-6.6-7.7
		C194.3,82.9,197.2,80,200.9,80z M202.2,84c-1.7,0-3.3,1.3-3.3,3.7s1.6,3.7,3.3,3.7c1.7,0,3.3-1.3,3.3-3.7S204,84,202.2,84z"/>
	<path d="M218,95.2h-4.6v-15h4.6v2.5c1-1.6,2.7-2.7,4.7-2.7v4.9h-1.3c-2.2,0-3.4,0.8-3.4,3.3V95.2z"/>
	<path d="M238.1,88.4h-2.8v6.8h-4.6V76.3h7.4c4.6,0,6.9,2.6,6.9,6.1C245,85.5,242.9,88.4,238.1,88.4z M237.7,84.8
		c1.8,0,2.6-0.9,2.6-2.4s-0.8-2.4-2.6-2.4h-2.5v4.7H237.7z"/>
	<path d="M260.3,76.3h4.9l-6.7,18.9h-5.8L246,76.3h4.9l4.7,14.2L260.3,76.3z"/>
	<path d="M279.4,95.4c-4.4,0-7.6-3-7.6-7.7s3.1-7.7,7.6-7.7c4.4,0,7.5,2.9,7.5,7.5c0,0.4,0,0.9-0.1,1.3h-10.4c0.2,2,1.4,2.9,2.8,2.9
		c1.3,0,2-0.6,2.4-1.5h4.9C285.8,93.1,283.1,95.4,279.4,95.4z M276.4,86.2h5.8c0-1.6-1.3-2.6-2.8-2.6
		C277.9,83.7,276.7,84.6,276.4,86.2z"/>
	<path d="M299.6,87c0-2-1.1-3.2-2.9-3.2c-1.7,0-2.9,1.1-2.9,3.2v8.1h-4.6v-15h4.6v2c0.9-1.3,2.5-2.1,4.5-2.1c3.5,0,5.8,2.4,5.8,6.4
		v8.8h-4.6V87z"/>
	<path d="M314.1,95.4c-4.4,0-7.6-3-7.6-7.7s3.1-7.7,7.6-7.7c4.4,0,7.5,2.9,7.5,7.5c0,0.4,0,0.9-0.1,1.3h-10.4c0.2,2,1.4,2.9,2.8,2.9
		c1.3,0,2-0.6,2.4-1.5h4.9C320.5,93.1,317.8,95.4,314.1,95.4z M311.1,86.2h5.8c0-1.6-1.3-2.6-2.8-2.6
		C312.5,83.7,311.4,84.6,311.1,86.2z"/>
	<path d="M328.6,95.2H324v-15h4.6v2.5c1-1.6,2.7-2.7,4.7-2.7v4.9H332c-2.2,0-3.4,0.8-3.4,3.3V95.2z"/>
	<path d="M341.2,80c2.2,0,3.8,1,4.6,2.3v-2.1h4.6v15c0,4-2.3,7.4-7.5,7.4c-4.5,0-7.4-2.3-7.8-5.8h4.5c0.3,1.1,1.4,1.9,3,1.9
		c1.7,0,3.1-0.9,3.1-3.4V93c-0.8,1.3-2.4,2.4-4.6,2.4c-3.7,0-6.6-3-6.6-7.7C334.6,82.9,337.5,80,341.2,80z M342.5,84
		c-1.7,0-3.3,1.3-3.3,3.7s1.6,3.7,3.3,3.7c1.7,0,3.3-1.3,3.3-3.7S344.3,84,342.5,84z"/>
	<path d="M364.1,80.2h5l-9.4,22.1h-4.9l3.4-7.6L352,80.2h5.1l3.5,9.4L364.1,80.2z"/>
	<path d="M376,76.2c0-1.4,1.1-2.5,2.7-2.5c1.6,0,2.7,1.1,2.7,2.5c0,1.4-1.1,2.5-2.7,2.5C377.1,78.6,376,77.5,376,76.2z M376.4,80.2
		h4.6v15h-4.6V80.2z"/>
	<path d="M390.4,95.4c-4,0-6.7-2.2-6.9-5.1h4.5c0.1,1,1,1.7,2.3,1.7c1.2,0,1.8-0.5,1.8-1.2c0-2.4-8.2-0.7-8.2-6.2
		c0-2.6,2.2-4.6,6.1-4.6c3.9,0,6,2.1,6.3,5.1h-4.2c-0.1-1-0.9-1.7-2.2-1.7c-1.1,0-1.7,0.4-1.7,1.2c0,2.4,8.1,0.7,8.2,6.3
		C396.5,93.4,394.2,95.4,390.4,95.4z"/>
	<path d="M405.8,84h-1.8v-3.8h1.8v-3.7h4.6v3.7h3V84h-3v6c0,0.9,0.4,1.3,1.4,1.3h1.6v3.9h-2.3c-3.1,0-5.3-1.3-5.3-5.2V84z"/>
	<path d="M416,75.3h4.6v6.9c0.9-1.3,2.6-2.2,4.6-2.2c3.4,0,5.7,2.4,5.7,6.4v8.8h-4.6V87c0-2-1.1-3.2-2.9-3.2c-1.7,0-2.9,1.1-2.9,3.2
		v8.1H416V75.3z"/>
	<path d="M440.7,95.4c-4.4,0-7.6-3-7.6-7.7s3.1-7.7,7.6-7.7c4.4,0,7.5,2.9,7.5,7.5c0,0.4,0,0.9-0.1,1.3h-10.4c0.2,2,1.4,2.9,2.8,2.9
		c1.3,0,2-0.6,2.4-1.5h4.9C447.1,93.1,444.5,95.4,440.7,95.4z M437.7,86.2h5.8c0-1.6-1.3-2.6-2.8-2.6
		C439.2,83.7,438,84.6,437.7,86.2z"/>
	<path d="M456.8,84h-1.7v-3.8h1.7v-0.4c0-3.9,2.4-5.9,7-5.6V78c-1.8-0.1-2.4,0.4-2.4,2v0.1h2.5V84h-2.5v11.2h-4.6V84z"/>
	<path d="M480.8,95.2h-4.6v-2c-0.9,1.3-2.5,2.2-4.5,2.2c-3.5,0-5.8-2.4-5.8-6.4v-8.8h4.6v8.1c0,2,1.2,3.2,2.9,3.2
		c1.8,0,2.9-1.1,2.9-3.2v-8.1h4.6V95.2z"/>
	<path d="M484.8,84H483v-3.8h1.8v-3.7h4.6v3.7h3V84h-3v6c0,0.9,0.4,1.3,1.4,1.3h1.6v3.9h-2.3c-3.1,0-5.3-1.3-5.3-5.2V84z"/>
	<path d="M509.8,95.2h-4.6v-2c-0.9,1.3-2.5,2.2-4.5,2.2c-3.5,0-5.8-2.4-5.8-6.4v-8.8h4.6v8.1c0,2,1.2,3.2,2.9,3.2
		c1.8,0,2.9-1.1,2.9-3.2v-8.1h4.6V95.2z"/>
	<path d="M517.7,95.2h-4.6v-15h4.6v2.5c1-1.6,2.7-2.7,4.7-2.7v4.9h-1.3c-2.2,0-3.4,0.8-3.4,3.3V95.2z"/>
	<path d="M531.3,95.4c-4.4,0-7.6-3-7.6-7.7s3.1-7.7,7.6-7.7c4.4,0,7.5,2.9,7.5,7.5c0,0.4,0,0.9-0.1,1.3h-10.4c0.2,2,1.4,2.9,2.8,2.9
		c1.3,0,2-0.6,2.4-1.5h4.9C537.7,93.1,535,95.4,531.3,95.4z M528.3,86.2h5.8c0-1.6-1.3-2.6-2.8-2.6
		C529.7,83.7,528.6,84.6,528.3,86.2z"/>
	<path d="M546.5,76.2c0-1.4,1.1-2.5,2.7-2.5c1.6,0,2.7,1.1,2.7,2.5c0,1.4-1.1,2.5-2.7,2.5C547.6,78.6,546.5,77.5,546.5,76.2z
		 M546.9,80.2h4.6v15h-4.6V80.2z"/>
	<path d="M565.2,87c0-2-1.1-3.2-2.9-3.2c-1.7,0-2.9,1.1-2.9,3.2v8.1h-4.6v-15h4.6v2c0.9-1.3,2.5-2.1,4.5-2.1c3.5,0,5.8,2.4,5.8,6.4
		v8.8h-4.6V87z"/>
	<path d="M160.3,127.6c-4.4,0-7.6-3-7.6-7.7s3.1-7.7,7.6-7.7c4.4,0,7.5,2.9,7.5,7.5c0,0.4,0,0.9-0.1,1.3h-10.4
		c0.2,2,1.4,2.9,2.8,2.9c1.3,0,2-0.6,2.4-1.5h4.9C166.7,125.4,164,127.6,160.3,127.6z M157.3,118.5h5.8c0-1.6-1.3-2.6-2.8-2.6
		C158.7,115.9,157.6,116.8,157.3,118.5z"/>
	<path d="M170.2,107.5h4.6v19.9h-4.6V107.5z"/>
	<path d="M184.8,127.6c-4.4,0-7.6-3-7.6-7.7s3.1-7.7,7.6-7.7c4.4,0,7.5,2.9,7.5,7.5c0,0.4,0,0.9-0.1,1.3h-10.4
		c0.2,2,1.4,2.9,2.8,2.9c1.3,0,2-0.6,2.4-1.5h4.9C191.2,125.4,188.5,127.6,184.8,127.6z M181.8,118.5h5.8c0-1.6-1.3-2.6-2.8-2.6
		C183.2,115.9,182.1,116.8,181.8,118.5z"/>
	<path d="M201.3,112.2c3.8,0,6.4,2.1,7.2,5.6h-4.9c-0.4-1-1.1-1.7-2.4-1.7c-1.6,0-2.8,1.3-2.8,3.8s1.1,3.8,2.8,3.8
		c1.3,0,2-0.6,2.4-1.7h4.9c-0.8,3.5-3.4,5.6-7.2,5.6c-4.4,0-7.5-3-7.5-7.7C193.8,115.2,196.9,112.2,201.3,112.2z"/>
	<path d="M211.7,116.3h-1.8v-3.8h1.8v-3.7h4.6v3.7h3v3.8h-3v6c0,0.9,0.4,1.3,1.4,1.3h1.6v3.9h-2.3c-3.1,0-5.3-1.3-5.3-5.2V116.3z"/>
	<path d="M226.4,127.4h-4.6v-15h4.6v2.5c1-1.6,2.7-2.7,4.7-2.7v4.9h-1.3c-2.2,0-3.4,0.8-3.4,3.3V127.4z"/>
	<path d="M232.9,108.4c0-1.4,1.1-2.5,2.7-2.5c1.6,0,2.7,1.1,2.7,2.5c0,1.4-1.1,2.5-2.7,2.5C234,110.9,232.9,109.8,232.9,108.4z
		 M233.3,112.4h4.6v15h-4.6V112.4z"/>
	<path d="M247.9,112.2c3.8,0,6.4,2.1,7.2,5.6h-4.9c-0.4-1-1.1-1.7-2.4-1.7c-1.6,0-2.8,1.3-2.8,3.8s1.1,3.8,2.8,3.8
		c1.3,0,2-0.6,2.4-1.7h4.9c-0.8,3.5-3.4,5.6-7.2,5.6c-4.4,0-7.5-3-7.5-7.7C240.4,115.2,243.5,112.2,247.9,112.2z"/>
	<path d="M257.1,108.4c0-1.4,1.1-2.5,2.7-2.5c1.6,0,2.7,1.1,2.7,2.5c0,1.4-1.1,2.5-2.7,2.5C258.2,110.9,257.1,109.8,257.1,108.4z
		 M257.5,112.4h4.6v15h-4.6V112.4z"/>
	<path d="M266.2,116.3h-1.8v-3.8h1.8v-3.7h4.6v3.7h3v3.8h-3v6c0,0.9,0.4,1.3,1.4,1.3h1.6v3.9h-2.3c-3.1,0-5.3-1.3-5.3-5.2V116.3z"/>
	<path d="M286.7,112.4h5l-9.4,22.1h-4.9l3.4-7.6l-6.1-14.5h5.1l3.5,9.4L286.7,112.4z"/>
	<path d="M304.8,112.2c2.2,0,3.8,1,4.6,2.3v-2.1h4.6v15c0,4-2.3,7.4-7.5,7.4c-4.5,0-7.4-2.3-7.8-5.8h4.5c0.3,1.1,1.4,1.9,3,1.9
		c1.7,0,3.1-0.9,3.1-3.4v-2.1c-0.8,1.3-2.4,2.4-4.6,2.4c-3.7,0-6.6-3-6.6-7.7C298.1,115.2,301.1,112.2,304.8,112.2z M306.1,116.2
		c-1.7,0-3.3,1.3-3.3,3.7s1.6,3.7,3.3,3.7c1.7,0,3.3-1.3,3.3-3.7S307.8,116.2,306.1,116.2z"/>
	<path d="M324,127.6c-4.4,0-7.6-3-7.6-7.7s3.1-7.7,7.6-7.7c4.4,0,7.5,2.9,7.5,7.5c0,0.4,0,0.9-0.1,1.3H321c0.2,2,1.4,2.9,2.8,2.9
		c1.3,0,2-0.6,2.4-1.5h4.9C330.4,125.4,327.7,127.6,324,127.6z M321,118.5h5.8c0-1.6-1.3-2.6-2.8-2.6
		C322.4,115.9,321.3,116.8,321,118.5z"/>
	<path d="M344.2,119.3c0-2-1.1-3.2-2.9-3.2c-1.7,0-2.9,1.1-2.9,3.2v8.1h-4.6v-15h4.6v2c0.9-1.3,2.5-2.1,4.5-2.1
		c3.5,0,5.8,2.4,5.8,6.4v8.8h-4.6V119.3z"/>
	<path d="M358.6,127.6c-4.4,0-7.6-3-7.6-7.7s3.1-7.7,7.6-7.7c4.4,0,7.5,2.9,7.5,7.5c0,0.4,0,0.9-0.1,1.3h-10.4
		c0.2,2,1.4,2.9,2.8,2.9c1.3,0,2-0.6,2.4-1.5h4.9C365,125.4,362.4,127.6,358.6,127.6z M355.7,118.5h5.8c0-1.6-1.3-2.6-2.8-2.6
		C357.1,115.9,355.9,116.8,355.7,118.5z"/>
	<path d="M373.1,127.4h-4.6v-15h4.6v2.5c1-1.6,2.7-2.7,4.7-2.7v4.9h-1.3c-2.2,0-3.4,0.8-3.4,3.3V127.4z"/>
	<path d="M385.7,112.2c2.2,0,3.8,1,4.6,2.3v-2.1h4.6v15h-4.6v-2.1c-0.8,1.3-2.4,2.3-4.6,2.3c-3.7,0-6.6-3-6.6-7.7
		C379.1,115.2,382.1,112.2,385.7,112.2z M387.1,116.2c-1.7,0-3.3,1.3-3.3,3.7s1.6,3.7,3.3,3.7c1.7,0,3.3-1.3,3.3-3.7
		S388.8,116.2,387.1,116.2z"/>
	<path d="M399,116.3h-1.8v-3.8h1.8v-3.7h4.6v3.7h3v3.8h-3v6c0,0.9,0.4,1.3,1.4,1.3h1.6v3.9h-2.3c-3.1,0-5.3-1.3-5.3-5.2V116.3z"/>
	<path d="M408.8,108.4c0-1.4,1.1-2.5,2.7-2.5c1.6,0,2.7,1.1,2.7,2.5c0,1.4-1.1,2.5-2.7,2.5C409.9,110.9,408.8,109.8,408.8,108.4z
		 M409.2,112.4h4.6v15h-4.6V112.4z"/>
	<path d="M424,127.6c-4.4,0-7.7-3-7.7-7.7s3.4-7.7,7.8-7.7c4.4,0,7.8,3,7.8,7.7S428.4,127.6,424,127.6z M424,123.7
		c1.6,0,3.2-1.2,3.2-3.7c0-2.6-1.5-3.7-3.1-3.7c-1.7,0-3.1,1.2-3.1,3.7C420.9,122.5,422.3,123.7,424,123.7z"/>
	<path d="M444.6,119.3c0-2-1.1-3.2-2.9-3.2c-1.7,0-2.9,1.1-2.9,3.2v8.1h-4.6v-15h4.6v2c0.9-1.3,2.5-2.1,4.5-2.1
		c3.5,0,5.8,2.4,5.8,6.4v8.8h-4.6V119.3z"/>
</g>
<g>
	<rect x="130.9" y="249.1" class="st15" width="8.5" height="8.5"/>
</g>
<g>
	<rect x="130.9" y="307.2" class="st16" width="8.5" height="8.5"/>
</g>
<g>
	<rect x="130.9" y="365.2" class="st17" width="8.5" height="8.5"/>
</g>
<g>
	<rect x="130.9" y="422.8" class="st18" width="8.5" height="8.5"/>
</g>
<g>
	<rect x="130.9" y="480.3" class="st19" width="8.5" height="8.5"/>
</g>
<g>
	<rect x="292.8" y="373.8" class="st15" width="38.8" height="3.3"/>
</g>
<g>
	<rect x="292.8" y="377.1" class="st16" width="38.8" height="7.4"/>
</g>
<g>
	<rect x="292.8" y="384.5" class="st17" width="38.8" height="21.6"/>
</g>
<g>
	<rect x="292.8" y="406.1" class="st18" width="38.8" height="82.7"/>
</g>
<g>
	<rect x="292.8" y="488.8" class="st19" width="38.8" height="16.6"/>
</g>
<g>
	<rect x="352.6" y="375.9" class="st15" width="38.8" height="5.1"/>
</g>
<g>
	<rect x="352.6" y="380.9" class="st16" width="38.8" height="6.3"/>
</g>
<g>
	<rect x="352.6" y="409.5" class="st18" width="38.8" height="80.3"/>
</g>
<g>
	<rect x="352.6" y="387.3" class="st17" width="38.8" height="22.2"/>
</g>
<g>
	<rect x="352.6" y="489.8" class="st19" width="38.8" height="15.6"/>
</g>
<g>
	<rect x="410.5" y="369" class="st15" width="38.8" height="4.8"/>
</g>
<g>
	<rect x="410.5" y="384.5" class="st17" width="38.8" height="21.6"/>
</g>
<g>
	<rect x="410.5" y="487.5" class="st19" width="38.8" height="17.9"/>
</g>
<g>
	<rect x="410.5" y="406.1" class="st18" width="38.8" height="81.4"/>
</g>
<g>
	<rect x="410.5" y="373.8" class="st16" width="38.8" height="10.7"/>
</g>
<g>
	<rect x="470" y="365.9" class="st15" width="38.8" height="7.9"/>
</g>
<g>
	<rect x="470" y="373.8" class="st16" width="38.8" height="10.7"/>
</g>
<g>
	<rect x="470" y="384.5" class="st17" width="38.8" height="23.1"/>
</g>
<g>
	<rect x="470" y="407.6" class="st18" width="38.8" height="79.8"/>
</g>
<g>
	<rect x="470" y="487.5" class="st19" width="38.8" height="17.9"/>
</g>
<g>
	<rect x="528.3" y="370.9" class="st16" width="38.8" height="13.6"/>
</g>
<g>
	<rect x="528.3" y="361.7" class="st15" width="38.8" height="9.2"/>
</g>
<g>
	<rect x="528.3" y="384.5" class="st17" width="38.8" height="23.1"/>
</g>
<g>
	<rect x="528.3" y="487.5" class="st19" width="38.8" height="17.9"/>
</g>
<g>
	<rect x="528.3" y="407.6" class="st18" width="38.8" height="79.8"/>
</g>
<g>
	<rect x="587.6" y="359.5" class="st16" width="38.8" height="27.7"/>
</g>
<g>
	<rect x="587.6" y="327.8" class="st15" width="38.8" height="31.8"/>
</g>
<g>
	<rect x="587.6" y="487.8" class="st19" width="38.8" height="17.6"/>
</g>
<g>
	<rect x="587.6" y="387.3" class="st17" width="38.8" height="29.3"/>
</g>
<g>
	<rect x="587.6" y="416.6" class="st18" width="38.8" height="71.2"/>
</g>
<g>
	<rect x="646.1" y="345.7" class="st16" width="38.8" height="53.3"/>
</g>
<g>
	<rect x="646.1" y="279.4" class="st15" width="38.8" height="66.3"/>
</g>
<g>
	<rect x="646.1" y="399" class="st17" width="38.8" height="33.5"/>
</g>
<g>
	<rect x="646.1" y="432.5" class="st18" width="38.8" height="57.2"/>
</g>
<g>
	<rect x="646.1" y="489.8" class="st19" width="38.8" height="15.6"/>
</g>
<g>
	<rect x="704.9" y="324.4" class="st16" width="38.8" height="95"/>
</g>
<g>
	<rect x="704.9" y="419.3" class="st17" width="38.8" height="34.5"/>
</g>
<g>
	<rect x="704.9" y="490.2" class="st19" width="38.8" height="15.2"/>
</g>
<g>
	<rect x="704.9" y="222.2" class="st15" width="38.8" height="102.2"/>
</g>
<g>
	<rect x="704.9" y="453.9" class="st18" width="38.8" height="36.3"/>
</g>
<g>
	<circle class="st20" cx="879.9" cy="193.5" r="12.5"/>
</g>
<g>
	<path class="st5" d="M871,195.1c0.8-0.7,1.5-1.4,2.3-2.1c1.5,1.2,2.8,2.5,3.9,4.1c0.2-0.3,0.4-0.5,0.6-0.8c1.5-2.1,3.1-4.2,5.2-5.8
		c2.1-1.7,4.5-2.8,7.2-2.9c0.3,0,0.5,0,0.9,0c-0.3,0.2-0.5,0.3-0.8,0.4c-4.2,2.4-7.5,5.8-10,9.9c-1,1.5-1.8,3.1-2.8,4.7
		c-0.1,0.1-0.1,0.2-0.2,0.4C875.7,200,873.6,197.4,871,195.1z"/>
</g>
<g>
	<circle class="st20" cx="879.9" cy="289.9" r="12.5"/>
</g>
<g>
	<path class="st5" d="M871,291.5c0.8-0.7,1.5-1.4,2.3-2.1c1.5,1.2,2.8,2.5,3.9,4.1c0.2-0.3,0.4-0.5,0.6-0.8c1.5-2.1,3.1-4.2,5.2-5.8
		c2.1-1.7,4.5-2.8,7.2-2.9c0.3,0,0.5,0,0.9,0c-0.3,0.2-0.5,0.3-0.8,0.4c-4.2,2.4-7.5,5.8-10,9.9c-1,1.5-1.8,3.1-2.8,4.7
		c-0.1,0.1-0.1,0.2-0.2,0.4C875.7,296.4,873.6,293.8,871,291.5z"/>
</g>
<g>
	<circle class="st20" cx="879.9" cy="385" r="12.5"/>
</g>
<g>
	<path class="st5" d="M871,386.6c0.8-0.7,1.5-1.4,2.3-2.1c1.5,1.2,2.8,2.5,3.9,4.1c0.2-0.3,0.4-0.5,0.6-0.8c1.5-2.1,3.1-4.2,5.2-5.8
		c2.1-1.7,4.5-2.8,7.2-2.9c0.3,0,0.5,0,0.9,0c-0.3,0.2-0.5,0.3-0.8,0.4c-4.2,2.4-7.5,5.8-10,9.9c-1,1.5-1.8,3.1-2.8,4.7
		c-0.1,0.1-0.1,0.2-0.2,0.4C875.7,391.5,873.6,388.9,871,386.6z"/>
</g>
<g>
	<circle class="st20" cx="879.9" cy="471.5" r="12.5"/>
</g>
<g>
	<path class="st5" d="M871,473.1c0.8-0.7,1.5-1.4,2.3-2.1c1.5,1.2,2.8,2.5,3.9,4.1c0.2-0.3,0.4-0.5,0.6-0.8c1.5-2.1,3.1-4.2,5.2-5.8
		c2.1-1.7,4.5-2.8,7.2-2.9c0.3,0,0.5,0,0.9,0c-0.3,0.2-0.5,0.3-0.8,0.4c-4.2,2.4-7.5,5.8-10,9.9c-1,1.5-1.8,3.1-2.8,4.7
		c-0.1,0.1-0.1,0.2-0.2,0.4C875.7,478,873.6,475.4,871,473.1z"/>
</g>
<g>
	<rect x="268.9" y="504.8" class="st21" width="498.4" height="1"/>
</g>
<g>
	<rect x="129.7" y="76.1" class="st23" width="4" height="51.3"/>
</g>
</svg>
