<?xml version="1.0" encoding="UTF-8"?><svg id="a" xmlns="http://www.w3.org/2000/svg" viewBox="0 0 96.58 78"><defs><style>.b{fill:#229f36;}</style></defs><path class="b" d="M0,0V58.29H34.94l-2.63,11.32h-11.15v8.39h52.97v-8.39h-9.86l-2.63-11.32h34.94V0H0ZM64.91,72.39h6.43v2.83H23.94v-2.83h40.97Zm-29.75-2.78l2.63-11.32h21l2.63,11.32h-26.25Zm58.63-14.11H2.78v-9.15H93.8v9.15Zm0-11.93H2.78V2.78H93.8V43.57Z"/><path class="b" d="M18.77,35.9c2.43,1.74,5.29,2.66,8.15,2.66,1.05,0,2.11-.12,3.14-.38,6.24-1.52,10.51-6.7,10.89-13.2,.02-.39,0-.84-.28-1.14-.29-.31-.75-.35-1.16-.35-2.64,0-5.28,0-7.92,0h-3.68v-3.78c0-2.59,0-5.19,0-7.78,0-.43-.05-.91-.37-1.21-.32-.29-.78-.3-1.19-.26-.59,.05-1.21,.11-1.82,.21-7.16,1.22-12.27,7.88-11.63,15.15,.36,4,2.49,7.68,5.86,10.09Zm-.68-19.69c2.08-2.23,4.84-3.54,7.83-3.73v3.46c0,2.63,0,5.27,0,7.9,0,1.3,.34,1.63,1.64,1.64,2.58,0,5.16,0,7.74,0h3.57c-.11,5.08-4.54,10.66-11.24,11.1-3.22,.21-6.35-.88-8.81-3.08-2.45-2.19-3.87-5.18-4.01-8.4-.14-3.32,1.02-6.48,3.27-8.89Z"/><path class="b" d="M31.19,19.97c.24,.24,.6,.36,1.07,.36h.03c1.27-.01,2.56-.01,3.81,0,.51,0,1.02,0,1.53,0,.55,0,1.09,0,1.63,0,1.29,0,2.63,0,3.95,0h.02c.47,0,.81-.12,1.04-.37,.24-.26,.34-.63,.31-1.13-.23-3.34-1.52-6.29-3.74-8.51-2.22-2.23-5.16-3.52-8.5-3.75-.36-.02-.83-.01-1.15,.29-.33,.31-.37,.77-.37,1.14,0,1.4,0,2.79,0,4.19,0,2.18,0,4.44-.01,6.66,0,.51,.12,.87,.37,1.13Zm1.69-11.33c2.19,.05,4.54,1.08,6.36,2.81,1.96,1.85,3.12,4.27,3.29,6.85h-9.66V8.64Z"/><path class="b" d="M48.72,29.11h4.99c.45,0,.82-.37,.82-.82v-8.86c0-.45-.37-.82-.82-.82h-4.99c-.45,0-.82,.37-.82,.82v8.86c0,.45,.37,.82,.82,.82Zm.82-8.86h3.35v7.23h-3.35v-7.23Z"/><path class="b" d="M56.2,29.11h4.99c.45,0,.82-.37,.82-.82V14.08c0-.45-.37-.82-.82-.82h-4.99c-.45,0-.82,.37-.82,.82v14.21c0,.45,.37,.82,.82,.82Zm.82-14.21h3.35v12.57h-3.35V14.9Z"/><path class="b" d="M63.69,29.11h4.99c.45,0,.82-.37,.82-.82v-11.97c0-.45-.37-.82-.82-.82h-4.99c-.45,0-.82,.37-.82,.82v11.97c0,.45,.37,.82,.82,.82Zm.82-11.97h3.35v10.33h-3.35v-10.33Z"/><path class="b" d="M47.64,33.08h32.09c.45,0,.82-.37,.82-.82s-.37-.82-.82-.82H47.64c-.45,0-.82,.37-.82,.82s.37,.82,.82,.82Z"/><path class="b" d="M47.64,37.05h32.09c.45,0,.82-.37,.82-.82s-.37-.82-.82-.82H47.64c-.45,0-.82,.37-.82,.82s.37,.82,.82,.82Z"/><path class="b" d="M71.71,14.58l4.44-4.44V28.29c0,.45,.37,.82,.82,.82s.82-.37,.82-.82V10.13l4.44,4.44c.16,.16,.37,.24,.58,.24s.42-.08,.58-.24c.32-.32,.32-.84,0-1.16l-5.84-5.84s-.08-.07-.13-.1c-.02-.01-.04-.02-.06-.03-.03-.01-.05-.03-.08-.04-.03-.01-.05-.02-.08-.03-.02,0-.05-.02-.07-.02-.11-.02-.21-.02-.32,0-.02,0-.05,.01-.07,.02-.03,0-.06,.01-.08,.03-.03,.01-.05,.03-.08,.04-.02,.01-.04,.02-.06,.03-.05,.03-.09,.06-.13,.1l-5.84,5.84c-.32,.32-.32,.84,0,1.16,.32,.32,.84,.32,1.16,0Z"/></svg>