<?xml version="1.0" encoding="UTF-8"?><svg id="a" xmlns="http://www.w3.org/2000/svg" viewBox="0 0 78.37 78.41"><defs><style>.b{fill:#229f36;}</style></defs><path class="b" d="M26.11,66.6c-8.38-.61-15.23-4.06-20.38-10.65C1.77,50.89-.14,45.07,0,38.65c.16-7.16,2.75-13.37,7.73-18.52,4.98-5.14,11.13-7.84,18.37-8.31,0-.33,0-.62,0-.9,0-2.26,0-4.52,0-6.78C26.12,1.69,27.77,0,30.19,0c10.72,0,21.45-.01,32.17,.02,.51,0,1.13,.27,1.5,.63,4.65,4.59,9.27,9.21,13.86,13.86,.36,.36,.63,.99,.63,1.5,.03,19.44,.03,38.87,.02,58.31,0,2.39-1.67,4.08-4.05,4.08-14.72,0-29.45,0-44.17,0-2.34,0-4.02-1.69-4.03-4.02-.02-2.56,0-5.11,0-7.78Zm2.63,.15c0,.1-.03,.36-.03,.63,0,2.23,0,4.46,0,6.7,0,1.36,.37,1.73,1.75,1.73,14.53,0,29.07,0,43.6,0,1.32,0,1.71-.38,1.71-1.68,0-18.75,0-37.51,0-56.26v-.88c-3.43,0-6.72,0-10.01,0-2.71,0-4.35-1.65-4.36-4.38,0-3.02,0-6.04,0-9.06v-.93h-.82c-10.07,0-20.14,0-30.21,0-1.26,0-1.65,.4-1.65,1.66,0,10.94,0,21.88,0,32.83,0,.26,.02,.52,.04,.82h1.05c7.73,0,15.46,0,23.19,0,1.43,0,1.92,.5,1.82,1.94-.1,1.33-.17,2.67-.43,3.97-2.17,10.82-8.51,18.03-18.97,21.51-2.11,.7-4.38,.95-6.66,1.43Zm23.44-26.25c-.21-.02-.37-.04-.53-.04-7.72,0-15.45,0-23.17,.02-.37,0-.83,.24-1.1,.51-5.36,5.33-10.71,10.68-16.05,16.03-.18,.18-.35,.38-.51,.57,5.95,5.79,16.54,8.7,26.41,4.52,10.14-4.3,14.9-14.05,14.98-21.62ZM9.05,55.8c.14-.12,.29-.24,.42-.37,5.41-5.41,10.82-10.81,16.21-16.24,.28-.28,.45-.8,.45-1.21,.03-7.57,.02-15.13,.02-22.7,0-.29-.03-.57-.04-.86-8.82,.21-18.54,6.11-22.2,16.57-3.44,9.84,.01,19.82,5.14,24.81ZM73.73,14.41l-9.77-9.77c.05-.07,0-.03,0,.01-.01,2.85-.04,5.71,0,8.56,0,.71,.5,1.19,1.21,1.2,2.85,.03,5.71,0,8.56-.01,.04,0,.08-.06,0,0Z"/><path class="b" d="M45.67,35.27c-4.14,0-8.27,0-12.41,0-1.47,0-1.91-.43-1.91-1.89,0-8.36,0-16.71,0-25.07,0-1.27,.51-1.78,1.69-1.76,11.95,.26,22.29,8.04,25.78,19.37,.76,2.46,1.12,4.97,1.23,7.53,.05,1.27-.44,1.8-1.73,1.8-4.22,0-8.44,0-12.65,0Zm11.84-2.58c-.51-7.25-3.42-13.2-8.91-17.83-4.22-3.55-9.12-5.43-14.64-5.73v23.56h23.55Z"/><path class="b" d="M61.38,49.67c6.4,0,11.74,5.34,11.75,11.74,.01,6.39-5.33,11.74-11.74,11.75-6.4,0-11.74-5.34-11.75-11.74,0-6.4,5.34-11.75,11.74-11.75Zm.07,2.56c-5.13,0-9.23,4.02-9.25,9.08-.01,5.18,4.01,9.29,9.12,9.29,5.13,0,9.24-4.03,9.25-9.09,.01-5.18-4.01-9.28-9.12-9.29Z"/><path class="b" d="M73.11,22.29v2.46h-10.35v-2.46h10.35Z"/><path class="b" d="M62.73,32.6v-2.47h10.36v2.47h-10.36Z"/><path class="b" d="M73.09,37.96v2.49h-10.35v-2.49h10.35Z"/><path class="b" d="M55.98,60.6l2.75,2.94c2.29-2.33,4.53-4.62,6.73-6.86l1.82,1.84s-.15,.21-.3,.35c-2.34,2.35-4.69,4.69-7.04,7.04-.91,.91-1.43,.91-2.33,.01-1.18-1.17-2.35-2.34-3.48-3.46l1.85-1.86Z"/></svg>