<?xml version="1.0" encoding="UTF-8"?><svg id="a" xmlns="http://www.w3.org/2000/svg" viewBox="0 0 88.94 69.04"><defs><style>.b{fill:#229f36;}</style></defs><path class="b" d="M0,10.08c0-1.96,.39-3.92,1.27-5.67,.16-.32,.34-.63,.55-.93C3.46,1.11,5.92,.09,8.77,.03c1.42-.03,2.84-.04,4.25,0,5.06,.13,8.7,3.84,8.7,8.89,0,16.21,0,32.42,0,48.63,0,4.68-3.64,8.57-8.31,8.86-1.71,.11-3.44,.1-5.16,0-4.16-.26-7.27-2.84-8.18-6.9-.03-.13-.06-.28-.07-.47C0,42.72,0,26.4,0,10.08Zm3.94,23.07c0,6.31,0,12.62,0,18.93,0,2.03-.03,4.05,.04,6.08,.06,1.74,.97,2.99,2.48,3.8,1.53,.82,7.33,.81,8.84-.02,1.9-1.03,2.52-2.72,2.52-4.78-.01-15.95,0-31.9,0-47.85,0-.14,0-.29,0-.43-.1-3.02-2-4.89-5.02-4.91-1.16,0-2.32,.06-3.47-.01-2.84-.2-5.47,1.66-5.42,5.4,.11,7.93,.03,15.86,.03,23.79Z"/><path class="b" d="M18.26,68.76c.22-.11,.43-.25,.66-.34,1.49-.59,2.7-1.52,3.73-2.74,.26-.3,.83-.48,1.26-.48,18.32-.02,36.64-.02,54.96-.01,1.45,0,2.83-.18,4.02-1.08,1.58-1.2,2.21-2.83,2.2-4.77,0-8.57,0-17.14,0-25.7,0-4.75,0-9.49,0-14.24,0-3.88-2.19-6.06-6.09-6.06-17.57,0-35.14,0-52.7,0-1.6,0-2.6-1.12-2.2-2.45,.26-.84,.87-1.26,1.71-1.38,.14-.02,.29,0,.43,0,17.68,0,35.37,0,53.05,0,4.05,0,7.02,1.8,8.75,5.41,.56,1.16,.85,2.56,.85,3.85,.06,13.66,.05,27.33,.03,40.99,0,5.35-4.12,9.27-9.69,9.3-4.34,.03-8.68,0-13.02,0-15.63,0-31.26,0-46.89,0h-1l-.05-.28Z"/><path class="b" d="M60.16,32.7c-4.92,0-9.84,0-14.75,0-1.52,0-1.73-.2-1.73-1.68,0-4.34,0-8.68,0-13.02,0-1.38,.26-1.64,1.61-1.64,9.89,0,19.79,0,29.68,0,1.37,0,1.64,.26,1.64,1.61,0,4.4,0,8.8,0,13.19,0,1.27-.26,1.54-1.52,1.54-4.98,0-9.95,0-14.93,0Zm14.4-2.02v-12.24h-28.84v12.24h28.84Z"/><path class="b" d="M72.83,53.49c-.78,0-1.56,.02-2.34-.01-.37-.01-.77-.06-1.09-.21-1.72-.81-1.82-2.19-1.55-4.54,.16-1.38,1.29-2.19,2.79-2.2,1.5-.01,3.01-.02,4.52,0,1.64,.02,2.71,1.06,2.81,2.68,0,.03,0,.06,0,.09,.17,2.76-.45,4.45-4,4.19-.37-.03-.75,0-1.13,0Zm.03-1.84h0c.37,0,.75,0,1.12,0,2.16,0,2.15,0,2.11-2.17-.01-.76-.32-1.12-1.08-1.11-1.09,.02-2.19,0-3.28,0-2.18,0-2.18,.02-2.11,2.23,.02,.69,.33,1.02,.99,1.03,.75,.01,1.5,0,2.25,0Z"/><path class="b" d="M72.83,62.09c-.67,0-1.33,.02-2,0-.4-.01-.82-.03-1.2-.14-1.45-.41-2-1.65-1.87-4.12,.07-1.4,.88-2.54,2.18-2.63,1.93-.13,3.87-.04,5.8-.04,.06,0,.11,.02,.17,.03,1.57,.38,2.18,1.63,2.04,4.16-.08,1.48-.96,2.54-2.35,2.66-.92,.08-2.77,.05-2.77,.07Zm.03-5.13h-1.13c-2.17,0-2.19,.03-2.11,2.24,.02,.73,.36,1.05,1.06,1.05,1.07,0,2.14,0,3.2,0,2.25,0,2.35-.11,2.2-2.34-.04-.64-.35-.95-.98-.95-.75,0-1.5,0-2.25,0Z"/><path class="b" d="M60.1,53.66c-.81,0-1.62,.02-2.43,0-1.48-.05-2.52-1.12-2.61-2.59-.19-3.11,.47-4.6,4.16-4.37,1.1,.07,2.2,0,3.3,.02,1.52,.03,2.53,1,2.69,2.51,0,.03,0,.06,0,.09,.17,2.64-.12,4.63-3.98,4.36-.37-.03-.75,0-1.13,0h0Zm.04-1.85h0c.38,0,.75,0,1.13,0,2.14,0,2.25-.13,2.12-2.26-.04-.68-.36-1-1.03-1-1.1,0-2.2,0-3.3,0-2.21,0-2.31,.11-2.15,2.3,.05,.64,.34,.96,.97,.96,.75,0,1.5,0,2.26,0Z"/><path class="b" d="M57.48,62.21c-1.43-.12-2.36-1.16-2.42-2.58-.02-.49-.01-.98,0-1.48,.02-1.75,1.04-2.83,2.79-2.88,1.53-.04,3.07-.04,4.6,0,1.72,.05,2.68,1.07,2.79,2.8,.19,3.01-.7,4.38-3.93,4.19-.4-.02-.81,0-1.21,0,0-.01-1.74,.02-2.6-.05Zm2.69-5.09c-.38,0-.75,0-1.13,0-2.22-.04-2.19-.12-2.13,2.38,.01,.6,.35,.9,.93,.9,1.53,.01,3.06,.01,4.59,0,.58,0,.98-.34,.92-.91,0-.84,.25-2.16-.6-2.32-.18-.03-.4-.05-.6-.05-.66,0-1.33,0-1.99,0Z"/><path class="b" d="M47.31,53.83c-.81,0-1.62,.03-2.43,0-1.4-.06-2.44-1.09-2.52-2.49-.04-.66-.04-1.33,0-2,.08-1.36,1.1-2.4,2.47-2.44,1.71-.05,3.42-.05,5.12,0,1.41,.04,2.44,1.08,2.51,2.49,.04,.66,.04,1.33,0,2-.08,1.36-1.11,2.36-2.46,2.45-.06,0-.12,0-.17,0-.84,0-1.68,0-2.52,0h0Zm.19-5.11c-.43,0-.86,0-1.3,0-2.04,0-2.14,.1-2.04,2.15,0,.03,0,.06,0,.09,.01,.66,.33,1.02,1.01,1.02,1.5,0,3,0,4.5,0,.57,0,1-.27,.97-.86-.04-.79,.4-1.71-.48-2.31-.17-.11-.45-.08-.68-.09-.66-.01-1.33,0-1.99,0Z"/><path class="b" d="M47.37,62.39c-.87,0-1.74,.05-2.6-.01-1.4-.11-2.33-1.1-2.41-2.49-.03-.58-.03-1.16-.01-1.74,.05-1.53,.98-2.6,2.51-2.68,1.7-.09,3.41-.09,5.12,0,1.52,.08,2.46,1.16,2.5,2.69,.02,.52,.02,1.04,0,1.56-.05,1.58-1.01,2.59-2.6,2.68-.84,.05-1.68,0-2.52,0v-.02Zm.06-5.09h-1.21c-2.04,0-2.15,.11-2.05,2.15,0,.03,0,.06,0,.09,.02,.7,.36,1.06,1.08,1.05,1.13,0,2.25,0,3.38,0,2.04,0,2.14-.11,2.05-2.16,0-.03,0-.06,0-.09-.02-.7-.34-1.06-1.07-1.05-.72,.02-1.44,0-2.16,0Z"/><path class="b" d="M72.83,45.28c-.72,0-1.45,.02-2.17,0-1.8-.05-2.81-1.1-2.9-2.88-.16-2.96,.73-4.31,4.01-4.12,1.12,.07,2.26-.01,3.38,.02,1.75,.05,2.76,1.1,2.81,2.86,.1,3.3-.71,4.12-4.01,4.12-.38,0-.75,0-1.13,0Zm-.03-1.87h1.21c2.15,0,2.13,0,2.09-2.18-.02-.77-.35-1.11-1.1-1.11-1.07,0-2.14,0-3.2,0-2.22,0-2.33,.13-2.16,2.37,.04,.6,.32,.91,.92,.91,.75,0,1.5,0,2.25,0Z"/><path class="b" d="M60.16,38.5c.9,0,1.8-.05,2.69,.01,1.24,.09,2.18,.98,2.31,2.21,.31,2.88,.01,4.99-4.01,4.74-1.04-.06-2.08,0-3.12-.01-1.91-.03-2.88-1.08-2.99-2.96-.18-3.28,1.12-4.23,3.99-4.03,.37,.03,1.13,.03,1.13,.04Zm-.09,5.08h1.21c2.12,0,2.18-.07,2.11-2.18-.02-.75-.35-1.12-1.11-1.11-1.07,0-2.13,0-3.2,0-2.23,0-2.36,.16-2.17,2.36,.06,.64,.37,.93,1,.92,.72,0,1.44,0,2.16,0Z"/><path class="b" d="M47.45,38.66c.84,0,1.68-.04,2.52,0,1.53,.1,2.47,1.11,2.52,2.66,.02,.52,.02,1.04,0,1.56-.05,1.56-1.02,2.64-2.58,2.71-1.65,.07-3.3,.07-4.94,0-1.57-.06-2.56-1.13-2.61-2.69-.02-.58-.02-1.16,0-1.74,.07-1.4,1.01-2.4,2.4-2.5,.89-.06,1.79-.01,2.69-.01h0Zm-.06,5.09h1.3c1.97,0,2.03-.06,1.98-2.04-.02-.99-.26-1.24-1.23-1.25-1.07-.01-2.13,0-3.2,0-2.06,0-2.21,.16-2.07,2.23,0,.06,0,.12,0,.17,.07,.57,.37,.89,.96,.89,.75,0,1.5,0,2.25,0Z"/><path class="b" d="M28.05,30.57c-.01,.7-.58,1.24-1.29,1.23-.71-.01-1.25-.57-1.24-1.27,.01-.71,.57-1.24,1.28-1.23,.71,0,1.26,.57,1.25,1.27Z"/><path class="b" d="M33.97,19.78c-.7-.03-1.22-.62-1.18-1.33,.03-.7,.62-1.24,1.32-1.2,.7,.04,1.21,.62,1.18,1.34-.03,.71-.61,1.23-1.31,1.19Z"/><path class="b" d="M26.83,25.28c.7,.02,1.25,.6,1.22,1.3-.03,.7-.6,1.23-1.31,1.21-.7-.02-1.24-.59-1.22-1.29,.02-.7,.59-1.23,1.3-1.21Z"/><path class="b" d="M28.05,18.55c-.01,.7-.59,1.25-1.29,1.23-.7-.01-1.25-.59-1.23-1.29,.01-.7,.59-1.26,1.29-1.25,.68,.01,1.26,.61,1.24,1.3Z"/><path class="b" d="M30.43,31.8c-.72,0-1.26-.52-1.27-1.23,0-.72,.51-1.26,1.23-1.27,.72-.01,1.26,.51,1.27,1.23,.01,.72-.52,1.26-1.23,1.27Z"/><path class="b" d="M35.29,22.53c0,.72-.53,1.26-1.24,1.26-.71,0-1.25-.53-1.26-1.24,0-.72,.53-1.26,1.24-1.26,.72,0,1.25,.53,1.26,1.25Z"/><path class="b" d="M31.67,18.49c.02,.71-.52,1.28-1.22,1.3-.7,.02-1.27-.52-1.29-1.23-.02-.71,.51-1.28,1.21-1.3,.69-.02,1.28,.53,1.29,1.23Z"/><path class="b" d="M28.05,22.55c-.01,.71-.57,1.24-1.29,1.23-.71-.01-1.25-.57-1.24-1.27,0-.7,.57-1.25,1.28-1.24,.7,0,1.26,.59,1.25,1.28Z"/><path class="b" d="M31.67,26.57c-.02,.72-.56,1.24-1.28,1.22-.71-.02-1.24-.57-1.22-1.28,.01-.71,.56-1.24,1.28-1.23,.72,.01,1.24,.56,1.22,1.28Z"/><path class="b" d="M31.67,22.54c0,.72-.54,1.25-1.26,1.25-.71,0-1.25-.54-1.25-1.26,0-.71,.54-1.25,1.26-1.25,.71,0,1.25,.55,1.25,1.26Z"/><path class="b" d="M34.03,25.29c.72,0,1.26,.52,1.26,1.24,0,.72-.52,1.26-1.23,1.27-.71,0-1.26-.52-1.27-1.24,0-.72,.52-1.26,1.24-1.27Z"/><path class="b" d="M35.29,30.56c0,.72-.53,1.25-1.26,1.24-.72,0-1.25-.54-1.24-1.26,0-.72,.54-1.25,1.26-1.24,.72,0,1.24,.53,1.24,1.26Z"/></svg>