<?xml version="1.0" encoding="UTF-8"?><svg id="a" xmlns="http://www.w3.org/2000/svg" viewBox="0 0 80.89 80.87"><defs><style>.b{fill:#229f36;}</style></defs><path class="b" d="M75.7,67.84c.12,.03,.15,.04,.17,.04,2.35,.17,2.4,.22,2.4,2.63v2.63c.44,0,.82-.02,1.18,0,.88,.04,1.4,.5,1.42,1.36,.03,1.66,.03,3.32,0,4.98-.02,.86-.53,1.32-1.4,1.38-.22,.01-.44,0-.65,0-25.58,0-51.16,0-76.74,0-1.75,0-2.08-.33-2.08-2.1,0-1.25,0-2.5,0-3.76,0-1.45,.39-1.85,1.82-1.87,.22,0,.43,0,.79,0,0-1.03,0-2.03,0-3.02,0-1.9,.22-2.13,2.14-2.21,.13,0,.26-.03,.47-.06v-.91c0-5.55,0-11.1,.01-16.65,0-.57-.17-.94-.59-1.33-1.92-1.79-2.51-4.52-1.57-6.96,.95-2.45,3.31-4.1,5.93-4.13,3.1-.04,5.84,2.26,6.41,5.34,.06,.32,.21,.68,.43,.92,5.32,5.61,11.76,9.23,19.42,10.33,11.13,1.6,20.78-1.61,28.88-9.43,.73-.71,1.25-1.44,1.52-2.49,.76-2.92,3.41-4.77,6.41-4.64,3.13,.14,5.61,2.45,6.05,5.42,.34,2.31-.4,4.21-2.05,5.82-.22,.22-.41,.59-.41,.89-.02,5.77-.02,11.54-.02,17.31,0,.16,.02,.32,.04,.51Zm-7.84,.07v-16.65c-7.46,8.19-16.51,12.58-27.4,12.58-10.9,0-19.98-4.39-27.43-12.57v16.6c.18,.02,.29,.03,.39,.04,1.89,.06,2.15,.31,2.15,2.2,0,.99,0,1.99,0,2.95h49.75c0-1.27-.02-2.47,0-3.66,.02-.96,.51-1.44,1.46-1.48,.35-.01,.69,0,1.07,0ZM2.55,78.31H78.31v-2.61H2.55v2.61Zm11.38-29.66c14.57,17.27,39.08,16.75,53.01,0l-1.16-1.76c-7.09,6.86-15.54,10.44-25.36,10.43-9.8,0-18.26-3.59-25.33-10.43l-1.16,1.77Zm-.87-4.26c0-2.25-1.71-4-3.93-4.01-2.25,0-4.01,1.71-4.01,3.93,0,2.25,1.71,4.01,3.93,4.01,2.25,0,4.01-1.71,4.01-3.93Zm58.78-4.01c-2.25-.01-4.02,1.7-4.03,3.92-.01,2.25,1.7,4.02,3.92,4.03,2.25,.01,4.02-1.7,4.03-3.92,.01-2.26-1.7-4.02-3.92-4.03ZM10.4,67.86v-17.1h-2.6v17.1h2.6Zm62.7,.02v-17.13h-2.59v17.13h2.59Zm-60.08,2.58H5.18v2.61h7.84v-2.61Zm62.7,0h-7.84v2.6h7.84v-2.6Z"/><path class="b" d="M19.6,21.12c0-10.31,7.28-19.02,17.15-20.8,11.3-2.03,22.26,5.6,24.2,16.86,1.84,10.69-4.6,20.8-15.1,23.75-.42,.12-.87,.44-1.14,.8-1.06,1.41-2.04,2.88-3.07,4.32-.78,1.09-1.62,1.1-2.4,0-1.03-1.44-2.01-2.91-3.07-4.32-.27-.36-.71-.68-1.13-.8-7.84-2.36-12.79-7.5-14.87-15.41-.18-.68-.31-1.38-.39-2.08-.1-.86-.14-1.73-.18-2.33Zm20.85,22.38c.94-1.33,1.75-2.58,2.67-3.74,.36-.45,.92-.88,1.46-1.02,9.87-2.52,15.79-11.6,13.84-21.55-1.88-9.63-11.1-16.15-21.06-14.46-9.82,1.66-16.4,10.78-15.12,20.53,.96,7.31,6.53,13.66,13.75,15.38,.89,.21,1.5,.62,1.99,1.37,.75,1.15,1.58,2.25,2.46,3.49Z"/><path class="b" d="M32.8,29.61c.28-1.72,.57-3.65,.93-5.57,.15-.81,.08-1.41-.58-2.02-1.31-1.22-2.52-2.55-3.78-3.84-.41-.42-.78-.85-.53-1.5,.24-.61,.72-.8,1.34-.88,1.85-.25,3.7-.52,5.54-.86,.35-.06,.77-.41,.93-.74,.88-1.75,1.69-3.52,2.5-5.3,.27-.58,.62-1.07,1.31-1.05,.64,.01,.98,.48,1.24,1.03,.81,1.75,1.65,3.48,2.44,5.24,.24,.54,.58,.79,1.14,.86,1.85,.26,3.71,.5,5.54,.86,.45,.09,.99,.51,1.17,.91,.14,.32-.1,.97-.39,1.27-1.34,1.46-2.77,2.84-4.12,4.29-.25,.27-.43,.76-.38,1.12,.25,1.88,.58,3.75,.88,5.62,.03,.19,.12,.39,.07,.56-.14,.46-.23,1.01-.53,1.34-.39,.43-.94,.24-1.42-.03-1.61-.9-3.25-1.76-4.84-2.69-.59-.35-1.03-.36-1.63,0-1.64,.96-3.31,1.87-4.99,2.76-1,.53-1.87-.05-1.84-1.39Zm2.82-1.95c1.27-.7,2.4-1.23,3.43-1.91,.97-.63,1.82-.62,2.79,0,1.04,.67,2.16,1.2,3.42,1.89-.27-1.7-.45-3.2-.75-4.68-.14-.71,.06-1.2,.54-1.68,.9-.9,1.79-1.82,2.68-2.74,.16-.16,.28-.36,.5-.64-1.59-.25-3.02-.5-4.47-.7-.63-.09-1.04-.39-1.3-.96-.54-1.16-1.08-2.31-1.63-3.46-.1-.2-.23-.39-.42-.72-.7,1.48-1.34,2.79-1.94,4.11-.29,.63-.72,.99-1.43,1.03-.35,.02-.7,.1-1.04,.16-1.07,.18-2.15,.35-3.43,.56,1.01,1.04,1.81,1.98,2.73,2.76,1.05,.89,1.28,1.87,.94,3.17-.3,1.16-.4,2.39-.61,3.79Z"/></svg>