<?xml version="1.0" encoding="UTF-8"?><svg id="a" xmlns="http://www.w3.org/2000/svg" viewBox="0 0 73.67 83.61"><defs><style>.b{fill:#229f36;}</style></defs><path class="b" d="M30.32,17.11c0,2.48,0,4.95,0,7.43,0,1.15-.42,1.57-1.57,1.57-4.95,0-9.91,0-14.86,0-1.15,0-1.57-.42-1.57-1.57,0-4.98,0-9.96,0-14.94,0-1.15,.41-1.57,1.57-1.57,4.95,0,9.91,0,14.86,0,1.15,0,1.57,.42,1.57,1.57,0,2.5,0,5.01,0,7.51Zm-15.62-6.65v13.19h13.23V10.45H14.71Z"/><path class="b" d="M33.17,49.63c-6.34,0-12.68,0-19.01,0-.27,0-.55,.03-.81-.02-.63-.13-1.02-.51-1.03-1.18,0-.67,.39-1.05,1.01-1.19,.23-.05,.49-.02,.73-.02,12.73,0,25.46,0,38.19,0,.24,0,.5-.03,.73,.02,.63,.13,1.02,.51,1.03,1.18,0,.67-.39,1.05-1.01,1.19-.26,.06-.54,.02-.81,.02-6.34,0-12.68,0-19.01,0Z"/><path class="b" d="M42.2,39.86c3.34,0,6.69,0,10.03,0,.22,0,.44-.02,.65,.01,.68,.1,1.09,.47,1.13,1.17,.03,.65-.46,1.16-1.16,1.23-.16,.02-.33,0-.49,0-6.83,0-13.65,0-20.48,0-.16,0-.33,.01-.49,0-.67-.1-1.09-.47-1.13-1.17-.03-.65,.45-1.16,1.16-1.23,.22-.02,.43,0,.65,0,3.37,0,6.74,0,10.12,0Z"/><path class="b" d="M33.17,35.09c-2.94,0-5.87,0-8.81,0-1.03,0-1.63-.67-1.39-1.52,.21-.72,.77-.9,1.46-.9,4.51,0,9.03,0,13.54,0,1.33,0,2.66,0,4,0,.9,0,1.43,.47,1.44,1.2,0,.74-.53,1.21-1.43,1.21-2.94,0-5.87,0-8.81,0Z"/><path class="b" d="M43.94,10.14c2.91,0,5.82,0,8.73,0,.83,0,1.35,.5,1.35,1.21,0,.71-.52,1.17-1.35,1.2-.05,0-.11,0-.16,0-5.76,0-11.53,0-17.29,0-.96,0-1.51-.45-1.51-1.21,0-.75,.55-1.2,1.52-1.2,2.91,0,5.82,0,8.73,0Z"/><path class="b" d="M43.86,18.28c-2.91,0-5.82,0-8.73,0-1.03,0-1.63-.67-1.39-1.52,.21-.72,.77-.9,1.46-.9,4.62,0,9.24,0,13.87,0,1.17,0,2.34,0,3.51,0,.9,0,1.43,.47,1.44,1.2,0,.74-.53,1.21-1.43,1.21-2.91,0-5.82,0-8.73,0Z"/><path class="b" d="M43.81,23.99c-2.8,0-5.6,0-8.4,0-.24,0-.5,.03-.73-.03-.62-.16-.99-.55-.97-1.23,.02-.63,.4-.99,.99-1.13,.23-.06,.49-.03,.73-.03,5.63,0,11.26,0,16.88,0,.16,0,.33,0,.49,0,.72,.05,1.2,.52,1.22,1.17,.02,.68-.48,1.21-1.23,1.23-.9,.03-1.79,0-2.69,0-2.09,0-4.19,0-6.28,0Z"/><path class="b" d="M19.58,42.28c-1.96,0-3.92,0-5.88,0-.94,0-1.52-.49-1.5-1.23,.02-.71,.58-1.18,1.47-1.18,3.92,0,7.83,0,11.75,0,.95,0,1.5,.47,1.49,1.23-.01,.75-.56,1.18-1.54,1.18-1.93,0-3.86,0-5.79,0Z"/><path class="b" d="M73.66,15.8c0-.19,0-.38,0-.57-.06-.9-.49-1.33-1.4-1.34-1.06-.02-2.12,0-3.18,0-.78,0-1.55,0-2.3,0-.03-.18-.05-.23-.05-.29,0-1.41,0-2.83,0-4.24,0-2.31-.09-2.4-2.38-2.4-1.49,0-2.98,0-4.56,0,0-1.73,0-3.36,0-4.98,0-1.67-.29-1.96-1.92-1.96-16.46,0-32.92,0-49.38,0-.24,0-.49-.01-.73,0-.69,.07-1.1,.45-1.17,1.14-.04,.35-.02,.71-.02,1.06,0,17.6,0,35.21,0,52.81v1.16c-1.79,0-3.44,0-5.1,0-.96,0-1.4,.43-1.43,1.39-.02,.95-.04,1.91,0,2.86,.25,5.51,4.22,9.3,9.73,9.3,1.22,0,2.43,0,3.73,0v4.38c0,2.5,.06,2.57,2.56,2.57,1.43,0,2.86,0,4.38,0,0,1.77,.02,3.42-.01,5.07-.02,.75,.12,1.39,.75,1.86h51.76c.65-.49,.75-1.17,.75-1.94-.01-21.96-.01-43.91-.01-65.87ZM8.98,2.48H57.34V67.29c-1.66,0-3.28,0-4.9,0-1.03,0-2.09,.08-3.09-.1-3.35-.57-5.7-3.37-5.79-6.8-.03-.95,0-1.9-.01-2.86-.02-.85-.45-1.33-1.3-1.34-2.49-.02-26.6-.01-32.26-.01h-1V2.48Zm.3,64.85c-3.42,0-6.36-2.57-6.79-5.96-.11-.88-.02-1.78-.02-2.77,.31-.01,.65-.04,.99-.04,7.83,0,37.33,0,37.55,0,.02,2.15,.26,3.24,.75,4.7,.48,1.42,1.45,2.68,2.22,4.04-.1,0-.35,.04-.6,.04-11.37,0-22.75,0-34.12,0Zm6.69,6.9v-4.52h1.03c13.61,0,27.21,0,40.82,0,1.6,0,1.91-.31,1.91-1.89,0-19.1,0-38.21,0-57.31v-1.11h4.57v1.01c0,12.03,0,63.46,0,63.83H15.96Zm55.24,6.94h-.94c-5.5,0-39.08,0-46.37,0-.32,0-.65,0-1.03,0v-4.56h1.02c13.63,0,27.27,0,40.9,0,1.59,0,1.91-.31,1.91-1.9,0-5.87,0-47.64,0-57.35v-1.01h4.51V81.17Z"/></svg>