<?xml version="1.0" encoding="UTF-8"?><svg id="a" xmlns="http://www.w3.org/2000/svg" viewBox="0 0 83.56 83.55"><defs><style>.b{fill:#229f36;}</style></defs><path class="b" d="M58.62,0h9.63c.2,.06,.4,.16,.61,.19,7.83,.93,12.66,9.01,9.74,16.35-.23,.57-.21,.94,.15,1.46,1.56,2.23,.45,5.29-2.17,6.01-.54,.15-1.13,.14-1.7,.14-.57,0-.84,.14-.83,.78,0,.56-.11,1.14-.23,1.69-.63,2.71-2.15,4.78-4.55,6.19-.38,.22-.75,.48-.55,.94,.11,.25,.47,.45,.76,.55,.92,.32,1.9,.5,2.79,.88,6.56,2.75,10.42,7.63,11.09,14.74,.31,3.24,.14,6.52,.15,9.78,0,.56-.11,1.14-.22,1.69-1.01,5.18-5.68,8.69-10.69,8.64-8.19-.08-16.38-.02-24.57-.02h-.92c0,1.41,.01,2.7,0,4-.01,1.26-.37,2.52-1.47,3.11-1.3,.7-1.4,1.68-1.28,2.88,.03,.3,0,.6,0,.9-.03,1.33-.76,2.31-2.08,2.52-.93,.15-1.89,.11-2.84,.11-1.9,0-2.98-1.1-2.99-2.99,0-.78,0-1.55,0-2.39-.45,0-.77,0-1.1,0-6.29,0-12.57,.02-18.86,0-3.86-.01-6.71-1.71-8.43-5.22-.69-1.41-1.43-2.81-2.1-4.23-.23-.49-.48-.54-.95-.34-1.18,.51-1.51,.44-2.41-.49-1.14-1.17-1.73-2.62-2.06-4.18C.32,62.61,.18,61.51,0,60.41c0-.65,0-1.31,0-1.96,.06-.26,.16-.52,.18-.78,.19-2.29,.95-4.38,2.13-6.35,.29-.48,.47-1.1,.47-1.66,.03-8.76,.01-17.52,.03-26.28,0-1.08,.03-2.18,.21-3.25C4.99,8.64,18.45,3,28,9.69c4.78,3.35,7.01,8.05,6.97,13.89-.05,8.3-.01,16.6,0,24.89,0,.35-.06,.79,.12,1.03,.8,1.09,1.67,2.11,2.56,3.22,1.63-1.29,3.5-1.57,5.55-1.32,.04-.35,.09-.64,.1-.93,.12-2.91,.98-5.61,2.51-8.08,2.59-4.18,6.31-6.81,11.08-7.98,.41-.1,.96-.36,1.11-.69,.29-.65-.42-.82-.83-1.09-2.55-1.69-4.07-4.02-4.4-7.09-.15-1.35-.14-1.36-1.51-1.39-1.62-.03-2.82-.76-3.54-2.19-.73-1.44-.56-2.85,.4-4.13,.29-.39,.29-.69,.12-1.11-.76-1.89-1.09-3.83-.87-5.89,.53-4.9,4.03-9.06,8.81-10.32C56.97,.31,57.8,.17,58.62,0Zm-3.1,37.56c-.22,.05-.35,.07-.48,.12-.3,.12-.61,.24-.89,.39-5.53,2.93-8.29,7.56-8.37,13.79,0,.37,.25,.82,.52,1.09,1.8,1.75,2.55,3.84,1.96,6.29-.23,.95-.75,1.84-1.16,2.78,.09,.02,.22,.05,.35,.07,1.59,.34,2.31,1.22,2.33,2.85,0,.65-.03,1.31,.03,1.96,.02,.2,.25,.53,.4,.54,.78,.06,1.56,.03,2.43,.03,0-.47-.01-.84,0-1.21,.04-1.27,.34-2.46,.96-3.58,.25-.45,.42-1.01,.43-1.52,.03-4.38,.02-8.76,.02-13.14q0-2.29,2.31-2.05s.05,.02,.23,.09v13.68c1.3-.11,2.45-.24,3.61-.29,.52-.02,.82-.16,1.09-.64,.77-1.41,2-2.1,3.61-2.1,1.5,0,2.99-.03,4.49,.01,.7,.02,.88-.24,.87-.9-.03-2.53-.01-5.06,0-7.59,0-.31,.04-.63,.05-.92h2.48v.96c0,2.42,.09,4.85-.03,7.26-.07,1.4,.25,2.48,1.38,3.31,.32,.23,.55,.57,.85,.89l-1.88,1.85c-.55-.62-1.05-1.27-1.65-1.81-.31-.28-.78-.5-1.19-.52-1.71-.06-3.43-.03-5.14-.02-1.27,0-1.79,.53-1.8,1.77,0,1.88,0,3.76,0,5.63,0,.26,.03,.52,.05,.78,.19,.03,.29,.06,.4,.06,3.24,0,6.48,.07,9.71-.03,3.62-.11,7.1-3.28,7.37-6.88,.24-3.11,.23-6.25,.15-9.37-.12-4.53-1.96-8.3-5.45-11.23-1.25-1.05-2.63-1.89-4.29-2.43-1.15,3.8-2.27,7.53-3.44,11.41-1.51-2.51-2.92-4.85-4.43-7.35l-4.44,7.34c-1.19-3.94-2.3-7.64-3.42-11.37ZM21.43,21.28c.2,.51,.35,1,.56,1.47,.9,1.91,3.5,2.18,4.69,.46,.19-.27,.29-.72,.22-1.04-.25-1.11-1.27-1.9-2.41-1.98q-1.46-.09-1.45-1.6c0-.14-.05-.31,.02-.4,.14-.2,.33-.5,.53-.52,3.18-.38,5.9,1.92,5.96,5.12,.06,3.43,.07,6.86-.01,10.29-.08,3.21-1.57,5.76-4.24,7.49-.93,.6-1.21,1.23-1.13,2.23,.04,.53,.22,.74,.73,.89,2.44,.7,4.74,1.73,6.86,3.15,.17,.11,.36,.2,.65,.35,.03-.44,.07-.79,.07-1.13,0-7.46,.01-14.91,0-22.37,0-1.03-.07-2.07-.23-3.08-1.14-7.08-7.97-12.12-15.08-11.15-6.78,.92-11.79,6.63-11.8,13.47-.01,7.95,0,15.89,0,23.84,0,.28,.03,.57,.04,.94,.2-.1,.3-.14,.37-.2,2.2-1.74,4.66-2.99,7.32-3.85,.15-.05,.33-.11,.42-.23,.39-.5,0-2.18-.54-2.52-3.07-1.92-4.71-4.66-4.75-8.31-.02-2.34,0-4.68,0-7.02,0-.37,0-.74,0-1.15,.86-.05,1.63-.03,2.37-.14,.76-.11,1.5-.35,2.27-.54l-.48-1.69,2.35-.76c.19,.54,.33,.98,.51,1.4,.67,1.51,2.44,2.13,3.81,1.32,.21-.13,.44-.51,.41-.73-.21-1.27-.23-1.27,.96-1.66,.33-.11,.67-.21,1.04-.32ZM13.3,56.22c.14,.3,.27,.53,.38,.78,1.47,3.3,2.94,6.59,4.39,9.9,.21,.48,.48,.73,1.02,.74,1.14,.03,2.28,.1,3.42,.18,2.79,.19,5.58,.4,8.37,.59,1.01,.07,2.02,.1,2.95,.15,0-1.46-.04-2.79,.01-4.11,.05-1.09,.7-1.79,1.7-2.17,.32-.12,.66-.18,1.04-.27-.08-.17-.12-.3-.2-.41-1.35-1.99-1.61-4.09-.73-6.35,.1-.26-.03-.68-.19-.95-1.38-2.34-3.3-4.15-5.56-5.64-.6-.39-.9-.35-1.35,.26-4.85,6.56-14.37,6.6-19.34,.1-.14-.19-.3-.36-.46-.55-.22,.13-.39,.22-.54,.33-3.47,2.43-5.42,5.73-5.6,9.99-.09,2.15,.12,4.28,1.06,6.28,.32,.68,.65,.9,1.43,.53,2.35-1.12,4.75-2.13,7.14-3.19,.27-.12,.53-.26,.85-.42l-2.07-4.75,2.28-1Zm13.54-9.2c-1.1-.37-2.05-.72-3.03-1-1.26-.36-2.01-1.14-2.14-2.46-.2-2.12-.07-3.94,2.23-5.15,2.08-1.1,3.06-3.18,3.11-5.58,.04-1.98,.01-3.97,.01-5.96,0-.15-.05-.3-.08-.45-.13,0-.22-.02-.28,0-1.82,.75-3.54,.59-5.2-.47-.19-.12-.61-.03-.84,.1-1.91,1.11-3.8,1.12-5.72,.02-.27-.15-.7-.14-1.02-.06-.84,.2-1.65,.54-2.49,.71-.52,.1-.67,.31-.66,.8,.02,1.69,0,3.37,.01,5.06,.03,2.7,1.2,4.79,3.53,6.12,1.35,.77,1.98,1.78,1.86,3.31-.03,.35,0,.71,0,1.06,0,1.64-.63,2.46-2.21,3-.94,.32-1.86,.69-2.92,1.08,2.09,2.81,4.72,4.22,8.04,4.16,3.25-.05,5.8-1.52,7.82-4.29ZM66.41,11.74c.48,.7,.87,1.32,1.31,1.9,1.25,1.67,2.91,2.57,5.02,2.59,.87,0,1.74-.04,2.61,.02,.51,.04,.74-.14,.9-.59,.63-1.69,.83-3.4,.55-5.2-.61-3.86-4.14-7.44-8.02-7.7-3.28-.22-6.58-.3-9.86-.12-6.37,.36-10.51,6.34-8.68,12.27,.43,1.4,.45,1.43,1.91,1.29,.22-.02,.56-.3,.61-.52,.4-1.66,1.3-2.92,2.83-3.69,.44-.22,.48-.46,.36-.91-.22-.86-.36-1.74-.54-2.67l2.46-.47c.14,.67,.27,1.25,.37,1.83,.33,1.94,1.22,3.52,2.91,4.61,.46,.3,.83,.33,1.32-.01,1.26-.9,2.56-1.73,3.93-2.64Zm-.69,3.52c-1.04,.69-2.02,1.38-3.04,1.99-.27,.17-.72,.23-1.02,.14-1.61-.53-2.98-1.44-4.02-2.81-.37-.49-.71-.49-1.16-.18-.95,.64-1.3,1.57-1.3,2.66,0,2.42-.04,4.84,0,7.26,.06,2.82,1.26,5.03,3.77,6.42,1.11,.62,1.68,1.48,1.62,2.77-.02,.37-.05,.86,.16,1.09,.83,.92,1.75,1.77,2.72,2.72,.79-.82,1.55-1.55,2.24-2.35,.25-.3,.47-.76,.45-1.13-.09-1.51,.52-2.5,1.85-3.23,1.91-1.05,3.15-2.73,3.39-4.91,.2-1.77,.14-3.58,.17-5.37,.02-1.5-.03-1.42-1.39-1.97-1.07-.43-2.08-1.05-3.04-1.69-.53-.35-.92-.91-1.41-1.42ZM13.92,70.34c.53-.46,1.06-.92,1.61-1.36,.41-.33,.43-.67,.21-1.14-.46-.95-.89-1.92-1.29-2.9-.2-.49-.42-.59-.92-.36-1.63,.75-3.26,1.48-4.92,2.17-.57,.24-.55,.52-.31,.99,.66,1.25,1.32,2.5,1.9,3.79,1.29,2.86,3.51,4.11,6.6,4.1,8.49-.03,16.97-.01,25.46-.01,.24,0,.49,.01,.73,0,1-.08,1.55-.61,1.59-1.61,.03-.81,.04-1.63,0-2.45-.04-.95-.61-1.5-1.56-1.54-.9-.03-1.8-.04-2.69,0-.33,.02-.81,.11-.96,.34-.8,1.22-1.98,1-3.13,.93-.43-.02-.86-.1-1.3-.13-5.45-.35-10.9-.7-16.35-1.02-.33-.02-.75,.14-.98,.36-.6,.58-1.12,1.25-1.61,1.81l-2.07-1.99Zm27.86-8.33c1.63,.54,2.56-.28,3.2-1.65,.09-.19,.24-.36,.35-.55,.8-1.39,.84-2.8-.04-4.15-.95-1.48-2.4-1.99-4.09-1.79-1.58,.19-2.71,1.06-3.29,2.56-.56,1.46-.06,2.71,.71,3.99,.75,1.26,1.57,2.13,3.16,1.59Zm5.46,5.43c0-.83,.03-1.61-.02-2.38-.01-.15-.34-.41-.52-.41-3.26-.03-6.52-.02-9.78,0-.18,0-.52,.2-.52,.32-.05,.82-.02,1.65-.02,2.47h10.87Zm10.74,.05c.73,0,1.47-.01,2.2,0,.4,0,.6-.12,.6-.55-.01-1.47,.01-2.93-.03-4.4,0-.19-.29-.52-.48-.55-3.1-.42-5.31,1.72-5.11,4.87,.03,.51,.23,.65,.7,.63,.7-.03,1.41,0,2.12,0Zm10.8-30.6l-.14-.31c-.4,.08-.9,.04-1.17,.27-.77,.64-1.45,1.39-2.14,2.12-.13,.13-.26,.43-.19,.55,.56,1.01,1.17,1.99,1.76,2.98l.22-.05,1.68-5.56Zm-10.82-.01l1.68,5.57,.23,.04c.59-.99,1.19-1.97,1.74-2.98,.07-.12-.1-.45-.25-.6-.61-.65-1.29-1.25-1.88-1.92-.45-.5-.89-.55-1.52-.11Zm-16.11,41.29c-.85,0-1.58-.04-2.31,.02-.19,.02-.5,.3-.53,.49-.29,2.22-.08,2.44,2.15,2.33,.05,0,.13,.02,.16,0,.18-.17,.48-.35,.5-.54,.06-.72,.02-1.45,.02-2.3ZM74.09,21.63c.48,0,.83-.01,1.17,0,.75,.03,1.33-.23,1.6-.97,.22-.61,.06-1.26-.47-1.49-.63-.27-1.39-.25-2.09-.32-.05,0-.19,.25-.19,.39-.02,.75,0,1.5,0,2.39Zm-21.45-.02c0-.85,.02-1.61-.02-2.36,0-.16-.22-.44-.34-.44-.56,0-1.16,0-1.68,.18-.61,.22-.89,.8-.76,1.46,.12,.64,.51,1.09,1.2,1.15,.48,.04,.97,0,1.59,0Z"/><path class="b" d="M13.8,34.32l2.15-1.08c.68,1.12,1.58,1.91,2.93,1.89,1.31-.02,2.25-.7,2.88-1.91l2.19,1.09c-.81,2.05-2.85,3.36-5.12,3.35-2.2,0-4.25-1.35-5.03-3.35Z"/><path class="b" d="M58.33,26.23l2.05-1.04c2.36,2.51,3.9,2.51,5.95,0,.52,.26,1.05,.51,1.58,.78,.16,.08,.31,.2,.46,.29-.44,1.75-2.55,3.21-4.71,3.29-2.45,.09-4.65-1.25-5.34-3.31Z"/></svg>