<?xml version="1.0" encoding="utf-8"?>
<!-- Generator: Adobe Illustrator 25.0.0, SVG Export Plug-In . SVG Version: 6.00 Build 0)  -->
<svg version="1.1" id="Layer_1" xmlns="http://www.w3.org/2000/svg" xmlns:xlink="http://www.w3.org/1999/xlink" x="0px" y="0px"
	 viewBox="0 0 553.6 641" style="enable-background:new 0 0 553.6 641;" xml:space="preserve">
<style type="text/css">
	.st0{opacity:0.48;fill:url(#SVGID_1_);enable-background:new    ;}
	.st1{opacity:0.48;fill:url(#SVGID_2_);enable-background:new    ;}
	.st2{opacity:0.48;fill:url(#SVGID_3_);enable-background:new    ;}
	.st3{opacity:0.48;fill:url(#SVGID_4_);enable-background:new    ;}
	.st4{opacity:0.48;fill:url(#SVGID_5_);enable-background:new    ;}
	.st5{opacity:0.48;fill:url(#SVGID_6_);enable-background:new    ;}
	.st6{fill:#60B748;}
	.st7{fill:#92C742;}
	.st8{fill:#5E7E94;}
	.st9{fill:#102E3A;}
	.st10{fill:#6F6359;}
	.st11{fill:#00AFC9;}
	.st12{enable-background:new    ;}
	.st13{fill:#282828;}
	.st14{fill:#FFFFFF;}
	.st15{fill:none;}
	.st16{fill:#6B6B6B;}
	.st17{fill:none;stroke:#AFAFAF;stroke-miterlimit:10;stroke-dasharray:6,4;}
	.st18{fill:url(#SVGID_7_);}
	.st19{fill:url(#SVGID_8_);}
	.st20{fill:url(#SVGID_9_);}
	.st21{fill:#47954C;}
	.st22{fill:#80B747;}
	.st23{opacity:0.48;fill:url(#SVGID_10_);enable-background:new    ;}
	.st24{opacity:0.48;fill:url(#SVGID_11_);enable-background:new    ;}
	.st25{opacity:0.48;fill:url(#SVGID_12_);enable-background:new    ;}
	.st26{opacity:0.48;fill:url(#SVGID_13_);enable-background:new    ;}
	.st27{opacity:0.48;fill:url(#SVGID_14_);enable-background:new    ;}
	.st28{opacity:0.48;fill:url(#SVGID_15_);enable-background:new    ;}
	.st29{fill:#DDDDDD;}
	.st30{fill:none;stroke:#E5E5E5;stroke-miterlimit:10;}
	.st31{fill:url(#SVGID_16_);}
	.st32{fill:#47AD4C;}
	.st33{fill:url(#SVGID_17_);}
	.st34{fill:none;stroke:#EDEDED;stroke-width:0.25;stroke-miterlimit:10;}
	.st35{opacity:0.38;}
	.st36{clip-path:url(#SVGID_19_);fill:url(#SVGID_20_);}
	.st37{opacity:0.95;}
	.st38{clip-path:url(#SVGID_22_);fill:url(#SVGID_23_);}
	.st39{clip-path:url(#SVGID_25_);fill:url(#SVGID_26_);}
	.st40{font-family:'Roboto-Regular';}
	.st41{font-size:9.5146px;}
	.st42{fill:none;stroke:#BFBFBF;stroke-width:0.5;stroke-miterlimit:10;}
	.st43{fill:none;stroke:#5E7E94;stroke-width:1.5;stroke-miterlimit:10;stroke-dasharray:6,4;}
	.st44{fill:none;stroke:#97CF47;stroke-width:1.5;stroke-miterlimit:10;stroke-dasharray:6,4;}
	.st45{fill:#9B9B9B;}
	.st46{fill:none;stroke:#EFEFEF;stroke-width:3;stroke-miterlimit:10;}
	.st47{clip-path:url(#SVGID_28_);fill:url(#SVGID_29_);}
	.st48{fill:url(#SVGID_30_);}
	.st49{fill:none;stroke:#92C742;stroke-width:3;stroke-miterlimit:10;}
	.st50{fill:none;stroke:#102E3A;stroke-width:3;stroke-miterlimit:10;}
	.st51{fill:#FFE90D;}
	.st52{fill:#566570;}
	.st53{fill:#97CF47;}
	.st54{clip-path:url(#SVGID_32_);fill:url(#SVGID_33_);}
	.st55{fill:#777777;}
	.st56{fill:none;stroke:#BFBFBF;stroke-miterlimit:10;}
	.st57{fill:none;stroke:#566570;stroke-width:3;stroke-miterlimit:10;}
	.st58{fill:none;stroke:#FFE90D;stroke-width:3;stroke-miterlimit:10;}
	.st59{fill:none;stroke:#97CF47;stroke-width:3;stroke-miterlimit:10;}
	.st60{fill:none;stroke:#6F6359;stroke-width:3;stroke-miterlimit:10;}
	.st61{fill:none;stroke:#00AFC9;stroke-width:3;stroke-miterlimit:10;}
	.st62{fill:none;stroke:#242E35;stroke-width:3;stroke-miterlimit:10;}
	.st63{fill:none;stroke:#5E7E94;stroke-width:3;stroke-miterlimit:10;}
	.st64{fill:#242E35;}
	.st65{fill:none;stroke:#C1C1C1;stroke-miterlimit:10;stroke-dasharray:6,4;}
	.st66{fill:none;stroke:#C1C1C1;stroke-width:2;stroke-miterlimit:10;stroke-dasharray:6,4;}
	.st67{clip-path:url(#SVGID_35_);fill:url(#SVGID_36_);}
	.st68{fill:#494949;}
	.st69{fill:none;stroke:#EDECE8;stroke-miterlimit:10;}
	.st70{clip-path:url(#SVGID_38_);fill:url(#SVGID_39_);}
	.st71{clip-path:url(#SVGID_41_);fill:url(#SVGID_42_);}
	.st72{fill:#FEFFFE;}
	.st73{clip-path:url(#SVGID_44_);fill:url(#SVGID_45_);}
	.st74{fill:url(#SVGID_46_);}
	.st75{fill:url(#SVGID_47_);}
	.st76{clip-path:url(#SVGID_49_);fill:url(#SVGID_50_);}
	.st77{fill:none;stroke:#E2E2E2;stroke-width:0.5;stroke-miterlimit:10;}
	.st78{clip-path:url(#SVGID_52_);fill:url(#SVGID_53_);}
	.st79{fill:none;stroke:#FFFFFF;stroke-width:2;stroke-miterlimit:10;stroke-dasharray:6,4;}
	.st80{fill:#020607;}
	.st81{clip-path:url(#SVGID_55_);fill:url(#SVGID_56_);}
	.st82{fill:none;stroke:#000000;stroke-width:1.5;stroke-miterlimit:10;}
	.st83{fill:url(#SVGID_57_);}
	.st84{fill:#4F9937;}
	.st85{fill:url(#SVGID_58_);}
	.st86{fill:#8AB73B;}
	.st87{fill:url(#SVGID_59_);}
	.st88{fill:#496A7C;}
	.st89{fill:url(#SVGID_60_);}
	.st90{fill:#0B2128;}
	.st91{fill:#919191;}
	.st92{fill:url(#SVGID_61_);}
	.st93{fill:#AFAF2C;}
	.st94{fill:#C1C530;}
	.st95{fill:url(#SVGID_62_);}
	.st96{fill:#564C45;}
	.st97{fill:url(#SVGID_63_);}
	.st98{fill:#04A3AF;}
	.st99{fill:#7F7F7F;}
	.st100{opacity:0.4;}
	.st101{clip-path:url(#SVGID_65_);fill:url(#SVGID_66_);}
	.st102{clip-path:url(#SVGID_68_);fill:url(#SVGID_69_);}
	.st103{fill:#1B701B;}
	.st104{fill:#2F9131;}
	.st105{clip-path:url(#SVGID_71_);fill:url(#SVGID_72_);}
	.st106{clip-path:url(#SVGID_74_);fill:url(#SVGID_75_);}
	.st107{clip-path:url(#SVGID_77_);fill:url(#SVGID_78_);}
	.st108{clip-path:url(#SVGID_80_);fill:url(#SVGID_81_);}
	.st109{clip-path:url(#SVGID_83_);fill:url(#SVGID_84_);}
	.st110{clip-path:url(#SVGID_86_);fill:url(#SVGID_87_);}
	.st111{clip-path:url(#SVGID_89_);fill:url(#SVGID_90_);}
	.st112{clip-path:url(#SVGID_92_);fill:url(#SVGID_93_);}
	.st113{clip-path:url(#SVGID_95_);fill:url(#SVGID_96_);}
	.st114{clip-path:url(#SVGID_98_);fill:url(#SVGID_99_);}
	.st115{clip-path:url(#SVGID_101_);fill:url(#SVGID_102_);}
	.st116{clip-path:url(#SVGID_104_);fill:url(#SVGID_105_);}
	.st117{clip-path:url(#SVGID_107_);fill:url(#SVGID_108_);}
	.st118{clip-path:url(#SVGID_110_);fill:url(#SVGID_111_);}
	.st119{fill:url(#SVGID_112_);}
	.st120{fill:url(#SVGID_113_);}
	.st121{fill:#6DC152;}
	.st122{fill:#529E39;}
	.st123{fill:url(#SVGID_114_);}
	.st124{fill:url(#SVGID_115_);}
	.st125{fill:url(#SVGID_116_);}
	.st126{fill:url(#SVGID_117_);}
	.st127{fill:none;stroke:#B5B5B5;stroke-linecap:round;stroke-linejoin:round;stroke-miterlimit:10;stroke-dasharray:5,10;}
	.st128{fill:url(#SVGID_118_);}
	.st129{fill:url(#SVGID_119_);}
	.st130{fill:#18424C;}
	.st131{fill:#040E11;}
	.st132{fill:url(#SVGID_120_);}
	.st133{fill:url(#SVGID_121_);}
	.st134{fill:url(#SVGID_122_);}
	.st135{fill:url(#SVGID_123_);}
	.st136{fill:url(#SVGID_124_);}
	.st137{fill:url(#SVGID_125_);}
</style>
<path class="st6" d="M461.3,47.8H74V10.2h387.2c9.3,0,16.9,8.4,16.9,18.9l0,0C478.1,39.5,470.6,47.8,461.3,47.8z"/>
<g class="st35">
	<g>
		<g>
			<g>
				<g>
					<g>
						<g>
							<defs>
								<rect id="SVGID_18_" x="36.6" y="300.5" width="480.8" height="8.9"/>
							</defs>
							<clipPath id="SVGID_1_">
								<use xlink:href="#SVGID_18_"  style="overflow:visible;"/>
							</clipPath>
							
								<radialGradient id="SVGID_2_" cx="-713.6299" cy="5696.6191" r="78.7233" gradientTransform="matrix(3.055 0 0 0.1067 2457.8647 -306.7445)" gradientUnits="userSpaceOnUse">
								<stop  offset="0" style="stop-color:#4D4D4D;stop-opacity:0.5"/>
								<stop  offset="1" style="stop-color:#6D6E71;stop-opacity:0"/>
							</radialGradient>
							<ellipse style="clip-path:url(#SVGID_1_);fill:url(#SVGID_2_);" cx="277.7" cy="301" rx="240.5" ry="8.4"/>
						</g>
					</g>
				</g>
			</g>
		</g>
	</g>
</g>
<g class="st37">
	<g>
		<g>
			<g>
				<g>
					<g>
						<g>
							<defs>
								<rect id="SVGID_21_" x="74" y="3.2" width="6.3" height="51.3"/>
							</defs>
							<clipPath id="SVGID_3_">
								<use xlink:href="#SVGID_21_"  style="overflow:visible;"/>
							</clipPath>
							
								<radialGradient id="SVGID_4_" cx="-3570.3496" cy="22962.0195" r="78.7208" gradientTransform="matrix(0 -0.3258 7.586514e-02 0 -1667.5328 -1134.4199)" gradientUnits="userSpaceOnUse">
								<stop  offset="0" style="stop-color:#4D4D4D;stop-opacity:0.5"/>
								<stop  offset="1" style="stop-color:#6D6E71;stop-opacity:0"/>
							</radialGradient>
							<ellipse style="clip-path:url(#SVGID_3_);fill:url(#SVGID_4_);" cx="74.5" cy="28.8" rx="6" ry="25.6"/>
						</g>
					</g>
				</g>
			</g>
		</g>
	</g>
</g>
<g class="st35">
	<g>
		<g>
			<g>
				<g>
					<g>
						<g>
							<defs>
								<rect id="SVGID_24_" x="36.7" y="555.4" width="480.8" height="8.9"/>
							</defs>
							<clipPath id="SVGID_5_">
								<use xlink:href="#SVGID_24_"  style="overflow:visible;"/>
							</clipPath>
							
								<radialGradient id="SVGID_6_" cx="-713.6299" cy="8084.8599" r="78.7275" gradientTransform="matrix(3.055 0 0 0.1067 2457.8647 -306.7445)" gradientUnits="userSpaceOnUse">
								<stop  offset="0" style="stop-color:#4D4D4D;stop-opacity:0.5"/>
								<stop  offset="1" style="stop-color:#6D6E71;stop-opacity:0"/>
							</radialGradient>
							<ellipse style="clip-path:url(#SVGID_5_);fill:url(#SVGID_6_);" cx="277.7" cy="556" rx="240.5" ry="8.4"/>
						</g>
					</g>
				</g>
			</g>
		</g>
	</g>
</g>
<g>
	<g class="st12">
		<path class="st14" d="M105.4,33c-1.6,0-2.9-0.5-3.9-1.6s-1.4-2.5-1.4-4.3s0.5-3.3,1.4-4.3c1-1.1,2.3-1.6,3.9-1.6
			c1.2,0,2.3,0.3,3.2,1s1.4,1.6,1.5,2.7h-1.6c-0.1-0.7-0.4-1.3-0.9-1.7c-0.6-0.4-1.3-0.6-2.1-0.6c-1.2,0-2.1,0.4-2.8,1.2
			c-0.7,0.8-1,1.9-1,3.4s0.3,2.6,1,3.4s1.6,1.2,2.7,1.2c0.9,0,1.6-0.2,2.2-0.7c0.6-0.4,0.9-1.1,0.9-1.9h1.6
			c-0.1,1.2-0.6,2.2-1.4,2.8C107.7,32.7,106.7,33,105.4,33z"/>
		<path class="st14" d="M115.3,24.3c1.2,0,2.1,0.4,2.8,1.1c0.7,0.8,1.1,1.8,1.1,3.2c0,1.4-0.4,2.4-1.1,3.2c-0.7,0.8-1.6,1.1-2.8,1.1
			s-2.1-0.4-2.8-1.1c-0.7-0.8-1.1-1.8-1.1-3.2c0-1.4,0.4-2.4,1.1-3.2C113.2,24.7,114.1,24.3,115.3,24.3z M115.3,31.8
			c0.7,0,1.3-0.3,1.7-0.8s0.7-1.3,0.7-2.4s-0.2-1.9-0.7-2.4s-1-0.8-1.7-0.8s-1.3,0.3-1.7,0.8s-0.7,1.3-0.7,2.4s0.2,1.8,0.7,2.4
			S114.6,31.8,115.3,31.8z"/>
		<path class="st14" d="M123.8,33c-2.3,0-3.5-0.9-3.6-2.7h1.5c0,1,0.7,1.5,2.1,1.5c0.6,0,1.1-0.1,1.4-0.4s0.5-0.6,0.5-0.9
			c0-0.4-0.2-0.6-0.5-0.8s-1-0.4-1.9-0.6s-1.7-0.5-2.1-0.8c-0.5-0.3-0.7-0.8-0.7-1.6c0-0.7,0.3-1.3,0.8-1.7c0.6-0.5,1.3-0.7,2.2-0.7
			c2.2,0,3.3,0.8,3.3,2.3h-1.5c-0.1-0.8-0.6-1.2-1.8-1.2c-0.5,0-0.9,0.1-1.2,0.3c-0.3,0.2-0.5,0.5-0.5,0.8s0.1,0.6,0.4,0.7
			s0.9,0.3,1.9,0.6c1,0.2,1.7,0.5,2.2,0.8s0.7,0.9,0.7,1.7c0,0.8-0.3,1.4-0.9,1.9S124.8,33,123.8,33z"/>
		<path class="st14" d="M132.1,32.8c-0.3,0.1-0.7,0.1-1.1,0.1c-0.6,0-1-0.1-1.3-0.3s-0.5-0.5-0.5-0.8c-0.1-0.3-0.1-0.8-0.1-1.4v-4.7
			h-1v-1.2h1v-2.1h1.5v2.1h1.3v1.2h-1.3v4.8c0,0.6,0.1,0.9,0.2,1.1c0.1,0.2,0.3,0.2,0.6,0.2s0.5,0,0.7-0.1L132.1,32.8L132.1,32.8z"
			/>
		<path class="st14" d="M136.6,24.3c1.2,0,2.1,0.4,2.8,1.1c0.7,0.8,1.1,1.8,1.1,3.2c0,1.4-0.4,2.4-1.1,3.2c-0.7,0.8-1.6,1.1-2.8,1.1
			s-2.1-0.4-2.8-1.1c-0.7-0.8-1.1-1.8-1.1-3.2c0-1.4,0.4-2.4,1.1-3.2C134.5,24.7,135.5,24.3,136.6,24.3z M136.6,31.8
			c0.7,0,1.3-0.3,1.7-0.8s0.7-1.3,0.7-2.4s-0.2-1.9-0.7-2.4s-1-0.8-1.7-0.8s-1.3,0.3-1.7,0.8s-0.7,1.3-0.7,2.4s0.2,1.8,0.7,2.4
			S135.9,31.8,136.6,31.8z"/>
		<path class="st14" d="M147.9,25.6c0.7-0.8,1.6-1.2,2.5-1.2c1.9,0,2.8,1,2.8,3.1v5.4h-1.5v-5.4c0-0.7-0.1-1.2-0.4-1.5
			s-0.6-0.4-1.2-0.4c-0.8,0-1.5,0.4-2.2,1.3v5.9h-1.5v-8.3h1.5L147.9,25.6L147.9,25.6z"/>
		<path class="st14" d="M156.8,22.9h-1.5v-1.6h1.5V22.9z M156.8,32.8h-1.5v-8.3h1.5V32.8z"/>
		<path class="st14" d="M165.7,24.5l-3.1,8.3h-1.3l-3.1-8.3h1.6L162,31l2.2-6.5H165.7z"/>
		<path class="st14" d="M170.5,33c-1.2,0-2.2-0.4-2.9-1.1c-0.7-0.8-1.1-1.8-1.1-3.2c0-1.4,0.4-2.4,1.1-3.2c0.7-0.8,1.7-1.2,2.8-1.2
			c1.2,0,2.1,0.4,2.8,1.1c0.7,0.8,1.1,1.8,1.1,3.2V29h-6.2c0.1,1,0.3,1.7,0.8,2.1c0.5,0.5,1,0.7,1.7,0.7c0.5,0,1-0.1,1.4-0.4
			s0.6-0.6,0.7-1.1h1.5c-0.1,0.9-0.5,1.5-1.2,2C172.3,32.8,171.4,33,170.5,33z M172.7,27.9c-0.1-0.8-0.4-1.4-0.8-1.8
			c-0.4-0.4-0.9-0.6-1.5-0.6s-1.1,0.2-1.5,0.6s-0.7,1-0.8,1.8H172.7z"/>
		<path class="st14" d="M177.4,32.8h-1.5V21.3h1.5V32.8z"/>
		<path class="st14" d="M184.8,31.9c-0.8,0.7-1.7,1-2.9,1c-0.8,0-1.5-0.2-2-0.7s-0.8-1-0.8-1.7c0-1.9,1.7-2.9,5-2.9h0.7
			c0-0.6,0-1-0.1-1.3s-0.2-0.5-0.5-0.7s-0.7-0.3-1.4-0.3c-1.3,0-2,0.5-2,1.4h-1.5c0.1-1.7,1.3-2.6,3.6-2.6c1.1,0,1.9,0.2,2.5,0.6
			s0.9,1.2,0.9,2.5v5.4h-1.5V31.9z M184.8,30.6v-1.8h-1c-2.1,0-3.2,0.6-3.2,1.7c0,0.4,0.2,0.7,0.5,1s0.7,0.3,1.3,0.3
			c0.5,0,1-0.1,1.4-0.3S184.5,31,184.8,30.6z"/>
		<path class="st14" d="M193.7,31.8c-0.7,0.8-1.4,1.2-2.4,1.2c-1.1,0-1.9-0.4-2.5-1.2s-0.9-1.8-0.9-3.1c0-1.4,0.3-2.4,1-3.2
			s1.5-1.2,2.5-1.2c0.9,0,1.7,0.3,2.3,0.8v-3.8h1.5v11.5h-1.5L193.7,31.8L193.7,31.8z M193.7,30.4v-3.9c-0.6-0.7-1.4-1-2.2-1
			c-0.6,0-1.1,0.3-1.5,0.8s-0.6,1.4-0.6,2.4s0.2,1.8,0.5,2.3c0.4,0.5,0.9,0.8,1.5,0.8C192.3,31.8,193,31.4,193.7,30.4z"/>
		<path class="st14" d="M200.7,24.3c1.2,0,2.1,0.4,2.8,1.1c0.7,0.8,1.1,1.8,1.1,3.2c0,1.4-0.4,2.4-1.1,3.2c-0.7,0.8-1.6,1.1-2.8,1.1
			s-2.1-0.4-2.8-1.1c-0.7-0.8-1.1-1.8-1.1-3.2c0-1.4,0.4-2.4,1.1-3.2C198.6,24.7,199.5,24.3,200.7,24.3z M200.7,31.8
			c0.7,0,1.3-0.3,1.7-0.8s0.7-1.3,0.7-2.4s-0.2-1.9-0.7-2.4s-1-0.8-1.7-0.8s-1.3,0.3-1.7,0.8s-0.7,1.3-0.7,2.4s0.2,1.8,0.7,2.4
			S200,31.8,200.7,31.8z"/>
		<path class="st14" d="M217.2,32.2c0,2.7-1.2,4-3.6,4c-1,0-1.9-0.2-2.5-0.7s-0.9-1.1-0.9-1.8h1.5c0,0.9,0.6,1.4,1.8,1.4
			c0.7,0,1.2-0.2,1.6-0.6s0.6-1.1,0.6-2.2v-0.4c-0.7,0.8-1.4,1.2-2.4,1.2c-1.1,0-1.9-0.4-2.5-1.2s-0.9-1.8-0.9-3.1
			c0-1.4,0.3-2.4,1-3.2s1.5-1.2,2.5-1.2c0.9,0,1.7,0.3,2.3,0.8v-0.7h1.5L217.2,32.2L217.2,32.2z M215.7,30.4v-3.9
			c-0.6-0.7-1.4-1-2.2-1c-0.6,0-1.1,0.3-1.5,0.8s-0.6,1.4-0.6,2.4s0.2,1.8,0.5,2.3c0.4,0.5,0.9,0.8,1.5,0.8
			C214.3,31.8,215,31.4,215.7,30.4z"/>
		<path class="st14" d="M220.8,32.8h-1.5V21.3h1.5V32.8z"/>
		<path class="st14" d="M226.4,24.3c1.2,0,2.1,0.4,2.8,1.1c0.7,0.8,1.1,1.8,1.1,3.2c0,1.4-0.4,2.4-1.1,3.2c-0.7,0.8-1.6,1.1-2.8,1.1
			s-2.1-0.4-2.8-1.1c-0.7-0.8-1.1-1.8-1.1-3.2c0-1.4,0.4-2.4,1.1-3.2C224.3,24.7,225.2,24.3,226.4,24.3z M226.4,31.8
			c0.7,0,1.3-0.3,1.7-0.8s0.7-1.3,0.7-2.4s-0.2-1.9-0.7-2.4s-1-0.8-1.7-0.8s-1.3,0.3-1.7,0.8s-0.7,1.3-0.7,2.4s0.2,1.8,0.7,2.4
			S225.7,31.8,226.4,31.8z"/>
		<path class="st14" d="M233.4,25.5c0.7-0.8,1.4-1.2,2.4-1.2c1.1,0,1.9,0.4,2.5,1.2s0.9,1.8,0.9,3.1c0,1.4-0.3,2.4-1,3.2
			s-1.5,1.2-2.5,1.2c-0.9,0-1.7-0.3-2.3-0.8v0.6h-1.5V21.3h1.5L233.4,25.5L233.4,25.5z M233.4,30.8c0.6,0.7,1.4,1,2.2,1
			c0.6,0,1.1-0.3,1.5-0.8s0.6-1.4,0.6-2.4s-0.2-1.8-0.5-2.3c-0.4-0.5-0.8-0.8-1.5-0.8c-0.8,0-1.6,0.5-2.2,1.4v3.9
			C233.5,30.8,233.4,30.8,233.4,30.8z"/>
		<path class="st14" d="M246.1,31.9c-0.8,0.7-1.7,1-2.9,1c-0.8,0-1.5-0.2-2-0.7s-0.8-1-0.8-1.7c0-1.9,1.7-2.9,5-2.9h0.7
			c0-0.6,0-1-0.1-1.3s-0.2-0.5-0.5-0.7s-0.7-0.3-1.4-0.3c-1.3,0-2,0.5-2,1.4h-1.5c0.1-1.7,1.3-2.6,3.6-2.6c1.1,0,1.9,0.2,2.5,0.6
			s0.9,1.2,0.9,2.5v5.4h-1.5L246.1,31.9L246.1,31.9z M246.1,30.6v-1.8h-1c-2.1,0-3.2,0.6-3.2,1.7c0,0.4,0.2,0.7,0.5,1
			s0.7,0.3,1.3,0.3c0.5,0,1-0.1,1.4-0.3S245.8,31,246.1,30.6z"/>
		<path class="st14" d="M251.2,32.8h-1.5V21.3h1.5V32.8z"/>
		<path class="st14" d="M259.1,25.5c0.7-0.8,1.4-1.2,2.4-1.2c1.1,0,1.9,0.4,2.5,1.2s0.9,1.8,0.9,3.1c0,1.4-0.3,2.4-1,3.2
			s-1.5,1.2-2.5,1.2c-0.9,0-1.7-0.3-2.3-0.8V36h-1.5V24.5h1.5V25.5z M259.1,30.8c0.6,0.7,1.4,1,2.2,1c0.6,0,1.1-0.3,1.5-0.8
			s0.6-1.4,0.6-2.4s-0.2-1.8-0.5-2.3c-0.4-0.5-0.8-0.8-1.5-0.8c-0.8,0-1.6,0.5-2.2,1.4v3.9C259.2,30.8,259.1,30.8,259.1,30.8z"/>
		<path class="st14" d="M270.8,25.9c-0.2-0.1-0.5-0.1-0.9-0.1c-0.8,0-1.4,0.4-1.9,1.2v5.9h-1.5v-8.4h1.5v1.2
			c0.6-0.9,1.3-1.3,2.2-1.3c0.2,0,0.4,0,0.7,0.1v1.4C270.9,25.9,270.8,25.9,270.8,25.9z"/>
		<path class="st14" d="M275.2,24.3c1.2,0,2.1,0.4,2.8,1.1c0.7,0.8,1.1,1.8,1.1,3.2c0,1.4-0.4,2.4-1.1,3.2s-1.6,1.1-2.8,1.1
			c-1.2,0-2.1-0.4-2.8-1.1c-0.7-0.8-1.1-1.8-1.1-3.2c0-1.4,0.4-2.4,1.1-3.2C273.1,24.7,274,24.3,275.2,24.3z M275.2,31.8
			c0.7,0,1.3-0.3,1.7-0.8s0.7-1.3,0.7-2.4s-0.2-1.9-0.7-2.4s-1-0.8-1.7-0.8s-1.3,0.3-1.7,0.8s-0.7,1.3-0.7,2.4s0.2,1.8,0.7,2.4
			S274.5,31.8,275.2,31.8z"/>
		<path class="st14" d="M291.9,32.8h-1.5v-5.4c0-0.7-0.1-1.2-0.3-1.5c-0.2-0.3-0.5-0.4-1-0.4c-0.7,0-1.4,0.4-2.1,1.3v5.9h-1.5v-5.4
			c0-0.7-0.1-1.2-0.3-1.5c-0.2-0.3-0.5-0.4-1-0.4c-0.7,0-1.4,0.4-2.1,1.3v5.9h-1.5v-8.1h1.5v1.1c0.7-0.8,1.5-1.2,2.3-1.2
			c1.2,0,2,0.5,2.3,1.5c0.6-0.7,1-1.1,1.4-1.2c0.4-0.2,0.8-0.3,1.1-0.3c1.7,0,2.5,1,2.5,3.1v5.3H291.9z"/>
		<path class="st14" d="M297.6,33c-1.2,0-2.2-0.4-2.9-1.1c-0.7-0.8-1.1-1.8-1.1-3.2c0-1.4,0.4-2.4,1.1-3.2c0.7-0.8,1.7-1.2,2.8-1.2
			c1.2,0,2.1,0.4,2.8,1.1c0.7,0.8,1.1,1.8,1.1,3.2V29h-6.2c0.1,1,0.3,1.7,0.8,2.1c0.5,0.5,1,0.7,1.7,0.7c0.5,0,1-0.1,1.4-0.4
			s0.6-0.6,0.7-1.1h1.5c-0.1,0.9-0.5,1.5-1.2,2C299.3,32.8,298.5,33,297.6,33z M299.8,27.9c-0.1-0.8-0.4-1.4-0.8-1.8
			s-0.9-0.6-1.5-0.6s-1.1,0.2-1.5,0.6s-0.7,1-0.8,1.8H299.8z"/>
		<path class="st14" d="M308.2,31.8c-0.7,0.8-1.4,1.2-2.4,1.2c-1.1,0-1.9-0.4-2.5-1.2s-0.9-1.8-0.9-3.1c0-1.4,0.3-2.4,1-3.2
			s1.5-1.2,2.5-1.2c0.9,0,1.7,0.3,2.3,0.8v-3.8h1.5v11.5h-1.5V31.8z M308.2,30.4v-3.9c-0.6-0.7-1.4-1-2.2-1c-0.6,0-1.1,0.3-1.5,0.8
			s-0.6,1.4-0.6,2.4s0.2,1.8,0.5,2.3c0.4,0.5,0.9,0.8,1.5,0.8C306.8,31.8,307.5,31.4,308.2,30.4z"/>
		<path class="st14" d="M313.3,22.9h-1.5v-1.6h1.5V22.9z M313.3,32.8h-1.5v-8.3h1.5V32.8z"/>
		<path class="st14" d="M318.9,24.3c1.2,0,2.1,0.4,2.8,1.1c0.7,0.8,1.1,1.8,1.1,3.2c0,1.4-0.4,2.4-1.1,3.2s-1.6,1.1-2.8,1.1
			c-1.2,0-2.1-0.4-2.8-1.1c-0.7-0.8-1.1-1.8-1.1-3.2c0-1.4,0.4-2.4,1.1-3.2C316.7,24.7,317.7,24.3,318.9,24.3z M318.9,31.8
			c0.7,0,1.3-0.3,1.7-0.8s0.7-1.3,0.7-2.4s-0.2-1.9-0.7-2.4s-1-0.8-1.7-0.8s-1.3,0.3-1.7,0.8s-0.7,1.3-0.7,2.4s0.2,1.8,0.7,2.4
			S318.2,31.8,318.9,31.8z"/>
		<path class="st14" d="M333.9,31.8c-0.7,0.8-1.4,1.2-2.4,1.2c-1.1,0-1.9-0.4-2.5-1.2s-0.9-1.8-0.9-3.1c0-1.4,0.3-2.4,1-3.2
			s1.5-1.2,2.5-1.2c0.9,0,1.7,0.3,2.3,0.8v-3.8h1.5v11.5h-1.5V31.8z M333.9,30.4v-3.9c-0.6-0.7-1.4-1-2.2-1c-0.6,0-1.1,0.3-1.5,0.8
			s-0.6,1.4-0.6,2.4s0.2,1.8,0.5,2.3c0.4,0.5,0.9,0.8,1.5,0.8C332.5,31.8,333.2,31.4,333.9,30.4z"/>
		<path class="st14" d="M341.1,33c-1.2,0-2.2-0.4-2.9-1.1c-0.7-0.8-1.1-1.8-1.1-3.2c0-1.4,0.4-2.4,1.1-3.2c0.7-0.8,1.7-1.2,2.8-1.2
			c1.2,0,2.1,0.4,2.8,1.1c0.7,0.8,1.1,1.8,1.1,3.2V29h-6.2c0.1,1,0.3,1.7,0.8,2.1c0.5,0.5,1,0.7,1.7,0.7c0.5,0,1-0.1,1.4-0.4
			s0.6-0.6,0.7-1.1h1.5c-0.1,0.9-0.5,1.5-1.2,2C342.8,32.8,342,33,341.1,33z M343.3,27.9c-0.1-0.8-0.4-1.4-0.8-1.8s-0.9-0.6-1.5-0.6
			s-1.1,0.2-1.5,0.6s-0.7,1-0.8,1.8H343.3z"/>
		<path class="st14" d="M354.2,33c-1.2,0-2.2-0.4-2.9-1.1c-0.7-0.8-1.1-1.8-1.1-3.2c0-1.4,0.4-2.4,1.1-3.2c0.7-0.8,1.7-1.2,2.8-1.2
			c1.2,0,2.1,0.4,2.8,1.1c0.7,0.8,1.1,1.8,1.1,3.2V29h-6.2c0.1,1,0.3,1.7,0.8,2.1c0.5,0.5,1,0.7,1.7,0.7c0.5,0,1-0.1,1.4-0.4
			s0.6-0.6,0.7-1.1h1.5c-0.1,0.9-0.5,1.5-1.2,2C356,32.8,355.2,33,354.2,33z M356.4,27.9c-0.1-0.8-0.4-1.4-0.8-1.8s-0.9-0.6-1.5-0.6
			s-1.1,0.2-1.5,0.6s-0.7,1-0.8,1.8H356.4z"/>
		<path class="st14" d="M361.1,25.6c0.7-0.8,1.6-1.2,2.5-1.2c1.9,0,2.8,1,2.8,3.1v5.4h-1.5v-5.4c0-0.7-0.1-1.2-0.4-1.5
			s-0.6-0.5-1.2-0.5c-0.8,0-1.5,0.4-2.2,1.3v5.9h-1.5v-8.2h1.5V25.6z"/>
		<path class="st14" d="M372,33c-1.2,0-2.2-0.4-2.9-1.1c-0.7-0.8-1.1-1.8-1.1-3.2c0-1.4,0.4-2.4,1.1-3.2c0.7-0.8,1.7-1.2,2.8-1.2
			c1.2,0,2.1,0.4,2.8,1.1c0.7,0.8,1.1,1.8,1.1,3.2V29h-6.2c0.1,1,0.3,1.7,0.8,2.1c0.5,0.5,1,0.7,1.7,0.7c0.5,0,1-0.1,1.4-0.4
			s0.6-0.6,0.7-1.1h1.5c-0.1,0.9-0.5,1.5-1.2,2C373.8,32.8,373,33,372,33z M374.2,27.9c-0.1-0.8-0.4-1.4-0.8-1.8s-0.9-0.6-1.5-0.6
			s-1.1,0.2-1.5,0.6s-0.7,1-0.8,1.8H374.2z"/>
		<path class="st14" d="M381.7,25.9c-0.2-0.1-0.5-0.1-0.9-0.1c-0.8,0-1.4,0.4-1.9,1.2v5.9h-1.5v-8.4h1.5v1.2
			c0.6-0.9,1.3-1.3,2.2-1.3c0.2,0,0.4,0,0.7,0.1v1.4C381.8,25.9,381.7,25.9,381.7,25.9z"/>
		<path class="st14" d="M389.4,32.2c0,2.7-1.2,4-3.6,4c-1,0-1.9-0.2-2.5-0.7s-0.9-1.1-0.9-1.8h1.5c0,0.9,0.6,1.4,1.8,1.4
			c0.7,0,1.2-0.2,1.6-0.6s0.6-1.1,0.6-2.2v-0.4c-0.7,0.8-1.4,1.2-2.4,1.2c-1.1,0-1.9-0.4-2.5-1.2s-0.9-1.8-0.9-3.1
			c0-1.4,0.3-2.4,1-3.2s1.5-1.2,2.5-1.2c0.9,0,1.7,0.3,2.3,0.8v-0.7h1.5V32.2z M388,30.4v-3.9c-0.6-0.7-1.4-1-2.2-1
			c-0.6,0-1.1,0.3-1.5,0.8s-0.6,1.4-0.6,2.4s0.2,1.8,0.5,2.3c0.4,0.5,0.9,0.8,1.5,0.8C386.6,31.8,387.3,31.4,388,30.4z"/>
		<path class="st14" d="M394.4,21.2l-1.7,2.2h-1.2l1-2.2H394.4z M393.1,32.8h-1.5v-8.3h1.5V32.8z"/>
		<path class="st14" d="M400.5,31.9c-0.8,0.7-1.7,1-2.9,1c-0.8,0-1.5-0.2-2-0.7s-0.8-1-0.8-1.7c0-1.9,1.7-2.9,5-2.9h0.7
			c0-0.6,0-1-0.1-1.3s-0.2-0.5-0.5-0.7s-0.7-0.3-1.4-0.3c-1.3,0-2,0.5-2,1.4H395c0.1-1.7,1.3-2.6,3.6-2.6c1.1,0,1.9,0.2,2.5,0.6
			s0.9,1.2,0.9,2.5v5.4h-1.5L400.5,31.9L400.5,31.9z M400.5,30.6v-1.8h-1c-2.1,0-3.2,0.6-3.2,1.7c0,0.4,0.2,0.7,0.5,1
			s0.7,0.3,1.3,0.3c0.5,0,1-0.1,1.4-0.3S400.3,31,400.5,30.6z"/>
		<path class="st14" d="M412.1,36.2h-1c-1.9-2.4-2.8-4.9-2.8-7.5s0.9-5.1,2.8-7.5h1c-1.6,2.5-2.3,5-2.3,7.5S410.5,33.7,412.1,36.2z"
			/>
		<path class="st14" d="M421,32.8h-7.1V21.3h1.5v10.1h5.6V32.8z"/>
		<path class="st14" d="M427.6,33c-1.6,0-2.9-0.5-3.9-1.6s-1.4-2.5-1.4-4.3s0.5-3.3,1.4-4.3s2.3-1.6,3.9-1.6c1.2,0,2.3,0.3,3.2,1
			s1.4,1.6,1.5,2.7h-1.6c-0.1-0.7-0.4-1.3-0.9-1.7s-1.3-0.6-2.1-0.6c-1.2,0-2.1,0.4-2.8,1.2s-1,1.9-1,3.4s0.3,2.6,1,3.4
			s1.6,1.2,2.7,1.2c0.9,0,1.6-0.2,2.2-0.7s0.9-1.1,0.9-1.9h1.6c-0.1,1.2-0.6,2.2-1.4,2.8C430.1,32.6,428.9,33,427.6,33z"/>
		<path class="st14" d="M437.6,24.3c1.2,0,2.1,0.4,2.8,1.1s1.1,1.8,1.1,3.2c0,1.4-0.4,2.4-1.1,3.2s-1.6,1.1-2.8,1.1
			c-1.2,0-2.1-0.4-2.8-1.1c-0.7-0.7-1.1-1.8-1.1-3.2c0-1.4,0.4-2.4,1.1-3.2S436.4,24.3,437.6,24.3z M437.6,31.8
			c0.7,0,1.3-0.3,1.7-0.8s0.7-1.3,0.7-2.4s-0.2-1.9-0.7-2.4s-1-0.8-1.7-0.8s-1.3,0.3-1.7,0.8s-0.7,1.3-0.7,2.4s0.2,1.8,0.7,2.4
			S436.9,31.8,437.6,31.8z"/>
		<path class="st14" d="M451.8,32.8h-8.5V21.3h8.3v1.4h-6.8v3.5h6.3v1.4h-6.3v3.9h7V32.8z"/>
		<path class="st14" d="M454.3,21.2c1.9,2.4,2.8,4.9,2.8,7.5s-0.9,5.1-2.8,7.5h-1c1.6-2.5,2.3-5,2.3-7.5s-0.8-5-2.3-7.5H454.3z"/>
	</g>
</g>
<g>
	<g class="st12">
		<path class="st16" d="M44.2,110.6c0-0.5-0.2-0.9-0.5-1.2c-0.3-0.3-1-0.6-1.8-0.8c-1.1-0.3-1.9-0.7-2.5-1.2s-0.9-1.2-0.9-2
			s0.3-1.5,1-2.1s1.5-0.8,2.5-0.8c1.1,0,2,0.3,2.7,1c0.7,0.6,1,1.4,1,2.2l0,0h-1.4c0-0.6-0.2-1.1-0.6-1.5s-1-0.6-1.6-0.6
			c-0.7,0-1.2,0.2-1.5,0.5c-0.4,0.3-0.5,0.8-0.5,1.3s0.2,0.9,0.6,1.2c0.4,0.3,1,0.6,1.9,0.8c1.1,0.3,1.9,0.7,2.5,1.2s0.8,1.2,0.8,2
			c0,0.9-0.3,1.6-1,2.1s-1.6,0.8-2.6,0.8s-1.9-0.3-2.7-0.9s-1.2-1.3-1.1-2.3l0,0h1.4c0,0.7,0.3,1.2,0.8,1.5c0.5,0.4,1.1,0.5,1.7,0.5
			c0.7,0,1.2-0.2,1.6-0.5C44,111.5,44.2,111.1,44.2,110.6z"/>
		<path class="st16" d="M47.2,109.2c0-1.2,0.3-2.1,1-2.9c0.6-0.8,1.5-1.1,2.6-1.1s2,0.4,2.6,1.1c0.6,0.8,1,1.7,1,2.9v0.2
			c0,1.2-0.3,2.1-1,2.9c-0.6,0.8-1.5,1.1-2.6,1.1s-2-0.4-2.6-1.1c-0.6-0.8-1-1.7-1-2.9V109.2z M48.6,109.4c0,0.8,0.2,1.5,0.5,2.1
			c0.4,0.5,0.9,0.8,1.6,0.8s1.2-0.3,1.6-0.8s0.5-1.2,0.5-2.1v-0.2c0-0.8-0.2-1.5-0.5-2.1c-0.4-0.6-0.9-0.8-1.6-0.8s-1.2,0.3-1.6,0.8
			c-0.4,0.6-0.5,1.2-0.5,2.1V109.4z"/>
		<path class="st16" d="M57.6,113.3h-1.4v-11.4h1.4V113.3z"/>
		<path class="st16" d="M64.7,113.3c0-0.2-0.1-0.5-0.1-0.6c0-0.2,0-0.4,0-0.6c-0.3,0.4-0.6,0.7-1.1,1c-0.4,0.3-0.9,0.4-1.4,0.4
			c-0.8,0-1.5-0.2-1.9-0.6s-0.6-1-0.6-1.7c0-0.8,0.3-1.3,0.9-1.8c0.6-0.4,1.4-0.6,2.5-0.6h1.6V108c0-0.5-0.1-0.8-0.4-1.1
			c-0.3-0.3-0.7-0.4-1.2-0.4s-0.8,0.1-1.1,0.4s-0.6,0.3-0.6,0.6h-1.4l0,0c0-0.6,0.2-1.1,0.8-1.6s1.3-0.7,2.2-0.7
			c0.9,0,1.6,0.2,2.2,0.7c0.5,0.5,0.8,1.1,0.8,2v3.8c0,0.3,0,0.6,0,0.8s0.1,0.5,0.2,0.8C66.1,113.3,64.7,113.3,64.7,113.3z
			 M62.3,112.2c0.5,0,1-0.1,1.4-0.4s0.7-0.6,0.8-0.9v-1.3h-1.6c-0.6,0-1,0.1-1.4,0.4c-0.3,0.3-0.5,0.6-0.5,1s0.1,0.6,0.3,0.8
			S61.9,112.2,62.3,112.2z"/>
		<path class="st16" d="M71.8,106.6h-0.7c-0.4,0-0.7,0.1-1,0.3c-0.3,0.2-0.5,0.4-0.6,0.8v5.7h-1.4v-7.9h1.3l0.1,1.2
			c0.2-0.4,0.5-0.7,0.8-1c0.3-0.2,0.7-0.3,1.1-0.3c0.1,0,0.2,0,0.3,0c0.1,0,0.2,0,0.2,0.1L71.8,106.6z"/>
		<path class="st16" d="M78.7,109v4.3h-1.4v-10.7h4.1c1.1,0,2,0.3,2.7,0.9s0.9,1.4,0.9,2.3c0,1-0.3,1.7-0.9,2.3s-1.5,0.9-2.7,0.9
			L78.7,109L78.7,109z M78.7,107.8h2.6c0.7,0,1.3-0.2,1.6-0.6c0.4-0.4,0.5-0.9,0.5-1.5s-0.2-1.1-0.5-1.5c-0.4-0.4-0.9-0.6-1.6-0.6
			h-2.6V107.8z"/>
		<path class="st16" d="M90,110.5l0.2,0.9l0,0l0.2-0.9l2.8-7.9h1.6l-4,10.7h-1.2l-4-10.7h1.6L90,110.5z"/>
		<path class="st16" d="M100.3,109.3H96v-1.1h4.3V109.3z"/>
	</g>
	<g class="st12">
		<path class="st16" d="M40,127.8v4.6h-1.4v-10.7h3.6c1.2,0,2.1,0.3,2.7,0.8s0.9,1.3,0.9,2.3c0,0.5-0.1,1-0.4,1.4s-0.7,0.7-1.2,1
			c0.6,0.2,1,0.5,1.3,0.9c0.3,0.4,0.4,1,0.4,1.6v1c0,0.3,0,0.6,0.1,0.9s0.2,0.5,0.4,0.6v0.2h-1.5c-0.2-0.2-0.3-0.4-0.4-0.7
			s-0.1-0.7-0.1-1v-1c0-0.6-0.2-1-0.5-1.4c-0.3-0.4-0.8-0.5-1.4-0.5L40,127.8L40,127.8z M40,126.7h2.1c0.8,0,1.4-0.2,1.8-0.5
			s0.5-0.8,0.5-1.4s-0.2-1.1-0.5-1.4s-0.9-0.5-1.6-0.5h-2.2L40,126.7L40,126.7z"/>
		<path class="st16" d="M51.2,132.6c-1.1,0-2-0.4-2.7-1.1c-0.6-0.7-1-1.7-1-2.9v-0.3c0-1.1,0.3-2.1,1-2.8c0.7-0.7,1.5-1.1,2.4-1.1
			c1.1,0,1.9,0.3,2.4,1s0.8,1.5,0.8,2.6v0.8H49l0,0c0,0.8,0.2,1.4,0.5,1.9c0.4,0.5,0.9,0.7,1.6,0.7c0.5,0,0.9-0.1,1.3-0.2
			c0.4-0.1,0.7-0.3,0.9-0.6l0.6,0.9c-0.3,0.3-0.7,0.5-1.1,0.7C52.4,132.5,51.8,132.6,51.2,132.6z M50.9,125.5
			c-0.5,0-0.9,0.2-1.2,0.6c-0.3,0.4-0.5,0.9-0.6,1.5l0,0h3.6v-0.1c0-0.6-0.1-1.1-0.4-1.4S51.5,125.5,50.9,125.5z"/>
		<path class="st16" d="M60.4,130.3c0-0.3-0.1-0.6-0.4-0.8c-0.2-0.2-0.7-0.4-1.4-0.5c-0.9-0.2-1.6-0.5-2.1-0.8s-0.8-0.8-0.8-1.5
			c0-0.6,0.3-1.2,0.8-1.7s1.3-0.7,2.1-0.7c0.9,0,1.6,0.2,2.2,0.7s0.8,1.1,0.8,1.7l0,0h-1.3c0-0.3-0.2-0.7-0.5-0.9
			c-0.3-0.3-0.7-0.4-1.1-0.4c-0.5,0-0.9,0.1-1.1,0.3s-0.4,0.5-0.4,0.8s0.1,0.6,0.3,0.7c0.2,0.2,0.7,0.3,1.3,0.5
			c1,0.2,1.7,0.5,2.2,0.9s0.8,0.9,0.8,1.5c0,0.7-0.3,1.3-0.9,1.7s-1.3,0.7-2.2,0.7c-1,0-1.8-0.3-2.4-0.8s-0.9-1.1-0.8-1.8l0,0h1.4
			c0,0.5,0.2,0.9,0.6,1.1c0.4,0.2,0.8,0.4,1.3,0.4s0.9-0.1,1.2-0.3C60.2,130.9,60.4,130.7,60.4,130.3z"/>
		<path class="st16" d="M65.1,122.5h-1.4V121h1.4V122.5z M65.1,132.5h-1.4v-8h1.4V132.5z"/>
		<path class="st16" d="M67,128.6c0-1.3,0.3-2.3,0.8-3.1s1.3-1.2,2.3-1.2c0.5,0,0.9,0.1,1.2,0.3c0.4,0.2,0.7,0.4,0.9,0.7v-4.4h1.4
			v11.6h-1.1l-0.2-1c-0.3,0.4-0.6,0.7-1,0.9s-0.8,0.3-1.3,0.3c-1,0-1.7-0.4-2.3-1.1c-0.5-0.7-0.8-1.6-0.8-2.8L67,128.6L67,128.6z
			 M68.5,128.8c0,0.8,0.2,1.4,0.5,1.9s0.8,0.7,1.5,0.7c0.4,0,0.8-0.1,1.1-0.3s0.5-0.5,0.7-0.8v-3.7c-0.2-0.3-0.4-0.6-0.7-0.8
			c-0.3-0.2-0.7-0.3-1.1-0.3c-0.7,0-1.2,0.3-1.5,0.9s-0.5,1.3-0.5,2.2V128.8z"/>
		<path class="st16" d="M79.2,132.6c-1.1,0-2-0.4-2.7-1.1c-0.6-0.7-1-1.7-1-2.9v-0.3c0-1.1,0.3-2.1,1-2.8c0.7-0.7,1.5-1.1,2.4-1.1
			c1.1,0,1.9,0.3,2.4,1s0.8,1.5,0.8,2.6v0.8H77l0,0c0,0.8,0.2,1.4,0.5,1.9c0.4,0.5,0.9,0.7,1.6,0.7c0.5,0,0.9-0.1,1.3-0.2
			c0.4-0.1,0.7-0.3,0.9-0.6l0.6,0.9c-0.3,0.3-0.7,0.5-1.1,0.7C80.4,132.5,79.8,132.6,79.2,132.6z M78.9,125.5
			c-0.5,0-0.9,0.2-1.2,0.6c-0.3,0.4-0.5,0.9-0.6,1.5l0,0h3.6v-0.1c0-0.6-0.1-1.1-0.4-1.4S79.5,125.5,78.9,125.5z"/>
		<path class="st16" d="M85,124.5l0.1,1.2c0.3-0.4,0.6-0.7,1-1c0.4-0.2,0.9-0.3,1.4-0.3c0.9,0,1.5,0.2,2,0.8
			c0.5,0.5,0.7,1.3,0.7,2.3v5h-1.4v-5c0-0.7-0.1-1.2-0.4-1.5s-0.7-0.4-1.3-0.4c-0.4,0-0.8,0.1-1.1,0.3c-0.3,0.2-0.6,0.4-0.7,0.8v5.9
			h-1.4v-8.1H85z"/>
		<path class="st16" d="M95.4,131.5c0.4,0,0.8-0.1,1.2-0.4c0.3-0.3,0.5-0.7,0.5-1.1h1.3l0,0c0,0.7-0.3,1.3-0.9,1.8s-1.3,0.8-2.1,0.8
			c-1.1,0-2-0.4-2.6-1.1s-0.9-1.7-0.9-2.8v-0.3c0-1.1,0.3-2.1,0.9-2.8c0.6-0.8,1.5-1.1,2.6-1.1c0.9,0,1.6,0.3,2.2,0.8s0.8,1.2,0.8,2
			l0,0h-1.3c0-0.5-0.2-0.9-0.5-1.2c-0.3-0.3-0.7-0.5-1.2-0.5c-0.7,0-1.2,0.3-1.5,0.8s-0.5,1.2-0.5,2v0.3c0,0.8,0.2,1.5,0.5,2
			S94.7,131.5,95.4,131.5z"/>
		<path class="st16" d="M101.7,122.5h-1.4V121h1.4V122.5z M101.7,132.5h-1.4v-8h1.4V132.5z"/>
		<path class="st16" d="M108.8,132.5c0-0.2-0.1-0.5-0.1-0.6c0-0.2,0-0.4,0-0.6c-0.3,0.4-0.6,0.7-1.1,1c-0.4,0.3-0.9,0.4-1.4,0.4
			c-0.8,0-1.5-0.2-1.9-0.6c-0.4-0.4-0.6-1-0.6-1.7c0-0.8,0.3-1.3,0.9-1.8c0.6-0.4,1.4-0.6,2.5-0.6h1.6v-0.8c0-0.5-0.1-0.8-0.4-1.1
			c-0.3-0.3-0.7-0.4-1.2-0.4s-0.8,0.1-1.1,0.4s-0.4,0.5-0.4,0.8h-1.4l0,0c0-0.6,0.2-1.1,0.8-1.6s1.3-0.7,2.2-0.7
			c0.9,0,1.6,0.2,2.2,0.7c0.5,0.5,0.8,1.1,0.8,2v3.8c0,0.3,0,0.6,0,0.8s0.1,0.5,0.2,0.8h-1.6V132.5z M106.4,131.4
			c0.5,0,1-0.1,1.4-0.4s0.7-0.6,0.8-0.9v-1.3H107c-0.6,0-1,0.1-1.4,0.4c-0.3,0.3-0.5,0.6-0.5,1s0.1,0.6,0.3,0.8
			S105.9,131.4,106.4,131.4z"/>
		<path class="st16" d="M113.7,132.5h-1.4v-11.4h1.4V132.5z"/>
	</g>
</g>
<g>
	<g class="st12">
		<path class="st16" d="M60.6,379.3L60.6,379.3c0,1-0.3,1.9-1,2.6s-1.7,1-2.9,1c-1.2,0-2.2-0.4-2.9-1.3s-1.1-1.9-1.1-3.3v-1.8
			c0-1.3,0.4-2.4,1.1-3.3c0.8-0.9,1.7-1.3,2.9-1.3s2.2,0.3,2.9,1c0.7,0.6,1.1,1.5,1,2.6l0,0h-1.3c0-0.7-0.2-1.3-0.7-1.8
			c-0.4-0.4-1.1-0.7-1.9-0.7s-1.4,0.3-1.9,1s-0.7,1.5-0.7,2.4v1.9c0,1,0.2,1.8,0.7,2.4s1.1,1,1.9,1s1.4-0.2,1.9-0.6
			c0.4-0.4,0.7-1,0.7-1.8L60.6,379.3L60.6,379.3z"/>
		<path class="st16" d="M62,378.7c0-1.2,0.3-2.1,1-2.9c0.6-0.8,1.5-1.1,2.6-1.1s2,0.4,2.6,1.1c0.6,0.8,1,1.7,1,2.9v0.2
			c0,1.2-0.3,2.1-1,2.9c-0.6,0.8-1.5,1.1-2.6,1.1s-2-0.4-2.6-1.1c-0.6-0.8-1-1.7-1-2.9V378.7z M63.4,378.9c0,0.8,0.2,1.5,0.5,2.1
			c0.4,0.5,0.9,0.8,1.6,0.8s1.2-0.3,1.6-0.8s0.5-1.2,0.5-2.1v-0.2c0-0.8-0.2-1.5-0.5-2.1c-0.4-0.6-0.9-0.8-1.6-0.8s-1.2,0.3-1.6,0.8
			c-0.4,0.6-0.5,1.2-0.5,2.1V378.9z"/>
		<path class="st16" d="M72.2,374.8l0.1,1c0.3-0.4,0.6-0.7,1-0.9c0.4-0.2,0.9-0.3,1.4-0.3s1,0.1,1.4,0.4c0.4,0.2,0.7,0.6,0.9,1.1
			c0.3-0.5,0.6-0.8,1-1.1c0.4-0.3,0.9-0.4,1.4-0.4c0.8,0,1.4,0.3,1.9,0.8c0.5,0.6,0.7,1.4,0.7,2.5v4.7h-1.4v-4.8
			c0-0.8-0.1-1.3-0.4-1.7c-0.3-0.3-0.7-0.5-1.2-0.5s-0.9,0.2-1.2,0.5s-0.5,0.8-0.5,1.3v0.1v5h-1.5v-4.8c0-0.7-0.1-1.3-0.4-1.6
			c-0.3-0.3-0.7-0.5-1.2-0.5c-0.4,0-0.8,0.1-1.1,0.3c-0.3,0.2-0.5,0.4-0.7,0.8v5.9H71v-7.9h1.2C72.2,374.7,72.2,374.8,72.2,374.8z"
			/>
		<path class="st16" d="M90.7,379.1c0,1.1-0.3,2.1-0.8,2.8c-0.5,0.7-1.3,1.1-2.3,1.1c-0.5,0-1-0.1-1.4-0.3c-0.4-0.2-0.7-0.5-1-0.9
			l-0.2,1.1h-1.1v-11.4h1.4v4.4c0.2-0.4,0.6-0.6,0.9-0.8c0.4-0.2,0.8-0.3,1.3-0.3c1,0,1.7,0.4,2.3,1.2S90.6,377.8,90.7,379.1
			L90.7,379.1L90.7,379.1z M89.3,378.9c0-0.9-0.2-1.6-0.5-2.2s-0.8-0.9-1.5-0.9c-0.4,0-0.8,0.1-1.1,0.3c-0.3,0.2-0.5,0.5-0.7,0.9
			v3.4c0.2,0.4,0.4,0.7,0.7,0.9c0.3,0.2,0.7,0.3,1.1,0.3c0.7,0,1.2-0.2,1.5-0.7S89.3,379.8,89.3,378.9L89.3,378.9z"/>
		<path class="st16" d="M97.5,381.6c-0.2,0.4-0.6,0.8-1,1s-0.8,0.3-1.4,0.3c-0.9,0-1.5-0.3-2-0.8s-0.7-1.4-0.7-2.6v-4.7h1.4v4.7
			c0,0.8,0.1,1.4,0.4,1.7s0.6,0.5,1.2,0.5c0.5,0,0.9-0.1,1.3-0.3c0.3-0.2,0.6-0.5,0.8-0.9v-5.7h1.4v7.9h-1.3L97.5,381.6z"/>
		<path class="st16" d="M105.6,380.6c0-0.3-0.1-0.6-0.4-0.8c-0.2-0.2-0.7-0.4-1.4-0.5c-0.9-0.2-1.6-0.5-2.1-0.8s-0.8-0.8-0.8-1.5
			c0-0.6,0.3-1.2,0.8-1.7s1.3-0.7,2.1-0.7c0.9,0,1.6,0.2,2.2,0.7s0.8,1.1,0.8,1.7l0,0h-1.4c0-0.3-0.2-0.7-0.5-0.9
			c-0.3-0.3-0.7-0.4-1.1-0.4c-0.5,0-0.9,0.1-1.1,0.3s-0.4,0.5-0.4,0.8s0.1,0.6,0.3,0.7c0.2,0.2,0.7,0.3,1.3,0.5
			c1,0.2,1.7,0.5,2.2,0.9s0.8,0.9,0.8,1.5c0,0.7-0.3,1.3-0.9,1.7c-0.6,0.4-1.3,0.7-2.2,0.7c-1,0-1.8-0.3-2.4-0.8s-0.9-1.1-0.8-1.8
			l0,0h1.4c0,0.5,0.2,0.9,0.6,1.1s0.8,0.4,1.3,0.4s0.9-0.1,1.2-0.3C105.5,381.2,105.6,380.9,105.6,380.6z"/>
		<path class="st16" d="M110.9,372.9v1.9h1.5v1.1h-1.5v4.8c0,0.4,0.1,0.6,0.2,0.8c0.2,0.2,0.4,0.2,0.6,0.2c0.1,0,0.2,0,0.3,0
			s0.2,0,0.3-0.1l0.2,1c-0.1,0.1-0.3,0.2-0.5,0.2c-0.2,0.1-0.4,0.1-0.6,0.1c-0.6,0-1.1-0.2-1.4-0.5c-0.3-0.4-0.5-0.9-0.5-1.7v-4.8
			h-1.3v-1.1h1.3v-1.9H110.9z"/>
		<path class="st16" d="M115.5,372.8h-1.4v-1.5h1.4V372.8z M115.5,382.7h-1.4v-7.9h1.4V382.7z"/>
		<path class="st16" d="M124.5,379.1c0,1.1-0.3,2.1-0.8,2.8c-0.5,0.7-1.3,1.1-2.3,1.1c-0.5,0-1-0.1-1.4-0.3c-0.4-0.2-0.7-0.5-1-0.9
			l-0.2,1.1h-1.1v-11.4h1.4v4.4c0.2-0.4,0.6-0.6,0.9-0.8c0.4-0.2,0.8-0.3,1.3-0.3c1,0,1.7,0.4,2.3,1.2s0.8,1.8,0.8,3.1l0,0
			L124.5,379.1L124.5,379.1z M123,378.9c0-0.9-0.2-1.6-0.5-2.2s-0.8-0.9-1.5-0.9c-0.4,0-0.8,0.1-1.1,0.3c-0.3,0.2-0.5,0.5-0.7,0.9
			v3.4c0.2,0.4,0.4,0.7,0.7,0.9c0.3,0.2,0.7,0.3,1.1,0.3c0.7,0,1.2-0.2,1.5-0.7S123,379.8,123,378.9L123,378.9z"/>
		<path class="st16" d="M127.8,382.7h-1.5v-11.4h1.4v11.4H127.8z"/>
		<path class="st16" d="M133.3,382.9c-1.1,0-2-0.4-2.7-1.1c-0.6-0.7-1-1.7-1-2.9v-0.3c0-1.1,0.3-2.1,1-2.8c0.7-0.7,1.5-1.1,2.4-1.1
			c1.1,0,1.9,0.3,2.4,1s0.8,1.5,0.8,2.6v0.8h-5.1l0,0c0,0.8,0.2,1.4,0.5,1.9c0.4,0.5,0.9,0.7,1.6,0.7c0.5,0,0.9-0.1,1.3-0.2
			c0.4-0.1,0.7-0.3,0.9-0.6l0.6,0.9c-0.3,0.3-0.7,0.5-1.1,0.7C134.5,382.8,133.9,382.9,133.3,382.9z M133.1,375.8
			c-0.5,0-0.9,0.2-1.2,0.6s-0.5,0.9-0.6,1.5l0,0h3.6v-0.1c0-0.6-0.1-1.1-0.4-1.4S133.7,375.8,133.1,375.8z"/>
	</g>
</g>
<g>
	<g class="st12">
		<path class="st16" d="M61.1,430.8h-1.4l-5.1-8.1l0,0v8.1h-1.4v-10.7h1.4l5.1,8.1l0,0v-8.1h1.4V430.8z"/>
		<path class="st16" d="M68.4,429.7c-0.2,0.4-0.6,0.8-1,1S66.6,431,66,431c-0.9,0-1.5-0.3-2-0.8s-0.7-1.4-0.7-2.6v-4.7h1.4v4.7
			c0,0.8,0.1,1.4,0.4,1.7s0.6,0.5,1.2,0.5c0.5,0,0.9-0.1,1.3-0.3c0.3-0.2,0.6-0.5,0.8-0.9v-5.7h1.4v7.9h-1.3L68.4,429.7z"/>
		<path class="st16" d="M75.1,429.9c0.4,0,0.8-0.1,1.2-0.4c0.3-0.3,0.5-0.7,0.5-1.1h1.3l0,0c0,0.7-0.3,1.3-0.9,1.8s-1.3,0.8-2.1,0.8
			c-1.1,0-2-0.4-2.6-1.1s-0.9-1.7-0.9-2.8v-0.3c0-1.1,0.3-2.1,0.9-2.8c0.6-0.8,1.5-1.1,2.6-1.1c0.9,0,1.6,0.3,2.2,0.8s0.8,1.2,0.8,2
			l0,0h-1.3c0-0.5-0.2-0.9-0.5-1.2c-0.3-0.3-0.7-0.5-1.2-0.5c-0.7,0-1.2,0.3-1.5,0.8s-0.5,1.2-0.5,2v0.3c0,0.8,0.2,1.5,0.5,2
			C73.8,429.6,74.4,429.9,75.1,429.9z"/>
		<path class="st16" d="M81.3,430.8h-1.4v-11.4h1.4V430.8z"/>
		<path class="st16" d="M86.8,431c-1.1,0-2-0.4-2.7-1.1c-0.6-0.7-1-1.7-1-2.9v-0.3c0-1.1,0.3-2.1,1-2.8c0.7-0.7,1.5-1.1,2.4-1.1
			c1.1,0,1.9,0.3,2.4,1s0.8,1.5,0.8,2.6v0.8h-5.1l0,0c0,0.8,0.2,1.4,0.5,1.9c0.4,0.5,0.9,0.7,1.6,0.7c0.5,0,0.9-0.1,1.3-0.2
			s0.7-0.3,0.9-0.6l0.6,0.9c-0.3,0.3-0.7,0.5-1.1,0.7C88,430.9,87.5,431,86.8,431z M86.6,423.9c-0.5,0-0.9,0.2-1.2,0.6
			c-0.3,0.4-0.5,0.9-0.6,1.5l0,0h3.6v-0.1c0-0.6-0.1-1.1-0.4-1.4S87.2,423.9,86.6,423.9z"/>
		<path class="st16" d="M96.3,430.8c0-0.2-0.1-0.5-0.1-0.6c0-0.2,0-0.4,0-0.6c-0.3,0.4-0.6,0.7-1.1,1c-0.4,0.3-0.9,0.4-1.4,0.4
			c-0.8,0-1.5-0.2-1.9-0.6s-0.6-1-0.6-1.7c0-0.8,0.3-1.3,0.9-1.8c0.6-0.4,1.4-0.6,2.5-0.6h1.6v-0.8c0-0.5-0.1-0.8-0.4-1.1
			c-0.3-0.3-0.7-0.4-1.2-0.4s-0.8,0.1-1.1,0.4s-0.4,0.5-0.4,0.8h-1.4l0,0c0-0.6,0.2-1.1,0.8-1.6s1.3-0.7,2.2-0.7
			c0.9,0,1.6,0.2,2.2,0.7c0.5,0.5,0.8,1.1,0.8,2v3.8c0,0.3,0,0.6,0,0.8s0.1,0.5,0.2,0.8h-1.6V430.8z M93.9,429.8
			c0.5,0,1-0.1,1.4-0.4s0.7-0.6,0.8-0.9v-1.3h-1.6c-0.6,0-1,0.1-1.4,0.4c-0.3,0.3-0.5,0.6-0.5,1s0.1,0.6,0.3,0.8
			S93.5,429.8,93.9,429.8z"/>
		<path class="st16" d="M103.4,424.2h-0.7c-0.4,0-0.7,0.1-1,0.3c-0.3,0.2-0.5,0.4-0.6,0.8v5.7h-1.4v-7.9h1.3l0.1,1.2
			c0.2-0.4,0.5-0.7,0.8-1c0.3-0.2,0.7-0.3,1.1-0.3c0.1,0,0.2,0,0.3,0c0.1,0,0.2,0,0.2,0.1L103.4,424.2z"/>
	</g>
</g>
<g>
	<g class="st12">
		<path class="st16" d="M60.1,477.2L60.1,477.2c0,1-0.3,1.9-1,2.6s-1.7,1-2.9,1c-1.2,0-2.2-0.4-2.9-1.3s-1.1-1.9-1.1-3.3v-1.9
			c0-1.3,0.4-2.4,1.1-3.3c0.8-0.9,1.7-1.3,2.9-1.3s2.2,0.3,2.9,1c0.7,0.6,1.1,1.5,1,2.6l0,0h-1.4c0-0.7-0.2-1.3-0.7-1.8
			c-0.4-0.4-1.1-0.7-1.9-0.7s-1.4,0.3-1.9,1s-0.7,1.5-0.7,2.4v1.9c0,1,0.2,1.8,0.7,2.4s1.1,1,1.9,1s1.4-0.2,1.9-0.6
			c0.4-0.4,0.7-1,0.7-1.8L60.1,477.2L60.1,477.2z"/>
		<path class="st16" d="M66.6,480.6c0-0.2-0.1-0.5-0.1-0.6c0-0.2,0-0.4,0-0.6c-0.3,0.4-0.6,0.7-1.1,1c-0.4,0.3-0.9,0.4-1.4,0.4
			c-0.8,0-1.5-0.2-1.9-0.6s-0.6-1-0.6-1.7c0-0.8,0.3-1.3,0.9-1.8c0.6-0.4,1.4-0.6,2.5-0.6h1.6v-0.8c0-0.5-0.1-0.8-0.4-1.1
			c-0.3-0.3-0.7-0.4-1.2-0.4s-0.8,0.1-1.1,0.4s-0.5,0.3-0.5,0.6h-1.4l0,0c0-0.6,0.2-1.1,0.8-1.6s1.3-0.7,2.2-0.7
			c0.9,0,1.6,0.2,2.2,0.7c0.5,0.5,0.8,1.1,0.8,2v3.8c0,0.3,0,0.6,0,0.8s0.1,0.5,0.2,0.8L66.6,480.6L66.6,480.6z M64.2,479.5
			c0.5,0,1-0.1,1.4-0.4s0.7-0.6,0.8-0.9v-1.3h-1.6c-0.6,0-1,0.1-1.4,0.4c-0.3,0.3-0.5,0.6-0.5,1s0.1,0.6,0.3,0.8
			S63.8,479.5,64.2,479.5z"/>
		<path class="st16" d="M73.8,473.9h-0.7c-0.4,0-0.7,0.1-1,0.3c-0.3,0.2-0.5,0.4-0.6,0.8v5.7h-1.4v-7.9h1.2l0.1,1.2
			c0.2-0.4,0.5-0.7,0.8-1c0.3-0.2,0.7-0.3,1.1-0.3c0.1,0,0.2,0,0.3,0c0.1,0,0.2,0,0.2,0.1V473.9z"/>
		<path class="st16" d="M82,476.9c0,1.1-0.3,2.1-0.8,2.8c-0.5,0.7-1.3,1.1-2.3,1.1c-0.5,0-1-0.1-1.4-0.3c-0.4-0.2-0.7-0.5-1-0.9
			l-0.2,1.1h-1v-11.4h1.4v4.4c0.2-0.4,0.6-0.6,0.9-0.8c0.4-0.2,0.8-0.3,1.3-0.3c1,0,1.7,0.4,2.3,1.2S82,475.6,82,476.9L82,476.9
			L82,476.9z M80.6,476.7c0-0.9-0.2-1.6-0.5-2.2s-0.8-0.9-1.5-0.9c-0.4,0-0.8,0.1-1.1,0.3c-0.3,0.2-0.5,0.5-0.7,0.9v3.4
			c0.2,0.4,0.4,0.7,0.7,0.9c0.3,0.2,0.7,0.3,1.1,0.3c0.7,0,1.2-0.2,1.5-0.7S80.6,477.6,80.6,476.7L80.6,476.7z"/>
		<path class="st16" d="M83.4,476.5c0-1.2,0.3-2.1,1-2.9c0.6-0.8,1.5-1.1,2.6-1.1s2,0.4,2.6,1.1c0.6,0.8,1,1.7,1,2.9v0.2
			c0,1.2-0.3,2.1-1,2.9c-0.6,0.8-1.5,1.1-2.6,1.1s-2-0.4-2.6-1.1c-0.6-0.8-1-1.7-1-2.9V476.5z M84.9,476.7c0,0.8,0.2,1.5,0.5,2.1
			c0.4,0.5,0.9,0.8,1.6,0.8s1.2-0.3,1.6-0.8s0.5-1.2,0.5-2.1v-0.2c0-0.8-0.2-1.5-0.5-2.1c-0.4-0.6-0.9-0.8-1.6-0.8s-1.2,0.3-1.6,0.8
			c-0.4,0.6-0.5,1.2-0.5,2.1V476.7z M87.7,469.3h1.7l0,0l-2,1.9h-1.1L87.7,469.3z"/>
		<path class="st16" d="M93.6,472.6l0.1,1.2c0.3-0.4,0.6-0.7,1-1c0.4-0.2,0.9-0.3,1.4-0.3c0.9,0,1.5,0.2,2,0.8
			c0.5,0.5,0.7,1.3,0.7,2.3v5h-1.5v-5c0-0.7-0.1-1.2-0.4-1.5s-0.7-0.4-1.3-0.4c-0.4,0-0.8,0.1-1.1,0.3c-0.3,0.2-0.6,0.4-0.7,0.8v5.9
			h-1.5v-7.9h1.3V472.6z"/>
	</g>
</g>
<g>
	<g class="st12">
		<path class="st16" d="M60.1,507.9L60.1,507.9c0,1-0.3,1.9-1,2.6s-1.7,1-2.9,1c-1.2,0-2.2-0.4-2.9-1.3s-1.1-1.9-1.1-3.3V505
			c0-1.3,0.4-2.4,1.1-3.3c0.8-0.9,1.7-1.3,2.9-1.3s2.2,0.3,2.9,1c0.7,0.6,1.1,1.5,1,2.6l0,0h-1.4c0-0.7-0.2-1.3-0.7-1.8
			c-0.4-0.4-1.1-0.7-1.9-0.7s-1.4,0.3-1.9,1s-0.7,1.5-0.7,2.4v1.9c0,1,0.2,1.8,0.7,2.4s1.1,1,1.9,1s1.4-0.2,1.9-0.6
			c0.4-0.4,0.7-1,0.7-1.8L60.1,507.9L60.1,507.9z"/>
		<path class="st16" d="M63.3,501.3h-1.4v-1.5h1.4V501.3z M63.3,511.3h-1.4v-7.9h1.4V511.3z"/>
		<path class="st16" d="M68.7,510.3c0.4,0,0.8-0.1,1.2-0.4c0.3-0.3,0.5-0.7,0.5-1.1h1.3l0,0c0,0.7-0.3,1.3-0.9,1.8s-1.3,0.8-2.1,0.8
			c-1.1,0-2-0.4-2.6-1.1s-0.9-1.7-0.9-2.8v-0.3c0-1.1,0.3-2.1,0.9-2.8c0.6-0.8,1.5-1.1,2.6-1.1c0.9,0,1.6,0.3,2.2,0.8s0.8,1.2,0.8,2
			l0,0h-1.4c0-0.5-0.2-0.9-0.5-1.2c-0.3-0.3-0.7-0.5-1.2-0.5c-0.7,0-1.2,0.3-1.5,0.8s-0.5,1.2-0.5,2v0.3c0,0.8,0.2,1.5,0.5,2
			C67.4,510,68,510.3,68.7,510.3z"/>
		<path class="st16" d="M74.9,511.3h-1.4v-11.4h1.4V511.3z"/>
		<path class="st16" d="M76.8,507.2c0-1.2,0.3-2.1,1-2.9c0.6-0.8,1.5-1.1,2.6-1.1s2,0.4,2.6,1.1c0.6,0.8,1,1.7,1,2.9v0.2
			c0,1.2-0.3,2.1-1,2.9c-0.6,0.8-1.5,1.1-2.6,1.1s-2-0.4-2.6-1.1c-0.6-0.8-1-1.7-1-2.9V507.2z M78.3,507.4c0,0.8,0.2,1.5,0.5,2.1
			c0.4,0.5,0.9,0.8,1.6,0.8s1.2-0.3,1.6-0.8s0.5-1.2,0.5-2.1v-0.2c0-0.8-0.2-1.5-0.5-2.1c-0.4-0.6-0.9-0.8-1.6-0.8s-1.2,0.3-1.6,0.8
			c-0.4,0.6-0.5,1.2-0.5,2.1V507.4z"/>
	</g>
	<g class="st12">
		<path class="st16" d="M60.1,527.1L60.1,527.1c0,1-0.3,1.9-1,2.6s-1.7,1-2.9,1c-1.2,0-2.2-0.4-2.9-1.3s-1.1-1.9-1.1-3.3v-1.9
			c0-1.3,0.4-2.4,1.1-3.3c0.8-0.9,1.7-1.3,2.9-1.3s2.2,0.3,2.9,1c0.7,0.6,1.1,1.5,1,2.6l0,0h-1.4c0-0.7-0.2-1.3-0.7-1.8
			c-0.4-0.4-1.1-0.7-1.9-0.7s-1.4,0.3-1.9,1s-0.7,1.5-0.7,2.4v1.9c0,1,0.2,1.8,0.7,2.4s1.1,1,1.9,1s1.4-0.2,1.9-0.6
			c0.4-0.4,0.7-1,0.7-1.8L60.1,527.1L60.1,527.1z"/>
		<path class="st16" d="M61.4,526.4c0-1.2,0.3-2.1,1-2.9c0.6-0.8,1.5-1.1,2.6-1.1s2,0.4,2.6,1.1c0.6,0.8,1,1.7,1,2.9v0.2
			c0,1.2-0.3,2.1-1,2.9c-0.6,0.8-1.5,1.1-2.6,1.1s-2-0.4-2.6-1.1c-0.6-0.8-1-1.7-1-2.9V526.4z M62.9,526.6c0,0.8,0.2,1.5,0.5,2.1
			c0.4,0.5,0.9,0.8,1.6,0.8s1.2-0.3,1.6-0.8s0.5-1.2,0.5-2.1v-0.2c0-0.8-0.2-1.5-0.5-2.1c-0.4-0.6-0.9-0.8-1.6-0.8s-1.2,0.3-1.6,0.8
			c-0.4,0.6-0.5,1.2-0.5,2.1V526.6z"/>
		<path class="st16" d="M71.6,522.6l0.1,1c0.3-0.4,0.6-0.7,1-0.9s0.9-0.3,1.4-0.3s1,0.1,1.4,0.4c0.4,0.2,0.7,0.6,0.9,1.1
			c0.3-0.5,0.6-0.8,1-1.1s0.9-0.4,1.4-0.4c0.8,0,1.4,0.3,1.9,0.8c0.5,0.6,0.7,1.4,0.7,2.5v4.7H80v-4.8c0-0.8-0.1-1.3-0.4-1.7
			c-0.3-0.3-0.7-0.5-1.2-0.5s-0.9,0.2-1.2,0.5s-0.5,0.8-0.5,1.3v0.1v5h-1.5v-4.8c0-0.7-0.1-1.3-0.4-1.6s-0.7-0.5-1.2-0.5
			c-0.4,0-0.8,0.1-1.1,0.3c-0.3,0.2-0.5,0.4-0.7,0.8v5.9h-1.5v-7.9L71.6,522.6L71.6,522.6z"/>
		<path class="st16" d="M90.2,526.8c0,1.1-0.3,2.1-0.8,2.8s-1.3,1.1-2.3,1.1c-0.5,0-1-0.1-1.4-0.3s-0.7-0.5-1-0.9l-0.2,1.1h-1.1
			v-11.4h1.4v4.4c0.2-0.4,0.6-0.6,0.9-0.8c0.4-0.2,0.8-0.3,1.3-0.3c1,0,1.7,0.4,2.3,1.2S90.1,525.5,90.2,526.8L90.2,526.8
			L90.2,526.8z M88.7,526.7c0-0.9-0.2-1.6-0.5-2.2c-0.3-0.6-0.8-0.9-1.5-0.9c-0.4,0-0.8,0.1-1.1,0.3c-0.3,0.2-0.5,0.5-0.7,0.9v3.4
			c0.2,0.4,0.4,0.7,0.7,0.9c0.3,0.2,0.7,0.3,1.1,0.3c0.7,0,1.2-0.2,1.5-0.7S88.7,527.6,88.7,526.7L88.7,526.7z"/>
		<path class="st16" d="M93.5,520.5h-1.4V519h1.4V520.5z M93.5,530.5h-1.4v-7.9h1.4V530.5z"/>
		<path class="st16" d="M97,522.6l0.1,1.2c0.3-0.4,0.6-0.7,1-1c0.4-0.2,0.9-0.3,1.4-0.3c0.9,0,1.5,0.2,2,0.8
			c0.5,0.5,0.7,1.3,0.7,2.3v5h-1.4v-5c0-0.7-0.1-1.2-0.4-1.5s-0.7-0.4-1.3-0.4c-0.4,0-0.8,0.1-1.1,0.3c-0.3,0.2-0.6,0.4-0.7,0.8v5.9
			h-1.4v-7.9H97C97,522.8,97,522.6,97,522.6z"/>
		<path class="st16" d="M109.1,530.5c0-0.2-0.1-0.5-0.1-0.6c0-0.2,0-0.4,0-0.6c-0.3,0.4-0.6,0.7-1.1,1c-0.4,0.3-0.9,0.4-1.4,0.4
			c-0.8,0-1.5-0.2-1.9-0.6c-0.4-0.4-0.6-1-0.6-1.7c0-0.8,0.3-1.3,0.9-1.8c0.6-0.4,1.4-0.6,2.5-0.6h1.6v-0.8c0-0.5-0.1-0.8-0.4-1.1
			c-0.3-0.3-0.7-0.4-1.2-0.4s-0.8,0.1-1.1,0.4s-0.4,0.5-0.4,0.8h-1.4l0,0c0-0.6,0.2-1.1,0.8-1.6s1.3-0.7,2.2-0.7
			c0.9,0,1.6,0.2,2.2,0.7c0.5,0.5,0.8,1.1,0.8,2v3.8c0,0.3,0,0.6,0,0.8s0.1,0.5,0.2,0.8h-1.6V530.5z M106.7,529.4
			c0.5,0,1-0.1,1.4-0.4s0.7-0.6,0.8-0.9v-1.3h-1.6c-0.6,0-1,0.1-1.4,0.4c-0.3,0.3-0.5,0.6-0.5,1s0.1,0.6,0.3,0.8
			S106.3,529.4,106.7,529.4z"/>
		<path class="st16" d="M112.1,526.7c0-1.3,0.3-2.3,0.8-3.1s1.3-1.2,2.3-1.2c0.5,0,0.9,0.1,1.2,0.3c0.4,0.2,0.7,0.4,0.9,0.7V519h1.4
			v11.5h-1.1l-0.2-1c-0.3,0.4-0.6,0.7-1,0.9s-0.8,0.3-1.3,0.3c-1,0-1.7-0.4-2.3-1.1c-0.5-0.7-0.8-1.6-0.8-2.8v-0.1L112.1,526.7
			L112.1,526.7z M113.6,526.8c0,0.8,0.2,1.4,0.5,1.9s0.8,0.7,1.5,0.7c0.4,0,0.8-0.1,1.1-0.3s0.5-0.5,0.7-0.8v-3.7
			c-0.2-0.3-0.4-0.6-0.7-0.8s-0.7-0.3-1.1-0.3c-0.7,0-1.2,0.3-1.5,0.9c-0.3,0.6-0.5,1.3-0.5,2.2V526.8z"/>
		<path class="st16" d="M120.7,526.4c0-1.2,0.3-2.1,1-2.9c0.6-0.8,1.5-1.1,2.6-1.1s2,0.4,2.6,1.1c0.6,0.8,1,1.7,1,2.9v0.2
			c0,1.2-0.3,2.1-1,2.9c-0.6,0.8-1.5,1.1-2.6,1.1s-2-0.4-2.6-1.1c-0.6-0.8-1-1.7-1-2.9V526.4z M122.1,526.6c0,0.8,0.2,1.5,0.5,2.1
			c0.4,0.5,0.9,0.8,1.6,0.8c0.7,0,1.2-0.3,1.6-0.8c0.4-0.5,0.5-1.2,0.5-2.1v-0.2c0-0.8-0.2-1.5-0.5-2.1c-0.4-0.6-0.9-0.8-1.6-0.8
			c-0.7,0-1.2,0.3-1.6,0.8c-0.4,0.6-0.5,1.2-0.5,2.1V526.6z"/>
	</g>
	<g class="st12">
		<path class="st16" d="M60.1,548.2c-0.3,0.4-0.7,0.8-1.3,1.1c-0.6,0.3-1.4,0.5-2.4,0.5c-1.2,0-2.2-0.4-3.1-1.2s-1.2-1.9-1.2-3.2
			v-2.2c0-1.3,0.4-2.3,1.2-3.2s1.8-1.2,3-1.2s2.1,0.3,2.8,0.9c0.7,0.6,1,1.4,1,2.4l0,0h-1.4c0-0.6-0.2-1.2-0.6-1.6
			c-0.4-0.4-1-0.6-1.8-0.6s-1.5,0.3-2,0.9c-0.5,0.6-0.7,1.4-0.7,2.3v2.2c0,0.9,0.3,1.7,0.8,2.3s1.2,0.9,2,0.9c0.6,0,1.1-0.1,1.5-0.2
			c0.4-0.2,0.6-0.4,0.8-0.6v-2.2h-2.4v-1.1h3.9L60.1,548.2L60.1,548.2z"/>
		<path class="st16" d="M67.3,549.7c0-0.2-0.1-0.5-0.1-0.6c0-0.2,0-0.4,0-0.6c-0.3,0.4-0.6,0.7-1.1,1c-0.4,0.3-0.9,0.4-1.4,0.4
			c-0.8,0-1.5-0.2-1.9-0.6c-0.4-0.4-0.6-1-0.6-1.7c0-0.8,0.3-1.3,0.9-1.8c0.6-0.4,1.4-0.6,2.5-0.6h1.6v-0.8c0-0.5-0.1-0.8-0.4-1.1
			s-0.7-0.4-1.2-0.4s-0.8,0.1-1.1,0.4s-0.4,0.5-0.4,0.8h-1.4l0,0c0-0.6,0.2-1.1,0.8-1.6s1.3-0.7,2.2-0.7c0.9,0,1.6,0.2,2.2,0.7
			c0.5,0.5,0.8,1.1,0.8,2v3.8c0,0.3,0,0.6,0,0.8s0.1,0.5,0.2,0.8h-1.6V549.7z M64.9,548.6c0.5,0,1-0.1,1.4-0.4s0.7-0.6,0.8-0.9V546
			h-1.6c-0.6,0-1,0.1-1.4,0.4c-0.3,0.3-0.5,0.6-0.5,1s0.1,0.6,0.3,0.8S64.5,548.6,64.9,548.6z"/>
		<path class="st16" d="M75.3,547.5c0-0.3-0.1-0.6-0.4-0.8c-0.2-0.2-0.7-0.4-1.4-0.5c-0.9-0.2-1.6-0.5-2.1-0.8s-0.8-0.8-0.8-1.5
			c0-0.6,0.3-1.2,0.8-1.7s1.3-0.7,2.1-0.7c0.9,0,1.6,0.2,2.2,0.7s0.8,1.1,0.8,1.7l0,0h-1.4c0-0.3-0.2-0.7-0.5-0.9
			c-0.3-0.3-0.7-0.4-1.1-0.4c-0.5,0-0.9,0.1-1.1,0.3s-0.4,0.5-0.4,0.8s0.1,0.6,0.3,0.7c0.2,0.2,0.7,0.3,1.3,0.5
			c1,0.2,1.7,0.5,2.2,0.9s0.8,0.9,0.8,1.5c0,0.7-0.3,1.3-0.9,1.7s-1.3,0.7-2.2,0.7c-1,0-1.8-0.3-2.4-0.8s-0.9-1.1-0.8-1.8l0,0h1.4
			c0,0.5,0.2,0.9,0.6,1.1c0.4,0.2,0.8,0.4,1.3,0.4s0.9-0.1,1.2-0.3C75.1,548.2,75.3,547.9,75.3,547.5z"/>
	</g>
</g>
<text transform="matrix(1 0 0 1 428.5892 293.1867)" class="st8 st40 st41">Energia Renovable</text>
<text transform="matrix(1 0 0 1 424.2728 548.2599)" class="st6 st40 st41">Energia Convencional</text>
<g>
	<g class="st12">
		<path class="st16" d="M324,119.1h-2v-8.2h-2.1v-1.5l4-0.4v10.1H324z"/>
		<path class="st16" d="M331.2,109c0.4,0,0.7,0,1.1,0.1c0.3,0.1,0.7,0.2,1,0.3l-0.4,1.5c-0.3-0.1-0.6-0.2-0.8-0.2
			c-0.2-0.1-0.5-0.1-0.9-0.1c-0.6,0-1.1,0.2-1.4,0.7s-0.5,1.1-0.5,1.9v0.3c0.3-0.3,0.6-0.5,0.9-0.6c0.4-0.1,0.8-0.2,1.2-0.2
			c0.9,0,1.5,0.3,2,0.9s0.7,1.4,0.7,2.4s-0.3,1.8-0.9,2.4s-1.4,0.9-2.4,0.9s-1.9-0.4-2.5-1.1s-1-1.7-1-2.9v-2.1c0-1.3,0.4-2.3,1.1-3
			C329.1,109.4,330,109,331.2,109z M330.7,114.1c-0.4,0-0.7,0.1-0.9,0.2c-0.3,0.1-0.5,0.3-0.6,0.5v0.5c0,0.8,0.1,1.4,0.4,1.8
			s0.7,0.6,1.1,0.6s0.7-0.2,1-0.5c0.2-0.3,0.4-0.8,0.4-1.3s-0.1-1-0.4-1.3C331.5,114.3,331.2,114.1,330.7,114.1z"/>
		<path class="st16" d="M342,115.5c0,1.2-0.3,2.1-0.9,2.7s-1.4,1-2.4,1s-1.8-0.3-2.5-1s-0.9-1.6-0.9-2.7v-2.7c0-1.2,0.3-2.1,0.9-2.7
			s1.4-1,2.4-1s1.8,0.3,2.4,1s0.9,1.6,0.9,2.7v2.7H342z M340,112.6c0-0.6-0.1-1.1-0.4-1.5s-0.6-0.5-1-0.5s-0.8,0.2-1,0.5
			s-0.4,0.8-0.4,1.5v3.1c0,0.7,0.1,1.2,0.4,1.5c0.2,0.3,0.6,0.5,1,0.5s0.8-0.2,1-0.5s0.4-0.8,0.4-1.5V112.6z"/>
	</g>
</g>
<g>
	<g class="st12">
		<path class="st16" d="M492.7,119.1H486v-1.3l3.1-3.5c0.5-0.5,0.8-1,1-1.4s0.3-0.7,0.3-1c0-0.4-0.1-0.7-0.3-1s-0.5-0.4-0.9-0.4
			s-0.8,0.2-1,0.5s-0.4,0.7-0.4,1.2h-1.9l0,0c0-0.9,0.3-1.6,0.9-2.2s1.4-0.9,2.4-0.9s1.8,0.3,2.4,0.8c0.6,0.5,0.8,1.2,0.8,2.1
			c0,0.6-0.2,1.1-0.5,1.6s-0.9,1.2-1.6,2l-1.6,2l0,0h4.1L492.7,119.1L492.7,119.1z"/>
		<path class="st16" d="M497.8,109c0.4,0,0.7,0,1.1,0.1c0.3,0.1,0.7,0.2,1,0.3l-0.4,1.5c-0.3-0.1-0.6-0.2-0.8-0.2
			c-0.2-0.1-0.5-0.1-0.9-0.1c-0.6,0-1.1,0.2-1.4,0.7s-0.5,1.1-0.5,1.9v0.3c0.3-0.3,0.6-0.5,0.9-0.6c0.4-0.1,0.8-0.2,1.2-0.2
			c0.9,0,1.5,0.3,2,0.9s0.7,1.4,0.7,2.4s-0.3,1.8-0.9,2.4s-1.4,0.9-2.4,0.9s-1.9-0.4-2.5-1.1s-1-1.7-1-2.9v-2.1c0-1.3,0.4-2.3,1.1-3
			C495.8,109.4,496.7,109,497.8,109z M497.4,114.1c-0.4,0-0.7,0.1-0.9,0.2c-0.3,0.1-0.5,0.3-0.6,0.5v0.5c0,0.8,0.1,1.4,0.4,1.8
			s0.7,0.6,1.1,0.6c0.4,0,0.7-0.2,1-0.5c0.2-0.3,0.4-0.8,0.4-1.3s-0.1-1-0.4-1.3C498.2,114.3,497.8,114.1,497.4,114.1z"/>
		<path class="st16" d="M508.8,110.7c-1.1,1.3-1.9,2.5-2.3,3.6c-0.4,1.1-0.6,2.3-0.6,3.6v1.2h-2v-1.2c0-1.4,0.3-2.6,0.8-3.8
			c0.5-1.1,1.2-2.3,2.2-3.4h-5.1v-1.5h7L508.8,110.7L508.8,110.7z"/>
	</g>
</g>
<g>
	<g class="st12">
		<path class="st16" d="M373.8,171.1h-2v-8.2h-2.1v-1.5l4-0.4v10.1L373.8,171.1L373.8,171.1z"/>
		<path class="st16" d="M383.9,162.7c-1.1,1.3-1.9,2.5-2.3,3.6s-0.6,2.3-0.6,3.6v1.2h-2v-1.2c0-1.4,0.3-2.6,0.8-3.8
			c0.5-1.1,1.2-2.3,2.2-3.4h-5.1v-1.5h7V162.7z"/>
		<path class="st16" d="M391.8,167.5c0,1.2-0.3,2.1-0.9,2.7s-1.4,1-2.4,1s-1.8-0.3-2.5-1s-0.9-1.6-0.9-2.7v-2.7
			c0-1.2,0.3-2.1,0.9-2.7s1.4-1,2.4-1s1.8,0.3,2.4,1s0.9,1.6,0.9,2.7v2.7H391.8z M389.9,164.5c0-0.6-0.1-1.1-0.4-1.5s-0.6-0.5-1-0.5
			s-0.8,0.2-1,0.5s-0.4,0.8-0.4,1.5v3.1c0,0.7,0.1,1.2,0.4,1.5c0.2,0.3,0.6,0.5,1,0.5s0.8-0.2,1-0.5s0.4-0.8,0.4-1.5V164.5z"/>
	</g>
</g>
<g>
	<g class="st12">
		<path class="st16" d="M236.3,163.7c0,0.5-0.1,0.9-0.4,1.3c-0.3,0.4-0.6,0.7-1.1,0.9c0.5,0.2,1,0.5,1.3,1c0.3,0.4,0.5,0.9,0.5,1.4
			c0,0.9-0.3,1.6-1,2.2c-0.6,0.5-1.5,0.8-2.5,0.8s-1.9-0.3-2.6-0.8c-0.7-0.5-1-1.2-1-2.2c0-0.5,0.2-1,0.5-1.4s0.8-0.7,1.3-1
			c-0.5-0.2-0.8-0.5-1.1-0.9s-0.4-0.8-0.4-1.3c0-0.9,0.3-1.5,0.9-2c0.6-0.5,1.4-0.7,2.3-0.7c0.9,0,1.7,0.2,2.2,0.7
			C236,162.2,236.3,162.8,236.3,163.7z M234.6,168.2c0-0.4-0.1-0.8-0.4-1.1c-0.3-0.3-0.6-0.4-1-0.4s-0.8,0.1-1.1,0.4
			c-0.3,0.3-0.4,0.6-0.4,1.1s0.1,0.8,0.4,1.1s0.7,0.4,1.1,0.4c0.4,0,0.7-0.1,1-0.4S234.6,168.7,234.6,168.2z M234.3,163.8
			c0-0.4-0.1-0.7-0.3-0.9s-0.5-0.3-0.8-0.3c-0.4,0-0.7,0.1-0.9,0.3s-0.3,0.5-0.3,0.9s0.1,0.7,0.3,1c0.2,0.2,0.5,0.4,0.9,0.4
			c0.3,0,0.6-0.1,0.8-0.4S234.3,164.2,234.3,163.8z"/>
		<path class="st16" d="M242.5,171.1h-2v-8.2h-2.1v-1.5l4-0.4v10.1L242.5,171.1L242.5,171.1z"/>
	</g>
</g>
<g>
	<g class="st12">
		<path class="st16" d="M315.6,378.6h-2v-8.2h-2.1v-1.5l4-0.4v10.1H315.6z"/>
		<path class="st16" d="M319.2,374.2l0.6-5.6h5.6v1.6h-3.9l-0.3,2.3c0.2-0.1,0.4-0.2,0.7-0.3c0.3-0.1,0.6-0.1,0.9-0.1
			c0.9,0,1.6,0.3,2.1,0.9s0.8,1.4,0.8,2.5c0,1-0.3,1.8-0.8,2.4s-1.4,0.9-2.5,0.9c-0.9,0-1.7-0.2-2.4-0.7c-0.7-0.5-1-1.2-0.9-2l0,0
			l1.9-0.1c0,0.4,0.1,0.7,0.4,1s0.6,0.3,1,0.3c0.5,0,0.8-0.2,1-0.5s0.3-0.8,0.3-1.3s-0.1-1-0.4-1.4c-0.2-0.3-0.6-0.5-1.1-0.5
			c-0.4,0-0.7,0.1-0.9,0.2s-0.3,0.3-0.4,0.6L319.2,374.2z"/>
		<path class="st16" d="M333.7,378.6H327v-1.3l3.1-3.5c0.5-0.5,0.8-1,1-1.4s0.3-0.7,0.3-1c0-0.4-0.1-0.7-0.3-1s-0.5-0.4-0.9-0.4
			s-0.8,0.2-1,0.5s-0.4,0.7-0.4,1.2h-1.9l0,0c0-0.9,0.3-1.6,0.9-2.2s1.4-0.9,2.4-0.9s1.8,0.3,2.4,0.8s0.8,1.2,0.8,2.1
			c0,0.6-0.2,1.1-0.5,1.6s-0.9,1.2-1.6,2l-1.6,2l0,0h4.1L333.7,378.6L333.7,378.6z"/>
	</g>
</g>
<g>
	<g class="st12">
		<path class="st16" d="M267.5,430.1h-2v-8.2h-2.1v-1.5l4-0.4v10.1H267.5z"/>
		<path class="st16" d="M275.6,430.1h-2v-8.2h-2.1v-1.5l4-0.4v10.1H275.6z"/>
		<path class="st16" d="M285.6,430.1h-6.7v-1.3l3.1-3.5c0.5-0.5,0.8-1,1-1.4s0.3-0.7,0.3-1c0-0.4-0.1-0.7-0.3-1s-0.5-0.4-0.9-0.4
			s-0.8,0.2-1,0.5s-0.4,0.7-0.4,1.2h-1.9l0,0c0-0.9,0.3-1.6,0.9-2.2s1.4-0.9,2.4-0.9s1.8,0.3,2.4,0.8s0.8,1.2,0.8,2.1
			c0,0.6-0.2,1.1-0.5,1.6s-0.9,1.2-1.6,2l-1.6,2l0,0h4.1L285.6,430.1L285.6,430.1z"/>
	</g>
</g>
<g>
	<g class="st12">
		<path class="st16" d="M207,472.2c0.4,0,0.7,0,1.1,0.1c0.3,0.1,0.7,0.2,1,0.3l-0.4,1.5c-0.3-0.1-0.6-0.2-0.8-0.2
			c-0.2-0.1-0.5-0.1-0.9-0.1c-0.6,0-1.1,0.2-1.4,0.7s-0.5,1.1-0.5,1.9v0.3c0.3-0.3,0.6-0.5,0.9-0.6c0.4-0.1,0.8-0.2,1.2-0.2
			c0.9,0,1.5,0.3,2,0.9s0.7,1.4,0.7,2.4s-0.3,1.8-0.9,2.4s-1.4,0.9-2.4,0.9s-1.9-0.4-2.5-1.1s-1-1.7-1-2.9v-2.1c0-1.3,0.4-2.3,1.1-3
			C204.9,472.6,205.8,472.2,207,472.2z M206.5,477.3c-0.4,0-0.7,0.1-0.9,0.2c-0.3,0.1-0.5,0.3-0.6,0.5v0.5c0,0.8,0.1,1.4,0.4,1.8
			s0.7,0.6,1.1,0.6c0.4,0,0.7-0.2,1-0.5c0.2-0.3,0.4-0.8,0.4-1.3s-0.1-1-0.4-1.3C207.3,477.5,207,477.3,206.5,477.3z"/>
		<path class="st16" d="M217.8,478.7c0,1.2-0.3,2.1-0.9,2.7s-1.4,1-2.4,1s-1.8-0.3-2.5-1s-0.9-1.6-0.9-2.7V476
			c0-1.2,0.3-2.1,0.9-2.7s1.4-1,2.4-1s1.8,0.3,2.4,1s0.9,1.6,0.9,2.7v2.7H217.8z M215.8,475.7c0-0.6-0.1-1.1-0.4-1.5s-0.6-0.5-1-0.5
			s-0.8,0.2-1,0.5s-0.4,0.8-0.4,1.5v3.1c0,0.7,0.1,1.2,0.4,1.5c0.2,0.3,0.6,0.5,1,0.5s0.8-0.2,1-0.5s0.4-0.8,0.4-1.5V475.7z"/>
	</g>
</g>
<g>
	<g class="st12">
		<path class="st16" d="M185.7,529.3h1.1v1.5h-1.1v2.2h-2v-2.2h-4.1l-0.1-1.2l4.1-6.6h2v6.3H185.7z M181.4,529.3h2.3v-3.6l0,0
			l-0.2,0.4L181.4,529.3z"/>
		<path class="st16" d="M192.7,533h-2v-8.2h-2.1v-1.5l4-0.4V533L192.7,533L192.7,533z"/>
	</g>
</g>
<g>
	<g class="st12">
		<path class="st16" d="M256.8,524.6c-1.1,1.3-1.9,2.5-2.3,3.6s-0.6,2.3-0.6,3.6v1.2h-2v-1.2c0-1.4,0.3-2.6,0.8-3.8
			c0.5-1.1,1.2-2.3,2.2-3.4h-5.1v-1.5h7V524.6z"/>
		<path class="st16" d="M263.9,529.3h1.1v1.5h-1.1v2.2h-2v-2.2h-4.1l-0.1-1.2l4.1-6.6h2v6.3H263.9z M259.6,529.3h2.3v-3.6l0,0
			l-0.2,0.4L259.6,529.3z"/>
	</g>
</g>
<g>
	<g class="st12">
		<path class="st16" d="M256.4,601.3c0-0.4-0.1-0.7-0.3-1c-0.2-0.2-0.6-0.5-1.2-0.7c-1.1-0.4-1.9-0.8-2.5-1.3s-0.8-1.2-0.8-2.1
			c0-0.8,0.3-1.5,0.8-2s1.3-0.8,2.2-0.9v-1.6h1.2v1.6c0.9,0.1,1.6,0.5,2.1,1c0.5,0.6,0.7,1.3,0.7,2.2l0,0h-2.1
			c0-0.5-0.1-0.9-0.4-1.2c-0.2-0.3-0.6-0.4-1-0.4c-0.5,0-0.8,0.1-1,0.4s-0.3,0.6-0.3,1s0.1,0.7,0.3,0.9c0.2,0.2,0.6,0.5,1.2,0.7
			c1.1,0.4,1.9,0.8,2.4,1.3s0.8,1.2,0.8,2.1c0,0.8-0.3,1.5-0.8,2s-1.3,0.8-2.2,0.9v1.4h-1.2v-1.4c-0.9-0.1-1.7-0.4-2.3-0.9
			c-0.6-0.5-0.9-1.3-0.9-2.4l0,0h2.1c0,0.6,0.2,1.1,0.5,1.3c0.3,0.3,0.7,0.4,1.2,0.4s0.8-0.1,1.1-0.4
			C256.3,601.9,256.4,601.7,256.4,601.3z"/>
		<path class="st16" d="M261.3,605h-2l3.9-11.6h2.1L261.3,605z"/>
		<path class="st16" d="M271.9,601.3L271.9,601.3l2.8-7.9h2.8v10.7h-2.2v-7.3l0,0l-2.6,7.3h-1.5l-2.6-7.3l0,0v7.3h-2.1v-10.7h2.8
			L271.9,601.3z"/>
		<path class="st16" d="M287.8,600.7L287.8,600.7l1.5-7.2h2.2l-2.5,10.7h-2l-2-7l0,0l-2,7h-2l-2.5-10.7h2.2l1.4,7.2l0,0l1.9-7.2h1.7
			L287.8,600.7z"/>
		<path class="st16" d="M294.6,597.2c0.2-0.4,0.6-0.6,0.9-0.8c0.4-0.2,0.8-0.3,1.2-0.3c0.8,0,1.5,0.3,1.9,0.8
			c0.5,0.5,0.7,1.4,0.7,2.5v4.7h-2.1v-4.7c0-0.6-0.1-1.1-0.3-1.3c-0.2-0.3-0.5-0.4-0.9-0.4c-0.3,0-0.6,0.1-0.9,0.2
			c-0.2,0.1-0.4,0.3-0.6,0.5v5.8h-2.1v-11.4h2.1L294.6,597.2L294.6,597.2z"/>
	</g>
</g>
<g>
	<g class="st12">
		<path class="st16" d="M340,482.3h-2v-8.2h-2.1v-1.5l4-0.4v10.1H340z"/>
		<path class="st16" d="M349.1,478.6h1.1v1.5h-1.1v2.2h-2v-2.2H343l-0.1-1.2l4.1-6.6h2v6.3L349.1,478.6L349.1,478.6z M344.7,478.6
			h2.3V475l0,0l-0.2,0.4L344.7,478.6z"/>
		<path class="st16" d="M354.5,476.4c0.5,0,0.8-0.1,1.1-0.4s0.3-0.6,0.3-1s-0.1-0.7-0.4-0.9s-0.6-0.4-1-0.4s-0.7,0.1-0.9,0.3
			s-0.4,0.5-0.4,0.9h-1.9l0,0c0-0.8,0.3-1.4,0.9-1.9s1.4-0.8,2.3-0.8c1,0,1.8,0.2,2.5,0.7c0.6,0.5,0.9,1.2,0.9,2.1
			c0,0.5-0.1,0.9-0.4,1.3s-0.6,0.7-1.1,0.9c0.5,0.2,0.9,0.5,1.2,0.9c0.3,0.4,0.4,0.9,0.4,1.4c0,0.9-0.3,1.6-1,2.2
			c-0.7,0.5-1.5,0.8-2.5,0.8c-0.9,0-1.7-0.2-2.4-0.7s-1-1.2-1-2.1l0,0h1.9c0,0.4,0.1,0.7,0.4,0.9c0.3,0.3,0.6,0.4,1,0.4
			c0.5,0,0.8-0.1,1.1-0.4s0.4-0.6,0.4-1c0-0.5-0.1-0.9-0.4-1.2c-0.3-0.3-0.7-0.4-1.2-0.4h-1.1v-1.5L354.5,476.4L354.5,476.4z"/>
	</g>
</g>
<g>
	<g class="st12">
		<path class="st16" d="M397.3,430.1h-2v-8.2h-2v-1.5l4-0.4V430.1z"/>
		<path class="st16" d="M407.1,422.8c0,0.5-0.1,0.9-0.4,1.3s-0.6,0.7-1.1,0.9c0.5,0.2,1,0.5,1.3,1c0.3,0.4,0.5,0.9,0.5,1.4
			c0,0.9-0.3,1.6-1,2.2c-0.6,0.5-1.5,0.8-2.5,0.8s-1.9-0.3-2.6-0.8s-1-1.2-1-2.2c0-0.5,0.2-1,0.5-1.4s0.8-0.7,1.3-1
			c-0.5-0.2-0.8-0.5-1.1-0.9c-0.3-0.4-0.4-0.8-0.4-1.3c0-0.9,0.3-1.5,0.9-2s1.4-0.7,2.3-0.7s1.7,0.2,2.2,0.7
			C406.9,421.2,407.1,421.9,407.1,422.8z M405.5,427.3c0-0.4-0.1-0.8-0.4-1.1c-0.3-0.3-0.6-0.4-1-0.4s-0.8,0.1-1.1,0.4
			c-0.3,0.3-0.4,0.6-0.4,1.1s0.1,0.8,0.4,1.1s0.7,0.4,1.1,0.4s0.7-0.1,1-0.4S405.5,427.7,405.5,427.3z M405.2,422.9
			c0-0.4-0.1-0.7-0.3-0.9c-0.2-0.2-0.5-0.3-0.8-0.3c-0.4,0-0.7,0.1-0.9,0.3c-0.2,0.2-0.3,0.5-0.3,0.9s0.1,0.7,0.3,1
			c0.2,0.2,0.5,0.4,0.9,0.4c0.3,0,0.6-0.1,0.8-0.4S405.2,423.3,405.2,422.9z"/>
		<path class="st16" d="M411.6,428.8c0.5,0,0.9-0.2,1.2-0.6c0.3-0.4,0.5-0.9,0.5-1.6V426c-0.2,0.3-0.5,0.5-0.8,0.6s-0.6,0.2-1,0.2
			c-0.9,0-1.7-0.3-2.2-0.9s-0.8-1.4-0.8-2.5c0-1,0.3-1.8,0.9-2.5s1.4-1,2.4-1s1.8,0.3,2.5,1s1,1.6,1,2.8v2.7c0,1.1-0.3,2.1-1,2.7
			s-1.6,1-2.6,1c-0.3,0-0.7,0-1.1-0.1s-0.7-0.2-1-0.3l0.3-1.4c0.3,0.1,0.6,0.2,0.8,0.3S411.2,428.8,411.6,428.8z M411.8,425.4
			c0.3,0,0.6-0.1,0.9-0.2s0.4-0.3,0.6-0.5v-1.2c0-0.6-0.1-1.1-0.4-1.4s-0.6-0.5-1-0.5s-0.7,0.2-1,0.6c-0.2,0.4-0.4,0.8-0.4,1.4
			s0.1,1,0.3,1.4S411.4,425.4,411.8,425.4z"/>
	</g>
</g>
<g>
	<g class="st12">
		<path class="st16" d="M417.9,378.6h-6.7v-1.3l3.1-3.5c0.5-0.5,0.8-1,1-1.4s0.3-0.7,0.3-1c0-0.4-0.1-0.7-0.3-1s-0.5-0.4-0.9-0.4
			s-0.8,0.2-1,0.5s-0.4,0.7-0.4,1.2h-1.9l0,0c0-0.9,0.3-1.6,0.9-2.2s1.4-0.9,2.4-0.9s1.8,0.3,2.4,0.8s0.8,1.2,0.8,2.1
			c0,0.6-0.2,1.1-0.5,1.6s-0.9,1.2-1.6,2l-1.6,2l0,0h4.1L417.9,378.6L417.9,378.6z"/>
		<path class="st16" d="M425.9,375c0,1.2-0.3,2.1-0.9,2.7s-1.4,1-2.4,1s-1.8-0.3-2.5-1s-0.9-1.6-0.9-2.7v-2.7c0-1.2,0.3-2.1,0.9-2.7
			s1.4-1,2.4-1s1.8,0.3,2.4,1s0.9,1.6,0.9,2.7v2.7H425.9z M423.9,372c0-0.6-0.1-1.1-0.4-1.5s-0.6-0.5-1-0.5s-0.8,0.2-1,0.5
			s-0.4,0.8-0.4,1.5v3.1c0,0.7,0.1,1.2,0.4,1.5c0.2,0.3,0.6,0.5,1,0.5s0.8-0.2,1-0.5s0.4-0.8,0.4-1.5V372z"/>
		<path class="st16" d="M431.1,368.5c0.4,0,0.7,0,1.1,0.1c0.3,0.1,0.7,0.2,1,0.3l-0.4,1.5c-0.3-0.1-0.6-0.2-0.8-0.2
			c-0.2-0.1-0.5-0.1-0.9-0.1c-0.6,0-1.1,0.2-1.4,0.7s-0.5,1.1-0.5,1.9v0.3c0.3-0.3,0.6-0.5,0.9-0.6c0.4-0.1,0.8-0.2,1.2-0.2
			c0.9,0,1.5,0.3,2,0.9s0.7,1.4,0.7,2.4s-0.3,1.8-0.9,2.4s-1.4,0.9-2.4,0.9s-1.9-0.4-2.5-1.1s-1-1.7-1-2.9v-2.1c0-1.3,0.4-2.3,1.1-3
			C429,368.8,429.9,368.5,431.1,368.5z M430.7,373.6c-0.4,0-0.7,0.1-0.9,0.2c-0.3,0.1-0.5,0.3-0.6,0.5v0.5c0,0.8,0.1,1.4,0.4,1.8
			s0.7,0.6,1.1,0.6s0.7-0.2,1-0.5c0.2-0.3,0.4-0.8,0.4-1.3s-0.1-1-0.4-1.3C431.4,373.7,431.1,373.6,430.7,373.6z"/>
	</g>
</g>
<g>
	<g class="st12">
		<path class="st16" d="M176.2,216.7c0.5,0,0.8-0.1,1.1-0.4s0.3-0.6,0.3-1s-0.1-0.7-0.4-0.9s-0.6-0.4-1-0.4s-0.7,0.1-0.9,0.3
			s-0.4,0.5-0.4,0.9H173l0,0c0-0.8,0.3-1.4,0.9-1.9s1.4-0.8,2.3-0.8c1,0,1.8,0.2,2.5,0.7c0.6,0.5,0.9,1.2,0.9,2.1
			c0,0.5-0.1,0.9-0.4,1.3c-0.3,0.4-0.6,0.7-1.1,0.9c0.5,0.2,0.9,0.5,1.2,0.9s0.4,0.9,0.4,1.4c0,0.9-0.3,1.6-1,2.2
			c-0.7,0.5-1.5,0.8-2.5,0.8c-0.9,0-1.7-0.2-2.4-0.7s-1-1.2-1-2.1l0,0h1.9c0,0.4,0.1,0.7,0.4,0.9c0.3,0.3,0.6,0.4,1,0.4
			c0.5,0,0.8-0.1,1.1-0.4s0.4-0.6,0.4-1c0-0.5-0.1-0.9-0.4-1.2c-0.3-0.3-0.7-0.4-1.2-0.4h-1.1v-1.5h1.3L176.2,216.7L176.2,216.7z"/>
		<path class="st16" d="M184.8,212.5c0.4,0,0.7,0,1.1,0.1c0.3,0.1,0.7,0.2,1,0.3l-0.4,1.5c-0.3-0.1-0.6-0.2-0.8-0.2
			c-0.2-0.1-0.5-0.1-0.9-0.1c-0.6,0-1.1,0.2-1.4,0.7s-0.5,1.1-0.5,1.9v0.3c0.3-0.3,0.6-0.5,0.9-0.6c0.4-0.1,0.8-0.2,1.2-0.2
			c0.9,0,1.5,0.3,2,0.9c0.5,0.6,0.7,1.4,0.7,2.4s-0.3,1.8-0.9,2.4s-1.4,0.9-2.4,0.9s-1.9-0.4-2.5-1.1s-1-1.7-1-2.9v-2.1
			c0-1.3,0.4-2.3,1.1-3C182.8,212.8,183.7,212.5,184.8,212.5z M184.4,217.6c-0.4,0-0.7,0.1-0.9,0.2c-0.3,0.1-0.5,0.3-0.6,0.5v0.5
			c0,0.8,0.1,1.4,0.4,1.8s0.7,0.6,1.1,0.6c0.4,0,0.7-0.2,1-0.5c0.2-0.3,0.4-0.8,0.4-1.3s-0.1-1-0.4-1.3
			C185.2,217.7,184.8,217.6,184.4,217.6z"/>
	</g>
</g>
<g>
	<g class="st12">
		<path class="st16" d="M169.2,266.5c0.5,0,0.8-0.1,1.1-0.4s0.3-0.6,0.3-1s-0.1-0.7-0.4-0.9s-0.6-0.4-1-0.4s-0.7,0.1-0.9,0.3
			s-0.4,0.5-0.4,0.9H166l0,0c0-0.8,0.3-1.4,0.9-1.9s1.4-0.8,2.3-0.8c1,0,1.8,0.2,2.5,0.7c0.6,0.5,0.9,1.2,0.9,2.1
			c0,0.5-0.1,0.9-0.4,1.3c-0.3,0.4-0.6,0.7-1.1,0.9c0.5,0.2,0.9,0.5,1.2,0.9s0.4,0.9,0.4,1.4c0,0.9-0.3,1.6-1,2.2
			c-0.7,0.5-1.5,0.8-2.5,0.8c-0.9,0-1.7-0.2-2.4-0.7s-1-1.2-1-2.1l0,0h1.9c0,0.4,0.1,0.7,0.4,0.9c0.3,0.3,0.6,0.4,1,0.4
			c0.5,0,0.8-0.1,1.1-0.4s0.4-0.6,0.4-1c0-0.5-0.1-0.9-0.4-1.2c-0.3-0.3-0.7-0.4-1.2-0.4h-1.1v-1.6H169.2z"/>
		<path class="st16" d="M180.8,272.4h-6.7v-1.3l3.1-3.5c0.5-0.5,0.8-1,1-1.4s0.3-0.7,0.3-1c0-0.4-0.1-0.7-0.3-1s-0.5-0.4-0.9-0.4
			s-0.8,0.2-1,0.5s-0.4,0.7-0.4,1.2H174l0,0c0-0.9,0.3-1.6,0.9-2.2c0.6-0.6,1.4-0.9,2.4-0.9s1.8,0.3,2.4,0.8
			c0.6,0.5,0.8,1.2,0.8,2.1c0,0.6-0.2,1.1-0.5,1.6s-0.9,1.2-1.6,2l-1.6,2l0,0h4.1v1.5L180.8,272.4L180.8,272.4z"/>
	</g>
</g>
<g>
	<g class="st12">
		<path class="st16" d="M227.3,268l0.6-5.6h5.6v1.6h-3.9l-0.3,2.3c0.2-0.1,0.4-0.2,0.7-0.3c0.3-0.1,0.6-0.1,0.9-0.1
			c0.9,0,1.6,0.3,2.1,0.9s0.8,1.4,0.8,2.5c0,1-0.3,1.8-0.8,2.4s-1.4,0.9-2.5,0.9c-0.9,0-1.7-0.2-2.4-0.7s-1-1.2-0.9-2l0,0l1.9-0.1
			c0,0.4,0.1,0.7,0.4,1s0.6,0.3,1,0.3c0.5,0,0.8-0.2,1-0.5s0.3-0.8,0.3-1.3s-0.1-1-0.4-1.4c-0.2-0.3-0.6-0.5-1.1-0.5
			c-0.4,0-0.7,0.1-0.9,0.2s-0.3,0.3-0.4,0.6L227.3,268z"/>
		<path class="st16" d="M239,262.3c0.4,0,0.7,0,1.1,0.1c0.3,0.1,0.7,0.2,1,0.3l-0.4,1.5c-0.3-0.1-0.6-0.2-0.8-0.2
			c-0.2-0.1-0.5-0.1-0.9-0.1c-0.6,0-1.1,0.2-1.4,0.7s-0.5,1.1-0.5,1.9v0.3c0.3-0.3,0.6-0.5,0.9-0.6c0.4-0.1,0.8-0.2,1.2-0.2
			c0.9,0,1.5,0.3,2,0.9s0.7,1.4,0.7,2.4s-0.3,1.8-0.9,2.4s-1.4,0.9-2.4,0.9s-1.9-0.4-2.5-1.1s-1-1.7-1-2.9v-2.1c0-1.3,0.4-2.3,1.1-3
			C236.9,262.7,237.8,262.3,239,262.3z M238.5,267.4c-0.4,0-0.7,0.1-0.9,0.2c-0.3,0.1-0.5,0.3-0.6,0.5v0.5c0,0.8,0.1,1.4,0.4,1.8
			s0.7,0.6,1.1,0.6s0.7-0.2,1-0.5c0.2-0.3,0.4-0.8,0.4-1.3s-0.1-1-0.4-1.3C239.3,267.6,239,267.4,238.5,267.4z"/>
	</g>
</g>
<g>
	<g class="st12">
		<path class="st16" d="M154.3,574.1c0,0.9-0.2,1.6-0.7,2.2c-0.5,0.5-1.1,0.8-1.9,0.8c-0.8,0-1.4-0.3-1.9-0.8s-0.7-1.2-0.7-2.2v-2.4
			c0-0.9,0.2-1.6,0.7-2.1s1.1-0.8,1.9-0.8c0.8,0,1.4,0.3,1.9,0.8s0.7,1.2,0.7,2.1V574.1z M153.2,571.5c0-0.6-0.1-1-0.4-1.4
			s-0.6-0.5-1.1-0.5s-0.8,0.2-1.1,0.5s-0.4,0.8-0.4,1.4v2.8c0,0.6,0.1,1,0.4,1.4c0.3,0.3,0.6,0.5,1.1,0.5s0.8-0.2,1.1-0.5
			s0.4-0.8,0.4-1.4V571.5z"/>
	</g>
</g>
<g>
	<g class="st12">
		<path class="st16" d="M206.6,573.4l0.5-4.5h4v1H208l-0.3,2.3c0.2-0.1,0.4-0.2,0.6-0.3c0.2-0.1,0.4-0.1,0.7-0.1
			c0.7,0,1.3,0.2,1.7,0.7s0.6,1.1,0.6,1.9c0,0.8-0.2,1.5-0.6,1.9c-0.4,0.5-1.1,0.7-1.9,0.7c-0.7,0-1.2-0.2-1.7-0.6
			c-0.5-0.4-0.7-0.9-0.6-1.6l0,0h1c0,0.4,0.1,0.8,0.4,1c0.3,0.2,0.6,0.4,1,0.4c0.5,0,0.8-0.2,1.1-0.5s0.4-0.8,0.4-1.3
			s-0.1-0.9-0.4-1.2c-0.3-0.3-0.6-0.5-1.1-0.5c-0.4,0-0.7,0.1-0.9,0.2c-0.2,0.1-0.3,0.3-0.4,0.6L206.6,573.4z"/>
		<path class="st16" d="M217.7,574.1c0,0.9-0.2,1.6-0.7,2.2c-0.5,0.5-1.1,0.8-1.9,0.8c-0.8,0-1.4-0.3-1.9-0.8s-0.7-1.2-0.7-2.2v-2.4
			c0-0.9,0.2-1.6,0.7-2.1s1.1-0.8,1.9-0.8c0.8,0,1.4,0.3,1.9,0.8s0.7,1.2,0.7,2.1V574.1z M216.6,571.5c0-0.6-0.1-1-0.4-1.4
			s-0.6-0.5-1.1-0.5s-0.8,0.2-1.1,0.5s-0.4,0.8-0.4,1.4v2.8c0,0.6,0.1,1,0.4,1.4c0.3,0.3,0.6,0.5,1.1,0.5s0.8-0.2,1.1-0.5
			s0.4-0.8,0.4-1.4V571.5z"/>
	</g>
</g>
<g>
	<g class="st12">
		<path class="st16" d="M269.5,576.9h-1.1v-7h-1.7v-0.8l2.8-0.3L269.5,576.9L269.5,576.9z"/>
		<path class="st16" d="M277.6,574.1c0,0.9-0.2,1.6-0.7,2.2c-0.5,0.5-1.1,0.8-1.9,0.8s-1.4-0.3-1.9-0.8s-0.7-1.2-0.7-2.2v-2.4
			c0-0.9,0.2-1.6,0.7-2.1s1.1-0.8,1.9-0.8s1.4,0.3,1.9,0.8s0.7,1.2,0.7,2.1V574.1z M276.5,571.5c0-0.6-0.1-1-0.4-1.4
			s-0.6-0.5-1.1-0.5s-0.8,0.2-1.1,0.5c-0.3,0.3-0.4,0.8-0.4,1.4v2.8c0,0.6,0.1,1,0.4,1.4c0.3,0.3,0.6,0.5,1.1,0.5s0.8-0.2,1.1-0.5
			c0.3-0.3,0.4-0.8,0.4-1.4V571.5z"/>
		<path class="st16" d="M284,574.1c0,0.9-0.2,1.6-0.7,2.2c-0.5,0.5-1.1,0.8-1.9,0.8s-1.4-0.3-1.9-0.8s-0.7-1.2-0.7-2.2v-2.4
			c0-0.9,0.2-1.6,0.7-2.1s1.1-0.8,1.9-0.8s1.4,0.3,1.9,0.8s0.7,1.2,0.7,2.1V574.1z M282.9,571.5c0-0.6-0.1-1-0.4-1.4
			s-0.6-0.5-1.1-0.5s-0.8,0.2-1.1,0.5c-0.3,0.3-0.4,0.8-0.4,1.4v2.8c0,0.6,0.1,1,0.4,1.4c0.3,0.3,0.6,0.5,1.1,0.5s0.8-0.2,1.1-0.5
			c0.3-0.3,0.4-0.8,0.4-1.4V571.5z"/>
	</g>
</g>
<g>
	<g class="st12">
		<path class="st16" d="M331.6,576.9h-1.1v-7h-1.7v-0.8l2.8-0.3L331.6,576.9L331.6,576.9z"/>
		<path class="st16" d="M335,573.4l0.5-4.5h4v1h-3.1l-0.3,2.3c0.2-0.1,0.4-0.2,0.6-0.3s0.4-0.1,0.7-0.1c0.7,0,1.3,0.2,1.7,0.7
			s0.6,1.1,0.6,1.9c0,0.8-0.2,1.5-0.6,1.9c-0.4,0.5-1.1,0.7-1.9,0.7c-0.7,0-1.2-0.2-1.7-0.6c-0.5-0.4-0.7-0.9-0.6-1.6l0,0h1
			c0,0.4,0.1,0.8,0.4,1s0.6,0.4,1,0.4c0.5,0,0.8-0.2,1.1-0.5c0.3-0.3,0.4-0.8,0.4-1.3s-0.1-0.9-0.4-1.2s-0.6-0.5-1.1-0.5
			c-0.4,0-0.7,0.1-0.9,0.2c-0.2,0.1-0.3,0.3-0.4,0.6L335,573.4z"/>
		<path class="st16" d="M346.1,574.1c0,0.9-0.2,1.6-0.7,2.2c-0.5,0.5-1.1,0.8-1.9,0.8s-1.4-0.3-1.9-0.8s-0.7-1.2-0.7-2.2v-2.4
			c0-0.9,0.2-1.6,0.7-2.1s1.1-0.8,1.9-0.8s1.4,0.3,1.9,0.8s0.7,1.2,0.7,2.1V574.1z M345,571.5c0-0.6-0.1-1-0.4-1.4s-0.6-0.5-1.1-0.5
			s-0.8,0.2-1.1,0.5c-0.3,0.3-0.4,0.8-0.4,1.4v2.8c0,0.6,0.1,1,0.4,1.4c0.3,0.3,0.6,0.5,1.1,0.5s0.8-0.2,1.1-0.5
			c0.3-0.3,0.4-0.8,0.4-1.4V571.5z"/>
	</g>
</g>
<g>
	<g class="st12">
		<path class="st16" d="M392.8,576.9h-5v-0.7l2.5-3c0.4-0.5,0.8-1,0.9-1.3s0.2-0.6,0.2-1s-0.1-0.7-0.3-0.9c-0.2-0.2-0.5-0.4-0.9-0.4
			c-0.5,0-0.8,0.1-1.1,0.4c-0.2,0.3-0.4,0.7-0.4,1.1h-1l0,0c0-0.7,0.2-1.2,0.7-1.7s1.1-0.7,1.9-0.7c0.7,0,1.3,0.2,1.7,0.6
			s0.6,0.9,0.6,1.5c0,0.4-0.1,0.8-0.3,1.2c-0.2,0.4-0.6,0.9-1.1,1.5l-2,2.4l0,0h3.6L392.8,576.9L392.8,576.9z"/>
		<path class="st16" d="M399.1,574.1c0,0.9-0.2,1.6-0.7,2.2c-0.5,0.5-1.1,0.8-1.9,0.8s-1.4-0.3-1.9-0.8s-0.7-1.2-0.7-2.2v-2.4
			c0-0.9,0.2-1.6,0.7-2.1s1.1-0.8,1.9-0.8s1.4,0.3,1.9,0.8s0.7,1.2,0.7,2.1V574.1z M398,571.5c0-0.6-0.1-1-0.4-1.4s-0.6-0.5-1.1-0.5
			s-0.8,0.2-1.1,0.5c-0.3,0.3-0.4,0.8-0.4,1.4v2.8c0,0.6,0.1,1,0.4,1.4c0.3,0.3,0.6,0.5,1.1,0.5s0.8-0.2,1.1-0.5
			c0.3-0.3,0.4-0.8,0.4-1.4V571.5z"/>
		<path class="st16" d="M405.4,574.1c0,0.9-0.2,1.6-0.7,2.2c-0.5,0.5-1.1,0.8-1.9,0.8s-1.4-0.3-1.9-0.8s-0.7-1.2-0.7-2.2v-2.4
			c0-0.9,0.2-1.6,0.7-2.1s1.1-0.8,1.9-0.8s1.4,0.3,1.9,0.8s0.7,1.2,0.7,2.1V574.1z M404.4,571.5c0-0.6-0.1-1-0.4-1.4
			s-0.6-0.5-1.1-0.5s-0.8,0.2-1.1,0.5c-0.3,0.3-0.4,0.8-0.4,1.4v2.8c0,0.6,0.1,1,0.4,1.4c0.3,0.3,0.6,0.5,1.1,0.5s0.8-0.2,1.1-0.5
			c0.3-0.3,0.4-0.8,0.4-1.4V571.5z"/>
	</g>
</g>
<g>
	<g class="st12">
		<path class="st16" d="M454.4,576.9h-5v-0.7l2.5-3c0.4-0.5,0.8-1,0.9-1.3s0.2-0.6,0.2-1s-0.1-0.7-0.3-0.9c-0.2-0.2-0.5-0.4-0.9-0.4
			c-0.5,0-0.8,0.1-1.1,0.4c-0.2,0.3-0.4,0.7-0.4,1.1h-1l0,0c0-0.7,0.2-1.2,0.7-1.7s1.1-0.7,1.9-0.7c0.7,0,1.3,0.2,1.7,0.6
			s0.6,0.9,0.6,1.5c0,0.4-0.1,0.8-0.3,1.2c-0.2,0.4-0.6,0.9-1.1,1.5l-2,2.4l0,0h3.6L454.4,576.9L454.4,576.9z"/>
		<path class="st16" d="M455.9,573.4l0.5-4.5h4v1h-3.1l-0.3,2.3c0.2-0.1,0.4-0.2,0.6-0.3s0.4-0.1,0.7-0.1c0.7,0,1.3,0.2,1.7,0.7
			s0.6,1.1,0.6,1.9c0,0.8-0.2,1.5-0.6,1.9c-0.4,0.5-1.1,0.7-1.9,0.7c-0.7,0-1.2-0.2-1.7-0.6c-0.5-0.4-0.7-0.9-0.6-1.6l0,0h1
			c0,0.4,0.1,0.8,0.4,1s0.6,0.4,1,0.4c0.5,0,0.8-0.2,1.1-0.5c0.3-0.3,0.4-0.8,0.4-1.3s-0.1-0.9-0.4-1.2s-0.6-0.5-1.1-0.5
			c-0.4,0-0.7,0.1-0.9,0.2c-0.2,0.1-0.3,0.3-0.4,0.6L455.9,573.4z"/>
		<path class="st16" d="M467,574.1c0,0.9-0.2,1.6-0.7,2.2c-0.5,0.5-1.1,0.8-1.9,0.8s-1.4-0.3-1.9-0.8s-0.7-1.2-0.7-2.2v-2.4
			c0-0.9,0.2-1.6,0.7-2.1s1.1-0.8,1.9-0.8s1.4,0.3,1.9,0.8s0.7,1.2,0.7,2.1V574.1z M465.9,571.5c0-0.6-0.1-1-0.4-1.4
			s-0.6-0.5-1.1-0.5s-0.8,0.2-1.1,0.5c-0.3,0.3-0.4,0.8-0.4,1.4v2.8c0,0.6,0.1,1,0.4,1.4c0.3,0.3,0.6,0.5,1.1,0.5s0.8-0.2,1.1-0.5
			c0.3-0.3,0.4-0.8,0.4-1.4V571.5z"/>
	</g>
</g>
<g>
	<g class="st12">
		<path class="st16" d="M513.9,572.4c0.5,0,0.8-0.1,1-0.4c0.2-0.2,0.3-0.6,0.3-1s-0.1-0.7-0.3-1c-0.2-0.2-0.5-0.4-1-0.4
			c-0.4,0-0.8,0.1-1,0.4s-0.4,0.6-0.4,1h-1l0,0c0-0.6,0.2-1.1,0.7-1.5s1.1-0.6,1.8-0.6s1.3,0.2,1.8,0.6s0.6,0.9,0.6,1.7
			c0,0.4-0.1,0.7-0.3,1s-0.5,0.5-0.8,0.7c0.4,0.2,0.7,0.4,0.9,0.7s0.3,0.7,0.3,1.2c0,0.7-0.2,1.3-0.7,1.7s-1.1,0.6-1.8,0.6
			s-1.3-0.2-1.8-0.6c-0.5-0.4-0.8-0.9-0.8-1.6l0,0h1c0,0.4,0.1,0.7,0.4,1c0.3,0.3,0.6,0.4,1.1,0.4c0.4,0,0.8-0.1,1-0.4
			c0.3-0.3,0.4-0.6,0.4-1.1s-0.1-0.9-0.3-1.1c-0.2-0.2-0.6-0.4-1.1-0.4H513v-0.8L513.9,572.4L513.9,572.4L513.9,572.4z"/>
		<path class="st16" d="M522.8,574.1c0,0.9-0.2,1.6-0.7,2.2c-0.5,0.5-1.1,0.8-1.9,0.8c-0.8,0-1.4-0.3-1.9-0.8s-0.7-1.2-0.7-2.2v-2.4
			c0-0.9,0.2-1.6,0.7-2.1s1.1-0.8,1.9-0.8c0.8,0,1.4,0.3,1.9,0.8s0.7,1.2,0.7,2.1V574.1z M521.7,571.5c0-0.6-0.1-1-0.4-1.4
			s-0.6-0.5-1.1-0.5s-0.8,0.2-1.1,0.5s-0.4,0.8-0.4,1.4v2.8c0,0.6,0.1,1,0.4,1.4c0.3,0.3,0.6,0.5,1.1,0.5s0.8-0.2,1.1-0.5
			s0.4-0.8,0.4-1.4V571.5z"/>
		<path class="st16" d="M529.2,574.1c0,0.9-0.2,1.6-0.7,2.2c-0.5,0.5-1.1,0.8-1.9,0.8c-0.8,0-1.4-0.3-1.9-0.8s-0.7-1.2-0.7-2.2v-2.4
			c0-0.9,0.2-1.6,0.7-2.1s1.1-0.8,1.9-0.8c0.8,0,1.4,0.3,1.9,0.8s0.7,1.2,0.7,2.1V574.1z M528.1,571.5c0-0.6-0.1-1-0.4-1.4
			s-0.6-0.5-1.1-0.5s-0.8,0.2-1.1,0.5s-0.4,0.8-0.4,1.4v2.8c0,0.6,0.1,1,0.4,1.4c0.3,0.3,0.6,0.5,1.1,0.5s0.8-0.2,1.1-0.5
			s0.4-0.8,0.4-1.4V571.5z"/>
	</g>
</g>
<g>
	<g class="st12">
		<path class="st16" d="M217.9,218.8h1.1v1.5h-1.1v2.2h-2v-2.2h-4.1l-0.1-1.2l4.1-6.6h2v6.3H217.9z M213.6,218.8h2.3v-3.6l0,0
			l-0.2,0.4L213.6,218.8z"/>
		<path class="st16" d="M226.8,218.9c0,1.2-0.3,2.1-0.9,2.7s-1.4,1-2.4,1s-1.8-0.3-2.5-1s-0.9-1.6-0.9-2.7v-2.7
			c0-1.2,0.3-2.1,0.9-2.7s1.4-1,2.4-1s1.8,0.3,2.4,1s0.9,1.6,0.9,2.7v2.7H226.8z M224.8,216c0-0.6-0.1-1.1-0.4-1.5s-0.6-0.5-1-0.5
			s-0.8,0.2-1,0.5s-0.4,0.8-0.4,1.5v3.1c0,0.7,0.1,1.2,0.4,1.5c0.2,0.3,0.6,0.5,1,0.5s0.8-0.2,1-0.5s0.4-0.8,0.4-1.5V216z"/>
	</g>
</g>
<g>
	<g class="st12">
		<path class="st16" d="M44.2,160.4c0-0.5-0.2-0.9-0.5-1.2s-1-0.6-1.8-0.8c-1.1-0.3-1.9-0.7-2.5-1.2s-0.9-1.2-0.9-2s0.3-1.5,1-2.1
			s1.5-0.8,2.5-0.8c1.1,0,2,0.3,2.7,1c0.7,0.6,1,1.4,1,2.2l0,0h-1.4c0-0.6-0.2-1.1-0.6-1.5s-1-0.6-1.6-0.6c-0.7,0-1.2,0.2-1.5,0.5
			c-0.4,0.3-0.5,0.8-0.5,1.3s0.2,0.9,0.6,1.2c0.4,0.3,1,0.6,1.9,0.8c1.1,0.3,1.9,0.7,2.5,1.2s0.8,1.2,0.8,2c0,0.9-0.3,1.6-1,2.1
			s-1.6,0.8-2.6,0.8s-1.9-0.3-2.7-0.9c-0.8-0.6-1.2-1.3-1.1-2.3l0,0h1.4c0,0.7,0.3,1.2,0.8,1.5c0.5,0.4,1.1,0.5,1.7,0.5
			c0.7,0,1.2-0.2,1.6-0.5C44,161.4,44.2,160.9,44.2,160.4z"/>
		<path class="st16" d="M47.2,159.1c0-1.2,0.3-2.1,1-2.9c0.6-0.8,1.5-1.1,2.6-1.1s2,0.4,2.6,1.1c0.6,0.8,1,1.7,1,2.9v0.2
			c0,1.2-0.3,2.1-1,2.9c-0.6,0.8-1.5,1.1-2.6,1.1s-2-0.4-2.6-1.1c-0.6-0.8-1-1.7-1-2.9V159.1z M48.6,159.2c0,0.8,0.2,1.5,0.5,2.1
			c0.4,0.5,0.9,0.8,1.6,0.8s1.2-0.3,1.6-0.8s0.5-1.2,0.5-2.1V159c0-0.8-0.2-1.5-0.5-2.1c-0.4-0.6-0.9-0.8-1.6-0.8s-1.2,0.3-1.6,0.8
			c-0.4,0.6-0.5,1.2-0.5,2.1V159.2z"/>
		<path class="st16" d="M57.6,163.1h-1.4v-11.4h1.4V163.1z"/>
		<path class="st16" d="M64.7,163.1c0-0.2-0.1-0.5-0.1-0.6c0-0.2,0-0.4,0-0.6c-0.3,0.4-0.6,0.7-1.1,1c-0.4,0.3-0.9,0.4-1.4,0.4
			c-0.8,0-1.5-0.2-1.9-0.6c-0.4-0.4-0.6-1-0.6-1.7c0-0.8,0.3-1.3,0.9-1.8c0.6-0.4,1.4-0.6,2.5-0.6h1.6v-0.8c0-0.5-0.1-0.8-0.4-1.1
			s-0.7-0.4-1.2-0.4s-0.8,0.1-1.1,0.4s-0.4,0.5-0.4,0.8h-1.4l0,0c0-0.6,0.2-1.1,0.8-1.6s1.3-0.7,2.2-0.7c0.9,0,1.6,0.2,2.2,0.7
			c0.5,0.5,0.8,1.1,0.8,2v3.8c0,0.3,0,0.6,0,0.8s0.1,0.5,0.2,0.8h-1.6V163.1z M62.3,162.1c0.5,0,1-0.1,1.4-0.4s0.7-0.6,0.8-0.9v-1.3
			h-1.6c-0.6,0-1,0.1-1.4,0.4c-0.3,0.3-0.5,0.6-0.5,1s0.1,0.6,0.3,0.8S61.9,162.1,62.3,162.1z"/>
		<path class="st16" d="M71.8,156.5h-0.7c-0.4,0-0.7,0.1-1,0.3s-0.5,0.4-0.6,0.8v5.7h-1.4v-7.9h1.3l0.1,1.2c0.2-0.4,0.5-0.7,0.8-1
			c0.3-0.2,0.7-0.3,1.1-0.3c0.1,0,0.2,0,0.3,0c0.1,0,0.2,0,0.2,0.1L71.8,156.5z"/>
		<path class="st16" d="M78.7,158.8v4.3h-1.4v-10.7h4.1c1.1,0,2,0.3,2.7,0.9s0.9,1.4,0.9,2.3c0,1-0.3,1.7-0.9,2.3s-1.5,0.9-2.7,0.9
			H78.7z M78.7,157.7h2.6c0.7,0,1.3-0.2,1.6-0.6c0.4-0.4,0.5-0.9,0.5-1.5s-0.2-1.1-0.5-1.5c-0.4-0.4-0.9-0.6-1.6-0.6h-2.6V157.7z"/>
		<path class="st16" d="M90,160.3l0.2,0.9l0,0l0.2-0.9l2.8-7.9h1.6l-4,10.7h-1.2l-4-10.7h1.6L90,160.3z"/>
		<path class="st16" d="M100.3,159.2H96v-1.1h4.3V159.2z"/>
	</g>
	<g class="st12">
		<path class="st16" d="M40.1,182.3h-1.5v-10.7h1.5V182.3z"/>
		<path class="st16" d="M43.9,174.4l0.1,1.2c0.3-0.4,0.6-0.7,1-1c0.4-0.2,0.9-0.3,1.4-0.3c0.9,0,1.5,0.2,2,0.8
			c0.5,0.5,0.7,1.3,0.7,2.3v5h-1.4v-5c0-0.7-0.1-1.2-0.4-1.5s-0.7-0.4-1.3-0.4c-0.4,0-0.8,0.1-1.1,0.3c-0.3,0.2-0.6,0.4-0.7,0.8v5.9
			h-1.4v-7.9h1.1C43.9,174.6,43.9,174.4,43.9,174.4z"/>
		<path class="st16" d="M50.8,178.5c0-1.3,0.3-2.3,0.8-3.1s1.3-1.2,2.3-1.2c0.5,0,0.9,0.1,1.2,0.3c0.4,0.2,0.7,0.4,0.9,0.7v-4.4h1.4
			v11.4h-1.1l-0.2-1c-0.3,0.4-0.6,0.7-1,0.9s-0.8,0.3-1.3,0.3c-1,0-1.7-0.4-2.3-1.1C51,180.6,50.7,179.7,50.8,178.5L50.8,178.5
			L50.8,178.5z M52.2,178.6c0,0.8,0.2,1.4,0.5,1.9s0.8,0.7,1.5,0.7c0.4,0,0.8-0.1,1.1-0.3s0.5-0.5,0.7-0.8v-3.6
			c-0.2-0.3-0.4-0.6-0.7-0.8c-0.3-0.2-0.7-0.3-1.1-0.3c-0.7,0-1.2,0.3-1.5,0.9c-0.3,0.6-0.5,1.3-0.5,2.2V178.6z"/>
		<path class="st16" d="M64.7,181.1c-0.2,0.4-0.6,0.8-1,1s-0.8,0.3-1.4,0.3c-0.9,0-1.5-0.3-2-0.8s-0.7-1.4-0.7-2.6v-4.7H61v4.7
			c0,0.8,0.1,1.4,0.4,1.7s0.6,0.5,1.2,0.5c0.5,0,0.9-0.1,1.3-0.3c0.3-0.2,0.6-0.5,0.8-0.9v-5.7h1.4v7.9h-1.3L64.7,181.1z"/>
		<path class="st16" d="M72.8,180.2c0-0.3-0.1-0.6-0.4-0.8c-0.2-0.2-0.7-0.4-1.4-0.5c-0.9-0.2-1.6-0.5-2.1-0.8s-0.8-0.8-0.8-1.5
			c0-0.6,0.3-1.2,0.8-1.7s1.3-0.7,2.1-0.7c0.9,0,1.6,0.2,2.2,0.7s0.8,1.1,0.8,1.7l0,0h-1.4c0-0.3-0.2-0.7-0.5-0.9
			c-0.3-0.3-0.7-0.4-1.1-0.4c-0.5,0-0.9,0.1-1.1,0.3s-0.4,0.5-0.4,0.8s0.1,0.6,0.3,0.7c0.2,0.2,0.7,0.3,1.3,0.5
			c1,0.2,1.7,0.5,2.2,0.9s0.8,0.9,0.8,1.5c0,0.7-0.3,1.3-0.9,1.7s-1.3,0.7-2.2,0.7c-1,0-1.8-0.3-2.4-0.8s-0.9-1.1-0.8-1.8l0,0h1.5
			c0,0.5,0.2,0.9,0.6,1.1c0.4,0.2,0.8,0.4,1.3,0.4s0.9-0.1,1.2-0.3C72.6,180.8,72.8,180.5,72.8,180.2z"/>
		<path class="st16" d="M78,172.5v1.9h1.5v1.1H78v4.8c0,0.4,0.1,0.6,0.2,0.8c0.2,0.2,0.4,0.2,0.6,0.2c0.1,0,0.2,0,0.3,0
			c0.1,0,0.2,0,0.3-0.1l0.2,1c-0.1,0.1-0.3,0.2-0.5,0.2c-0.2,0.1-0.4,0.1-0.6,0.1c-0.6,0-1.1-0.2-1.4-0.5c-0.3-0.4-0.5-0.9-0.5-1.7
			v-4.8h-1.3v-1.1h1.3v-1.9H78z"/>
		<path class="st16" d="M84.8,175.7h-0.7c-0.4,0-0.7,0.1-1,0.3s-0.5,0.4-0.6,0.8v5.7h-1.4v-7.9h1.3l0.1,1.2c0.2-0.4,0.5-0.7,0.8-1
			c0.3-0.2,0.7-0.3,1.1-0.3c0.1,0,0.2,0,0.3,0c0.1,0,0.2,0,0.2,0.1L84.8,175.7z"/>
		<path class="st16" d="M87.9,172.4h-1.4v-1.5h1.4V172.4z M87.9,182.3h-1.4v-7.9h1.4V182.3z"/>
		<path class="st16" d="M95,182.3c0-0.2-0.1-0.5-0.1-0.6c0-0.2,0-0.4,0-0.6c-0.3,0.4-0.6,0.7-1.1,1c-0.4,0.3-0.9,0.4-1.4,0.4
			c-0.8,0-1.5-0.2-1.9-0.6c-0.4-0.4-0.6-1-0.6-1.7c0-0.8,0.3-1.3,0.9-1.8c0.6-0.4,1.4-0.6,2.5-0.6h1.6V177c0-0.5-0.1-0.8-0.4-1.1
			s-0.7-0.4-1.2-0.4s-0.8,0.1-1.1,0.4s-0.4,0.5-0.4,0.8h-1.4l0,0c0-0.6,0.2-1.1,0.8-1.6s1.3-0.7,2.2-0.7c0.9,0,1.6,0.2,2.2,0.7
			c0.5,0.5,0.8,1.1,0.8,2v3.8c0,0.3,0,0.6,0,0.8s0.1,0.5,0.2,0.8H95V182.3z M92.6,181.3c0.5,0,1-0.1,1.4-0.4s0.7-0.6,0.8-0.9v-1.3
			h-1.6c-0.6,0-1,0.1-1.4,0.4c-0.3,0.3-0.5,0.6-0.5,1s0.1,0.6,0.3,0.8S92.1,181.3,92.6,181.3z"/>
		<path class="st16" d="M99.9,182.3h-1.4v-11.4h1.4V182.3z"/>
	</g>
</g>
<g>
	<g class="st12">
		<path class="st16" d="M44.2,216.8c0-0.5-0.2-0.9-0.5-1.2s-1-0.6-1.8-0.8c-1.1-0.3-1.9-0.7-2.5-1.2s-0.9-1.2-0.9-2s0.3-1.5,1-2.1
			s1.5-0.8,2.5-0.8c1.1,0,2,0.3,2.7,1c0.7,0.6,1,1.4,1,2.2l0,0h-1.4c0-0.6-0.2-1.1-0.6-1.5s-1-0.6-1.6-0.6c-0.7,0-1.2,0.2-1.5,0.5
			c-0.4,0.3-0.5,0.8-0.5,1.3s0.2,0.9,0.6,1.2c0.4,0.3,1,0.6,1.9,0.8c1.1,0.3,1.9,0.7,2.5,1.2s0.8,1.2,0.8,2c0,0.9-0.3,1.6-1,2.1
			s-1.6,0.8-2.6,0.8s-1.9-0.3-2.7-0.9c-0.8-0.6-1.2-1.3-1.1-2.3l0,0h1.4c0,0.7,0.3,1.2,0.8,1.5c0.5,0.4,1.1,0.5,1.7,0.5
			c0.7,0,1.2-0.2,1.6-0.5C44,217.8,44.2,217.4,44.2,216.8z"/>
		<path class="st16" d="M47.2,215.5c0-1.2,0.3-2.1,1-2.9c0.6-0.8,1.5-1.1,2.6-1.1s2,0.4,2.6,1.1c0.6,0.8,1,1.7,1,2.9v0.2
			c0,1.2-0.3,2.1-1,2.9c-0.6,0.8-1.5,1.1-2.6,1.1s-2-0.4-2.6-1.1c-0.6-0.8-1-1.7-1-2.9V215.5z M48.6,215.7c0,0.8,0.2,1.5,0.5,2.1
			c0.4,0.5,0.9,0.8,1.6,0.8s1.2-0.3,1.6-0.8s0.5-1.2,0.5-2.1v-0.2c0-0.8-0.2-1.5-0.5-2.1c-0.4-0.6-0.9-0.8-1.6-0.8s-1.2,0.3-1.6,0.8
			c-0.4,0.6-0.5,1.2-0.5,2.1V215.7z"/>
		<path class="st16" d="M57.6,219.5h-1.4v-11.4h1.4V219.5z"/>
		<path class="st16" d="M64.7,219.5c0-0.2-0.1-0.5-0.1-0.6c0-0.2,0-0.4,0-0.6c-0.3,0.4-0.6,0.7-1.1,1c-0.4,0.3-0.9,0.4-1.4,0.4
			c-0.8,0-1.5-0.2-1.9-0.6c-0.4-0.4-0.6-1-0.6-1.7c0-0.8,0.3-1.3,0.9-1.8c0.6-0.4,1.4-0.6,2.5-0.6h1.6v-0.8c0-0.5-0.1-0.8-0.4-1.1
			s-0.7-0.4-1.2-0.4s-0.8,0.1-1.1,0.4s-0.6,0.4-0.6,0.7h-1.4l0,0c0-0.6,0.2-1.1,0.8-1.6s1.3-0.7,2.2-0.7c0.9,0,1.6,0.2,2.2,0.7
			c0.5,0.5,0.8,1.1,0.8,2v3.8c0,0.3,0,0.6,0,0.8s0.1,0.5,0.2,0.8h-1.4C64.7,219.6,64.7,219.5,64.7,219.5z M62.3,218.5
			c0.5,0,1-0.1,1.4-0.4s0.7-0.6,0.8-0.9v-1.3h-1.6c-0.6,0-1,0.1-1.4,0.4c-0.3,0.3-0.5,0.6-0.5,1s0.1,0.6,0.3,0.8
			S61.9,218.5,62.3,218.5z"/>
		<path class="st16" d="M71.8,212.9h-0.7c-0.4,0-0.7,0.1-1,0.3s-0.5,0.4-0.6,0.8v5.7h-1.4v-7.9h1.3l0.1,1.2c0.2-0.4,0.5-0.7,0.8-1
			c0.3-0.2,0.7-0.3,1.1-0.3c0.1,0,0.2,0,0.3,0c0.1,0,0.2,0,0.2,0.1L71.8,212.9z"/>
		<path class="st16" d="M78.7,215.3v4.3h-1.4v-10.7h4.1c1.1,0,2,0.3,2.7,0.9s0.9,1.4,0.9,2.3c0,1-0.3,1.7-0.9,2.3s-1.5,0.9-2.7,0.9
			H78.7z M78.7,214.1h2.6c0.7,0,1.3-0.2,1.6-0.6c0.4-0.4,0.5-0.9,0.5-1.5s-0.2-1.1-0.5-1.5c-0.4-0.4-0.9-0.6-1.6-0.6h-2.6V214.1z"/>
		<path class="st16" d="M90,216.7l0.2,0.9l0,0l0.2-0.9l2.8-7.9h1.6l-4,10.7h-1.2l-4-10.7h1.6L90,216.7z"/>
		<path class="st16" d="M100.3,215.6H96v-1.1h4.3V215.6z"/>
	</g>
	<g class="st12">
		<path class="st16" d="M46.2,237.3c-0.3,0.4-0.7,0.8-1.3,1.1c-0.6,0.3-1.4,0.5-2.4,0.5c-1.2,0-2.2-0.4-3.1-1.2s-1.2-1.9-1.2-3.2
			v-2.2c0-1.3,0.4-2.3,1.2-3.2s1.8-1.2,3-1.2c1.2,0,2.1,0.3,2.8,0.9c0.7,0.6,1,1.4,1,2.4l0,0h-1.4c0-0.6-0.2-1.2-0.6-1.6
			c-0.4-0.4-1-0.6-1.8-0.6s-1.5,0.3-2,0.9c-0.5,0.6-0.7,1.4-0.7,2.3v2.2c0,0.9,0.3,1.7,0.8,2.3s1.2,0.9,2,0.9c0.6,0,1.1-0.1,1.5-0.2
			c0.4-0.2,0.6-0.4,0.8-0.6v-2.3h-2.4v-1.1h3.9L46.2,237.3L46.2,237.3z"/>
		<path class="st16" d="M52.3,232.1h-0.7c-0.4,0-0.7,0.1-1,0.3s-0.5,0.4-0.6,0.8v5.7h-1.4V231h1.3l0.1,1.2c0.2-0.4,0.5-0.7,0.8-1
			c0.3-0.2,0.7-0.3,1.1-0.3c0.1,0,0.2,0,0.3,0c0.1,0,0.2,0,0.2,0.1L52.3,232.1z"/>
		<path class="st16" d="M58.6,238.7c0-0.2-0.1-0.5-0.1-0.6c0-0.2,0-0.4,0-0.6c-0.3,0.4-0.6,0.7-1.1,1c-0.4,0.3-0.9,0.4-1.4,0.4
			c-0.8,0-1.5-0.2-1.9-0.6c-0.4-0.4-0.6-1-0.6-1.7c0-0.8,0.3-1.3,0.9-1.8c0.6-0.4,1.4-0.6,2.5-0.6h1.6v-0.8c0-0.5-0.1-0.8-0.4-1.1
			s-0.7-0.4-1.2-0.4s-0.8,0.1-1.1,0.4s-0.4,0.5-0.4,0.8H54l0,0c0-0.6,0.2-1.1,0.8-1.6s1.3-0.7,2.2-0.7c0.9,0,1.6,0.2,2.2,0.7
			c0.5,0.5,0.8,1.1,0.8,2v3.8c0,0.3,0,0.6,0,0.8s0.1,0.5,0.2,0.8h-1.6V238.7z M56.2,237.7c0.5,0,1-0.1,1.4-0.4s0.7-0.6,0.8-0.9v-1.3
			h-1.6c-0.6,0-1,0.1-1.4,0.4c-0.3,0.3-0.5,0.6-0.5,1s0.1,0.6,0.3,0.8S55.8,237.7,56.2,237.7z"/>
		<path class="st16" d="M63.3,230.8l0.1,1.2c0.3-0.4,0.6-0.7,1-1c0.4-0.2,0.9-0.3,1.4-0.3c0.9,0,1.5,0.2,2,0.8
			c0.5,0.5,0.7,1.3,0.7,2.3v5h-1.4v-5c0-0.7-0.1-1.2-0.4-1.5s-0.7-0.4-1.3-0.4c-0.4,0-0.8,0.1-1.1,0.3c-0.3,0.2-0.6,0.4-0.7,0.8v5.9
			h-1.4V231h1.1V230.8z"/>
		<path class="st16" d="M77.5,238.9c-1.1,0-2-0.4-2.7-1.1c-0.6-0.7-1-1.7-1-2.9v-0.3c0-1.1,0.3-2.1,1-2.8s1.5-1.1,2.4-1.1
			c1.1,0,1.9,0.3,2.4,1s0.8,1.5,0.8,2.6v0.8h-5.1l0,0c0,0.8,0.2,1.4,0.5,1.9c0.4,0.5,0.9,0.7,1.6,0.7c0.5,0,0.9-0.1,1.3-0.2
			c0.4-0.1,0.7-0.3,0.9-0.6l0.6,0.9c-0.3,0.3-0.7,0.5-1.1,0.7C78.8,238.8,78.2,238.9,77.5,238.9z M77.3,231.8
			c-0.5,0-0.9,0.2-1.2,0.6c-0.3,0.4-0.5,0.9-0.6,1.5l0,0h3.6v-0.1c0-0.6-0.1-1.1-0.4-1.4S77.9,231.8,77.3,231.8z"/>
		<path class="st16" d="M86.7,236.6c0-0.3-0.1-0.6-0.4-0.8c-0.2-0.2-0.7-0.4-1.4-0.5c-0.9-0.2-1.6-0.5-2.1-0.8S82,233.7,82,233
			c0-0.6,0.3-1.2,0.8-1.7s1.3-0.7,2.1-0.7c0.9,0,1.6,0.2,2.2,0.7s0.8,1.1,0.8,1.7l0,0h-1.4c0-0.3-0.2-0.7-0.5-0.9
			c-0.3-0.3-0.7-0.4-1.1-0.4c-0.5,0-0.9,0.1-1.1,0.3s-0.4,0.5-0.4,0.8s0.1,0.6,0.3,0.7c0.2,0.2,0.7,0.3,1.3,0.5
			c1,0.2,1.7,0.5,2.2,0.9s0.8,0.9,0.8,1.5c0,0.7-0.3,1.3-0.9,1.7s-1.3,0.7-2.2,0.7c-1,0-1.8-0.3-2.4-0.8s-0.9-1.1-0.8-1.8l0,0h1.4
			c0,0.5,0.2,0.9,0.6,1.1c0.4,0.2,0.8,0.4,1.3,0.4s0.9-0.1,1.2-0.3C86.6,237.2,86.7,236.9,86.7,236.6z"/>
		<path class="st16" d="M93.1,237.8c0.4,0,0.8-0.1,1.2-0.4c0.3-0.3,0.5-0.7,0.5-1.1h1.3l0,0c0,0.7-0.3,1.3-0.9,1.8s-1.3,0.8-2.1,0.8
			c-1.1,0-2-0.4-2.6-1.1s-0.9-1.7-0.9-2.8v-0.3c0-1.1,0.3-2.1,0.9-2.8c0.6-0.8,1.5-1.1,2.6-1.1c0.9,0,1.6,0.3,2.2,0.8s0.8,1.2,0.8,2
			l0,0h-1.3c0-0.5-0.2-0.9-0.5-1.2s-0.7-0.5-1.2-0.5c-0.7,0-1.2,0.3-1.5,0.8s-0.5,1.2-0.5,2v0.3c0,0.8,0.2,1.5,0.5,2
			C91.9,237.5,92.4,237.8,93.1,237.8z"/>
		<path class="st16" d="M102.7,238.7c0-0.2-0.1-0.5-0.1-0.6c0-0.2,0-0.4,0-0.6c-0.3,0.4-0.6,0.7-1.1,1c-0.4,0.3-0.9,0.4-1.4,0.4
			c-0.8,0-1.5-0.2-1.9-0.6c-0.4-0.4-0.6-1-0.6-1.7c0-0.8,0.3-1.3,0.9-1.8c0.6-0.4,1.4-0.6,2.5-0.6h1.6v-0.8c0-0.5-0.1-0.8-0.4-1.1
			s-0.7-0.4-1.2-0.4s-0.8,0.1-1.1,0.4s-0.4,0.5-0.4,0.8h-1.4l0,0c0-0.6,0.2-1.1,0.8-1.6s1.3-0.7,2.2-0.7c0.9,0,1.6,0.2,2.2,0.7
			c0.5,0.5,0.8,1.1,0.8,2v3.8c0,0.3,0,0.6,0,0.8s0.1,0.5,0.2,0.8h-1.6V238.7z M100.3,237.7c0.5,0,1-0.1,1.4-0.4s0.7-0.6,0.8-0.9
			v-1.3h-1.6c-0.6,0-1,0.1-1.4,0.4c-0.3,0.3-0.5,0.6-0.5,1s0.1,0.6,0.3,0.8S99.9,237.7,100.3,237.7z"/>
		<path class="st16" d="M107.6,238.7h-1.4v-11.4h1.4V238.7z"/>
		<path class="st16" d="M114.7,238.7c0-0.2-0.1-0.5-0.1-0.6c0-0.2,0-0.4,0-0.6c-0.3,0.4-0.6,0.7-1.1,1c-0.4,0.3-0.9,0.4-1.4,0.4
			c-0.8,0-1.5-0.2-1.9-0.6c-0.4-0.4-0.6-1-0.6-1.7c0-0.8,0.3-1.3,0.9-1.8c0.6-0.4,1.4-0.6,2.5-0.6h1.6v-0.8c0-0.5-0.1-0.8-0.4-1.1
			c-0.3-0.3-0.7-0.4-1.2-0.4s-0.8,0.1-1.1,0.4s-0.4,0.5-0.4,0.8h-1.4l0,0c0-0.6,0.2-1.1,0.8-1.6s1.3-0.7,2.2-0.7s1.6,0.2,2.2,0.7
			c0.5,0.5,0.8,1.1,0.8,2v3.8c0,0.3,0,0.6,0,0.8s0.1,0.5,0.2,0.8h-1.6V238.7z M112.3,237.7c0.5,0,1-0.1,1.4-0.4s0.7-0.6,0.8-0.9
			v-1.3h-1.6c-0.6,0-1,0.1-1.4,0.4c-0.3,0.3-0.5,0.6-0.5,1s0.1,0.6,0.3,0.8S111.9,237.7,112.3,237.7z"/>
	</g>
</g>
<g>
	<g class="st12">
		<path class="st16" d="M44.4,261.8H40v3.8h5.1v1.1h-6.6V256H45v1.1h-5v3.5h4.4V261.8z"/>
		<path class="st16" d="M46.1,262.7c0-1.2,0.3-2.1,1-2.9c0.6-0.8,1.5-1.1,2.6-1.1s2,0.4,2.6,1.1c0.6,0.8,1,1.7,1,2.9v0.2
			c0,1.2-0.3,2.1-1,2.9c-0.6,0.8-1.5,1.1-2.6,1.1s-2-0.4-2.6-1.1c-0.6-0.8-1-1.7-1-2.9V262.7z M47.6,262.9c0,0.8,0.2,1.5,0.5,2.1
			c0.4,0.5,0.9,0.8,1.6,0.8s1.2-0.3,1.6-0.8s0.5-1.2,0.5-2.1v-0.2c0-0.8-0.2-1.5-0.5-2.1c-0.4-0.6-0.9-0.8-1.6-0.8s-1.2,0.3-1.6,0.8
			c-0.4,0.6-0.5,1.2-0.5,2.1V262.9z M50.4,255.5h1.7l0,0l-2,1.9H49L50.4,255.5z"/>
		<path class="st16" d="M56.6,266.8h-1.4v-11.4h1.4V266.8z"/>
		<path class="st16" d="M60.4,256.8H59v-1.5h1.4V256.8z M60.4,266.8H59v-7.9h1.4V266.8z"/>
		<path class="st16" d="M65.7,265.8c0.4,0,0.8-0.1,1.2-0.4c0.3-0.3,0.5-0.7,0.5-1.1h1.3l0,0c0,0.7-0.3,1.3-0.9,1.8s-1.3,0.8-2.1,0.8
			c-1.1,0-2-0.4-2.6-1.1s-0.9-1.7-0.9-2.8v-0.3c0-1.1,0.3-2.1,0.9-2.8c0.6-0.8,1.5-1.1,2.6-1.1c0.9,0,1.6,0.3,2.2,0.8s0.8,1.2,0.8,2
			l0,0h-1.3c0-0.5-0.2-0.9-0.5-1.2c-0.3-0.3-0.7-0.5-1.2-0.5c-0.7,0-1.2,0.3-1.5,0.8s-0.5,1.2-0.5,2v0.3c0,0.8,0.2,1.5,0.5,2
			C64.5,265.5,65,265.8,65.7,265.8z"/>
		<path class="st16" d="M75.3,266.8c0-0.2-0.1-0.5-0.1-0.6c0-0.2,0-0.4,0-0.6c-0.3,0.4-0.6,0.7-1.1,1c-0.4,0.3-0.9,0.4-1.4,0.4
			c-0.8,0-1.5-0.2-1.9-0.6s-0.6-1-0.6-1.7c0-0.8,0.3-1.3,0.9-1.8c0.6-0.4,1.4-0.6,2.5-0.6h1.6v-0.8c0-0.5-0.1-0.8-0.4-1.1
			c-0.3-0.3-0.7-0.4-1.2-0.4s-0.8,0.1-1.1,0.4s-0.4,0.5-0.4,0.8h-1.4l0,0c0-0.6,0.2-1.1,0.8-1.6s1.3-0.7,2.2-0.7
			c0.9,0,1.6,0.2,2.2,0.7c0.5,0.5,0.8,1.1,0.8,2v3.8c0,0.3,0,0.6,0,0.8s0.1,0.5,0.2,0.8h-1.6V266.8z M72.9,265.7
			c0.5,0,1-0.1,1.4-0.4s0.7-0.6,0.8-0.9v-1.3h-1.6c-0.6,0-1,0.1-1.4,0.4c-0.3,0.3-0.5,0.6-0.5,1s0.1,0.6,0.3,0.8
			S72.5,265.7,72.9,265.7z"/>
	</g>
	<g class="st12">
		<path class="st16" d="M40.4,276.1v1.9h1.5v1.1h-1.5v4.8c0,0.4,0.1,0.6,0.2,0.8c0.2,0.2,0.4,0.2,0.6,0.2c0.1,0,0.2,0,0.3,0
			s0.2,0,0.3-0.1l0.2,1c-0.1,0.1-0.3,0.2-0.5,0.2c-0.2,0.1-0.4,0.1-0.6,0.1c-0.6,0-1.1-0.2-1.4-0.5c-0.3-0.4-0.5-0.9-0.5-1.7v-4.8
			h-1.3V278H39v-1.9H40.4z"/>
		<path class="st16" d="M46.7,286.1c-1.1,0-2-0.4-2.7-1.1c-0.6-0.7-1-1.7-1-2.9v-0.3c0-1.1,0.3-2.1,1-2.8c0.7-0.7,1.5-1.1,2.4-1.1
			c1.1,0,1.9,0.3,2.4,1s0.8,1.5,0.8,2.6v0.8h-5.1l0,0c0,0.8,0.2,1.4,0.5,1.9c0.4,0.5,0.9,0.7,1.6,0.7c0.5,0,0.9-0.1,1.3-0.2
			s0.7-0.3,0.9-0.6l0.6,0.9c-0.3,0.3-0.7,0.5-1.1,0.7C47.9,286,47.3,286.1,46.7,286.1z M46.5,279c-0.5,0-0.9,0.2-1.2,0.6
			c-0.3,0.4-0.5,0.9-0.6,1.5l0,0h3.6V281c0-0.6-0.1-1.1-0.4-1.4S47,279,46.5,279z"/>
		<path class="st16" d="M55,279.3h-0.7c-0.4,0-0.7,0.1-1,0.3c-0.3,0.2-0.5,0.4-0.6,0.8v5.7h-1.4v-7.9h1.3l0.1,1.2
			c0.2-0.4,0.5-0.7,0.8-1c0.3-0.2,0.7-0.3,1.1-0.3c0.1,0,0.2,0,0.3,0c0.1,0,0.2,0,0.2,0.1L55,279.3z"/>
		<path class="st16" d="M60.3,279.3h-0.7c-0.4,0-0.7,0.1-1,0.3c-0.3,0.2-0.5,0.4-0.6,0.8v5.7h-1.4v-7.9h1.3l0.1,1.2
			c0.2-0.4,0.5-0.7,0.8-1c0.3-0.2,0.7-0.3,1.1-0.3c0.1,0,0.2,0,0.3,0c0.1,0,0.2,0,0.2,0.1L60.3,279.3z"/>
		<path class="st16" d="M64.9,286.1c-1.1,0-2-0.4-2.7-1.1c-0.6-0.7-1-1.7-1-2.9v-0.3c0-1.1,0.3-2.1,1-2.8c0.7-0.7,1.5-1.1,2.4-1.1
			c1.1,0,1.9,0.3,2.4,1s0.8,1.5,0.8,2.6v0.8h-5.1l0,0c0,0.8,0.2,1.4,0.5,1.9c0.4,0.5,0.9,0.7,1.6,0.7c0.5,0,0.9-0.1,1.3-0.2
			s0.7-0.3,0.9-0.6l0.6,0.9c-0.3,0.3-0.7,0.5-1.1,0.7C66.1,286,65.6,286.1,64.9,286.1z M64.7,279c-0.5,0-0.9,0.2-1.2,0.6
			c-0.3,0.4-0.5,0.9-0.6,1.5l0,0h3.6V281c0-0.6-0.1-1.1-0.4-1.4S65.3,279,64.7,279z"/>
		<path class="st16" d="M74.1,283.8c0-0.3-0.1-0.6-0.4-0.8c-0.2-0.2-0.7-0.4-1.4-0.5c-0.9-0.2-1.6-0.5-2.1-0.8s-0.8-0.8-0.8-1.5
			c0-0.6,0.3-1.2,0.8-1.7s1.3-0.7,2.1-0.7c0.9,0,1.6,0.2,2.2,0.7s0.8,1.1,0.8,1.7l0,0h-1.4c0-0.3-0.2-0.7-0.5-0.9
			c-0.3-0.3-0.7-0.4-1.1-0.4c-0.5,0-0.9,0.1-1.1,0.3s-0.4,0.5-0.4,0.8s0.1,0.6,0.3,0.7c0.2,0.2,0.7,0.3,1.3,0.5
			c1,0.2,1.7,0.5,2.2,0.9s0.8,0.9,0.8,1.5c0,0.7-0.3,1.3-0.9,1.7c-0.6,0.4-1.3,0.7-2.2,0.7c-1,0-1.8-0.3-2.4-0.8s-0.9-1.1-0.8-1.8
			l0,0h1.4c0,0.5,0.2,0.9,0.6,1.1s0.8,0.4,1.3,0.4s0.9-0.1,1.2-0.3C73.9,284.4,74.1,284.2,74.1,283.8z"/>
		<path class="st16" d="M79.3,276.1v1.9h1.5v1.1h-1.5v4.8c0,0.4,0.1,0.6,0.2,0.8c0.2,0.2,0.4,0.2,0.6,0.2c0.1,0,0.2,0,0.3,0
			c0.1,0,0.2,0,0.3-0.1l0.2,1c-0.1,0.1-0.3,0.2-0.5,0.2c-0.2,0.1-0.4,0.1-0.6,0.1c-0.6,0-1.1-0.2-1.4-0.5c-0.3-0.4-0.5-0.9-0.5-1.7
			v-4.8h-1.3V278h1.3v-1.9H79.3z"/>
		<path class="st16" d="M86.1,279.3h-0.7c-0.4,0-0.7,0.1-1,0.3c-0.3,0.2-0.5,0.4-0.6,0.8v5.7h-1.4v-7.9h1.3l0.1,1.2
			c0.2-0.4,0.5-0.7,0.8-1c0.3-0.2,0.7-0.3,1.1-0.3c0.1,0,0.2,0,0.3,0c0.1,0,0.2,0,0.2,0.1L86.1,279.3z"/>
		<path class="st16" d="M90.8,286.1c-1.1,0-2-0.4-2.7-1.1c-0.6-0.7-1-1.7-1-2.9v-0.3c0-1.1,0.3-2.1,1-2.8c0.7-0.7,1.5-1.1,2.4-1.1
			c1.1,0,1.9,0.3,2.4,1s0.8,1.5,0.8,2.6v0.8h-5.1l0,0c0,0.8,0.2,1.4,0.5,1.9c0.4,0.5,0.9,0.7,1.6,0.7c0.5,0,0.9-0.1,1.3-0.2
			s0.7-0.3,0.9-0.6l0.6,0.9c-0.3,0.3-0.7,0.5-1.1,0.7C92,286,91.4,286.1,90.8,286.1z M90.5,279c-0.5,0-0.9,0.2-1.2,0.6
			c-0.3,0.4-0.5,0.9-0.6,1.5l0,0h3.6V281c0-0.6-0.1-1.1-0.4-1.4S91.1,279,90.5,279z"/>
	</g>
</g>
<path class="st9" d="M468.2,129.7H347.5v-29.5h130.8v19.4C478.3,125.1,473.7,129.7,468.2,129.7z"/>
<path class="st9" d="M349.4,181.7H250v-29.5h109.5v19.3C359.5,177.1,355,181.7,349.4,181.7z"/>
<path class="st9" d="M395,389.7h-57.5v-29.5h67.2V380C404.6,385.4,400.3,389.7,395,389.7z"/>
<path class="st9" d="M373.9,441.9h-85.7v-29.5h95.4v19.8C383.6,437.5,379.2,441.9,373.9,441.9z"/>
<path class="st9" d="M317.5,494.3h-93.6v-29.5h103.3v19.8C327.2,490,322.8,494.3,317.5,494.3z"/>
<path class="st9" d="M233.2,545.3h-32.5v-29.5h42.2v19.8C242.9,541,238.6,545.3,233.2,545.3z"/>
<path class="st8" d="M199.8,233.7h-4.5v-29.5h10v24C205.3,231.2,202.9,233.7,199.8,233.7z"/>
<path class="st9" d="M210.4,285.6h-24.2v-29.5h34.3v19.4C220.5,281.1,216,285.6,210.4,285.6z"/>
<line class="st42" x1="146.7" y1="89.2" x2="153.1" y2="89.2"/>
<line class="st42" x1="146.7" y1="141.1" x2="153.1" y2="141.1"/>
<line class="st42" x1="146.7" y1="192.9" x2="153.1" y2="192.9"/>
<line class="st42" x1="146.7" y1="244.8" x2="153.1" y2="244.8"/>
<line class="st42" x1="146.7" y1="401.1" x2="153.1" y2="401.1"/>
<line class="st42" x1="146.7" y1="453" x2="153.1" y2="453"/>
<line class="st42" x1="146.7" y1="504.8" x2="153.1" y2="504.8"/>
<line class="st42" x1="150.3" y1="78.5" x2="150.3" y2="561.9"/>
<path class="st43" d="M523.3,69.7H33.7c-12.2,0-22.1,9.9-22.1,22.1v186c0,12.2,9.9,22.1,22.1,22.1h489.6c12.2,0,22.1-9.9,22.1-22.1
	v-186C545.4,79.6,535.5,69.7,523.3,69.7z"/>
<path class="st44" d="M523.3,339.6H33.7c-12.2,0-22.1,9.9-22.1,22.1v171c0,12.2,9.9,22.1,22.1,22.1h489.6c12.2,0,22.1-9.9,22.1-22.1
	v-171C545.4,349.5,535.5,339.6,523.3,339.6z"/>
</svg>
