<?xml version="1.0" encoding="utf-8"?>
<!-- Generator: Adobe Illustrator 23.0.4, SVG Export Plug-In . SVG Version: 6.00 Build 0)  -->
<svg version="1.1" id="Layer_1" xmlns="http://www.w3.org/2000/svg" xmlns:xlink="http://www.w3.org/1999/xlink" x="0px" y="0px"
	 viewBox="0 0 423.1 498" style="enable-background:new 0 0 423.1 498;" xml:space="preserve">
<style type="text/css">
	.st0{fill:#CECECE;}
	.st1{fill:#3D3D3D;}
	.st2{fill:#244930;}
	.st3{font-family:'Calibri';}
	.st4{font-size:27.0465px;}
</style>
<g>
	<path class="st0" d="M322.1,418H92c-20.8,0-37.6-16-37.6-35.5V105.6c0-19.7,16.9-35.5,37.6-35.5h230.2c20.8,0,37.6,16,37.6,35.5
		v276.8C359.8,402,342.9,418,322.1,418z M92,71c-20.2,0-36.6,15.5-36.6,34.6v276.8c0,19.1,16.4,34.6,36.6,34.6h230.2
		c20.2,0,36.6-15.5,36.6-34.6V105.6c0-19.1-16.4-34.6-36.6-34.6H92z"/>
</g>
<g>
	<rect x="66.3" y="108.8" class="st1" width="7.2" height="7.2"/>
</g>
<g>
	<rect x="66.3" y="157.9" class="st1" width="7.2" height="7.2"/>
</g>
<g>
	<rect x="66.3" y="206.1" class="st1" width="7.2" height="7.2"/>
</g>
<g>
	<rect x="66.3" y="277.3" class="st1" width="7.2" height="7.2"/>
</g>
<g>
	<rect x="66.3" y="351.4" class="st1" width="7.2" height="7.2"/>
</g>
<text transform="matrix(0.9539 0 0 1 83.7514 120.1161)" class="st2 st3 st4">Opportunities in LatAm</text>
<text transform="matrix(0.9539 0 0 1 83.7514 169.1161)" class="st2 st3 st4">Population growth</text>
<text transform="matrix(0.9539 0 0 1 83.7514 218.1161)" class="st2 st3 st4">Transmission</text>
<text transform="matrix(0.9539 0 0 1 83.7514 242.1161)" class="st2 st3 st4">restrictions</text>
<text transform="matrix(0.9539 0 0 1 83.7514 291.1161)" class="st2 st3 st4">250 GWp of solar</text>
<text transform="matrix(0.9539 0 0 1 83.7514 315.1161)" class="st2 st3 st4">PV in LaTAm by 2030</text>
<text transform="matrix(0.9539 0 0 1 83.7514 364.1161)" class="st2 st3 st4">+5.0% annual growth</text>
<text transform="matrix(0.9539 0 0 1 83.7514 388.1161)" class="st2 st3 st4">in energy demand</text>
</svg>
