<?xml version="1.0" encoding="utf-8"?>
<!-- Generator: Adobe Illustrator 23.0.4, SVG Export Plug-In . SVG Version: 6.00 Build 0)  -->
<svg version="1.1" id="Capa_1" xmlns="http://www.w3.org/2000/svg" xmlns:xlink="http://www.w3.org/1999/xlink" x="0px" y="0px"
	 viewBox="0 0 360 219" style="enable-background:new 0 0 360 219;" xml:space="preserve">
<style type="text/css">
	.st0{fill:#F2F1F3;}
	.st1{clip-path:url(#SVGID_2_);fill:#70BC48;}
	.st2{enable-background:new    ;}
	.st3{fill:#70BC48;}
</style>
<g>
	<path class="st0" d="M180,25.1c-46.6,0-84.4,37.8-84.4,84.4s37.8,84.4,84.4,84.4s84.4-37.8,84.4-84.4S226.6,25.1,180,25.1z
		 M180,176c-36.7,0-66.5-29.8-66.5-66.5S143.3,43,180,43s66.5,29.8,66.5,66.5S216.7,176,180,176z"/>
	<g>
		<g>
			<defs>
				<path id="SVGID_1_" d="M180,25.1c-46.6,0-84.4,37.8-84.4,84.4s37.8,84.4,84.4,84.4s84.4-37.8,84.4-84.4S226.6,25.1,180,25.1z
					 M180,176c-36.7,0-66.5-29.8-66.5-66.5S143.3,43,180,43s66.5,29.8,66.5,66.5S216.7,176,180,176z"/>
			</defs>
			<clipPath id="SVGID_2_">
				<use xlink:href="#SVGID_1_"  style="overflow:visible;"/>
			</clipPath>
			<polygon class="st1" points="125,86 122,126 145,149 165,163 187,166 211,153 230,143.1 236,95.3 197.2,68.4 179.3,50.5 
				179.3,5.7 248,17.6 280.8,68.4 277.8,134.1 259.9,167 197,214 109,190 91,136 87,94 96,75 110,43 119,38 183,8 193,52 			"/>
		</g>
	</g>
</g>
<g class="st2">
	<path class="st3" d="M144.1,120.7v-17.3l-4,4l-2.9-3l7.5-7.6h4.4v23.9H144.1z"/>
	<path class="st3" d="M152.8,108.7c0-6.2,3-12.3,9.9-12.3s9.9,6.2,9.9,12.3s-3,12.4-9.9,12.4S152.8,114.9,152.8,108.7z M167.4,108.7
		c0-4.4-1.3-7.8-4.7-7.8c-3.4,0-4.7,3.4-4.7,7.8c0,4.4,1.3,7.8,4.7,7.8S167.4,113.1,167.4,108.7z"/>
	<path class="st3" d="M175,108.7c0-6.2,3-12.3,9.9-12.3c6.8,0,9.9,6.2,9.9,12.3s-3,12.4-9.9,12.4C178,121.1,175,114.9,175,108.7z
		 M189.6,108.7c0-4.4-1.3-7.8-4.7-7.8c-3.4,0-4.7,3.4-4.7,7.8c0,4.4,1.3,7.8,4.7,7.8S189.6,113.1,189.6,108.7z"/>
	<path class="st3" d="M196.9,102.4c0-3.4,2.4-6,6.1-6c3.7,0,6.1,2.6,6.1,6c0,3.3-2.4,5.9-6.1,5.9
		C199.3,108.3,196.9,105.7,196.9,102.4z M205.9,102.4c0-2-1.2-3.2-2.9-3.2c-1.6,0-2.8,1.2-2.8,3.2c0,1.9,1.2,3.1,2.8,3.1
		C204.6,105.5,205.9,104.3,205.9,102.4z M200.7,120.7l15.3-23.9h2.7l-15.3,23.9H200.7z M210.1,115.2c0-3.4,2.4-6,6.1-6
		s6.1,2.7,6.1,6c0,3.3-2.4,5.9-6.1,5.9S210.1,118.5,210.1,115.2z M219,115.2c0-2-1.2-3.2-2.9-3.2s-2.8,1.2-2.8,3.2
		c0,1.9,1.2,3.1,2.8,3.1S219,117.1,219,115.2z"/>
</g>
</svg>
