<?xml version="1.0" encoding="utf-8"?>
<!-- Generator: Adobe Illustrator 23.0.4, SVG Export Plug-In . SVG Version: 6.00 Build 0)  -->
<svg version="1.1" id="Capa_1" xmlns="http://www.w3.org/2000/svg" xmlns:xlink="http://www.w3.org/1999/xlink" x="0px" y="0px"
	 viewBox="0 0 360 219" style="enable-background:new 0 0 360 219;" xml:space="preserve">
<style type="text/css">
	.st0{fill:#F2F1F3;}
	.st1{fill:#70BC48;}
	.st2{clip-path:url(#SVGID_2_);fill:#70BC48;stroke:#FFFFFF;stroke-width:2;stroke-miterlimit:10;}
</style>
<g>
	<path class="st0" d="M180,25.1c-46.6,0-84.4,37.8-84.4,84.4s37.8,84.4,84.4,84.4s84.4-37.8,84.4-84.4S226.6,25.1,180,25.1z
		 M180,176c-36.7,0-66.5-29.8-66.5-66.5S143.3,43,180,43s66.5,29.8,66.5,66.5S216.7,176,180,176z"/>
	<g>
		<path class="st1" d="M148.7,120.3l2.7-3.4c1.6,1.7,4.2,2.7,6.6,2.7c2.9,0,4.5-1.3,4.5-3c0-1.9-1.5-2.8-4.8-2.8c-1,0-2.6,0-3,0.1
			v-4.6c0.4,0,2.1,0,3,0c2.7,0,4.4-0.8,4.4-2.5c0-1.9-2-2.8-4.4-2.8c-2.3,0-4.4,0.9-6.1,2.5l-2.5-3.2c1.9-2.2,4.9-3.8,9.1-3.8
			c5.6,0,9,2.5,9,6.5c0,3-2.6,5-5.2,5.4c2.4,0.3,5.6,2.2,5.6,5.7c0,4.1-3.7,7-9.4,7C153.8,124.1,150.5,122.4,148.7,120.3z"/>
		<path class="st1" d="M170.8,120.5l2.8-3.5c1.6,1.7,3.8,2.6,6.3,2.6c2.8,0,4.4-1.6,4.4-3.5c0-2.1-1.6-3.5-4.3-3.5
			c-2,0-3.6,0.6-5,1.9l-3.5-1V99.8H188v4.5h-11.3v5.8c1.1-1.1,3.1-2,5.3-2c4.1,0,7.7,2.9,7.7,7.7c0,5.1-3.8,8.3-9.6,8.3
			C175.8,124.1,172.8,122.7,170.8,120.5z"/>
		<path class="st1" d="M191.8,105.4c0-3.4,2.4-6,6.1-6c3.7,0,6.1,2.6,6.1,6c0,3.3-2.4,5.9-6.1,5.9
			C194.2,111.3,191.8,108.7,191.8,105.4z M200.7,105.4c0-2-1.2-3.2-2.9-3.2c-1.6,0-2.8,1.2-2.8,3.2c0,1.9,1.2,3.1,2.8,3.1
			C199.5,108.5,200.7,107.3,200.7,105.4z M195.5,123.7l15.3-23.9h2.7l-15.3,23.9H195.5z M204.9,118.2c0-3.4,2.4-6,6.1-6
			s6.1,2.7,6.1,6c0,3.3-2.4,5.9-6.1,5.9S204.9,121.5,204.9,118.2z M213.8,118.2c0-2-1.2-3.2-2.9-3.2s-2.8,1.2-2.8,3.2
			c0,1.9,1.2,3.1,2.8,3.1S213.8,120.1,213.8,118.2z"/>
	</g>
	<g>
		<defs>
			<path id="SVGID_1_" d="M180,25.1c-46.6,0-84.4,37.8-84.4,84.4s37.8,84.4,84.4,84.4s84.4-37.8,84.4-84.4S226.6,25.1,180,25.1z
				 M180,176c-36.7,0-66.5-29.8-66.5-66.5S143.3,43,180,43s66.5,29.8,66.5,66.5S216.7,176,180,176z"/>
		</defs>
		<clipPath id="SVGID_2_">
			<use xlink:href="#SVGID_1_"  style="overflow:visible;"/>
		</clipPath>
		<polyline class="st2" points="250.9,161 230,143.1 236,95.3 197.2,68.4 179.3,50.5 179.3,5.7 248,17.6 280.8,68.4 277.8,134.1 
			259.9,167 		"/>
	</g>
</g>
</svg>
