<?xml version="1.0" encoding="utf-8"?>
<!-- Generator: Adobe Illustrator 23.0.4, SVG Export Plug-In . SVG Version: 6.00 Build 0)  -->
<svg version="1.1" id="Capa_1" xmlns="http://www.w3.org/2000/svg" xmlns:xlink="http://www.w3.org/1999/xlink" x="0px" y="0px"
	 viewBox="0 0 360 219" style="enable-background:new 0 0 360 219;" xml:space="preserve">
<style type="text/css">
	.st0{fill:#F2F1F3;}
	.st1{fill:#70BC48;}
	.st2{clip-path:url(#SVGID_2_);fill:#70BC48;stroke:#FFFFFF;stroke-width:2;stroke-miterlimit:10;}
</style>
<g>
	<path class="st0" d="M180,25.1c-46.6,0-84.4,37.8-84.4,84.4s37.8,84.4,84.4,84.4s84.4-37.8,84.4-84.4S226.6,25.1,180,25.1z
		 M180,176c-36.7,0-66.5-29.8-66.5-66.5S143.3,43,180,43s66.5,29.8,66.5,66.5S216.7,176,180,176z"/>
	<g>
		<defs>
			<path id="SVGID_1_" d="M180,25.1c-46.6,0-84.4,37.8-84.4,84.4s37.8,84.4,84.4,84.4s84.4-37.8,84.4-84.4S226.6,25.1,180,25.1z
				 M180,176c-36.7,0-66.5-29.8-66.5-66.5S143.3,43,180,43s66.5,29.8,66.5,66.5S216.7,176,180,176z"/>
		</defs>
		<clipPath id="SVGID_2_">
			<use xlink:href="#SVGID_1_"  style="overflow:visible;"/>
		</clipPath>
		<polygon class="st2" points="125,86 122,126 145,149 165,163 187,166 211,153 230,143.1 236,95.3 197.2,68.4 179.3,50.5 
			179.3,5.7 248,17.6 280.8,68.4 277.8,134.1 259.9,167 197,214 109,190 91,136 87,94 96,75 110,43 119,38 146,21 156,55 		"/>
	</g>
</g>
<g>
	<path class="st1" d="M147.4,121.6l2.3-3.9c1.3,1.2,2.7,1.9,4.8,1.9c3.9,0,6-3.3,6-6.7c0-0.2,0-0.4,0-0.5c-1.1,1.6-3.5,3.1-6.2,3.1
		c-4.3,0-8.1-2.7-8.1-7.8c0-4.7,3.7-8.2,9.1-8.2c7.3,0,10.3,5.6,10.3,12.3c0,7.2-4.1,12.4-11.1,12.4
		C151.5,124.1,149.1,123.1,147.4,121.6z M160.4,108.7c-0.2-2.3-1.5-4.8-4.8-4.8c-2.8,0-4.3,1.9-4.3,3.5c0,2.5,2.2,3.6,4.4,3.6
		C157.5,111,159.2,110.1,160.4,108.7z"/>
	<path class="st1" d="M168.5,120.5l2.8-3.5c1.6,1.7,3.8,2.6,6.3,2.6c2.8,0,4.4-1.6,4.4-3.5c0-2.1-1.6-3.5-4.3-3.5
		c-2,0-3.6,0.6-5,1.9l-3.5-1V99.8h16.4v4.5h-11.3v5.8c1.1-1.1,3.1-2,5.3-2c4.1,0,7.7,2.9,7.7,7.7c0,5.1-3.8,8.3-9.6,8.3
		C173.6,124.1,170.6,122.7,168.5,120.5z"/>
	<path class="st1" d="M189.5,105.4c0-3.4,2.4-6,6.1-6c3.7,0,6.1,2.6,6.1,6c0,3.3-2.4,5.9-6.1,5.9
		C191.9,111.3,189.5,108.7,189.5,105.4z M198.4,105.4c0-2-1.2-3.2-2.9-3.2c-1.6,0-2.8,1.2-2.8,3.2c0,1.9,1.2,3.1,2.8,3.1
		C197.2,108.5,198.4,107.3,198.4,105.4z M193.2,123.7l15.3-23.9h2.7l-15.3,23.9H193.2z M202.7,118.2c0-3.4,2.4-6,6.1-6
		s6.1,2.7,6.1,6c0,3.3-2.4,5.9-6.1,5.9S202.7,121.5,202.7,118.2z M211.6,118.2c0-2-1.2-3.2-2.9-3.2c-1.6,0-2.8,1.2-2.8,3.2
		c0,1.9,1.2,3.1,2.8,3.1C210.4,121.3,211.6,120.1,211.6,118.2z"/>
</g>
</svg>
