<?xml version="1.0" encoding="utf-8"?>
<!-- Generator: Adobe Illustrator 26.0.2, SVG Export Plug-In . SVG Version: 6.00 Build 0)  -->
<svg version="1.1" id="Capa_1" xmlns="http://www.w3.org/2000/svg" xmlns:xlink="http://www.w3.org/1999/xlink" x="0px" y="0px"
	 viewBox="0 0 1141 568" style="enable-background:new 0 0 1141 568;" xml:space="preserve">
<style type="text/css">
	.st0{fill:url(#SVGID_1_);}
	.st1{opacity:8.000000e-02;fill:#4C555A;}
	.st2{fill:#38434D;}
	.st3{fill:#4C555A;}
	.st4{fill:#71AF47;}
	.st5{fill:#31783C;}
	.st6{fill:none;stroke:#31783C;stroke-width:2;stroke-linecap:round;stroke-linejoin:round;}
	.st7{fill:none;stroke:#38434D;stroke-width:2;stroke-linecap:round;stroke-linejoin:round;}
	.st8{fill:none;stroke:#4C555A;stroke-width:2;stroke-linecap:round;stroke-linejoin:round;}
	.st9{fill:none;stroke:#71AF47;stroke-width:2;stroke-linecap:round;stroke-linejoin:round;}
	.st10{fill:none;stroke:#85C453;stroke-width:1.5;stroke-miterlimit:2;}
	.st11{fill:none;stroke:#85C453;stroke-width:1.5;stroke-miterlimit:2;stroke-dasharray:3.8861,3.8861;}
	.st12{fill:none;stroke:#85C453;stroke-width:1.5;stroke-miterlimit:2;stroke-dasharray:3.9634,3.9634;}
	.st13{fill:#85C453;}
	.st14{fill:#FEFFFE;}
	.st15{fill:#F2C706;}
	.st16{fill:#B1FCD5;}
	.st17{fill:#4BC9DA;}
	.st18{fill:#2F383F;}
	.st19{fill:#7D8F9E;}
	.st20{fill:#FFFFFF;}
	.st21{fill:#C9C9C9;}
	.st22{fill:url(#SVGID_00000005973764811425337840000015195888123532790431_);}
	.st23{fill:#65B33F;}
	.st24{fill:url(#SVGID_00000173157216266410312610000006936668886310807943_);}
	.st25{fill:none;stroke:#C9C9C9;stroke-miterlimit:10;}
	.st26{fill:url(#SVGID_00000018229668429027490170000002729492002267796886_);}
</style>
<linearGradient id="SVGID_1_" gradientUnits="userSpaceOnUse" x1="965.8931" y1="372.9833" x2="965.8931" y2="-503.1369">
	<stop  offset="0" style="stop-color:#55AD3F"/>
	<stop  offset="1" style="stop-color:#FFE50F"/>
</linearGradient>
<path class="st0" d="M965.9,561L965.9,561c-77.7,0-140.8-63-140.8-140.8V149.2c0-77.7,63-140.8,140.8-140.8h0
	c77.7,0,140.8,63,140.8,140.8v271.1C1106.7,498,1043.6,561,965.9,561z"/>
<g>
	<path class="st3" d="M241.5,190.4h8.6v1.6h-3.3v10.6h-2V192h-3.3V190.4z"/>
	<path class="st3" d="M254.1,202.7h-2v-9.7h2v1.4c0.6-1,1.5-1.6,2.9-1.6v2.1h-0.5c-1.5,0-2.4,0.6-2.4,2.7V202.7z"/>
	<path class="st3" d="M262.8,192.8c1.6,0,2.8,0.8,3.4,1.6v-1.4h2v9.7h-2v-1.4c-0.6,0.8-1.8,1.6-3.4,1.6c-2.5,0-4.6-2.1-4.6-5.1
		S260.2,192.8,262.8,192.8z M263.2,194.5c-1.5,0-3,1.1-3,3.2s1.4,3.3,3,3.3c1.5,0,3-1.2,3-3.3C266.2,195.7,264.7,194.5,263.2,194.5z
		"/>
	<path class="st3" d="M277.8,197.2c0-1.8-1-2.7-2.4-2.7c-1.5,0-2.5,0.9-2.5,2.7v5.4h-2v-9.7h2v1.1c0.7-0.8,1.7-1.3,2.9-1.3
		c2.3,0,4,1.4,4,4.2v5.7h-2V197.2z"/>
	<path class="st3" d="M285.8,202.8c-2.3,0-4-1.4-4.1-3.1h2.1c0.1,0.8,0.8,1.4,1.9,1.4c1.2,0,1.8-0.5,1.8-1.2c0-1.9-5.7-0.8-5.7-4.4
		c0-1.6,1.4-2.8,3.7-2.8c2.2,0,3.7,1.2,3.8,3.1h-2c-0.1-0.8-0.7-1.4-1.8-1.4c-1.1,0-1.6,0.4-1.6,1.1c0,2,5.5,0.9,5.6,4.4
		C289.6,201.6,288.1,202.8,285.8,202.8z"/>
	<path class="st3" d="M291.5,190.4c0-0.7,0.6-1.3,1.3-1.3c0.7,0,1.3,0.6,1.3,1.3s-0.6,1.3-1.3,1.3
		C292.1,191.7,291.5,191.1,291.5,190.4z M291.8,192.9h2v9.7h-2V192.9z"/>
	<path class="st3" d="M300.5,192.8c2.4,0,3.9,1.2,4.5,3.2h-2.2c-0.3-0.9-1.1-1.5-2.3-1.5c-1.6,0-2.7,1.2-2.7,3.3
		c0,2.1,1.1,3.3,2.7,3.3c1.2,0,1.9-0.5,2.3-1.5h2.2c-0.5,1.9-2.1,3.2-4.5,3.2c-2.8,0-4.8-2-4.8-5
		C295.7,194.8,297.7,192.8,300.5,192.8z"/>
	<path class="st3" d="M306.8,190.4c0-0.7,0.6-1.3,1.3-1.3c0.7,0,1.3,0.6,1.3,1.3s-0.6,1.3-1.3,1.3
		C307.3,191.7,306.8,191.1,306.8,190.4z M307,192.9h2v9.7h-2V192.9z"/>
	<path class="st3" d="M315.9,202.8c-2.8,0-4.9-2-4.9-5c0-3.1,2.2-5,5-5s5,2,5,5C321,200.9,318.7,202.8,315.9,202.8z M315.9,201.1
		c1.5,0,3-1.1,3-3.3c0-2.2-1.4-3.3-2.9-3.3c-1.5,0-2.9,1.1-2.9,3.3C313.1,200,314.4,201.1,315.9,201.1z M317.8,188.5v1.7l-3.9,1.9
		v-1.5L317.8,188.5z"/>
	<path class="st3" d="M329.9,197.2c0-1.8-1-2.7-2.4-2.7c-1.5,0-2.5,0.9-2.5,2.7v5.4h-2v-9.7h2v1.1c0.7-0.8,1.7-1.3,2.9-1.3
		c2.3,0,4,1.4,4,4.2v5.7h-2V197.2z"/>
	<path class="st3" d="M343.2,202.8c-2.8,0-4.9-2-4.9-5c0-3.1,2-5,4.9-5c2.8,0,4.7,1.9,4.7,4.8c0,0.3,0,0.7-0.1,1h-7.4
		c0.1,1.6,1.3,2.6,2.8,2.6c1.2,0,1.9-0.6,2.3-1.4h2.2C347.1,201.5,345.6,202.8,343.2,202.8z M340.5,196.9h5.4c0-1.5-1.2-2.5-2.7-2.5
		C341.8,194.5,340.7,195.4,340.5,196.9z"/>
	<path class="st3" d="M356.9,197.2c0-1.8-1-2.7-2.4-2.7c-1.5,0-2.5,0.9-2.5,2.7v5.4h-2v-9.7h2v1.1c0.7-0.8,1.7-1.3,2.9-1.3
		c2.3,0,4,1.4,4,4.2v5.7h-2V197.2z"/>
	<path class="st3" d="M366,189.6h2v13.1h-2V189.6z"/>
	<path class="st3" d="M374.6,192.8c1.6,0,2.8,0.8,3.4,1.6v-1.4h2v9.7h-2v-1.4c-0.6,0.8-1.8,1.6-3.4,1.6c-2.5,0-4.6-2.1-4.6-5.1
		S372,192.8,374.6,192.8z M375,194.5c-1.5,0-3,1.1-3,3.2s1.4,3.3,3,3.3c1.5,0,3-1.2,3-3.3C378,195.7,376.5,194.5,375,194.5z"/>
	<path class="st3" d="M391.2,192.8c1.6,0,2.8,0.7,3.4,1.6v-1.4h2v9.9c0,2.7-1.7,4.6-4.8,4.6c-2.6,0-4.5-1.3-4.8-3.4h2
		c0.3,1,1.4,1.7,2.8,1.7c1.6,0,2.7-1,2.7-2.9v-1.6c-0.6,0.8-1.8,1.6-3.4,1.6c-2.6,0-4.6-2.1-4.6-5.1S388.6,192.8,391.2,192.8z
		 M391.6,194.5c-1.5,0-3,1.1-3,3.2s1.4,3.3,3,3.3c1.5,0,3-1.2,3-3.3C394.6,195.7,393.1,194.5,391.6,194.5z"/>
	<path class="st3" d="M403.4,202.8c-2.8,0-4.9-2-4.9-5c0-3.1,2-5,4.9-5c2.8,0,4.7,1.9,4.7,4.8c0,0.3,0,0.7-0.1,1h-7.4
		c0.1,1.6,1.3,2.6,2.8,2.6c1.2,0,1.9-0.6,2.3-1.4h2.2C407.4,201.5,405.8,202.8,403.4,202.8z M400.7,196.9h5.4c0-1.5-1.2-2.5-2.7-2.5
		C402,194.5,400.9,195.4,400.7,196.9z"/>
	<path class="st3" d="M417.1,197.2c0-1.8-1-2.7-2.4-2.7c-1.5,0-2.5,0.9-2.5,2.7v5.4h-2v-9.7h2v1.1c0.7-0.8,1.7-1.3,2.9-1.3
		c2.3,0,4,1.4,4,4.2v5.7h-2V197.2z"/>
	<path class="st3" d="M425.8,202.8c-2.8,0-4.9-2-4.9-5c0-3.1,2-5,4.9-5c2.8,0,4.7,1.9,4.7,4.8c0,0.3,0,0.7-0.1,1H423
		c0.1,1.6,1.3,2.6,2.8,2.6c1.2,0,1.9-0.6,2.3-1.4h2.2C429.7,201.5,428.2,202.8,425.8,202.8z M423.1,196.9h5.4c0-1.5-1.2-2.5-2.7-2.5
		C424.4,194.5,423.3,195.4,423.1,196.9z"/>
	<path class="st3" d="M434.5,202.7h-2v-9.7h2v1.4c0.6-1,1.5-1.6,2.9-1.6v2.1h-0.5c-1.5,0-2.4,0.6-2.4,2.7V202.7z"/>
	<path class="st3" d="M443.2,192.8c1.6,0,2.8,0.8,3.4,1.6v-1.4h2v9.7h-2v-1.4c-0.6,0.8-1.8,1.6-3.4,1.6c-2.5,0-4.6-2.1-4.6-5.1
		S440.7,192.8,443.2,192.8z M443.7,194.5c-1.5,0-3,1.1-3,3.2s1.4,3.3,3,3.3c1.5,0,3-1.2,3-3.3C446.6,195.7,445.2,194.5,443.7,194.5z
		"/>
	<path class="st3" d="M455.4,192.8c2.4,0,3.9,1.2,4.5,3.2h-2.2c-0.3-0.9-1.1-1.5-2.3-1.5c-1.6,0-2.7,1.2-2.7,3.3
		c0,2.1,1.1,3.3,2.7,3.3c1.2,0,1.9-0.5,2.3-1.5h2.2c-0.5,1.9-2.1,3.2-4.5,3.2c-2.8,0-4.8-2-4.8-5
		C450.6,194.8,452.6,192.8,455.4,192.8z"/>
	<path class="st3" d="M461.6,190.4c0-0.7,0.6-1.3,1.3-1.3c0.7,0,1.3,0.6,1.3,1.3s-0.6,1.3-1.3,1.3
		C462.2,191.7,461.6,191.1,461.6,190.4z M461.9,192.9h2v9.7h-2V192.9z"/>
	<path class="st3" d="M470.8,202.8c-2.8,0-4.9-2-4.9-5c0-3.1,2.2-5,5-5s5,2,5,5C475.8,200.9,473.6,202.8,470.8,202.8z M470.8,201.1
		c1.5,0,3-1.1,3-3.3c0-2.2-1.4-3.3-2.9-3.3c-1.5,0-2.9,1.1-2.9,3.3C468,200,469.3,201.1,470.8,201.1z M472.7,188.5v1.7l-3.9,1.9
		v-1.5L472.7,188.5z"/>
	<path class="st3" d="M484.8,197.2c0-1.8-1-2.7-2.4-2.7c-1.5,0-2.5,0.9-2.5,2.7v5.4h-2v-9.7h2v1.1c0.7-0.8,1.7-1.3,2.9-1.3
		c2.3,0,4,1.4,4,4.2v5.7h-2V197.2z"/>
	<path class="st3" d="M497.9,192.8c1.3,0,2.6,0.6,3.4,1.5v-4.7h2v13.1h-2v-1.5c-0.6,0.9-1.8,1.6-3.4,1.6c-2.6,0-4.6-2.1-4.6-5.1
		S495.3,192.8,497.9,192.8z M498.3,194.5c-1.5,0-3,1.1-3,3.2s1.4,3.3,3,3.3c1.5,0,3-1.2,3-3.3C501.2,195.7,499.8,194.5,498.3,194.5z
		"/>
	<path class="st3" d="M510.1,202.8c-2.8,0-4.9-2-4.9-5c0-3.1,2-5,4.9-5c2.8,0,4.7,1.9,4.7,4.8c0,0.3,0,0.7-0.1,1h-7.4
		c0.1,1.6,1.3,2.6,2.8,2.6c1.2,0,1.9-0.6,2.3-1.4h2.2C514,201.5,512.5,202.8,510.1,202.8z M507.3,196.9h5.4c0-1.5-1.2-2.5-2.7-2.5
		C508.6,194.5,507.5,195.4,507.3,196.9z"/>
	<path class="st3" d="M525.6,202.8c-2.8,0-4.9-2-4.9-5c0-3.1,2-5,4.9-5c2.8,0,4.7,1.9,4.7,4.8c0,0.3,0,0.7-0.1,1h-7.4
		c0.1,1.6,1.3,2.6,2.8,2.6c1.2,0,1.9-0.6,2.3-1.4h2.2C529.5,201.5,528,202.8,525.6,202.8z M522.8,196.9h5.4c0-1.5-1.2-2.5-2.7-2.5
		C524.1,194.5,523,195.4,522.8,196.9z"/>
	<path class="st3" d="M539.2,197.2c0-1.8-1-2.7-2.4-2.7c-1.5,0-2.5,0.9-2.5,2.7v5.4h-2v-9.7h2v1.1c0.7-0.8,1.7-1.3,2.9-1.3
		c2.3,0,4,1.4,4,4.2v5.7h-2V197.2z"/>
	<path class="st3" d="M548,202.8c-2.8,0-4.9-2-4.9-5c0-3.1,2-5,4.9-5c2.8,0,4.7,1.9,4.7,4.8c0,0.3,0,0.7-0.1,1h-7.4
		c0.1,1.6,1.3,2.6,2.8,2.6c1.2,0,1.9-0.6,2.3-1.4h2.2C551.9,201.5,550.4,202.8,548,202.8z M545.2,196.9h5.4c0-1.5-1.2-2.5-2.7-2.5
		C546.5,194.5,545.4,195.4,545.2,196.9z"/>
	<path class="st3" d="M556.7,202.7h-2v-9.7h2v1.4c0.6-1,1.5-1.6,2.9-1.6v2.1h-0.5c-1.5,0-2.4,0.6-2.4,2.7V202.7z"/>
	<path class="st3" d="M565.4,192.8c1.6,0,2.8,0.7,3.4,1.6v-1.4h2v9.9c0,2.7-1.7,4.6-4.8,4.6c-2.6,0-4.5-1.3-4.8-3.4h2
		c0.3,1,1.4,1.7,2.8,1.7c1.6,0,2.7-1,2.7-2.9v-1.6c-0.6,0.8-1.8,1.6-3.4,1.6c-2.6,0-4.6-2.1-4.6-5.1S562.8,192.8,565.4,192.8z
		 M565.8,194.5c-1.5,0-3,1.1-3,3.2s1.4,3.3,3,3.3c1.5,0,3-1.2,3-3.3C568.8,195.7,567.3,194.5,565.8,194.5z"/>
	<path class="st3" d="M576.3,188.6v1.7l-3.9,1.9v-1.5L576.3,188.6z M573.5,192.9h2v9.7h-2V192.9z"/>
	<path class="st3" d="M582,192.8c1.6,0,2.8,0.8,3.4,1.6v-1.4h2v9.7h-2v-1.4c-0.6,0.8-1.8,1.6-3.4,1.6c-2.5,0-4.6-2.1-4.6-5.1
		S579.5,192.8,582,192.8z M582.5,194.5c-1.5,0-3,1.1-3,3.2s1.4,3.3,3,3.3c1.5,0,3-1.2,3-3.3C585.4,195.7,584,194.5,582.5,194.5z"/>
	<path class="st3" d="M598.9,202.8c-2.8,0-4.9-2-4.9-5c0-3.1,2-5,4.9-5c2.8,0,4.7,1.9,4.7,4.8c0,0.3,0,0.7-0.1,1h-7.4
		c0.1,1.6,1.3,2.6,2.8,2.6c1.2,0,1.9-0.6,2.3-1.4h2.2C602.8,201.5,601.3,202.8,598.9,202.8z M596.1,196.9h5.4c0-1.5-1.2-2.5-2.7-2.5
		C597.4,194.5,596.3,195.4,596.1,196.9z"/>
	<path class="st3" d="M612.5,197.2c0-1.8-1-2.7-2.4-2.7c-1.5,0-2.5,0.9-2.5,2.7v5.4h-2v-9.7h2v1.1c0.7-0.8,1.7-1.3,2.9-1.3
		c2.3,0,4,1.4,4,4.2v5.7h-2V197.2z"/>
	<path class="st3" d="M625.9,202.8c-2.8,0-4.9-2-4.9-5c0-3.1,2-5,4.9-5c2.8,0,4.7,1.9,4.7,4.8c0,0.3,0,0.7-0.1,1h-7.4
		c0.1,1.6,1.3,2.6,2.8,2.6c1.2,0,1.9-0.6,2.3-1.4h2.2C629.8,201.5,628.3,202.8,625.9,202.8z M623.1,196.9h5.4c0-1.5-1.2-2.5-2.7-2.5
		C624.4,194.5,623.3,195.4,623.1,196.9z"/>
	<path class="st3" d="M632.6,189.6h2v13.1h-2V189.6z"/>
	<path class="st3" d="M655.6,197.2c0-1.8-1-2.7-2.4-2.7c-1.5,0-2.5,0.9-2.5,2.7v5.4h-2v-5.4c0-1.8-1-2.7-2.4-2.7
		c-1.5,0-2.5,0.9-2.5,2.7v5.4h-2v-9.7h2v1.1c0.7-0.8,1.7-1.3,2.9-1.3c1.5,0,2.8,0.7,3.5,1.9c0.6-1.2,2-1.9,3.4-1.9
		c2.3,0,4,1.4,4,4.2v5.7h-2V197.2z"/>
	<path class="st3" d="M669,202.7h-2v-1.2c-0.6,0.8-1.7,1.3-2.9,1.3c-2.3,0-4-1.4-4-4.2v-5.7h2v5.4c0,1.8,1,2.7,2.4,2.7
		c1.5,0,2.5-0.9,2.5-2.7v-5.4h2V202.7z"/>
	<path class="st3" d="M678.6,197.2c0-1.8-1-2.7-2.4-2.7c-1.5,0-2.5,0.9-2.5,2.7v5.4h-2v-9.7h2v1.1c0.7-0.8,1.7-1.3,2.9-1.3
		c2.3,0,4,1.4,4,4.2v5.7h-2V197.2z"/>
	<path class="st3" d="M687.1,192.8c1.3,0,2.6,0.6,3.4,1.5v-4.7h2v13.1h-2v-1.5c-0.6,0.9-1.8,1.6-3.4,1.6c-2.6,0-4.6-2.1-4.6-5.1
		S684.5,192.8,687.1,192.8z M687.5,194.5c-1.5,0-3,1.1-3,3.2s1.4,3.3,3,3.3c1.5,0,3-1.2,3-3.3C690.5,195.7,689,194.5,687.5,194.5z"
		/>
	<path class="st3" d="M699.4,202.8c-2.8,0-4.9-2-4.9-5c0-3.1,2.2-5,5-5s5,2,5,5C704.4,200.9,702.2,202.8,699.4,202.8z M699.4,201.1
		c1.5,0,3-1.1,3-3.3c0-2.2-1.4-3.3-2.9-3.3c-1.5,0-2.9,1.1-2.9,3.3C696.5,200,697.8,201.1,699.4,201.1z"/>
</g>
<g>
	<path class="st3" d="M146.2,258.9c-1.8,0-3.1-1.1-3.2-2.5h1.6c0.1,0.6,0.6,1.1,1.5,1.1c0.9,0,1.4-0.4,1.4-0.9
		c0-1.5-4.4-0.6-4.4-3.4c0-1.2,1.1-2.2,2.9-2.2c1.7,0,2.9,0.9,2.9,2.4h-1.6c-0.1-0.7-0.6-1.1-1.4-1.1c-0.8,0-1.3,0.3-1.3,0.9
		c0,1.5,4.3,0.7,4.4,3.4C149.1,257.9,148,258.9,146.2,258.9z"/>
	<path class="st3" d="M154.1,258.9c-2.2,0-3.8-1.5-3.8-3.9c0-2.4,1.7-3.9,3.9-3.9s3.9,1.5,3.9,3.9
		C158,257.4,156.3,258.9,154.1,258.9z M154.1,257.5c1.2,0,2.3-0.8,2.3-2.6c0-1.7-1.1-2.5-2.3-2.5c-1.2,0-2.2,0.8-2.2,2.5
		C151.9,256.7,152.9,257.5,154.1,257.5z"/>
	<path class="st3" d="M159.6,248.6h1.6v10.2h-1.6V248.6z"/>
	<path class="st3" d="M166.3,251.1c1.3,0,2.2,0.6,2.6,1.2v-1.1h1.6v7.6h-1.6v-1.1c-0.5,0.6-1.4,1.3-2.7,1.3c-2,0-3.6-1.6-3.6-4
		C162.7,252.6,164.3,251.1,166.3,251.1z M166.6,252.4c-1.2,0-2.3,0.9-2.3,2.5c0,1.6,1.1,2.6,2.3,2.6c1.2,0,2.3-0.9,2.3-2.6
		C168.9,253.3,167.8,252.4,166.6,252.4z"/>
	<path class="st3" d="M174.1,258.8h-1.6v-7.6h1.6v1.1c0.4-0.8,1.2-1.2,2.3-1.2v1.6H176c-1.2,0-1.9,0.5-1.9,2.1V258.8z"/>
	<path class="st3" d="M181.6,252.5h-0.9v-1.3h0.9v-0.5c0-1.8,0.9-2.5,2.9-2.5v1.3c-1,0-1.3,0.3-1.3,1.2v0.5h1.4v1.3h-1.4v6.3h-1.6
		V252.5z"/>
	<path class="st3" d="M189.3,258.9c-2.2,0-3.8-1.5-3.8-3.9c0-2.4,1.7-3.9,3.9-3.9s3.9,1.5,3.9,3.9
		C193.2,257.4,191.5,258.9,189.3,258.9z M189.3,257.5c1.2,0,2.3-0.8,2.3-2.6c0-1.7-1.1-2.5-2.3-2.5c-1.2,0-2.2,0.8-2.2,2.5
		C187.1,256.7,188.1,257.5,189.3,257.5z"/>
	<path class="st3" d="M195,252.5h-0.9v-1.3h0.9v-1.9h1.6v1.9h1.8v1.3h-1.8v4.2c0,0.6,0.2,0.8,0.9,0.8h1v1.3h-1.2
		c-1.4,0-2.2-0.6-2.2-2.1V252.5z"/>
	<path class="st3" d="M203.2,258.9c-2.2,0-3.8-1.5-3.8-3.9c0-2.4,1.7-3.9,3.9-3.9s3.9,1.5,3.9,3.9
		C207.2,257.4,205.4,258.9,203.2,258.9z M203.2,257.5c1.2,0,2.3-0.8,2.3-2.6c0-1.7-1.1-2.5-2.3-2.5c-1.2,0-2.2,0.8-2.2,2.5
		C201,256.7,202,257.5,203.2,257.5z"/>
	<path class="st3" d="M209.5,251.2l2.1,6.2l2.2-6.2h1.7l-2.9,7.6h-1.9l-2.9-7.6H209.5z"/>
	<path class="st3" d="M219.9,258.9c-2.2,0-3.8-1.5-3.8-3.9c0-2.4,1.7-3.9,3.9-3.9s3.9,1.5,3.9,3.9
		C223.9,257.4,222.1,258.9,219.9,258.9z M219.9,257.5c1.2,0,2.3-0.8,2.3-2.6c0-1.7-1.1-2.5-2.3-2.5c-1.2,0-2.2,0.8-2.2,2.5
		C217.7,256.7,218.8,257.5,219.9,257.5z"/>
	<path class="st3" d="M225.4,248.6h1.6v10.2h-1.6V248.6z"/>
	<path class="st3" d="M229.3,252.5h-0.9v-1.3h0.9v-1.9h1.6v1.9h1.8v1.3h-1.8v4.2c0,0.6,0.2,0.8,0.9,0.8h1v1.3h-1.2
		c-1.4,0-2.2-0.6-2.2-2.1V252.5z"/>
	<path class="st3" d="M237.3,251.1c1.3,0,2.2,0.6,2.6,1.2v-1.1h1.6v7.6h-1.6v-1.1c-0.5,0.6-1.4,1.3-2.7,1.3c-2,0-3.6-1.6-3.6-4
		C233.7,252.6,235.3,251.1,237.3,251.1z M237.6,252.4c-1.2,0-2.3,0.9-2.3,2.5c0,1.6,1.1,2.6,2.3,2.6c1.2,0,2.3-0.9,2.3-2.6
		C239.9,253.3,238.8,252.4,237.6,252.4z"/>
	<path class="st3" d="M243.3,249.2c0-0.6,0.4-1,1-1c0.6,0,1,0.4,1,1c0,0.6-0.4,1-1,1C243.8,250.2,243.3,249.7,243.3,249.2z
		 M243.5,251.2h1.6v7.6h-1.6V251.2z"/>
	<path class="st3" d="M250.4,251.1c1.9,0,3.1,0.9,3.5,2.5h-1.7c-0.3-0.7-0.9-1.2-1.8-1.2c-1.3,0-2.1,0.9-2.1,2.6
		c0,1.7,0.8,2.6,2.1,2.6c0.9,0,1.5-0.4,1.8-1.2h1.7c-0.4,1.5-1.6,2.5-3.5,2.5c-2.2,0-3.7-1.5-3.7-3.9
		C246.6,252.6,248.2,251.1,250.4,251.1z"/>
	<path class="st3" d="M258.5,251.1c1.3,0,2.2,0.6,2.6,1.2v-1.1h1.6v7.6h-1.6v-1.1c-0.5,0.6-1.4,1.3-2.7,1.3c-2,0-3.6-1.6-3.6-4
		C254.9,252.6,256.5,251.1,258.5,251.1z M258.8,252.4c-1.2,0-2.3,0.9-2.3,2.5c0,1.6,1.1,2.6,2.3,2.6c1.2,0,2.3-0.9,2.3-2.6
		C261.1,253.3,260,252.4,258.8,252.4z"/>
</g>
<g>
	<path class="st14" d="M901.3,179.5c2.7-2.4,5.6-4.5,5.6-6.8c0-1.2-0.5-2-1.9-2c-1.3,0-2,0.9-2,2.2h-1.8c0.1-2.5,1.7-3.7,3.7-3.7
		c2.4,0,3.7,1.4,3.7,3.5c0,2.8-2.9,5-4.7,6.7h5.1v1.5h-7.7V179.5z"/>
	<path class="st14" d="M918.1,169.3v1.6h-5.3v3.2c0.4-0.6,1.4-1.1,2.4-1.1c2.9,0,3.7,2.1,3.7,3.9c0,2.3-1.3,4.1-4,4.1
		c-2.4,0-3.8-1.3-4.1-3.1h1.8c0.2,1,1.1,1.6,2.3,1.6c1.6,0,2.3-1.1,2.3-2.5c0-1.5-0.8-2.4-2.3-2.4c-1.1,0-1.8,0.6-2.1,1.5h-1.7v-6.7
		H918.1z"/>
	<path class="st14" d="M925,169.1c3.3,0,4.1,2.6,4.1,5.9c0,3.4-0.9,5.9-4.1,5.9s-4.1-2.6-4.1-5.9C920.8,171.7,921.7,169.1,925,169.1
		z M925,170.8c-2.1,0-2.4,2-2.4,4.2c0,2.3,0.2,4.3,2.4,4.3s2.4-2,2.4-4.3C927.3,172.8,927.1,170.8,925,170.8z"/>
	<path class="st14" d="M945.7,173.1h-2.2c-0.6-1.1-1.6-1.7-3-1.7c-2.2,0-3.8,1.6-3.8,4s1.6,4,3.8,4c2,0,3.3-1.2,3.5-3.1h-4.2v-1.5
		h6.1v1.4c-0.3,2.6-2.5,4.8-5.5,4.8c-3.1,0-5.7-2.3-5.7-5.7c0-3.3,2.5-5.7,5.7-5.7C942.8,169.7,944.8,170.9,945.7,173.1z"/>
	<path class="st14" d="M946.9,169.9h1.9l2.3,9l2.5-9h2l2.3,9l2.3-9h1.9l-3.3,11.1h-2.1l-2.3-8.4l-2.5,8.4l-2,0L946.9,169.9z"/>
	<path class="st14" d="M968.6,172c2.3,0,4.1,1.8,4.1,4.5c0,2.7-1.8,4.6-4.1,4.6c-1.5,0-2.5-0.7-3.1-1.4v5.5h-1.8v-13h1.8v1.3
		C966.1,172.7,967.1,172,968.6,172z M968.2,173.6c-1.4,0-2.7,1.1-2.7,3c0,1.9,1.3,3,2.7,3c1.4,0,2.7-1.1,2.7-3
		C970.9,174.6,969.6,173.6,968.2,173.6z"/>
	<path class="st14" d="M982.2,172c1.1,0,2.4,0.5,3,1.4v-4.2h1.8v11.8h-1.8v-1.3c-0.6,0.8-1.6,1.5-3,1.5c-2.3,0-4.1-1.9-4.1-4.6
		C978.1,173.8,979.9,172,982.2,172z M982.6,173.6c-1.4,0-2.7,1-2.7,2.9c0,1.9,1.3,3,2.7,3c1.4,0,2.7-1.1,2.7-3
		C985.2,174.7,984,173.6,982.6,173.6z"/>
	<path class="st14" d="M993.2,181.1c-2.5,0-4.4-1.8-4.4-4.5s1.8-4.5,4.4-4.5c2.5,0,4.3,1.7,4.3,4.3c0,0.3,0,0.6-0.1,0.9h-6.7
		c0.1,1.5,1.2,2.3,2.5,2.3c1.1,0,1.7-0.5,2.1-1.2h2C996.8,179.9,995.4,181.1,993.2,181.1z M990.8,175.8h4.9c0-1.4-1.1-2.2-2.5-2.2
		C991.9,173.5,990.9,174.4,990.8,175.8z"/>
	<path class="st14" d="M1007.2,181.1c-2.5,0-4.4-1.8-4.4-4.5s1.8-4.5,4.4-4.5c2.5,0,4.3,1.7,4.3,4.3c0,0.3,0,0.6-0.1,0.9h-6.7
		c0.1,1.5,1.2,2.3,2.5,2.3c1.1,0,1.7-0.5,2.1-1.2h2C1010.8,179.9,1009.4,181.1,1007.2,181.1z M1004.7,175.8h4.9
		c0-1.4-1.1-2.2-2.5-2.2C1005.9,173.5,1004.9,174.4,1004.7,175.8z"/>
	<path class="st14" d="M1019.5,176c0-1.6-0.9-2.4-2.2-2.4c-1.3,0-2.2,0.8-2.2,2.4v4.9h-1.8v-8.8h1.8v1c0.6-0.7,1.6-1.1,2.6-1.1
		c2.1,0,3.6,1.3,3.6,3.7v5.2h-1.8V176z"/>
	<path class="st14" d="M1027.4,181.1c-2.5,0-4.4-1.8-4.4-4.5s1.8-4.5,4.4-4.5c2.5,0,4.3,1.7,4.3,4.3c0,0.3,0,0.6-0.1,0.9h-6.7
		c0.1,1.5,1.2,2.3,2.5,2.3c1.1,0,1.7-0.5,2.1-1.2h2C1031,179.9,1029.6,181.1,1027.4,181.1z M1024.9,175.8h4.9c0-1.4-1.1-2.2-2.5-2.2
		C1026.1,173.5,1025.1,174.4,1024.9,175.8z"/>
	<path class="st14" d="M1035.3,180.9h-1.8v-8.8h1.8v1.3c0.5-0.9,1.4-1.4,2.6-1.4v1.9h-0.5c-1.3,0-2.2,0.6-2.2,2.4V180.9z"/>
	<path class="st14" d="M1043.1,172c1.4,0,2.5,0.7,3,1.4v-1.3h1.8v8.9c0,2.4-1.5,4.2-4.3,4.2c-2.3,0-4.1-1.2-4.3-3.1h1.8
		c0.3,0.9,1.2,1.5,2.5,1.5c1.4,0,2.5-0.9,2.5-2.6v-1.5c-0.6,0.7-1.6,1.5-3,1.5c-2.3,0-4.1-1.9-4.1-4.6
		C1039,173.8,1040.8,172,1043.1,172z M1043.5,173.6c-1.4,0-2.7,1-2.7,2.9c0,1.9,1.3,3,2.7,3c1.4,0,2.7-1.1,2.7-3
		C1046.2,174.7,1044.9,173.6,1043.5,173.6z"/>
	<path class="st14" d="M1053,168.3v1.5l-3.5,1.7v-1.3L1053,168.3z M1050.4,172.2h1.8v8.8h-1.8V172.2z"/>
	<path class="st14" d="M1058.2,172c1.5,0,2.5,0.7,3,1.4v-1.3h1.8v8.8h-1.8v-1.3c-0.6,0.7-1.6,1.5-3.1,1.5c-2.3,0-4.1-1.9-4.1-4.6
		C1054,173.8,1055.8,172,1058.2,172z M1058.5,173.6c-1.4,0-2.7,1-2.7,2.9c0,1.9,1.3,3,2.7,3c1.4,0,2.7-1.1,2.7-3
		C1061.2,174.7,1059.9,173.6,1058.5,173.6z"/>
	<path class="st14" d="M904.9,200.2c-2.1,0-3.6-1.2-3.7-2.8h1.9c0.1,0.7,0.8,1.3,1.8,1.3c1.1,0,1.6-0.4,1.6-1.1c0-1.7-5.1-0.7-5.1-4
		c0-1.4,1.3-2.5,3.4-2.5c2,0,3.3,1.1,3.4,2.8h-1.8c-0.1-0.8-0.7-1.3-1.6-1.3c-1,0-1.5,0.4-1.5,1c0,1.8,5,0.8,5.1,4
		C908.2,199.1,907,200.2,904.9,200.2z"/>
	<path class="st14" d="M914,200.2c-2.5,0-4.4-1.8-4.4-4.5c0-2.8,2-4.5,4.5-4.5c2.5,0,4.5,1.8,4.5,4.5
		C918.6,198.4,916.5,200.2,914,200.2z M914,198.6c1.4,0,2.7-1,2.7-3s-1.3-3-2.6-3c-1.4,0-2.6,1-2.6,3S912.6,198.6,914,198.6z"/>
	<path class="st14" d="M920.4,188.3h1.8v11.8h-1.8V188.3z"/>
	<path class="st14" d="M928.1,191.2c1.5,0,2.5,0.7,3,1.4v-1.3h1.8v8.8h-1.8v-1.3c-0.6,0.8-1.6,1.5-3.1,1.5c-2.3,0-4.1-1.9-4.1-4.6
		S925.8,191.2,928.1,191.2z M928.5,192.7c-1.4,0-2.7,1-2.7,2.9s1.3,3,2.7,3c1.4,0,2.7-1.1,2.7-3
		C931.2,193.8,929.9,192.7,928.5,192.7z"/>
	<path class="st14" d="M937.2,200.1h-1.8v-8.8h1.8v1.3c0.5-0.9,1.4-1.4,2.6-1.4v1.9h-0.5c-1.3,0-2.2,0.6-2.2,2.4V200.1z"/>
	<path class="st14" d="M945.7,189h6.5v1.5h-4.7v3.3h3.7v1.5h-3.7v4.8h-1.8V189z"/>
	<path class="st14" d="M961.5,189h1.9l-4.2,11.1h-2.1L953,189h1.9l3.3,9.2L961.5,189z"/>
	<path class="st14" d="M972.9,200.2c-2.5,0-4.4-1.8-4.4-4.5c0-2.8,1.8-4.5,4.4-4.5c2.5,0,4.3,1.7,4.3,4.3c0,0.3,0,0.6-0.1,0.9h-6.7
		c0.1,1.5,1.2,2.3,2.5,2.3c1.1,0,1.7-0.5,2.1-1.2h2C976.4,199,975,200.2,972.9,200.2z M970.4,194.9h4.9c0-1.4-1.1-2.2-2.5-2.2
		C971.6,192.7,970.6,193.5,970.4,194.9z"/>
	<path class="st14" d="M985.2,195.2c0-1.6-0.9-2.4-2.2-2.4c-1.3,0-2.2,0.8-2.2,2.4v4.9h-1.8v-8.8h1.8v1c0.6-0.7,1.6-1.1,2.6-1.1
		c2.1,0,3.6,1.3,3.6,3.7v5.2h-1.8V195.2z"/>
	<path class="st14" d="M995.2,189v9.6h3.7v1.5h-5.6V189H995.2z"/>
	<path class="st14" d="M1004,191.2c1.5,0,2.5,0.7,3,1.4v-1.3h1.8v8.8h-1.8v-1.3c-0.6,0.8-1.6,1.5-3.1,1.5c-2.3,0-4.1-1.9-4.1-4.6
		S1001.7,191.2,1004,191.2z M1004.4,192.7c-1.4,0-2.7,1-2.7,2.9s1.3,3,2.7,3c1.4,0,2.7-1.1,2.7-3
		C1007.1,193.8,1005.8,192.7,1004.4,192.7z"/>
	<path class="st14" d="M1011.6,192.8h-1v-1.5h1v-2.2h1.8v2.2h2.1v1.5h-2.1v4.9c0,0.7,0.3,0.9,1,0.9h1.1v1.5h-1.4
		c-1.6,0-2.5-0.7-2.5-2.4V192.8z"/>
	<path class="st14" d="M1023.9,197.8h-4.6l-0.8,2.3h-1.9l4-11.1h2.1l4,11.1h-1.9L1023.9,197.8z M1021.6,191.2l-1.8,5.2h3.6
		L1021.6,191.2z"/>
	<path class="st14" d="M1040.8,195.2c0-1.6-0.9-2.4-2.2-2.4c-1.3,0-2.2,0.8-2.2,2.4v4.9h-1.8v-4.9c0-1.6-0.9-2.4-2.2-2.4
		c-1.3,0-2.2,0.8-2.2,2.4v4.9h-1.8v-8.8h1.8v1c0.6-0.7,1.5-1.1,2.6-1.1c1.4,0,2.6,0.6,3.2,1.7c0.5-1.1,1.8-1.7,3.1-1.7
		c2.1,0,3.6,1.3,3.6,3.7v5.2h-1.8V195.2z"/>
	<path class="st14" d="M1053.9,191.2c2.3,0,4.1,1.8,4.1,4.5s-1.8,4.6-4.1,4.6c-1.5,0-2.5-0.7-3.1-1.4v5.5h-1.8v-13h1.8v1.3
		C1051.4,191.9,1052.5,191.2,1053.9,191.2z M1053.5,192.7c-1.4,0-2.7,1.1-2.7,3c0,1.9,1.3,3,2.7,3c1.4,0,2.7-1.1,2.7-3
		S1054.9,192.7,1053.5,192.7z"/>
	<path class="st14" d="M1063.4,191.2c1.5,0,2.5,0.7,3,1.4v-1.3h1.8v8.8h-1.8v-1.3c-0.6,0.8-1.6,1.5-3.1,1.5c-2.3,0-4.1-1.9-4.1-4.6
		S1061.1,191.2,1063.4,191.2z M1063.8,192.7c-1.4,0-2.7,1-2.7,2.9s1.3,3,2.7,3c1.4,0,2.7-1.1,2.7-3
		C1066.5,193.8,1065.2,192.7,1063.8,192.7z"/>
	<path class="st14" d="M1072.5,200.1h-1.8v-8.8h1.8v1.3c0.5-0.9,1.4-1.4,2.6-1.4v1.9h-0.5c-1.3,0-2.2,0.6-2.2,2.4V200.1z"/>
	<path class="st14" d="M1080.3,191.2c1.5,0,2.5,0.7,3,1.4v-1.3h1.8v8.8h-1.8v-1.3c-0.6,0.8-1.6,1.5-3.1,1.5c-2.3,0-4.1-1.9-4.1-4.6
		S1078,191.2,1080.3,191.2z M1080.7,192.7c-1.4,0-2.7,1-2.7,2.9s1.3,3,2.7,3c1.4,0,2.7-1.1,2.7-3
		C1083.4,193.8,1082.1,192.7,1080.7,192.7z"/>
	<path class="st14" d="M901.3,217.7c2.7-2.4,5.6-4.5,5.6-6.8c0-1.2-0.5-2-1.9-2c-1.3,0-2,0.9-2,2.2h-1.8c0.1-2.5,1.7-3.7,3.7-3.7
		c2.4,0,3.7,1.4,3.7,3.5c0,2.8-2.9,5-4.7,6.7h5.1v1.5h-7.7V217.7z"/>
	<path class="st14" d="M914.8,207.4c3.3,0,4.1,2.6,4.1,5.9c0,3.4-0.9,5.9-4.1,5.9s-4.1-2.6-4.1-5.9
		C910.7,209.9,911.5,207.4,914.8,207.4z M914.8,209c-2.1,0-2.4,2-2.4,4.2c0,2.3,0.2,4.3,2.4,4.3s2.4-2,2.4-4.3
		C917.2,211.1,916.9,209,914.8,209z"/>
	<path class="st14" d="M924.7,207.3c2.3,0,3.6,1.3,3.6,3c0,1.4-0.9,2.3-1.8,2.6v0.1c1.2,0.4,2,1.4,2,3c0,1.8-1.3,3.3-3.7,3.3
		c-2.2,0-3.9-1.1-4-3.4h1.8c0.1,1.1,0.9,1.9,2.2,1.9c1.4,0,2-0.8,2-1.9c0-1.5-1-2.1-2.9-2.1h-0.4v-1.5h0.4c1.6,0,2.6-0.5,2.6-1.7
		c0-1-0.7-1.7-1.9-1.7c-1.3,0-1.9,0.8-2,1.6h-1.8C921,208.4,922.5,207.3,924.7,207.3z"/>
	<path class="st14" d="M934.5,207.4c3.3,0,4.1,2.6,4.1,5.9c0,3.4-0.9,5.9-4.1,5.9s-4.1-2.6-4.1-5.9
		C930.3,209.9,931.2,207.4,934.5,207.4z M934.5,209c-2.1,0-2.4,2-2.4,4.2c0,2.3,0.2,4.3,2.4,4.3s2.4-2,2.4-4.3
		C936.9,211.1,936.6,209,934.5,209z"/>
</g>
<g>
	<path class="st14" d="M873,101.9c-4.4,0-8-3.3-8-8c0-4.7,3.6-8,8-8c4.4,0,8,3.3,8,8C880.9,98.6,877.4,101.9,873,101.9z M873,99.1
		c2.8,0,4.8-2,4.8-5.2s-1.9-5.2-4.8-5.2c-2.8,0-4.8,2-4.8,5.2S870.1,99.1,873,99.1z"/>
	<path class="st14" d="M890.5,89.2c3.2,0,5.6,2.5,5.6,6.3s-2.5,6.4-5.6,6.4c-1.9,0-3.3-1-4.1-2v7.7h-3.1V89.4h3.1v1.8
		C887.1,90.1,888.5,89.2,890.5,89.2z M889.6,91.9c-1.7,0-3.3,1.3-3.3,3.6c0,2.3,1.6,3.6,3.3,3.6c1.7,0,3.3-1.3,3.3-3.7
		C892.9,93.2,891.3,91.9,889.6,91.9z"/>
	<path class="st14" d="M903.9,102c-3.6,0-6.3-2.5-6.3-6.4c0-3.9,2.8-6.4,6.4-6.4s6.4,2.5,6.4,6.4C910.3,99.5,907.5,102,903.9,102z
		 M903.9,99.2c1.7,0,3.2-1.2,3.2-3.7c0-2.5-1.5-3.7-3.2-3.7c-1.7,0-3.1,1.2-3.1,3.7C900.8,98,902.2,99.2,903.9,99.2z"/>
	<path class="st14" d="M915.7,101.8h-3.1V89.4h3.1v1.9c0.8-1.3,2.1-2.1,3.8-2.1v3.3h-0.8c-1.9,0-3,0.7-3,3.1V101.8z"/>
	<path class="st14" d="M922.1,92h-1.5v-2.6h1.5v-3.1h3.1v3.1h2.8V92h-2.8v6c0,0.8,0.3,1.2,1.3,1.2h1.4v2.6h-2c-2.4,0-3.9-1-3.9-3.8
		V92z"/>
	<path class="st14" d="M942,101.8h-3.1v-1.6c-0.8,1-2.1,1.7-3.7,1.7c-2.9,0-5-1.9-5-5.3v-7.2h3.1v6.8c0,2,1.1,3.1,2.7,3.1
		c1.7,0,2.8-1.1,2.8-3.1v-6.8h3.1V101.8z"/>
	<path class="st14" d="M953.7,94.9c0-2-1.1-3.1-2.7-3.1c-1.7,0-2.8,1.1-2.8,3.1v6.8H945V89.4h3.1v1.5c0.8-1,2.1-1.7,3.7-1.7
		c2.9,0,4.9,1.9,4.9,5.3v7.2h-3.1V94.9z"/>
	<path class="st14" d="M959.5,86.1c0-1,0.8-1.8,1.9-1.8c1.1,0,1.9,0.8,1.9,1.8s-0.8,1.8-1.9,1.8C960.3,87.9,959.5,87.1,959.5,86.1z
		 M959.8,89.4h3.1v12.4h-3.1V89.4z"/>
	<path class="st14" d="M970.9,89.2c1.6,0,3.2,0.8,4,1.9v-5.9h3.2v16.5h-3.2v-1.8c-0.7,1.1-2.1,2-4.1,2c-3.1,0-5.6-2.6-5.6-6.4
		S967.7,89.2,970.9,89.2z M971.6,91.9c-1.7,0-3.3,1.2-3.3,3.6c0,2.3,1.6,3.7,3.3,3.7c1.7,0,3.3-1.3,3.3-3.6
		C974.9,93.2,973.4,91.9,971.6,91.9z"/>
	<path class="st14" d="M986,89.2c2,0,3.3,0.9,4.1,2v-1.8h3.1v12.4H990V100c-0.7,1.1-2.1,2-4.1,2c-3.1,0-5.6-2.6-5.6-6.4
		S982.8,89.2,986,89.2z M986.8,91.9c-1.7,0-3.3,1.2-3.3,3.6c0,2.3,1.6,3.7,3.3,3.7c1.7,0,3.3-1.3,3.3-3.6
		C990,93.2,988.5,91.9,986.8,91.9z"/>
	<path class="st14" d="M1001.1,89.2c1.6,0,3.2,0.8,4,1.9v-5.9h3.2v16.5h-3.2v-1.8c-0.7,1.1-2.1,2-4.1,2c-3.1,0-5.6-2.6-5.6-6.4
		S997.9,89.2,1001.1,89.2z M1001.9,91.9c-1.7,0-3.3,1.2-3.3,3.6c0,2.3,1.6,3.7,3.3,3.7c1.7,0,3.3-1.3,3.3-3.6
		C1005.2,93.2,1003.6,91.9,1001.9,91.9z"/>
	<path class="st14" d="M1016.8,102c-3.6,0-6.2-2.5-6.2-6.4c0-3.9,2.5-6.4,6.2-6.4c3.6,0,6.1,2.4,6.1,6.1c0,0.4,0,0.8-0.1,1.2h-9
		c0.2,1.8,1.4,2.9,3,2.9c1.3,0,2.1-0.7,2.5-1.5h3.4C1021.9,100.2,1019.8,102,1016.8,102z M1013.8,94.4h5.9c0-1.6-1.3-2.7-2.9-2.7
		C1015.2,91.8,1014,92.7,1013.8,94.4z"/>
	<path class="st14" d="M1029.9,102c-3.1,0-5.3-1.8-5.4-4.1h3.1c0.1,0.9,1,1.7,2.2,1.7c1.2,0,1.9-0.6,1.9-1.3c0-2.2-7-0.8-7-5.3
		c0-2.1,1.8-3.7,4.9-3.7c3,0,4.8,1.6,5,4.1h-3c-0.1-1-0.8-1.6-2.1-1.6c-1.2,0-1.8,0.5-1.8,1.2c0,2.3,6.8,0.8,6.9,5.4
		C1034.7,100.4,1032.9,102,1029.9,102z"/>
	<path class="st14" d="M1048,102c-3.6,0-6.2-2.5-6.2-6.4c0-3.9,2.5-6.4,6.2-6.4c3.6,0,6.1,2.4,6.1,6.1c0,0.4,0,0.8-0.1,1.2h-9
		c0.2,1.8,1.4,2.9,3,2.9c1.3,0,2.1-0.7,2.5-1.5h3.4C1053.1,100.2,1051.1,102,1048,102z M1045,94.4h5.9c0-1.6-1.3-2.7-2.9-2.7
		C1046.4,91.8,1045.3,92.7,1045,94.4z"/>
	<path class="st14" d="M1065,94.9c0-2-1.1-3.1-2.7-3.1c-1.7,0-2.8,1.1-2.8,3.1v6.8h-3.1V89.4h3.1v1.5c0.8-1,2.1-1.7,3.7-1.7
		c2.9,0,4.9,1.9,4.9,5.3v7.2h-3.1V94.9z"/>
	<path class="st14" d="M935.3,113v13.1h5.1v2.5h-8.3V113H935.3z"/>
	<path class="st14" d="M947.2,116c2,0,3.3,0.9,4.1,2v-1.8h3.1v12.4h-3.1v-1.8c-0.7,1.1-2.1,2-4.1,2c-3.1,0-5.6-2.6-5.6-6.4
		S944.1,116,947.2,116z M948,118.7c-1.7,0-3.3,1.2-3.3,3.6c0,2.3,1.6,3.7,3.3,3.7c1.7,0,3.3-1.3,3.3-3.6S949.8,118.7,948,118.7z"/>
	<path class="st14" d="M958,118.7h-1.5v-2.6h1.5v-3.1h3.1v3.1h2.8v2.6h-2.8v6c0,0.8,0.3,1.2,1.3,1.2h1.4v2.6h-2
		c-2.4,0-3.9-1-3.9-3.8V118.7z"/>
	<path class="st14" d="M971,116c2,0,3.3,0.9,4.1,2v-1.8h3.1v12.4h-3.1v-1.8c-0.7,1.1-2.1,2-4.1,2c-3.1,0-5.6-2.6-5.6-6.4
		S967.9,116,971,116z M971.8,118.7c-1.7,0-3.3,1.2-3.3,3.6c0,2.3,1.6,3.7,3.3,3.7c1.7,0,3.3-1.3,3.3-3.6S973.6,118.7,971.8,118.7z"
		/>
	<path class="st14" d="M998.6,121.7c0-2-1.1-3-2.7-3c-1.7,0-2.8,1-2.8,3v6.8H990v-6.8c0-2-1.1-3-2.7-3c-1.7,0-2.8,1-2.8,3v6.8h-3.1
		v-12.4h3.1v1.5c0.8-1,2.1-1.7,3.6-1.7c1.9,0,3.5,0.8,4.3,2.4c0.8-1.4,2.4-2.4,4.2-2.4c3,0,5.1,1.9,5.1,5.3v7.2h-3.1V121.7z"/>
</g>
<g>
	<path class="st14" d="M907,266.3v3.3h3.2v1.5H907v3.3h-1.7v-3.3h-3.2v-1.5h3.2v-3.3H907z"/>
	<path class="st14" d="M920.3,264.4v1.6H915v3.2c0.4-0.6,1.4-1.1,2.4-1.1c2.9,0,3.7,2.1,3.7,3.9c0,2.3-1.3,4.1-4,4.1
		c-2.4,0-3.8-1.3-4.1-3.1h1.8c0.2,1,1.1,1.6,2.3,1.6c1.6,0,2.3-1.1,2.3-2.5c0-1.5-0.8-2.4-2.3-2.4c-1.1,0-1.8,0.6-2.1,1.5h-1.7v-6.7
		H920.3z"/>
	<path class="st14" d="M924,276.2c-0.7,0-1.2-0.5-1.2-1.2c0-0.7,0.5-1.2,1.2-1.2c0.6,0,1.1,0.5,1.1,1.2
		C925.1,275.7,924.6,276.2,924,276.2z"/>
	<path class="st14" d="M931,264.2c3.3,0,4.1,2.6,4.1,5.9c0,3.4-0.9,5.9-4.1,5.9s-4.1-2.6-4.1-5.9C926.9,266.8,927.8,264.2,931,264.2
		z M931,265.9c-2.1,0-2.4,2-2.4,4.2c0,2.3,0.2,4.3,2.4,4.3s2.4-2,2.4-4.3C933.4,267.9,933.1,265.9,931,265.9z"/>
	<path class="st14" d="M939.2,264.8c1.4,0,2.4,0.9,2.4,2.5c0,1.6-1,2.5-2.4,2.5c-1.4,0-2.4-0.9-2.4-2.5
		C936.8,265.7,937.8,264.8,939.2,264.8z M938.2,267.3c0,1,0.4,1.4,1,1.4c0.6,0,1-0.4,1-1.4c0-1-0.4-1.4-1-1.4
		C938.6,265.9,938.2,266.3,938.2,267.3z M944.7,265h1.8l-6.4,11.1h-1.8L944.7,265z M945.7,271.3c1.4,0,2.4,0.9,2.4,2.5
		s-1,2.5-2.4,2.5c-1.4,0-2.4-0.9-2.4-2.5S944.3,271.3,945.7,271.3z M944.7,273.8c0,1,0.4,1.4,1,1.4c0.6,0,1-0.4,1-1.4
		c0-1-0.4-1.4-1-1.4C945.1,272.4,944.7,272.8,944.7,273.8z"/>
	<path class="st14" d="M957.7,267.1c1.1,0,2.4,0.5,3,1.4v-4.2h1.8v11.8h-1.8v-1.3c-0.6,0.8-1.6,1.5-3,1.5c-2.3,0-4.1-1.9-4.1-4.6
		S955.4,267.1,957.7,267.1z M958.1,268.7c-1.4,0-2.7,1-2.7,2.9s1.3,3,2.7,3c1.4,0,2.7-1.1,2.7-3
		C960.7,269.8,959.4,268.7,958.1,268.7z"/>
	<path class="st14" d="M968.7,276.2c-2.5,0-4.4-1.8-4.4-4.5c0-2.8,1.8-4.5,4.4-4.5c2.5,0,4.3,1.7,4.3,4.3c0,0.3,0,0.6-0.1,0.9h-6.7
		c0.1,1.5,1.2,2.3,2.5,2.3c1.1,0,1.7-0.5,2.1-1.2h2C972.3,275,970.9,276.2,968.7,276.2z M966.2,270.9h4.9c0-1.4-1.1-2.2-2.5-2.2
		C967.4,268.7,966.4,269.5,966.2,270.9z"/>
	<path class="st14" d="M982.6,267.1c2.2,0,3.6,1.1,4,2.9h-2c-0.3-0.8-1-1.4-2.1-1.4c-1.5,0-2.4,1.1-2.4,3c0,1.9,1,3,2.4,3
		c1.1,0,1.8-0.5,2.1-1.4h2c-0.5,1.7-1.9,2.9-4,2.9c-2.5,0-4.3-1.8-4.3-4.5C978.3,268.9,980.1,267.1,982.6,267.1z"/>
	<path class="st14" d="M990.3,276.1h-1.8v-8.8h1.8v1.3c0.5-0.9,1.4-1.4,2.6-1.4v1.9h-0.5c-1.3,0-2.2,0.6-2.2,2.4V276.1z"/>
	<path class="st14" d="M998.4,276.2c-2.5,0-4.4-1.8-4.4-4.5c0-2.8,1.8-4.5,4.4-4.5c2.5,0,4.3,1.7,4.3,4.3c0,0.3,0,0.6-0.1,0.9h-6.7
		c0.1,1.5,1.2,2.3,2.5,2.3c1.1,0,1.7-0.5,2.1-1.2h2C1001.9,275,1000.5,276.2,998.4,276.2z M995.9,270.9h4.9c0-1.4-1.1-2.2-2.5-2.2
		C997.1,268.7,996.1,269.5,995.9,270.9z"/>
	<path class="st14" d="M1008.2,267.1c2.2,0,3.6,1.1,4,2.9h-2c-0.3-0.8-1-1.4-2.1-1.4c-1.5,0-2.4,1.1-2.4,3c0,1.9,1,3,2.4,3
		c1.1,0,1.8-0.5,2.1-1.4h2c-0.5,1.7-1.9,2.9-4,2.9c-2.5,0-4.3-1.8-4.3-4.5C1003.8,268.9,1005.6,267.1,1008.2,267.1z"/>
	<path class="st14" d="M1013.8,265c0-0.7,0.5-1.2,1.2-1.2c0.6,0,1.1,0.5,1.1,1.2c0,0.7-0.5,1.2-1.1,1.2
		C1014.3,266.1,1013.8,265.6,1013.8,265z M1014,267.3h1.8v8.8h-1.8V267.3z"/>
	<path class="st14" d="M1030.7,271.2c0-1.6-0.9-2.4-2.2-2.4c-1.3,0-2.2,0.8-2.2,2.4v4.9h-1.8v-4.9c0-1.6-0.9-2.4-2.2-2.4
		c-1.3,0-2.2,0.8-2.2,2.4v4.9h-1.8v-8.8h1.8v1c0.6-0.7,1.5-1.1,2.6-1.1c1.4,0,2.6,0.6,3.2,1.7c0.5-1.1,1.8-1.7,3.1-1.7
		c2.1,0,3.6,1.3,3.6,3.7v5.2h-1.8V271.2z"/>
	<path class="st14" d="M1034.6,265c0-0.7,0.5-1.2,1.2-1.2c0.6,0,1.1,0.5,1.1,1.2c0,0.7-0.5,1.2-1.1,1.2
		C1035.1,266.1,1034.6,265.6,1034.6,265z M1034.8,267.3h1.8v8.8h-1.8V267.3z"/>
	<path class="st14" d="M1042.8,276.2c-2.5,0-4.4-1.8-4.4-4.5c0-2.8,1.8-4.5,4.4-4.5c2.5,0,4.3,1.7,4.3,4.3c0,0.3,0,0.6-0.1,0.9h-6.7
		c0.1,1.5,1.2,2.3,2.5,2.3c1.1,0,1.7-0.5,2.1-1.2h2C1046.3,275,1044.9,276.2,1042.8,276.2z M1040.3,270.9h4.9c0-1.4-1.1-2.2-2.5-2.2
		C1041.5,268.7,1040.5,269.5,1040.3,270.9z"/>
	<path class="st14" d="M1055.1,271.2c0-1.6-0.9-2.4-2.2-2.4c-1.3,0-2.2,0.8-2.2,2.4v4.9h-1.8v-8.8h1.8v1c0.6-0.7,1.6-1.1,2.6-1.1
		c2.1,0,3.6,1.3,3.6,3.7v5.2h-1.8V271.2z"/>
	<path class="st14" d="M1059.5,268.8h-1v-1.5h1v-2.2h1.8v2.2h2.1v1.5h-2.1v4.9c0,0.7,0.3,0.9,1,0.9h1.1v1.5h-1.4
		c-1.6,0-2.5-0.7-2.5-2.4V268.8z"/>
	<path class="st14" d="M1068.9,276.2c-2.5,0-4.4-1.8-4.4-4.5c0-2.8,2-4.5,4.5-4.5c2.5,0,4.5,1.8,4.5,4.5
		C1073.5,274.4,1071.5,276.2,1068.9,276.2z M1068.9,274.6c1.4,0,2.7-1,2.7-3s-1.3-2.9-2.6-2.9c-1.4,0-2.6,1-2.6,2.9
		S1067.6,274.6,1068.9,274.6z"/>
	<path class="st14" d="M905.2,286.3c1.5,0,2.5,0.7,3,1.4v-1.3h1.8v8.8h-1.8v-1.3c-0.6,0.8-1.6,1.5-3.1,1.5c-2.3,0-4.1-1.9-4.1-4.6
		S902.9,286.3,905.2,286.3z M905.6,287.9c-1.4,0-2.7,1-2.7,2.9s1.3,3,2.7,3c1.4,0,2.7-1.1,2.7-3C908.3,288.9,907,287.9,905.6,287.9z
		"/>
	<path class="st14" d="M918.7,290.3c0-1.6-0.9-2.4-2.2-2.4c-1.3,0-2.2,0.8-2.2,2.4v4.9h-1.8v-8.8h1.8v1c0.6-0.7,1.6-1.1,2.6-1.1
		c2.1,0,3.6,1.3,3.6,3.7v5.2h-1.8V290.3z"/>
	<path class="st14" d="M930.8,295.2H929v-1.1c-0.6,0.8-1.6,1.2-2.6,1.2c-2.1,0-3.6-1.3-3.6-3.7v-5.2h1.8v4.9c0,1.6,0.9,2.4,2.2,2.4
		c1.3,0,2.2-0.8,2.2-2.4v-4.9h1.8V295.2z"/>
	<path class="st14" d="M936.7,286.3c1.5,0,2.5,0.7,3,1.4v-1.3h1.8v8.8h-1.8v-1.3c-0.6,0.8-1.6,1.5-3.1,1.5c-2.3,0-4.1-1.9-4.1-4.6
		S934.4,286.3,936.7,286.3z M937.1,287.9c-1.4,0-2.7,1-2.7,2.9s1.3,3,2.7,3c1.4,0,2.7-1.1,2.7-3
		C939.8,288.9,938.5,287.9,937.1,287.9z"/>
	<path class="st14" d="M944,283.4h1.8v11.8H944V283.4z"/>
	<path class="st14" d="M956.1,295.4c-2.5,0-4.4-1.8-4.4-4.5c0-2.8,1.8-4.5,4.4-4.5c2.5,0,4.3,1.7,4.3,4.3c0,0.3,0,0.6-0.1,0.9h-6.7
		c0.1,1.5,1.2,2.3,2.5,2.3c1.1,0,1.7-0.5,2.1-1.2h2C959.7,294.1,958.3,295.4,956.1,295.4z M953.7,290h4.9c0-1.4-1.1-2.2-2.5-2.2
		C954.8,287.8,953.8,288.6,953.7,290z"/>
	<path class="st14" d="M968.4,290.3c0-1.6-0.9-2.4-2.2-2.4c-1.3,0-2.2,0.8-2.2,2.4v4.9h-1.8v-8.8h1.8v1c0.6-0.7,1.6-1.1,2.6-1.1
		c2.1,0,3.6,1.3,3.6,3.7v5.2h-1.8V290.3z"/>
	<path class="st14" d="M976.7,283.4h1.8v11.8h-1.8V283.4z"/>
	<path class="st14" d="M984.4,286.3c1.5,0,2.5,0.7,3,1.4v-1.3h1.8v8.8h-1.8v-1.3c-0.6,0.8-1.6,1.5-3.1,1.5c-2.3,0-4.1-1.9-4.1-4.6
		S982.1,286.3,984.4,286.3z M984.8,287.9c-1.4,0-2.7,1-2.7,2.9s1.3,3,2.7,3c1.4,0,2.7-1.1,2.7-3
		C987.5,288.9,986.2,287.9,984.8,287.9z"/>
	<path class="st14" d="M999.4,286.3c1.1,0,2.4,0.5,3,1.4v-4.2h1.8v11.8h-1.8v-1.3c-0.6,0.8-1.6,1.5-3,1.5c-2.3,0-4.1-1.9-4.1-4.6
		S997.1,286.3,999.4,286.3z M999.8,287.9c-1.4,0-2.7,1-2.7,2.9s1.3,3,2.7,3c1.4,0,2.7-1.1,2.7-3
		C1002.4,288.9,1001.2,287.9,999.8,287.9z"/>
	<path class="st14" d="M1010.4,295.4c-2.5,0-4.4-1.8-4.4-4.5c0-2.8,1.8-4.5,4.4-4.5c2.5,0,4.3,1.7,4.3,4.3c0,0.3,0,0.6-0.1,0.9h-6.7
		c0.1,1.5,1.2,2.3,2.5,2.3c1.1,0,1.7-0.5,2.1-1.2h2C1014,294.1,1012.6,295.4,1010.4,295.4z M1008,290h4.9c0-1.4-1.1-2.2-2.5-2.2
		C1009.1,287.8,1008.2,288.6,1008,290z"/>
	<path class="st14" d="M1029,290.3c0-1.6-0.9-2.4-2.2-2.4c-1.3,0-2.2,0.8-2.2,2.4v4.9h-1.8v-4.9c0-1.6-0.9-2.4-2.2-2.4
		c-1.3,0-2.2,0.8-2.2,2.4v4.9h-1.8v-8.8h1.8v1c0.6-0.7,1.5-1.1,2.6-1.1c1.4,0,2.6,0.6,3.2,1.7c0.5-1.1,1.8-1.7,3.1-1.7
		c2.1,0,3.6,1.3,3.6,3.7v5.2h-1.8V290.3z"/>
	<path class="st14" d="M1036.6,286.3c1.5,0,2.5,0.7,3,1.4v-1.3h1.8v8.8h-1.8v-1.3c-0.6,0.8-1.6,1.5-3.1,1.5c-2.3,0-4.1-1.9-4.1-4.6
		S1034.3,286.3,1036.6,286.3z M1037,287.9c-1.4,0-2.7,1-2.7,2.9s1.3,3,2.7,3c1.4,0,2.7-1.1,2.7-3
		C1039.7,288.9,1038.4,287.9,1037,287.9z"/>
	<path class="st14" d="M1050.1,290.3c0-1.6-0.9-2.4-2.2-2.4c-1.3,0-2.2,0.8-2.2,2.4v4.9h-1.8v-8.8h1.8v1c0.6-0.7,1.6-1.1,2.6-1.1
		c2.1,0,3.6,1.3,3.6,3.7v5.2h-1.8V290.3z"/>
	<path class="st14" d="M1057.8,286.3c1.1,0,2.4,0.5,3,1.4v-4.2h1.8v11.8h-1.8v-1.3c-0.6,0.8-1.6,1.5-3,1.5c-2.3,0-4.1-1.9-4.1-4.6
		S1055.5,286.3,1057.8,286.3z M1058.2,287.9c-1.4,0-2.7,1-2.7,2.9s1.3,3,2.7,3c1.4,0,2.7-1.1,2.7-3
		C1060.8,288.9,1059.5,287.9,1058.2,287.9z"/>
	<path class="st14" d="M1068.6,286.3c1.5,0,2.5,0.7,3,1.4v-1.3h1.8v8.8h-1.8v-1.3c-0.6,0.8-1.6,1.5-3.1,1.5c-2.3,0-4.1-1.9-4.1-4.6
		S1066.3,286.3,1068.6,286.3z M1069,287.9c-1.4,0-2.7,1-2.7,2.9s1.3,3,2.7,3c1.4,0,2.7-1.1,2.7-3
		C1071.6,288.9,1070.3,287.9,1069,287.9z"/>
	<path class="st14" d="M905.2,305.4c1.1,0,2.4,0.5,3,1.4v-4.2h1.8v11.8h-1.8V313c-0.6,0.8-1.6,1.5-3,1.5c-2.3,0-4.1-1.9-4.1-4.6
		S902.9,305.4,905.2,305.4z M905.6,307c-1.4,0-2.7,1-2.7,2.9s1.3,3,2.7,3c1.4,0,2.7-1.1,2.7-3C908.3,308.1,907,307,905.6,307z"/>
	<path class="st14" d="M916.3,314.5c-2.5,0-4.4-1.8-4.4-4.5c0-2.8,1.8-4.5,4.4-4.5c2.5,0,4.3,1.7,4.3,4.3c0,0.3,0,0.6-0.1,0.9h-6.7
		c0.1,1.5,1.2,2.3,2.5,2.3c1.1,0,1.7-0.5,2.1-1.2h2C919.8,313.3,918.4,314.5,916.3,314.5z M913.8,309.2h4.9c0-1.4-1.1-2.2-2.5-2.2
		C915,306.9,914,307.8,913.8,309.2z"/>
	<path class="st14" d="M930.3,314.5c-2.5,0-4.4-1.8-4.4-4.5c0-2.8,1.8-4.5,4.4-4.5c2.5,0,4.3,1.7,4.3,4.3c0,0.3,0,0.6-0.1,0.9h-6.7
		c0.1,1.5,1.2,2.3,2.5,2.3c1.1,0,1.7-0.5,2.1-1.2h2C933.8,313.3,932.4,314.5,930.3,314.5z M927.8,309.2h4.9c0-1.4-1.1-2.2-2.5-2.2
		C929,306.9,928,307.8,927.8,309.2z"/>
	<path class="st14" d="M942.6,309.4c0-1.6-0.9-2.4-2.2-2.4c-1.3,0-2.2,0.8-2.2,2.4v4.9h-1.8v-8.8h1.8v1c0.6-0.7,1.6-1.1,2.6-1.1
		c2.1,0,3.6,1.3,3.6,3.7v5.2h-1.8V309.4z"/>
	<path class="st14" d="M950.5,314.5c-2.5,0-4.4-1.8-4.4-4.5c0-2.8,1.8-4.5,4.4-4.5c2.5,0,4.3,1.7,4.3,4.3c0,0.3,0,0.6-0.1,0.9h-6.7
		c0.1,1.5,1.2,2.3,2.5,2.3c1.1,0,1.7-0.5,2.1-1.2h2C954,313.3,952.6,314.5,950.5,314.5z M948,309.2h4.9c0-1.4-1.1-2.2-2.5-2.2
		C949.1,306.9,948.2,307.8,948,309.2z"/>
	<path class="st14" d="M958.3,314.3h-1.8v-8.8h1.8v1.3c0.5-0.9,1.4-1.4,2.6-1.4v1.9h-0.5c-1.3,0-2.2,0.6-2.2,2.4V314.3z"/>
	<path class="st14" d="M966.2,305.4c1.4,0,2.5,0.7,3,1.4v-1.3h1.8v8.9c0,2.4-1.5,4.2-4.3,4.2c-2.3,0-4.1-1.2-4.3-3.1h1.8
		c0.3,0.9,1.2,1.5,2.5,1.5c1.4,0,2.5-0.9,2.5-2.6V313c-0.6,0.7-1.6,1.5-3,1.5c-2.3,0-4.1-1.9-4.1-4.6S963.9,305.4,966.2,305.4z
		 M966.6,307c-1.4,0-2.7,1-2.7,2.9s1.3,3,2.7,3c1.4,0,2.7-1.1,2.7-3C969.2,308.1,967.9,307,966.6,307z"/>
	<path class="st14" d="M976,301.6v1.5l-3.5,1.7v-1.3L976,301.6z M973.4,305.6h1.8v8.8h-1.8V305.6z"/>
	<path class="st14" d="M981.2,305.4c1.5,0,2.5,0.7,3,1.4v-1.3h1.8v8.8h-1.8V313c-0.6,0.8-1.6,1.5-3.1,1.5c-2.3,0-4.1-1.9-4.1-4.6
		S978.9,305.4,981.2,305.4z M981.6,307c-1.4,0-2.7,1-2.7,2.9s1.3,3,2.7,3c1.4,0,2.7-1.1,2.7-3C984.2,308.1,982.9,307,981.6,307z"/>
</g>
<g>
	<path class="st14" d="M906.7,369c2.3,0,4.3,1.2,5.2,3.3h-2.2c-0.6-1.2-1.6-1.7-3-1.7c-2.2,0-3.8,1.6-3.8,4.1c0,2.5,1.6,4.1,3.8,4.1
		c1.3,0,2.4-0.6,3-1.7h2.2c-0.8,2.2-2.8,3.3-5.2,3.3c-3.1,0-5.7-2.3-5.7-5.7C901.1,371.4,903.6,369,906.7,369z"/>
	<path class="st14" d="M915.8,380.3H914v-8.8h1.8v1.3c0.5-0.9,1.4-1.4,2.6-1.4v1.9H918c-1.3,0-2.2,0.6-2.2,2.4V380.3z"/>
	<path class="st14" d="M923.9,380.4c-2.5,0-4.4-1.8-4.4-4.5c0-2.8,1.8-4.5,4.4-4.5c2.5,0,4.3,1.7,4.3,4.3c0,0.3,0,0.6-0.1,0.9h-6.7
		c0.1,1.5,1.2,2.3,2.5,2.3c1.1,0,1.7-0.5,2.1-1.2h2C927.5,379.2,926.1,380.4,923.9,380.4z M921.4,375.1h4.9c0-1.4-1.1-2.2-2.5-2.2
		C922.6,372.9,921.6,373.7,921.4,375.1z"/>
	<path class="st14" d="M933.7,371.3c2.2,0,3.6,1.1,4,2.9h-2c-0.3-0.8-1-1.4-2.1-1.4c-1.5,0-2.4,1.1-2.4,3c0,1.9,1,3,2.4,3
		c1.1,0,1.8-0.5,2.1-1.4h2c-0.5,1.7-1.9,2.9-4,2.9c-2.5,0-4.3-1.8-4.3-4.5C929.4,373.1,931.2,371.3,933.7,371.3z"/>
	<path class="st14" d="M939.3,369.2c0-0.7,0.5-1.2,1.2-1.2c0.6,0,1.1,0.5,1.1,1.2c0,0.7-0.5,1.2-1.1,1.2
		C939.8,370.3,939.3,369.8,939.3,369.2z M939.5,371.5h1.8v8.8h-1.8V371.5z"/>
	<path class="st14" d="M956.2,375.4c0-1.6-0.9-2.4-2.2-2.4c-1.3,0-2.2,0.8-2.2,2.4v4.9H950v-4.9c0-1.6-0.9-2.4-2.2-2.4
		c-1.3,0-2.2,0.8-2.2,2.4v4.9h-1.8v-8.8h1.8v1c0.6-0.7,1.5-1.1,2.6-1.1c1.4,0,2.6,0.6,3.2,1.7c0.5-1.1,1.8-1.7,3.1-1.7
		c2.1,0,3.6,1.3,3.6,3.7v5.2h-1.8V375.4z"/>
	<path class="st14" d="M960.1,369.2c0-0.7,0.5-1.2,1.2-1.2c0.6,0,1.1,0.5,1.1,1.2c0,0.7-0.5,1.2-1.1,1.2
		C960.6,370.3,960.1,369.8,960.1,369.2z M960.3,371.5h1.8v8.8h-1.8V371.5z"/>
	<path class="st14" d="M968.3,380.4c-2.5,0-4.4-1.8-4.4-4.5c0-2.8,1.8-4.5,4.4-4.5c2.5,0,4.3,1.7,4.3,4.3c0,0.3,0,0.6-0.1,0.9h-6.7
		c0.1,1.5,1.2,2.3,2.5,2.3c1.1,0,1.7-0.5,2.1-1.2h2C971.8,379.2,970.5,380.4,968.3,380.4z M965.8,375.1h4.9c0-1.4-1.1-2.2-2.5-2.2
		C967,372.9,966,373.7,965.8,375.1z"/>
	<path class="st14" d="M980.6,375.4c0-1.6-0.9-2.4-2.2-2.4c-1.3,0-2.2,0.8-2.2,2.4v4.9h-1.8v-8.8h1.8v1c0.6-0.7,1.6-1.1,2.6-1.1
		c2.1,0,3.6,1.3,3.6,3.7v5.2h-1.8V375.4z"/>
	<path class="st14" d="M985,373h-1v-1.5h1v-2.2h1.8v2.2h2.1v1.5h-2.1v4.9c0,0.7,0.3,0.9,1,0.9h1.1v1.5h-1.4c-1.6,0-2.5-0.7-2.5-2.4
		V373z"/>
	<path class="st14" d="M994.5,380.4c-2.5,0-4.4-1.8-4.4-4.5c0-2.8,2-4.5,4.5-4.5c2.5,0,4.5,1.8,4.5,4.5
		C999,378.6,997,380.4,994.5,380.4z M994.5,378.8c1.4,0,2.7-1,2.7-3s-1.3-2.9-2.6-2.9c-1.4,0-2.6,1-2.6,2.9S993.1,378.8,994.5,378.8
		z"/>
	<path class="st14" d="M905.2,390.5c1.1,0,2.4,0.5,3,1.4v-4.2h1.8v11.8h-1.8v-1.3c-0.6,0.8-1.6,1.5-3,1.5c-2.3,0-4.1-1.9-4.1-4.6
		S902.9,390.5,905.2,390.5z M905.6,392.1c-1.4,0-2.7,1-2.7,2.9s1.3,3,2.7,3c1.4,0,2.7-1.1,2.7-3C908.3,393.1,907,392.1,905.6,392.1z
		"/>
	<path class="st14" d="M916.3,399.5c-2.5,0-4.4-1.8-4.4-4.5c0-2.8,1.8-4.5,4.4-4.5c2.5,0,4.3,1.7,4.3,4.3c0,0.3,0,0.6-0.1,0.9h-6.7
		c0.1,1.5,1.2,2.3,2.5,2.3c1.1,0,1.7-0.5,2.1-1.2h2C919.8,398.3,918.4,399.5,916.3,399.5z M913.8,394.2h4.9c0-1.4-1.1-2.2-2.5-2.2
		C915,392,914,392.8,913.8,394.2z"/>
	<path class="st14" d="M934.8,394.5c0-1.6-0.9-2.4-2.2-2.4c-1.3,0-2.2,0.8-2.2,2.4v4.9h-1.8v-4.9c0-1.6-0.9-2.4-2.2-2.4
		c-1.3,0-2.2,0.8-2.2,2.4v4.9h-1.8v-8.8h1.8v1c0.6-0.7,1.5-1.1,2.6-1.1c1.4,0,2.6,0.6,3.2,1.7c0.5-1.1,1.8-1.7,3.1-1.7
		c2.1,0,3.6,1.3,3.6,3.7v5.2h-1.8V394.5z"/>
	<path class="st14" d="M942.7,399.5c-2.5,0-4.4-1.8-4.4-4.5c0-2.8,2-4.5,4.5-4.5c2.5,0,4.5,1.8,4.5,4.5
		C947.3,397.8,945.2,399.5,942.7,399.5z M942.7,398c1.4,0,2.7-1,2.7-3s-1.3-2.9-2.6-2.9c-1.4,0-2.6,1-2.6,2.9S941.3,398,942.7,398z"
		/>
	<path class="st14" d="M952.6,390.5c1.4,0,2.5,0.7,3,1.4v-1.3h1.8v8.9c0,2.4-1.5,4.2-4.3,4.2c-2.3,0-4.1-1.2-4.3-3.1h1.8
		c0.3,0.9,1.2,1.5,2.5,1.5c1.4,0,2.5-0.9,2.5-2.6v-1.5c-0.6,0.7-1.6,1.5-3,1.5c-2.3,0-4.1-1.9-4.1-4.6S950.3,390.5,952.6,390.5z
		 M953,392.1c-1.4,0-2.7,1-2.7,2.9s1.3,3,2.7,3c1.4,0,2.7-1.1,2.7-3C955.7,393.1,954.4,392.1,953,392.1z"/>
	<path class="st14" d="M961.7,399.4h-1.8v-8.8h1.8v1.3c0.5-0.9,1.4-1.4,2.6-1.4v1.9h-0.5c-1.3,0-2.2,0.6-2.2,2.4V399.4z"/>
	<path class="st14" d="M969.6,390.5c1.5,0,2.5,0.7,3,1.4v-1.3h1.8v8.8h-1.8v-1.3c-0.6,0.8-1.6,1.5-3.1,1.5c-2.3,0-4.1-1.9-4.1-4.6
		S967.2,390.5,969.6,390.5z M969.9,392.1c-1.4,0-2.7,1-2.7,2.9s1.3,3,2.7,3c1.4,0,2.7-1.1,2.7-3
		C972.6,393.1,971.3,392.1,969.9,392.1z M971.9,386.7v1.5l-3.5,1.7v-1.3L971.9,386.7z"/>
	<path class="st14" d="M977,392.1h-1v-1.5h1V390c0-2,1-2.9,3.3-2.9v1.5c-1.1,0-1.5,0.4-1.5,1.4v0.6h1.6v1.5h-1.6v7.3H977V392.1z"/>
	<path class="st14" d="M981.9,388.3c0-0.7,0.5-1.2,1.2-1.2c0.6,0,1.1,0.5,1.1,1.2c0,0.7-0.5,1.2-1.1,1.2
		C982.4,389.5,981.9,388.9,981.9,388.3z M982.1,390.6h1.8v8.8h-1.8V390.6z"/>
	<path class="st14" d="M990,390.5c2.2,0,3.6,1.1,4,2.9h-2c-0.3-0.8-1-1.4-2.1-1.4c-1.5,0-2.4,1.1-2.4,3c0,1.9,1,3,2.4,3
		c1.1,0,1.8-0.5,2.1-1.4h2c-0.5,1.7-1.9,2.9-4,2.9c-2.5,0-4.3-1.8-4.3-4.5C985.7,392.3,987.5,390.5,990,390.5z"/>
	<path class="st14" d="M999.7,399.5c-2.5,0-4.4-1.8-4.4-4.5c0-2.8,2-4.5,4.5-4.5c2.5,0,4.5,1.8,4.5,4.5
		C1004.3,397.8,1002.2,399.5,999.7,399.5z M999.7,398c1.4,0,2.7-1,2.7-3s-1.3-2.9-2.6-2.9c-1.4,0-2.6,1-2.6,2.9S998.3,398,999.7,398
		z"/>
</g>
<g>
	<path class="st14" d="M905.5,456.5c2.6,0,3.9,1.5,3.9,3.3c0,1.3-0.7,2.7-2.6,3.2l2.7,4.6h-2.2l-2.6-4.4h-1.4v4.4h-1.8v-11.1H905.5z
		 M905.5,458h-2v3.7h2c1.4,0,2.1-0.8,2.1-1.9C907.6,458.7,906.9,458,905.5,458z"/>
	<path class="st14" d="M915.5,467.7c-2.5,0-4.4-1.8-4.4-4.5c0-2.8,1.8-4.5,4.4-4.5c2.5,0,4.3,1.7,4.3,4.3c0,0.3,0,0.6-0.1,0.9H913
		c0.1,1.5,1.2,2.3,2.5,2.3c1.1,0,1.7-0.5,2.1-1.2h2C919.1,466.5,917.7,467.7,915.5,467.7z M913.1,462.4h4.9c0-1.4-1.1-2.2-2.5-2.2
		C914.2,460.2,913.3,461,913.1,462.4z"/>
	<path class="st14" d="M924.8,467.7c-2.1,0-3.6-1.2-3.7-2.8h1.9c0.1,0.7,0.8,1.3,1.8,1.3c1.1,0,1.6-0.4,1.6-1.1c0-1.7-5.1-0.7-5.1-4
		c0-1.4,1.3-2.5,3.4-2.5c2,0,3.3,1.1,3.4,2.8h-1.8c-0.1-0.8-0.7-1.3-1.6-1.3c-1,0-1.5,0.4-1.5,1c0,1.8,5,0.8,5.1,4
		C928.2,466.6,926.9,467.7,924.8,467.7z"/>
	<path class="st14" d="M930.4,460.3h-1v-1.5h1v-2.2h1.8v2.2h2.1v1.5h-2.1v4.9c0,0.7,0.3,0.9,1,0.9h1.1v1.5h-1.4
		c-1.6,0-2.5-0.7-2.5-2.4V460.3z"/>
	<path class="st14" d="M937.9,467.6h-1.8v-8.8h1.8v1.3c0.5-0.9,1.4-1.4,2.6-1.4v1.9H940c-1.3,0-2.2,0.6-2.2,2.4V467.6z"/>
	<path class="st14" d="M941.9,456.4c0-0.7,0.5-1.2,1.2-1.2c0.6,0,1.1,0.5,1.1,1.2c0,0.7-0.5,1.2-1.1,1.2
		C942.4,457.6,941.9,457.1,941.9,456.4z M942.2,458.8h1.8v8.8h-1.8V458.8z"/>
	<path class="st14" d="M950.1,458.6c2.2,0,3.6,1.1,4,2.9h-2c-0.3-0.8-1-1.4-2.1-1.4c-1.5,0-2.4,1.1-2.4,3c0,1.9,1,3,2.4,3
		c1.1,0,1.8-0.5,2.1-1.4h2c-0.5,1.7-1.9,2.9-4,2.9c-2.5,0-4.3-1.8-4.3-4.5C945.8,460.4,947.6,458.6,950.1,458.6z"/>
	<path class="st14" d="M959.7,458.6c2.2,0,3.6,1.1,4,2.9h-2c-0.3-0.8-1-1.4-2.1-1.4c-1.5,0-2.4,1.1-2.4,3c0,1.9,1,3,2.4,3
		c1.1,0,1.8-0.5,2.1-1.4h2c-0.5,1.7-1.9,2.9-4,2.9c-2.5,0-4.3-1.8-4.3-4.5C955.3,460.4,957.1,458.6,959.7,458.6z"/>
	<path class="st14" d="M965.3,456.4c0-0.7,0.5-1.2,1.2-1.2c0.6,0,1.1,0.5,1.1,1.2c0,0.7-0.5,1.2-1.1,1.2
		C965.8,457.6,965.3,457.1,965.3,456.4z M965.5,458.8h1.8v8.8h-1.8V458.8z"/>
	<path class="st14" d="M973.5,467.7c-2.5,0-4.4-1.8-4.4-4.5c0-2.8,2-4.5,4.5-4.5c2.5,0,4.5,1.8,4.5,4.5
		C978.1,465.9,976.1,467.7,973.5,467.7z M973.5,466.1c1.4,0,2.7-1,2.7-3s-1.3-2.9-2.6-2.9c-1.4,0-2.6,1-2.6,2.9
		S972.2,466.1,973.5,466.1z"/>
	<path class="st14" d="M986.1,462.7c0-1.6-0.9-2.4-2.2-2.4c-1.3,0-2.2,0.8-2.2,2.4v4.9h-1.8v-8.8h1.8v1c0.6-0.7,1.6-1.1,2.6-1.1
		c2.1,0,3.6,1.3,3.6,3.7v5.2h-1.8V462.7z"/>
	<path class="st14" d="M994,467.7c-2.5,0-4.4-1.8-4.4-4.5c0-2.8,1.8-4.5,4.4-4.5c2.5,0,4.3,1.7,4.3,4.3c0,0.3,0,0.6-0.1,0.9h-6.7
		c0.1,1.5,1.2,2.3,2.5,2.3c1.1,0,1.7-0.5,2.1-1.2h2C997.6,466.5,996.2,467.7,994,467.7z M991.5,462.4h4.9c0-1.4-1.1-2.2-2.5-2.2
		C992.7,460.2,991.7,461,991.5,462.4z"/>
	<path class="st14" d="M1003.3,467.7c-2.1,0-3.6-1.2-3.7-2.8h1.9c0.1,0.7,0.8,1.3,1.8,1.3c1.1,0,1.6-0.4,1.6-1.1
		c0-1.7-5.1-0.7-5.1-4c0-1.4,1.3-2.5,3.4-2.5c2,0,3.3,1.1,3.4,2.8h-1.8c-0.1-0.8-0.7-1.3-1.6-1.3c-1,0-1.5,0.4-1.5,1
		c0,1.8,5,0.8,5.1,4C1006.6,466.6,1005.3,467.7,1003.3,467.7z"/>
	<path class="st14" d="M1016.5,467.7c-2.5,0-4.4-1.8-4.4-4.5c0-2.8,1.8-4.5,4.4-4.5c2.5,0,4.3,1.7,4.3,4.3c0,0.3,0,0.6-0.1,0.9h-6.7
		c0.1,1.5,1.2,2.3,2.5,2.3c1.1,0,1.7-0.5,2.1-1.2h2C1020.1,466.5,1018.7,467.7,1016.5,467.7z M1014,462.4h4.9c0-1.4-1.1-2.2-2.5-2.2
		C1015.2,460.2,1014.2,461,1014,462.4z"/>
	<path class="st14" d="M1028.8,462.7c0-1.6-0.9-2.4-2.2-2.4c-1.3,0-2.2,0.8-2.2,2.4v4.9h-1.8v-8.8h1.8v1c0.6-0.7,1.6-1.1,2.6-1.1
		c2.1,0,3.6,1.3,3.6,3.7v5.2h-1.8V462.7z"/>
	<path class="st14" d="M1037.1,455.8h1.8v11.8h-1.8V455.8z"/>
	<path class="st14" d="M1044.8,458.6c1.5,0,2.5,0.7,3,1.4v-1.3h1.8v8.8h-1.8v-1.3c-0.6,0.8-1.6,1.5-3.1,1.5c-2.3,0-4.1-1.9-4.1-4.6
		S1042.5,458.6,1044.8,458.6z M1045.2,460.2c-1.4,0-2.7,1-2.7,2.9s1.3,3,2.7,3c1.4,0,2.7-1.1,2.7-3
		C1047.9,461.3,1046.6,460.2,1045.2,460.2z"/>
	<path class="st14" d="M902,479.4h-1v-1.5h1v-2.2h1.8v2.2h2.1v1.5h-2.1v4.9c0,0.7,0.3,0.9,1,0.9h1.1v1.5h-1.4
		c-1.6,0-2.5-0.7-2.5-2.4V479.4z"/>
	<path class="st14" d="M909.4,486.7h-1.8v-8.8h1.8v1.3c0.5-0.9,1.4-1.4,2.6-1.4v1.9h-0.5c-1.3,0-2.2,0.6-2.2,2.4V486.7z"/>
	<path class="st14" d="M917.3,477.8c1.5,0,2.5,0.7,3,1.4v-1.3h1.8v8.8h-1.8v-1.3c-0.6,0.8-1.6,1.5-3.1,1.5c-2.3,0-4.1-1.9-4.1-4.6
		S915,477.8,917.3,477.8z M917.7,479.3c-1.4,0-2.7,1-2.7,2.9s1.3,3,2.7,3c1.4,0,2.7-1.1,2.7-3C920.3,480.4,919,479.3,917.7,479.3z"
		/>
	<path class="st14" d="M930.8,481.8c0-1.6-0.9-2.4-2.2-2.4c-1.3,0-2.2,0.8-2.2,2.4v4.9h-1.8v-8.8h1.8v1c0.6-0.7,1.6-1.1,2.6-1.1
		c2.1,0,3.6,1.3,3.6,3.7v5.2h-1.8V481.8z"/>
	<path class="st14" d="M938.1,486.8c-2.1,0-3.6-1.2-3.7-2.8h1.9c0.1,0.7,0.8,1.3,1.8,1.3c1.1,0,1.6-0.4,1.6-1.1c0-1.7-5.1-0.7-5.1-4
		c0-1.4,1.3-2.5,3.4-2.5c2,0,3.3,1.1,3.4,2.8h-1.8c-0.1-0.8-0.7-1.3-1.6-1.3c-1,0-1.5,0.4-1.5,1c0,1.8,5,0.8,5.1,4
		C941.5,485.7,940.2,486.8,938.1,486.8z"/>
	<path class="st14" d="M955.9,481.8c0-1.6-0.9-2.4-2.2-2.4c-1.3,0-2.2,0.8-2.2,2.4v4.9h-1.8v-4.9c0-1.6-0.9-2.4-2.2-2.4
		c-1.3,0-2.2,0.8-2.2,2.4v4.9h-1.8v-8.8h1.8v1c0.6-0.7,1.5-1.1,2.6-1.1c1.4,0,2.6,0.6,3.2,1.7c0.5-1.1,1.8-1.7,3.1-1.7
		c2.1,0,3.6,1.3,3.6,3.7v5.2h-1.8V481.8z"/>
	<path class="st14" d="M959.7,475.6c0-0.7,0.5-1.2,1.2-1.2c0.6,0,1.1,0.5,1.1,1.2c0,0.7-0.5,1.2-1.1,1.2
		C960.3,476.7,959.7,476.2,959.7,475.6z M960,477.9h1.8v8.8H960V477.9z"/>
	<path class="st14" d="M967.4,486.8c-2.1,0-3.6-1.2-3.7-2.8h1.9c0.1,0.7,0.8,1.3,1.8,1.3c1.1,0,1.6-0.4,1.6-1.1c0-1.7-5.1-0.7-5.1-4
		c0-1.4,1.3-2.5,3.4-2.5c2,0,3.3,1.1,3.4,2.8h-1.8c-0.1-0.8-0.7-1.3-1.6-1.3c-1,0-1.5,0.4-1.5,1c0,1.8,5,0.8,5.1,4
		C970.7,485.7,969.5,486.8,967.4,486.8z"/>
	<path class="st14" d="M972.5,475.6c0-0.7,0.5-1.2,1.2-1.2c0.6,0,1.1,0.5,1.1,1.2c0,0.7-0.5,1.2-1.1,1.2
		C973,476.7,972.5,476.2,972.5,475.6z M972.7,477.9h1.8v8.8h-1.8V477.9z"/>
	<path class="st14" d="M980.7,486.8c-2.5,0-4.4-1.8-4.4-4.5c0-2.8,2-4.5,4.5-4.5c2.5,0,4.5,1.8,4.5,4.5
		C985.3,485.1,983.2,486.8,980.7,486.8z M980.7,485.3c1.4,0,2.7-1,2.7-3s-1.3-2.9-2.6-2.9c-1.4,0-2.6,1-2.6,2.9
		S979.4,485.3,980.7,485.3z M982.5,473.9v1.5l-3.5,1.7v-1.3L982.5,473.9z"/>
	<path class="st14" d="M993.3,481.8c0-1.6-0.9-2.4-2.2-2.4c-1.3,0-2.2,0.8-2.2,2.4v4.9h-1.8v-8.8h1.8v1c0.6-0.7,1.6-1.1,2.6-1.1
		c2.1,0,3.6,1.3,3.6,3.7v5.2h-1.8V481.8z"/>
</g>
<g>
	<path class="st3" d="M148.2,315.5c-2.2,0-3.8-1.5-3.8-3.9c0-2.4,1.5-3.9,3.8-3.9c2.2,0,3.7,1.5,3.7,3.7c0,0.3,0,0.5-0.1,0.8h-5.8
		c0.1,1.3,1,2,2.2,2c1,0,1.5-0.5,1.8-1.1h1.7C151.3,314.4,150.1,315.5,148.2,315.5z M146.1,310.9h4.2c0-1.2-1-1.9-2.1-1.9
		C147.1,308.9,146.3,309.7,146.1,310.9z"/>
	<path class="st3" d="M156.8,315.5c-2.2,0-3.8-1.5-3.8-3.9c0-2.4,1.7-3.9,3.9-3.9s3.9,1.5,3.9,3.9
		C160.7,313.9,158.9,315.5,156.8,315.5z M156.8,314.1c1.2,0,2.3-0.8,2.3-2.6c0-1.7-1.1-2.5-2.3-2.5c-1.2,0-2.2,0.8-2.2,2.5
		C154.6,313.3,155.6,314.1,156.8,314.1z M158.3,304.2v1.3l-3,1.5v-1.2L158.3,304.2z"/>
	<path class="st3" d="M162.3,305.1h1.6v10.2h-1.6V305.1z"/>
	<path class="st3" d="M165.7,305.7c0-0.6,0.4-1,1-1c0.6,0,1,0.4,1,1c0,0.6-0.4,1-1,1C166.1,306.7,165.7,306.3,165.7,305.7z
		 M165.9,307.7h1.6v7.6h-1.6V307.7z"/>
	<path class="st3" d="M172.7,307.6c1.9,0,3.1,0.9,3.5,2.5h-1.7c-0.3-0.7-0.9-1.2-1.8-1.2c-1.3,0-2.1,0.9-2.1,2.6
		c0,1.7,0.8,2.6,2.1,2.6c0.9,0,1.5-0.4,1.8-1.2h1.7c-0.4,1.5-1.6,2.5-3.5,2.5c-2.2,0-3.7-1.5-3.7-3.9
		C169,309.2,170.6,307.6,172.7,307.6z"/>
	<path class="st3" d="M181.1,315.5c-2.2,0-3.8-1.5-3.8-3.9c0-2.4,1.7-3.9,3.9-3.9s3.9,1.5,3.9,3.9
		C185,313.9,183.3,315.5,181.1,315.5z M181.1,314.1c1.2,0,2.3-0.8,2.3-2.6c0-1.7-1.1-2.5-2.3-2.5c-1.2,0-2.2,0.8-2.2,2.5
		C178.9,313.3,179.9,314.1,181.1,314.1z"/>
</g>
<g>
	<path class="st3" d="M144.9,363.4h1.6v3.5c0.5-0.6,1.4-1,2.4-1c1.7,0,3,1.1,3,3.2v4.5h-1.6v-4.2c0-1.4-0.8-2.1-1.9-2.1
		c-1.2,0-1.9,0.7-1.9,2.1v4.2h-1.6V363.4z"/>
	<path class="st3" d="M153.7,364c0-0.6,0.4-1,1-1c0.6,0,1,0.4,1,1c0,0.6-0.4,1-1,1C154.1,365,153.7,364.6,153.7,364z M153.9,366h1.6
		v7.6h-1.6V366z"/>
	<path class="st3" d="M160.6,365.9c1,0,2,0.5,2.6,1.2v-3.7h1.6v10.2h-1.6v-1.1c-0.5,0.7-1.4,1.3-2.6,1.3c-2,0-3.6-1.6-3.6-4
		C157,367.5,158.6,365.9,160.6,365.9z M160.9,367.3c-1.2,0-2.3,0.9-2.3,2.5s1.1,2.6,2.3,2.6c1.2,0,2.3-0.9,2.3-2.6
		C163.2,368.2,162.1,367.3,160.9,367.3z"/>
	<path class="st3" d="M168.4,373.6h-1.6V366h1.6v1.1c0.4-0.8,1.2-1.2,2.3-1.2v1.6h-0.4c-1.2,0-1.9,0.5-1.9,2.1V373.6z"/>
	<path class="st3" d="M175.4,373.8c-2.2,0-3.8-1.5-3.8-3.9c0-2.4,1.7-3.9,3.9-3.9s3.9,1.5,3.9,3.9
		C179.4,372.2,177.6,373.8,175.4,373.8z M175.4,372.4c1.2,0,2.3-0.8,2.3-2.6c0-1.7-1.1-2.5-2.3-2.5c-1.2,0-2.2,0.8-2.2,2.5
		C173.2,371.5,174.3,372.4,175.4,372.4z"/>
	<path class="st3" d="M184.2,373.8c-2.2,0-3.8-1.5-3.8-3.9c0-2.4,1.5-3.9,3.8-3.9c2.2,0,3.7,1.5,3.7,3.7c0,0.3,0,0.5-0.1,0.8H182
		c0.1,1.3,1,2,2.2,2c1,0,1.5-0.5,1.8-1.1h1.7C187.3,372.7,186.1,373.8,184.2,373.8z M182.1,369.2h4.2c0-1.2-1-1.9-2.1-1.9
		C183.1,367.2,182.2,368,182.1,369.2z"/>
	<path class="st3" d="M189.4,363.4h1.6v10.2h-1.6V363.4z"/>
	<path class="st3" d="M196.3,373.8c-2.2,0-3.8-1.5-3.8-3.9c0-2.4,1.5-3.9,3.8-3.9c2.2,0,3.7,1.5,3.7,3.7c0,0.3,0,0.5-0.1,0.8h-5.8
		c0.1,1.3,1,2,2.2,2c1,0,1.5-0.5,1.8-1.1h1.7C199.4,372.7,198.2,373.8,196.3,373.8z M194.2,369.2h4.2c0-1.2-1-1.9-2.1-1.9
		C195.2,367.2,194.4,368,194.2,369.2z M197.7,362.7v1.3l-3,1.5v-1.2L197.7,362.7z"/>
	<path class="st3" d="M204.8,365.9c1.9,0,3.1,0.9,3.5,2.5h-1.7c-0.3-0.7-0.9-1.2-1.8-1.2c-1.3,0-2.1,0.9-2.1,2.6
		c0,1.7,0.8,2.6,2.1,2.6c0.9,0,1.5-0.4,1.8-1.2h1.7c-0.4,1.5-1.6,2.5-3.5,2.5c-2.2,0-3.7-1.5-3.7-3.9
		C201,367.5,202.6,365.9,204.8,365.9z"/>
	<path class="st3" d="M210.1,367.3h-0.9V366h0.9v-1.9h1.6v1.9h1.8v1.3h-1.8v4.2c0,0.6,0.2,0.8,0.9,0.8h1v1.3h-1.2
		c-1.4,0-2.2-0.6-2.2-2.1V367.3z"/>
	<path class="st3" d="M216.5,373.6H215V366h1.6v1.1c0.4-0.8,1.2-1.2,2.3-1.2v1.6h-0.4c-1.2,0-1.9,0.5-1.9,2.1V373.6z"/>
	<path class="st3" d="M220,364c0-0.6,0.4-1,1-1c0.6,0,1,0.4,1,1c0,0.6-0.4,1-1,1C220.5,365,220,364.6,220,364z M220.3,366h1.6v7.6
		h-1.6V366z"/>
	<path class="st3" d="M227.1,365.9c1.9,0,3.1,0.9,3.5,2.5h-1.7c-0.3-0.7-0.9-1.2-1.8-1.2c-1.3,0-2.1,0.9-2.1,2.6
		c0,1.7,0.8,2.6,2.1,2.6c0.9,0,1.5-0.4,1.8-1.2h1.7c-0.4,1.5-1.6,2.5-3.5,2.5c-2.2,0-3.7-1.5-3.7-3.9
		C223.4,367.5,224.9,365.9,227.1,365.9z"/>
	<path class="st3" d="M235.4,373.8c-2.2,0-3.8-1.5-3.8-3.9c0-2.4,1.7-3.9,3.9-3.9s3.9,1.5,3.9,3.9
		C239.4,372.2,237.6,373.8,235.4,373.8z M235.4,372.4c1.2,0,2.3-0.8,2.3-2.6c0-1.7-1.1-2.5-2.3-2.5c-1.2,0-2.2,0.8-2.2,2.5
		C233.2,371.5,234.3,372.4,235.4,372.4z"/>
</g>
<g>
	<path class="st3" d="M147.1,423.6c1.3,0,2.2,0.6,2.6,1.2v-1.1h1.6v7.6h-1.6v-1.1c-0.5,0.6-1.4,1.3-2.7,1.3c-2,0-3.6-1.6-3.6-4
		C143.5,425.2,145.1,423.6,147.1,423.6z M147.4,425c-1.2,0-2.3,0.9-2.3,2.5s1.1,2.6,2.3,2.6c1.2,0,2.3-0.9,2.3-2.6
		C149.7,425.9,148.6,425,147.4,425z"/>
	<path class="st3" d="M161.2,423.6c2,0,3.6,1.5,3.6,3.9c0,2.3-1.6,4-3.6,4c-1.3,0-2.1-0.6-2.6-1.2v1.1h-1.6v-10.2h1.6v3.7
		C159,424.2,160,423.6,161.2,423.6z M160.8,425c-1.2,0-2.3,0.9-2.3,2.5c0,1.6,1.1,2.6,2.3,2.6c1.2,0,2.3-1,2.3-2.6
		S162,425,160.8,425z"/>
	<path class="st3" d="M169.3,423.6c1.3,0,2.2,0.6,2.6,1.2v-1.1h1.6v7.6H172v-1.1c-0.5,0.6-1.4,1.3-2.7,1.3c-2,0-3.6-1.6-3.6-4
		C165.8,425.2,167.3,423.6,169.3,423.6z M169.7,425c-1.2,0-2.3,0.9-2.3,2.5s1.1,2.6,2.3,2.6c1.2,0,2.3-0.9,2.3-2.6
		C172,425.9,170.9,425,169.7,425z"/>
	<path class="st3" d="M178.4,431.5c-1.8,0-3.1-1.1-3.2-2.5h1.6c0.1,0.6,0.6,1.1,1.5,1.1c0.9,0,1.4-0.4,1.4-0.9
		c0-1.5-4.4-0.6-4.4-3.4c0-1.2,1.1-2.2,2.9-2.2c1.7,0,2.9,0.9,2.9,2.4h-1.6c-0.1-0.7-0.6-1.1-1.4-1.1c-0.8,0-1.3,0.3-1.3,0.9
		c0,1.5,4.3,0.7,4.4,3.4C181.3,430.5,180.2,431.5,178.4,431.5z"/>
	<path class="st3" d="M186.2,431.5c-2.2,0-3.8-1.5-3.8-3.9c0-2.4,1.5-3.9,3.8-3.9c2.2,0,3.7,1.5,3.7,3.7c0,0.3,0,0.5-0.1,0.8h-5.8
		c0.1,1.3,1,2,2.2,2c1,0,1.5-0.5,1.8-1.1h1.7C189.3,430.4,188.1,431.5,186.2,431.5z M184.1,426.9h4.2c0-1.2-1-1.9-2.1-1.9
		C185.1,425,184.3,425.7,184.1,426.9z"/>
	<path class="st3" d="M198.1,423.6c1,0,2,0.5,2.6,1.2v-3.7h1.6v10.2h-1.6v-1.1c-0.5,0.7-1.4,1.3-2.6,1.3c-2,0-3.6-1.6-3.6-4
		C194.5,425.2,196.1,423.6,198.1,423.6z M198.4,425c-1.2,0-2.3,0.9-2.3,2.5s1.1,2.6,2.3,2.6c1.2,0,2.3-0.9,2.3-2.6
		C200.7,425.9,199.6,425,198.4,425z"/>
	<path class="st3" d="M207.7,431.5c-2.2,0-3.8-1.5-3.8-3.9c0-2.4,1.5-3.9,3.8-3.9c2.2,0,3.7,1.5,3.7,3.7c0,0.3,0,0.5-0.1,0.8h-5.8
		c0.1,1.3,1,2,2.2,2c1,0,1.5-0.5,1.8-1.1h1.7C210.7,430.4,209.5,431.5,207.7,431.5z M205.5,426.9h4.2c0-1.2-1-1.9-2.1-1.9
		C206.5,425,205.7,425.7,205.5,426.9z"/>
	<path class="st3" d="M220.7,423.6c2,0,3.6,1.5,3.6,3.9c0,2.3-1.6,4-3.6,4c-1.3,0-2.1-0.6-2.6-1.2v4.7h-1.6v-11.2h1.6v1.1
		C218.5,424.3,219.5,423.6,220.7,423.6z M220.3,425c-1.2,0-2.3,0.9-2.3,2.5c0,1.6,1.1,2.6,2.3,2.6c1.2,0,2.3-1,2.3-2.6
		S221.5,425,220.3,425z"/>
	<path class="st3" d="M229.1,431.5c-2.2,0-3.8-1.5-3.8-3.9c0-2.4,1.5-3.9,3.8-3.9c2.2,0,3.7,1.5,3.7,3.7c0,0.3,0,0.5-0.1,0.8h-5.8
		c0.1,1.3,1,2,2.2,2c1,0,1.5-0.5,1.8-1.1h1.7C232.1,430.4,230.9,431.5,229.1,431.5z M226.9,426.9h4.2c0-1.2-1-1.9-2.1-1.9
		C228,425,227.1,425.7,226.9,426.9z"/>
	<path class="st3" d="M234.6,425.1h-0.9v-1.3h0.9v-1.9h1.6v1.9h1.8v1.3h-1.8v4.2c0,0.6,0.2,0.8,0.9,0.8h1v1.3h-1.2
		c-1.4,0-2.2-0.6-2.2-2.1V425.1z"/>
	<path class="st3" d="M241,431.4h-1.6v-7.6h1.6v1.1c0.4-0.8,1.2-1.2,2.3-1.2v1.6h-0.4c-1.2,0-1.9,0.5-1.9,2.1V431.4z"/>
	<path class="st3" d="M248,431.5c-2.2,0-3.8-1.5-3.8-3.9c0-2.4,1.7-3.9,3.9-3.9s3.9,1.5,3.9,3.9C252,429.9,250.2,431.5,248,431.5z
		 M248,430.1c1.2,0,2.3-0.8,2.3-2.6c0-1.7-1.1-2.5-2.3-2.5c-1.2,0-2.2,0.8-2.2,2.5C245.8,429.3,246.8,430.1,248,430.1z M249.5,420.3
		v1.3l-3,1.5V422L249.5,420.3z"/>
	<path class="st3" d="M253.5,421.2h1.6v10.2h-1.6V421.2z"/>
	<path class="st3" d="M260.4,431.5c-2.2,0-3.8-1.5-3.8-3.9c0-2.4,1.5-3.9,3.8-3.9c2.2,0,3.7,1.5,3.7,3.7c0,0.3,0,0.5-0.1,0.8h-5.8
		c0.1,1.3,1,2,2.2,2c1,0,1.5-0.5,1.8-1.1h1.7C263.5,430.4,262.3,431.5,260.4,431.5z M258.3,426.9h4.2c0-1.2-1-1.9-2.1-1.9
		C259.3,425,258.4,425.7,258.3,426.9z"/>
	<path class="st3" d="M268.9,431.5c-2.2,0-3.8-1.5-3.8-3.9c0-2.4,1.7-3.9,3.9-3.9s3.9,1.5,3.9,3.9
		C272.9,429.9,271.1,431.5,268.9,431.5z M268.9,430.1c1.2,0,2.3-0.8,2.3-2.6c0-1.7-1.1-2.5-2.3-2.5c-1.2,0-2.2,0.8-2.2,2.5
		C266.7,429.3,267.8,430.1,268.9,430.1z"/>
</g>
<g>
	<path class="st3" d="M125.6,546.5h3.9l-0.2,0.9h-2.8l-0.4,2h2.2l-0.2,0.8H126l-0.5,2.9h-1.1L125.6,546.5z"/>
	<path class="st3" d="M134.1,553.2H133l0.1-0.6c-0.4,0.4-1.1,0.7-1.7,0.7c-1.2,0-2-0.8-1.8-2.3l0.5-3.1h1.1l-0.5,2.9
		c-0.2,1,0.3,1.5,1.1,1.5c0.8,0,1.4-0.5,1.6-1.4l0.5-3h1.1L134.1,553.2z"/>
	<path class="st3" d="M137.8,553.2c-1.5,0-2.5-1.1-2.2-2.7c0.3-1.7,1.6-2.7,3.1-2.7c1.5,0,2.4,1,2.1,2.6c0,0.2-0.1,0.3-0.1,0.5h-4
		c-0.1,0.9,0.4,1.4,1.3,1.4c0.7,0,1.1-0.3,1.4-0.7h1.2C140.1,552.5,139.1,553.2,137.8,553.2z M136.9,550.1h2.9
		c0.1-0.9-0.4-1.4-1.2-1.4C137.8,548.7,137.1,549.2,136.9,550.1z"/>
	<path class="st3" d="M145.7,550.2c0.2-1-0.3-1.5-1.1-1.5c-0.8,0-1.4,0.5-1.6,1.5v0l-0.5,3h-1.1l0.9-5.3h1.1l-0.1,0.6
		c0.4-0.4,1.1-0.7,1.7-0.7c1.2,0,2,0.8,1.8,2.3l-0.6,3.1h-1.1L145.7,550.2z"/>
	<path class="st3" d="M148.6,548.8H148l0.2-0.9h0.6l0.2-1.3h1.1l-0.2,1.3h1.3l-0.2,0.9h-1.3l-0.5,2.9c-0.1,0.4,0.1,0.6,0.5,0.6h0.7
		l-0.2,0.9h-0.9c-0.9,0-1.4-0.4-1.3-1.5L148.6,548.8z"/>
	<path class="st3" d="M153.5,553.2c-1.5,0-2.5-1.1-2.2-2.7c0.3-1.7,1.6-2.7,3.1-2.7c1.5,0,2.4,1,2.1,2.6c0,0.2-0.1,0.3-0.1,0.5h-4
		c-0.1,0.9,0.4,1.4,1.3,1.4c0.7,0,1.1-0.3,1.4-0.7h1.2C155.8,552.5,154.8,553.2,153.5,553.2z M152.6,550.1h2.9
		c0.1-0.9-0.4-1.4-1.2-1.4C153.5,548.7,152.8,549.2,152.6,550.1z"/>
	<path class="st3" d="M157.6,549.2c-0.4,0-0.6-0.3-0.6-0.7c0.1-0.4,0.4-0.7,0.8-0.7c0.4,0,0.6,0.3,0.6,0.7
		C158.4,548.9,158,549.2,157.6,549.2z M157.6,553.2c-0.4,0-0.6-0.3-0.6-0.7c0.1-0.4,0.4-0.7,0.8-0.7c0.4,0,0.6,0.3,0.6,0.7
		C158.4,552.9,158,553.2,157.6,553.2z"/>
	<path class="st3" d="M167.1,547.3h-2.6l-0.4,2h2.3l-0.1,0.8H164l-0.4,2.1h2.6l-0.2,0.9h-3.7l1.2-6.7h3.7L167.1,547.3z"/>
	<path class="st3" d="M171.7,550.2c0.2-1-0.3-1.5-1.1-1.5c-0.8,0-1.4,0.5-1.6,1.5v0l-0.5,3h-1.1l0.9-5.3h1.1l-0.1,0.6
		c0.4-0.4,1.1-0.7,1.7-0.7c1.2,0,2,0.8,1.8,2.3l-0.6,3.1h-1.1L171.7,550.2z"/>
	<path class="st3" d="M175.9,553.2c-1.5,0-2.5-1.1-2.2-2.7c0.3-1.7,1.6-2.7,3.1-2.7c1.5,0,2.4,1,2.1,2.6c0,0.2-0.1,0.3-0.1,0.5h-4
		c-0.1,0.9,0.4,1.4,1.3,1.4c0.7,0,1.1-0.3,1.4-0.7h1.2C178.2,552.5,177.2,553.2,175.9,553.2z M175,550.1h2.9
		c0.1-0.9-0.4-1.4-1.2-1.4C175.9,548.7,175.2,549.2,175,550.1z"/>
	<path class="st3" d="M179.6,553.2l0.9-5.3h1.1l-0.2,0.9c0.4-0.6,1-1,1.8-1l-0.2,1.1h-0.3c-0.8,0-1.4,0.3-1.6,1.4l-0.5,2.8H179.6z"
		/>
	<path class="st3" d="M186.3,547.8c0.9,0,1.4,0.4,1.7,0.9l0.1-0.8h1.1l-0.9,5.4c-0.3,1.4-1.4,2.5-3,2.5c-1.4,0-2.3-0.7-2.3-1.9h1.1
		c0.1,0.5,0.6,0.9,1.3,0.9c0.8,0,1.6-0.5,1.8-1.6l0.2-0.9c-0.4,0.5-1.1,0.9-2,0.9c-1.4,0-2.3-1.1-2-2.8S184.9,547.8,186.3,547.8z
		 M186.4,548.7c-0.8,0-1.7,0.6-1.9,1.8c-0.2,1.1,0.5,1.8,1.3,1.8c0.8,0,1.7-0.6,1.9-1.8C187.9,549.4,187.2,548.7,186.4,548.7z"/>
	<path class="st3" d="M190.1,547.9h1.2l0.8,4l2.3-4h1.1l-4.6,7.8h-1.1l1.5-2.6L190.1,547.9z"/>
	<path class="st3" d="M199.1,546.5h4.7l-0.2,0.9h-1.8l-1,5.8h-1.1l1-5.8h-1.8L199.1,546.5z"/>
	<path class="st3" d="M203.6,553.2l0.9-5.3h1.1l-0.2,0.9c0.4-0.6,1-1,1.8-1l-0.2,1.1h-0.3c-0.8,0-1.4,0.3-1.6,1.4l-0.5,2.8H203.6z"
		/>
	<path class="st3" d="M210.4,547.8c0.9,0,1.4,0.4,1.7,0.9l0.1-0.8h1.1l-0.9,5.3h-1.1l0.1-0.8c-0.4,0.5-1.1,0.9-2,0.9
		c-1.4,0-2.3-1.1-2-2.8S209,547.8,210.4,547.8z M210.5,548.7c-0.8,0-1.7,0.6-1.9,1.8c-0.2,1.1,0.5,1.8,1.3,1.8
		c0.8,0,1.7-0.6,1.9-1.8C212,549.4,211.3,548.7,210.5,548.7z"/>
	<path class="st3" d="M218.1,550.2c0.2-1-0.3-1.5-1.1-1.5c-0.8,0-1.4,0.5-1.6,1.5v0l-0.5,3h-1.1l0.9-5.3h1.1l-0.1,0.6
		c0.4-0.4,1.1-0.7,1.7-0.7c1.2,0,2,0.8,1.8,2.3l-0.6,3.1h-1.1L218.1,550.2z"/>
	<path class="st3" d="M222,553.2c-1.2,0-2.1-0.7-1.9-1.7h1.1c0,0.5,0.3,0.8,1,0.8c0.6,0,1.1-0.2,1.1-0.6c0-0.9-2.6-0.7-2.6-2.4
		c0-0.9,0.9-1.6,2.1-1.6c1.2,0,2,0.7,1.9,1.7h-1c0-0.5-0.3-0.8-0.9-0.8c-0.5,0-0.9,0.2-0.9,0.6c0,1,2.6,0.8,2.6,2.4
		C224.2,552.7,223.2,553.2,222,553.2z"/>
	<path class="st3" d="M226.1,547.9h1.1l-0.9,5.3h-1.1L226.1,547.9z M226.2,546.5c0.1-0.4,0.4-0.7,0.8-0.7c0.4,0,0.6,0.3,0.6,0.7
		c-0.1,0.4-0.4,0.7-0.8,0.7C226.4,547.2,226.1,546.9,226.2,546.5z"/>
	<path class="st3" d="M228.6,548.8H228l0.2-0.9h0.6l0.2-1.3h1.1l-0.2,1.3h1.3l-0.2,0.9h-1.3l-0.5,2.9c-0.1,0.4,0.1,0.6,0.5,0.6h0.7
		l-0.2,0.9h-0.9c-0.9,0-1.4-0.4-1.3-1.5L228.6,548.8z"/>
	<path class="st3" d="M232.2,547.9h1.1l-0.9,5.3h-1.1L232.2,547.9z M232.3,546.5c0.1-0.4,0.4-0.7,0.8-0.7c0.4,0,0.6,0.3,0.6,0.7
		c-0.1,0.4-0.4,0.7-0.8,0.7C232.5,547.2,232.2,546.9,232.3,546.5z"/>
	<path class="st3" d="M236.1,553.2c-1.4,0-2.3-0.9-2.3-2.2c0-1.8,1.4-3.2,3.2-3.2c1.4,0,2.3,0.9,2.3,2.2
		C239.4,551.8,237.9,553.2,236.1,553.2z M236.2,552.3c1.1,0,2-1.1,2-2.2c0-0.9-0.6-1.4-1.3-1.4c-1.2,0-1.9,1.1-1.9,2.3
		C235,551.9,235.5,552.3,236.2,552.3z"/>
	<path class="st3" d="M244.2,550.2c0.2-1-0.3-1.5-1.1-1.5c-0.8,0-1.4,0.5-1.6,1.5v0l-0.5,3h-1.1l0.9-5.3h1.1l-0.1,0.6
		c0.4-0.4,1.1-0.7,1.7-0.7c1.2,0,2,0.8,1.8,2.3l-0.6,3.1h-1.1L244.2,550.2z"/>
	<path class="st3" d="M252.1,553.2c-1.7,0-2.8-1.2-2.8-2.8c0-2.3,1.7-4,4-4c1.7,0,2.9,1.2,2.9,2.8
		C256.1,551.5,254.4,553.2,252.1,553.2z M252.2,552.2c1.6,0,2.7-1.4,2.7-3c0-1.2-0.7-1.9-1.9-1.9c-1.6,0-2.7,1.3-2.7,2.9
		C250.4,551.5,251.1,552.2,252.2,552.2z"/>
	<path class="st3" d="M261.3,553.2h-1.1l0.1-0.6c-0.4,0.4-1.1,0.7-1.7,0.7c-1.2,0-2-0.8-1.8-2.3l0.5-3.1h1.1l-0.5,2.9
		c-0.2,1,0.3,1.5,1.1,1.5c0.8,0,1.4-0.5,1.6-1.4l0.5-3h1.1L261.3,553.2z"/>
	<path class="st3" d="M263.7,548.8h-0.6l0.2-0.9h0.6l0.2-1.3h1.1l-0.2,1.3h1.3l-0.2,0.9h-1.3l-0.5,2.9c-0.1,0.4,0.1,0.6,0.5,0.6h0.7
		l-0.2,0.9h-0.9c-0.9,0-1.4-0.4-1.3-1.5L263.7,548.8z"/>
	<path class="st3" d="M267.6,546.1h1.1l-1.3,7.1h-1.1L267.6,546.1z"/>
	<path class="st3" d="M271.2,553.2c-1.4,0-2.3-0.9-2.3-2.2c0-1.8,1.4-3.2,3.2-3.2c1.4,0,2.3,0.9,2.3,2.2
		C274.4,551.8,273,553.2,271.2,553.2z M271.3,552.3c1.1,0,2-1.1,2-2.2c0-0.9-0.6-1.4-1.3-1.4c-1.2,0-1.9,1.1-1.9,2.3
		C270.1,551.9,270.6,552.3,271.3,552.3z"/>
	<path class="st3" d="M277.3,553.2c-1.4,0-2.3-0.9-2.3-2.2c0-1.8,1.4-3.2,3.2-3.2c1.4,0,2.3,0.9,2.3,2.2
		C280.5,551.8,279.1,553.2,277.3,553.2z M277.4,552.3c1.1,0,2-1.1,2-2.2c0-0.9-0.6-1.4-1.3-1.4c-1.2,0-1.9,1.1-1.9,2.3
		C276.2,551.9,276.7,552.3,277.4,552.3z"/>
	<path class="st3" d="M282.4,546.1h1.1l-0.7,4.1l2.3-2.3h1.5l-2.9,2.6l2,2.6h-1.5l-1.6-2.3l-0.4,2.3h-1.1L282.4,546.1z"/>
	<path class="st3" d="M289.2,552.3c1.9-1.4,3.9-2.7,4.1-4c0.1-0.7-0.1-1.2-0.9-1.2c-0.8,0-1.3,0.5-1.4,1.3h-1.1
		c0.3-1.5,1.4-2.3,2.7-2.3c1.4,0,2.1,0.9,1.9,2.1c-0.3,1.6-2.2,2.9-3.6,4h3l-0.2,0.9h-4.7L289.2,552.3z"/>
	<path class="st3" d="M298.4,546.2c2,0,2.2,1.5,1.9,3.5c-0.3,2-1.2,3.5-3.1,3.5s-2.2-1.5-1.9-3.5
		C295.7,547.7,296.5,546.2,298.4,546.2z M298.2,547.2c-1.3,0-1.6,1.2-1.9,2.5c-0.2,1.3-0.3,2.5,1,2.5s1.6-1.2,1.9-2.5
		C299.4,548.4,299.5,547.2,298.2,547.2z"/>
	<path class="st3" d="M300.9,552.3c1.9-1.4,3.9-2.7,4.1-4c0.1-0.7-0.1-1.2-0.9-1.2c-0.8,0-1.3,0.5-1.4,1.3h-1.1
		c0.3-1.5,1.4-2.3,2.7-2.3c1.4,0,2.1,0.9,1.9,2.1c-0.3,1.6-2.2,2.9-3.6,4h3l-0.2,0.9h-4.7L300.9,552.3z"/>
	<path class="st3" d="M308.1,547.3h-0.9l0.2-1h2l-1.2,6.8h-1.1L308.1,547.3z"/>
	<path class="st3" d="M316.6,547.8c1.4,0,2.3,1.1,2,2.7c-0.3,1.6-1.6,2.8-3,2.8c-0.9,0-1.4-0.4-1.7-0.9l-0.6,3.3h-1.1l1.4-7.8h1.1
		l-0.1,0.8C315.1,548.2,315.8,547.8,316.6,547.8z M316.2,548.7c-0.8,0-1.7,0.6-1.9,1.8c-0.2,1.1,0.5,1.8,1.3,1.8
		c0.8,0,1.7-0.7,1.9-1.8C317.7,549.3,317.1,548.7,316.2,548.7z"/>
	<path class="st3" d="M321.6,553.2c-1.4,0-2.3-0.9-2.3-2.2c0-1.8,1.4-3.2,3.2-3.2c1.4,0,2.3,0.9,2.3,2.2
		C324.8,551.8,323.4,553.2,321.6,553.2z M321.7,552.3c1.1,0,2-1.1,2-2.2c0-0.9-0.6-1.4-1.3-1.4c-1.2,0-1.9,1.1-1.9,2.3
		C320.4,551.9,321,552.3,321.7,552.3z"/>
	<path class="st3" d="M325.4,553.2l0.9-5.3h1.1l-0.2,0.9c0.4-0.6,1-1,1.8-1l-0.2,1.1h-0.3c-0.8,0-1.4,0.3-1.6,1.4l-0.5,2.8H325.4z"
		/>
	<path class="st3" d="M338.2,549.8c-0.4,2.1-2,3.3-4.1,3.3h-2.2l1.2-6.7h2.2C337.4,546.5,338.6,547.8,338.2,549.8z M334.3,552.3
		c1.6,0,2.6-1,2.9-2.5c0.3-1.5-0.4-2.5-2-2.5h-1.1l-0.9,5H334.3z"/>
	<path class="st3" d="M345.4,546.5l-1.2,6.7h-1.1l-2.4-5l-0.9,5h-1.1l1.2-6.7h1.1l2.4,5l0.9-5H345.4z"/>
	<path class="st3" d="M346.3,546.5h1.2l1,5.5l3-5.5h1.2l-3.7,6.7h-1.3L346.3,546.5z"/>
</g>
<g>
	<path class="st3" d="M148.2,488.9c-2.2,0-3.8-1.5-3.8-3.9s1.7-3.9,3.9-3.9s3.9,1.5,3.9,3.9S150.4,488.9,148.2,488.9z M148.2,487.5
		c1.2,0,2.3-0.8,2.3-2.6s-1.1-2.5-2.3-2.5c-1.2,0-2.2,0.8-2.2,2.5S147,487.5,148.2,487.5z"/>
	<path class="st3" d="M153.9,482.4H153v-1.3h0.9v-1.9h1.6v1.9h1.8v1.3h-1.8v4.2c0,0.6,0.2,0.8,0.9,0.8h1v1.3h-1.2
		c-1.4,0-2.2-0.6-2.2-2.1V482.4z"/>
	<path class="st3" d="M160.4,488.8h-1.6v-7.6h1.6v1.1c0.4-0.8,1.2-1.2,2.3-1.2v1.6h-0.4c-1.2,0-1.9,0.5-1.9,2.1V488.8z"/>
	<path class="st3" d="M167.4,488.9c-2.2,0-3.8-1.5-3.8-3.9s1.7-3.9,3.9-3.9s3.9,1.5,3.9,3.9S169.6,488.9,167.4,488.9z M167.4,487.5
		c1.2,0,2.3-0.8,2.3-2.6s-1.1-2.5-2.3-2.5c-1.2,0-2.2,0.8-2.2,2.5S166.2,487.5,167.4,487.5z"/>
	<path class="st3" d="M175.7,488.9c-1.8,0-3.1-1.1-3.2-2.5h1.6c0.1,0.6,0.6,1.1,1.5,1.1c0.9,0,1.4-0.4,1.4-0.9
		c0-1.5-4.4-0.6-4.4-3.4c0-1.2,1.1-2.2,2.9-2.2c1.7,0,2.9,0.9,2.9,2.4h-1.6c-0.1-0.7-0.6-1.1-1.4-1.1c-0.8,0-1.3,0.3-1.3,0.9
		c0,1.5,4.3,0.7,4.4,3.4C178.6,487.9,177.4,488.9,175.7,488.9z"/>
</g>
<g>
	<path class="st3" d="M298.7,526.6c2.1-1.9,4.4-3.5,4.4-5.3c0-0.9-0.4-1.6-1.5-1.6c-1,0-1.5,0.7-1.6,1.7h-1.4c0-2,1.3-2.9,2.9-2.9
		c1.8,0,2.9,1.1,2.9,2.7c0,2.2-2.2,3.9-3.7,5.2h4v1.2h-6.1V526.6z"/>
	<path class="st3" d="M309.3,518.5c2.5,0,3.2,2,3.2,4.6c0,2.6-0.7,4.6-3.2,4.6s-3.2-2-3.2-4.6C306.1,520.5,306.7,518.5,309.3,518.5z
		 M309.3,519.8c-1.7,0-1.8,1.6-1.8,3.3c0,1.8,0.2,3.3,1.8,3.3s1.8-1.6,1.8-3.3C311.1,521.4,311,519.8,309.3,519.8z"/>
	<path class="st3" d="M315,519.9h-1.2v-1.3h2.6v9.1H315V519.9z"/>
	<path class="st3" d="M320.2,525.3c0.2,0.8,0.7,1.3,1.6,1.3c1.1,0,1.7-0.8,1.7-3.1c-0.4,0.6-1.2,0.9-2,0.9c-1.6,0-2.9-1-2.9-2.9
		c0-1.8,1.1-3,3-3c2.3,0,3.1,1.6,3.1,4.6c0,3.1-0.6,4.7-3,4.7c-1.9,0-2.8-1.2-2.9-2.5H320.2z M323.4,521.4c0-1.2-0.7-1.8-1.7-1.8
		c-1.1,0-1.7,0.7-1.7,1.8c0,0.9,0.5,1.8,1.8,1.8C322.8,523.1,323.4,522.5,323.4,521.4z"/>
</g>
<g>
	<path class="st3" d="M355.6,526.6c2.1-1.9,4.4-3.5,4.4-5.3c0-0.9-0.4-1.6-1.5-1.6c-1,0-1.5,0.7-1.6,1.7h-1.4c0-2,1.3-2.9,2.9-2.9
		c1.8,0,2.9,1.1,2.9,2.7c0,2.2-2.2,3.9-3.7,5.2h4v1.2h-6.1V526.6z"/>
	<path class="st3" d="M366.2,518.5c2.5,0,3.2,2,3.2,4.6c0,2.6-0.7,4.6-3.2,4.6s-3.2-2-3.2-4.6C362.9,520.5,363.6,518.5,366.2,518.5z
		 M366.2,519.8c-1.7,0-1.8,1.6-1.8,3.3c0,1.8,0.2,3.3,1.8,3.3s1.8-1.6,1.8-3.3C368,521.4,367.9,519.8,366.2,519.8z"/>
	<path class="st3" d="M370.8,526.6c2.1-1.9,4.4-3.5,4.4-5.3c0-0.9-0.4-1.6-1.5-1.6c-1,0-1.5,0.7-1.6,1.7h-1.4c0-2,1.3-2.9,2.9-2.9
		c1.8,0,2.9,1.1,2.9,2.7c0,2.2-2.2,3.9-3.7,5.2h4v1.2h-6.1V526.6z"/>
	<path class="st3" d="M381.4,518.5c2.5,0,3.2,2,3.2,4.6c0,2.6-0.7,4.6-3.2,4.6s-3.2-2-3.2-4.6C378.2,520.5,378.9,518.5,381.4,518.5z
		 M381.4,519.8c-1.7,0-1.8,1.6-1.8,3.3c0,1.8,0.2,3.3,1.8,3.3s1.8-1.6,1.8-3.3C383.3,521.4,383.1,519.8,381.4,519.8z"/>
</g>
<g>
	<path class="st3" d="M416.2,526.6c2.1-1.9,4.4-3.5,4.4-5.3c0-0.9-0.4-1.6-1.5-1.6c-1,0-1.5,0.7-1.6,1.7h-1.4c0-2,1.3-2.9,2.9-2.9
		c1.8,0,2.9,1.1,2.9,2.7c0,2.2-2.2,3.9-3.7,5.2h4v1.2h-6.1V526.6z"/>
	<path class="st3" d="M426.8,518.5c2.5,0,3.2,2,3.2,4.6c0,2.6-0.7,4.6-3.2,4.6s-3.2-2-3.2-4.6C423.5,520.5,424.2,518.5,426.8,518.5z
		 M426.8,519.8c-1.7,0-1.8,1.6-1.8,3.3c0,1.8,0.2,3.3,1.8,3.3s1.8-1.6,1.8-3.3C428.6,521.4,428.4,519.8,426.8,519.8z"/>
	<path class="st3" d="M431.4,526.6c2.1-1.9,4.4-3.5,4.4-5.3c0-0.9-0.4-1.6-1.5-1.6c-1,0-1.5,0.7-1.6,1.7h-1.4c0-2,1.3-2.9,2.9-2.9
		c1.8,0,2.9,1.1,2.9,2.7c0,2.2-2.2,3.9-3.7,5.2h4v1.2h-6.1V526.6z"/>
	<path class="st3" d="M439.7,519.9h-1.2v-1.3h2.6v9.1h-1.4V519.9z"/>
</g>
<g>
	<path class="st3" d="M474.3,526.6c2.1-1.9,4.4-3.5,4.4-5.3c0-0.9-0.4-1.6-1.5-1.6c-1,0-1.5,0.7-1.6,1.7h-1.4c0-2,1.3-2.9,2.9-2.9
		c1.8,0,2.9,1.1,2.9,2.7c0,2.2-2.2,3.9-3.7,5.2h4v1.2h-6.1V526.6z"/>
	<path class="st3" d="M484.8,518.5c2.5,0,3.2,2,3.2,4.6c0,2.6-0.7,4.6-3.2,4.6s-3.2-2-3.2-4.6C481.6,520.5,482.3,518.5,484.8,518.5z
		 M484.8,519.8c-1.7,0-1.8,1.6-1.8,3.3c0,1.8,0.2,3.3,1.8,3.3s1.8-1.6,1.8-3.3C486.7,521.4,486.5,519.8,484.8,519.8z"/>
	<path class="st3" d="M489.5,526.6c2.1-1.9,4.4-3.5,4.4-5.3c0-0.9-0.4-1.6-1.5-1.6c-1,0-1.5,0.7-1.6,1.7h-1.4c0-2,1.3-2.9,2.9-2.9
		c1.8,0,2.9,1.1,2.9,2.7c0,2.2-2.2,3.9-3.7,5.2h4v1.2h-6.1V526.6z"/>
	<path class="st3" d="M496.7,526.6c2.1-1.9,4.4-3.5,4.4-5.3c0-0.9-0.4-1.6-1.5-1.6c-1,0-1.5,0.7-1.6,1.7h-1.4c0-2,1.3-2.9,2.9-2.9
		c1.8,0,2.9,1.1,2.9,2.7c0,2.2-2.2,3.9-3.7,5.2h4v1.2h-6.1V526.6z"/>
</g>
<g>
	<path class="st3" d="M533.4,526.6c2.1-1.9,4.4-3.5,4.4-5.3c0-0.9-0.4-1.6-1.5-1.6c-1,0-1.5,0.7-1.6,1.7h-1.4c0-2,1.3-2.9,2.9-2.9
		c1.8,0,2.9,1.1,2.9,2.7c0,2.2-2.2,3.9-3.7,5.2h4v1.2h-6.1V526.6z"/>
	<path class="st3" d="M544,518.5c2.5,0,3.2,2,3.2,4.6c0,2.6-0.7,4.6-3.2,4.6s-3.2-2-3.2-4.6C540.8,520.5,541.5,518.5,544,518.5z
		 M544,519.8c-1.7,0-1.8,1.6-1.8,3.3c0,1.8,0.2,3.3,1.8,3.3s1.8-1.6,1.8-3.3C545.8,521.4,545.7,519.8,544,519.8z"/>
	<path class="st3" d="M548.6,526.6c2.1-1.9,4.4-3.5,4.4-5.3c0-0.9-0.4-1.6-1.5-1.6c-1,0-1.5,0.7-1.6,1.7h-1.4c0-2,1.3-2.9,2.9-2.9
		c1.8,0,2.9,1.1,2.9,2.7c0,2.2-2.2,3.9-3.7,5.2h4v1.2h-6.1V526.6z"/>
	<path class="st3" d="M558.9,518.4c1.8,0,2.8,1,2.8,2.4c0,1.1-0.7,1.8-1.4,2.1v0.1c0.9,0.3,1.6,1.1,1.6,2.3c0,1.4-1,2.5-2.9,2.5
		c-1.7,0-3.1-0.9-3.1-2.7h1.4c0.1,0.8,0.7,1.5,1.8,1.5c1.1,0,1.6-0.6,1.6-1.5c0-1.2-0.8-1.6-2.3-1.6H558v-1.2h0.3
		c1.3,0,2.1-0.4,2.1-1.4c0-0.8-0.5-1.3-1.5-1.3c-1,0-1.5,0.6-1.5,1.2h-1.4C556,519.3,557.3,518.4,558.9,518.4z"/>
</g>
<g>
	<path class="st3" d="M590.4,526.6c2.1-1.9,4.4-3.5,4.4-5.3c0-0.9-0.4-1.6-1.5-1.6c-1,0-1.5,0.7-1.6,1.7h-1.4c0-2,1.3-2.9,2.9-2.9
		c1.8,0,2.9,1.1,2.9,2.7c0,2.2-2.2,3.9-3.7,5.2h4v1.2h-6.1V526.6z"/>
	<path class="st3" d="M601,518.5c2.5,0,3.2,2,3.2,4.6c0,2.6-0.7,4.6-3.2,4.6s-3.2-2-3.2-4.6C597.8,520.5,598.5,518.5,601,518.5z
		 M601,519.8c-1.7,0-1.8,1.6-1.8,3.3c0,1.8,0.2,3.3,1.8,3.3s1.8-1.6,1.8-3.3C602.9,521.4,602.7,519.8,601,519.8z"/>
	<path class="st3" d="M608.7,518.4c1.8,0,2.8,1,2.8,2.4c0,1.1-0.7,1.8-1.4,2.1v0.1c0.9,0.3,1.6,1.1,1.6,2.3c0,1.4-1,2.5-2.9,2.5
		c-1.7,0-3.1-0.9-3.1-2.7h1.4c0.1,0.8,0.7,1.5,1.8,1.5c1.1,0,1.6-0.6,1.6-1.5c0-1.2-0.8-1.6-2.3-1.6h-0.3v-1.2h0.3
		c1.3,0,2.1-0.4,2.1-1.4c0-0.8-0.5-1.3-1.5-1.3c-1,0-1.5,0.6-1.5,1.2h-1.4C605.8,519.3,607.1,518.4,608.7,518.4z"/>
	<path class="st3" d="M616.4,518.5c2.5,0,3.2,2,3.2,4.6c0,2.6-0.7,4.6-3.2,4.6s-3.2-2-3.2-4.6C613.2,520.5,613.9,518.5,616.4,518.5z
		 M616.4,519.8c-1.7,0-1.8,1.6-1.8,3.3c0,1.8,0.2,3.3,1.8,3.3s1.8-1.6,1.8-3.3C618.3,521.4,618.1,519.8,616.4,519.8z"/>
</g>
<g>
	<path class="st3" d="M649.5,526.6c2.1-1.9,4.4-3.5,4.4-5.3c0-0.9-0.4-1.6-1.5-1.6c-1,0-1.5,0.7-1.6,1.7h-1.4c0-2,1.3-2.9,2.9-2.9
		c1.8,0,2.9,1.1,2.9,2.7c0,2.2-2.2,3.9-3.7,5.2h4v1.2h-6.1V526.6z"/>
	<path class="st3" d="M660,518.5c2.5,0,3.2,2,3.2,4.6c0,2.6-0.7,4.6-3.2,4.6s-3.2-2-3.2-4.6C656.8,520.5,657.5,518.5,660,518.5z
		 M660,519.8c-1.7,0-1.8,1.6-1.8,3.3c0,1.8,0.2,3.3,1.8,3.3s1.8-1.6,1.8-3.3C661.9,521.4,661.7,519.8,660,519.8z"/>
	<path class="st3" d="M669.1,525.8h-4.5v-1.1l4.2-6h1.7v5.9h1.2v1.2h-1.2v1.9h-1.4V525.8z M669.2,524.6v-4.4l-2.9,4.4H669.2z"/>
	<path class="st3" d="M676.1,518.5c2.5,0,3.2,2,3.2,4.6c0,2.6-0.7,4.6-3.2,4.6s-3.2-2-3.2-4.6C672.9,520.5,673.6,518.5,676.1,518.5z
		 M676.1,519.8c-1.7,0-1.8,1.6-1.8,3.3c0,1.8,0.2,3.3,1.8,3.3s1.8-1.6,1.8-3.3C678,521.4,677.8,519.8,676.1,519.8z"/>
</g>
<g>
	<path class="st3" d="M709.4,526.6c2.1-1.9,4.4-3.5,4.4-5.3c0-0.9-0.4-1.6-1.5-1.6c-1,0-1.5,0.7-1.6,1.7h-1.4c0-2,1.3-2.9,2.9-2.9
		c1.8,0,2.9,1.1,2.9,2.7c0,2.2-2.2,3.9-3.7,5.2h4v1.2h-6.1V526.6z"/>
	<path class="st3" d="M720,518.5c2.5,0,3.2,2,3.2,4.6c0,2.6-0.7,4.6-3.2,4.6s-3.2-2-3.2-4.6C716.7,520.5,717.4,518.5,720,518.5z
		 M720,519.8c-1.7,0-1.8,1.6-1.8,3.3c0,1.8,0.2,3.3,1.8,3.3s1.8-1.6,1.8-3.3C721.8,521.4,721.6,519.8,720,519.8z"/>
	<path class="st3" d="M730.6,518.6v1.2h-4.2v2.5c0.3-0.5,1.1-0.8,1.9-0.8c2.2,0,2.9,1.7,2.9,3c0,1.8-1,3.2-3.1,3.2
		c-1.9,0-3-1-3.2-2.5h1.4c0.2,0.8,0.8,1.3,1.8,1.3c1.2,0,1.8-0.8,1.8-2c0-1.2-0.6-1.9-1.8-1.9c-0.8,0-1.4,0.5-1.6,1.1h-1.3v-5.3
		H730.6z"/>
	<path class="st3" d="M736,518.5c2.5,0,3.2,2,3.2,4.6c0,2.6-0.7,4.6-3.2,4.6s-3.2-2-3.2-4.6C732.7,520.5,733.4,518.5,736,518.5z
		 M736,519.8c-1.7,0-1.8,1.6-1.8,3.3c0,1.8,0.2,3.3,1.8,3.3s1.8-1.6,1.8-3.3C737.8,521.4,737.6,519.8,736,519.8z"/>
</g>
<g>
	<path d="M133.2,85.9h-7v3.8h6.2v3.5h-6.2v4.1h7v3.7h-11.6V82.2h11.6V85.9z"/>
	<path d="M146.5,92.9c0-2-1.1-3.2-2.9-3.2c-1.7,0-2.9,1.1-2.9,3.2v8.1h-4.6v-15h4.6v2c0.9-1.3,2.5-2.2,4.5-2.2
		c3.5,0,5.8,2.4,5.8,6.4v8.8h-4.6V92.9z"/>
	<path d="M161,101.3c-4.4,0-7.6-3-7.6-7.7c0-4.8,3.1-7.7,7.6-7.7c4.4,0,7.5,2.9,7.5,7.5c0,0.4,0,0.9-0.1,1.3h-10.4
		c0.2,2,1.4,2.9,2.8,2.9c1.3,0,2-0.6,2.4-1.5h4.9C167.3,99,164.7,101.3,161,101.3z M158,92.1h5.8c0-1.6-1.3-2.6-2.8-2.6
		C159.4,89.5,158.2,90.5,158,92.1z"/>
	<path d="M175.4,101.1h-4.6v-15h4.6v2.5c1-1.6,2.7-2.7,4.7-2.7v4.9h-1.3c-2.2,0-3.4,0.8-3.4,3.3V101.1z"/>
	<path d="M188,85.9c2.2,0,3.8,1,4.6,2.3v-2.1h4.6v15c0,4-2.3,7.4-7.5,7.4c-4.5,0-7.4-2.3-7.8-5.8h4.5c0.3,1.1,1.4,1.9,3,1.9
		c1.7,0,3.1-0.9,3.1-3.4v-2.1c-0.8,1.3-2.4,2.4-4.6,2.4c-3.7,0-6.6-3-6.6-7.7S184.4,85.9,188,85.9z M189.4,89.9
		c-1.7,0-3.3,1.3-3.3,3.7s1.6,3.7,3.3,3.7c1.7,0,3.3-1.3,3.3-3.7S191.1,89.9,189.4,89.9z"/>
	<path d="M206.4,78.8v3.6l-6.5,2.7v-3.2L206.4,78.8z M201,86.1h4.6v15H201V86.1z"/>
	<path d="M214.9,85.9c2.2,0,3.8,1,4.6,2.3v-2.1h4.6v15h-4.6v-2.1c-0.8,1.3-2.4,2.3-4.6,2.3c-3.7,0-6.6-3-6.6-7.7
		S211.2,85.9,214.9,85.9z M216.3,89.9c-1.7,0-3.3,1.3-3.3,3.7s1.6,3.7,3.3,3.7c1.7,0,3.3-1.3,3.3-3.7S218,89.9,216.3,89.9z"/>
	<path d="M239.3,101.3c-4,0-6.7-2.2-6.9-5.1h4.5c0.1,1,1,1.7,2.3,1.7c1.2,0,1.8-0.5,1.8-1.2c0-2.4-8.2-0.7-8.2-6.2
		c0-2.6,2.2-4.6,6.1-4.6c3.9,0,6,2.2,6.3,5.1H241c-0.1-1-0.9-1.7-2.2-1.7c-1.1,0-1.7,0.4-1.7,1.2c0,2.4,8.1,0.7,8.2,6.3
		C245.3,99.3,243,101.3,239.3,101.3z"/>
	<path d="M255,101.3c-4.4,0-7.7-3-7.7-7.7c0-4.8,3.4-7.7,7.8-7.7c4.4,0,7.8,3,7.8,7.7C262.8,98.3,259.4,101.3,255,101.3z M255,97.3
		c1.6,0,3.2-1.2,3.2-3.7c0-2.6-1.5-3.7-3.1-3.7c-1.7,0-3.1,1.2-3.1,3.7C251.9,96.1,253.3,97.3,255,97.3z"/>
	<path d="M265.3,81.2h4.6v19.9h-4.6V81.2z"/>
	<path d="M278.9,85.9c2.2,0,3.8,1,4.6,2.3v-2.1h4.6v15h-4.6v-2.1c-0.8,1.3-2.4,2.3-4.6,2.3c-3.7,0-6.6-3-6.6-7.7
		S275.2,85.9,278.9,85.9z M280.3,89.9c-1.7,0-3.3,1.3-3.3,3.7s1.6,3.7,3.3,3.7c1.7,0,3.3-1.3,3.3-3.7S282,89.9,280.3,89.9z"/>
	<path d="M296.1,101.1h-4.6v-15h4.6v2.5c1-1.6,2.7-2.7,4.7-2.7v4.9h-1.3c-2.2,0-3.4,0.8-3.4,3.3V101.1z"/>
	<path d="M308.7,82.2H321v3.7h-7.7v4h5.8v3.6h-5.8v7.6h-4.6V82.2z"/>
	<path d="M336.2,82.2h4.9l-6.7,18.9h-5.8L322,82.2h4.9l4.7,14.2L336.2,82.2z"/>
	<path d="M355.4,101.3c-4.4,0-7.6-3-7.6-7.7c0-4.8,3.1-7.7,7.6-7.7c4.4,0,7.5,2.9,7.5,7.5c0,0.4,0,0.9-0.1,1.3h-10.4
		c0.2,2,1.4,2.9,2.8,2.9c1.3,0,2-0.6,2.4-1.5h4.9C361.8,99,359.1,101.3,355.4,101.3z M352.4,92.1h5.8c0-1.6-1.3-2.6-2.8-2.6
		C353.8,89.5,352.6,90.5,352.4,92.1z"/>
	<path d="M371.4,101.3c-4,0-6.7-2.2-6.9-5.1h4.5c0.1,1,1,1.7,2.3,1.7c1.2,0,1.8-0.5,1.8-1.2c0-2.4-8.2-0.7-8.2-6.2
		c0-2.6,2.2-4.6,6.1-4.6c3.9,0,6,2.2,6.3,5.1h-4.2c-0.1-1-0.9-1.7-2.2-1.7c-1.1,0-1.7,0.4-1.7,1.2c0,2.4,8.1,0.7,8.2,6.3
		C377.4,99.3,375.1,101.3,371.4,101.3z"/>
	<path d="M392.6,101.3c-4.4,0-7.6-3-7.6-7.7c0-4.8,3.1-7.7,7.6-7.7c4.4,0,7.5,2.9,7.5,7.5c0,0.4,0,0.9-0.1,1.3h-10.4
		c0.2,2,1.4,2.9,2.8,2.9c1.3,0,2-0.6,2.4-1.5h4.9C399,99,396.3,101.3,392.6,101.3z M389.6,92.1h5.8c0-1.6-1.3-2.6-2.8-2.6
		C391.1,89.5,389.9,90.5,389.6,92.1z"/>
	<path d="M402.5,81.2h4.6v19.9h-4.6V81.2z"/>
	<path d="M416.6,89.9h-1.7v-3.8h1.7v-0.4c0-3.9,2.4-5.9,7-5.6v3.9c-1.8-0.1-2.4,0.4-2.4,2v0.1h2.5v3.8h-2.5v11.2h-4.6V89.9z"/>
	<path d="M440.6,101.1H436v-2c-0.9,1.3-2.5,2.2-4.5,2.2c-3.5,0-5.8-2.4-5.8-6.4v-8.8h4.6v8.1c0,2,1.2,3.2,2.9,3.2
		c1.8,0,2.9-1.1,2.9-3.2v-8.1h4.6V101.1z"/>
	<path d="M444.7,89.9h-1.8v-3.8h1.8v-3.7h4.6v3.7h3v3.8h-3v6c0,0.9,0.4,1.3,1.4,1.3h1.6v3.9h-2.3c-3.1,0-5.3-1.3-5.3-5.2V89.9z"/>
	<path d="M469.6,101.1H465v-2c-0.9,1.3-2.5,2.2-4.5,2.2c-3.5,0-5.8-2.4-5.8-6.4v-8.8h4.6v8.1c0,2,1.2,3.2,2.9,3.2
		c1.8,0,2.9-1.1,2.9-3.2v-8.1h4.6V101.1z"/>
	<path d="M477.5,101.1H473v-15h4.6v2.5c1-1.6,2.7-2.7,4.7-2.7v4.9H481c-2.2,0-3.4,0.8-3.4,3.3V101.1z"/>
	<path d="M491.3,101.3c-4.4,0-7.7-3-7.7-7.7c0-4.8,3.4-7.7,7.8-7.7c4.4,0,7.8,3,7.8,7.7C499.1,98.3,495.7,101.3,491.3,101.3z
		 M491.3,97.3c1.6,0,3.2-1.2,3.2-3.7c0-2.6-1.5-3.7-3.1-3.7c-1.7,0-3.1,1.2-3.1,3.7C488.2,96.1,489.6,97.3,491.3,97.3z"/>
	<path d="M513.9,101.3c-4.4,0-7.6-3-7.6-7.7c0-4.8,3.1-7.7,7.6-7.7c4.4,0,7.5,2.9,7.5,7.5c0,0.4,0,0.9-0.1,1.3h-10.4
		c0.2,2,1.4,2.9,2.8,2.9c1.3,0,2-0.6,2.4-1.5h4.9C520.3,99,517.7,101.3,513.9,101.3z M511,92.1h5.8c0-1.6-1.3-2.6-2.8-2.6
		C512.4,89.5,511.2,90.5,511,92.1z"/>
	<path d="M534.2,92.9c0-2-1.1-3.2-2.9-3.2c-1.7,0-2.9,1.1-2.9,3.2v8.1h-4.6v-15h4.6v2c0.9-1.3,2.5-2.2,4.5-2.2
		c3.5,0,5.8,2.4,5.8,6.4v8.8h-4.6V92.9z"/>
	<path d="M553.3,85.9c2.2,0,3.8,1,4.6,2.3v-2.1h4.6v15c0,4-2.3,7.4-7.5,7.4c-4.5,0-7.4-2.3-7.8-5.8h4.5c0.3,1.1,1.4,1.9,3,1.9
		c1.7,0,3.1-0.9,3.1-3.4v-2.1c-0.8,1.3-2.4,2.4-4.6,2.4c-3.7,0-6.6-3-6.6-7.7S549.7,85.9,553.3,85.9z M554.7,89.9
		c-1.7,0-3.3,1.3-3.3,3.7s1.6,3.7,3.3,3.7c1.7,0,3.3-1.3,3.3-3.7S556.4,89.9,554.7,89.9z"/>
	<path d="M572.6,101.3c-4.4,0-7.6-3-7.6-7.7c0-4.8,3.1-7.7,7.6-7.7c4.4,0,7.5,2.9,7.5,7.5c0,0.4,0,0.9-0.1,1.3h-10.4
		c0.2,2,1.4,2.9,2.8,2.9c1.3,0,2-0.6,2.4-1.5h4.9C579,99,576.3,101.3,572.6,101.3z M569.6,92.1h5.8c0-1.6-1.3-2.6-2.8-2.6
		C571,89.5,569.8,90.5,569.6,92.1z"/>
	<path d="M592.8,92.9c0-2-1.1-3.2-2.9-3.2c-1.7,0-2.9,1.1-2.9,3.2v8.1h-4.6v-15h4.6v2c0.9-1.3,2.5-2.2,4.5-2.2
		c3.5,0,5.8,2.4,5.8,6.4v8.8h-4.6V92.9z"/>
	<path d="M607.2,101.3c-4.4,0-7.6-3-7.6-7.7c0-4.8,3.1-7.7,7.6-7.7c4.4,0,7.5,2.9,7.5,7.5c0,0.4,0,0.9-0.1,1.3h-10.4
		c0.2,2,1.4,2.9,2.8,2.9c1.3,0,2-0.6,2.4-1.5h4.9C613.6,99,611,101.3,607.2,101.3z M604.2,92.1h5.8c0-1.6-1.3-2.6-2.8-2.6
		C605.7,89.5,604.5,90.5,604.2,92.1z"/>
	<path d="M621.7,101.1h-4.6v-15h4.6v2.5c1-1.6,2.7-2.7,4.7-2.7v4.9h-1.3c-2.2,0-3.4,0.8-3.4,3.3V101.1z"/>
	<path d="M634.3,85.9c2.2,0,3.8,1,4.6,2.3v-2.1h4.6v15h-4.6v-2.1c-0.8,1.3-2.4,2.3-4.6,2.3c-3.7,0-6.6-3-6.6-7.7
		S630.6,85.9,634.3,85.9z M635.7,89.9c-1.7,0-3.3,1.3-3.3,3.7s1.6,3.7,3.3,3.7c1.7,0,3.3-1.3,3.3-3.7S637.4,89.9,635.7,89.9z"/>
	<path d="M653.5,85.9c3.8,0,6.4,2.1,7.2,5.6h-4.9c-0.4-1-1.1-1.7-2.4-1.7c-1.6,0-2.8,1.3-2.8,3.8s1.1,3.8,2.8,3.8
		c1.3,0,2-0.6,2.4-1.7h4.9c-0.8,3.5-3.4,5.6-7.2,5.6c-4.4,0-7.5-3-7.5-7.7C646,88.8,649.1,85.9,653.5,85.9z"/>
	<path d="M662.7,82c0-1.4,1.1-2.5,2.7-2.5c1.6,0,2.7,1.1,2.7,2.5c0,1.4-1.1,2.5-2.7,2.5C663.8,84.5,662.7,83.4,662.7,82z
		 M663.1,86.1h4.6v15h-4.6V86.1z"/>
	<path d="M677.9,101.3c-4.4,0-7.7-3-7.7-7.7c0-4.8,3.4-7.7,7.8-7.7c4.4,0,7.8,3,7.8,7.7C685.7,98.3,682.3,101.3,677.9,101.3z
		 M677.9,97.3c1.6,0,3.2-1.2,3.2-3.7c0-2.6-1.5-3.7-3.1-3.7c-1.7,0-3.1,1.2-3.1,3.7C674.8,96.1,676.2,97.3,677.9,97.3z M681.4,78.7
		v3.6l-6.5,2.7v-3.2L681.4,78.7z"/>
	<path d="M698.5,92.9c0-2-1.1-3.2-2.9-3.2c-1.7,0-2.9,1.1-2.9,3.2v8.1h-4.6v-15h4.6v2c0.9-1.3,2.5-2.2,4.5-2.2
		c3.5,0,5.8,2.4,5.8,6.4v8.8h-4.6V92.9z"/>
	<path d="M717.7,85.9c2,0,3.7,0.9,4.6,2.3v-7h4.6v19.9h-4.6v-2.1c-0.8,1.4-2.4,2.4-4.6,2.4c-3.7,0-6.6-3-6.6-7.7
		S714,85.9,717.7,85.9z M719,89.9c-1.7,0-3.3,1.3-3.3,3.7s1.6,3.7,3.3,3.7c1.7,0,3.3-1.3,3.3-3.7S720.8,89.9,719,89.9z"/>
	<path d="M736.9,101.3c-4.4,0-7.6-3-7.6-7.7c0-4.8,3.1-7.7,7.6-7.7c4.4,0,7.5,2.9,7.5,7.5c0,0.4,0,0.9-0.1,1.3h-10.4
		c0.2,2,1.4,2.9,2.8,2.9c1.3,0,2-0.6,2.4-1.5h4.9C743.3,99,740.7,101.3,736.9,101.3z M733.9,92.1h5.8c0-1.6-1.3-2.6-2.8-2.6
		C735.4,89.5,734.2,90.5,733.9,92.1z"/>
	<path d="M128.3,133.5c-4.4,0-7.6-3-7.6-7.7c0-4.8,3.1-7.7,7.6-7.7c4.4,0,7.5,2.9,7.5,7.5c0,0.4,0,0.9-0.1,1.3h-10.4
		c0.2,2,1.4,2.9,2.8,2.9c1.3,0,2-0.6,2.4-1.5h4.9C134.7,131.3,132,133.5,128.3,133.5z M125.3,124.4h5.8c0-1.6-1.3-2.6-2.8-2.6
		C126.7,121.8,125.6,122.7,125.3,124.4z"/>
	<path d="M138.2,113.4h4.6v19.9h-4.6V113.4z"/>
	<path d="M152.8,133.5c-4.4,0-7.6-3-7.6-7.7c0-4.8,3.1-7.7,7.6-7.7c4.4,0,7.5,2.9,7.5,7.5c0,0.4,0,0.9-0.1,1.3h-10.4
		c0.2,2,1.4,2.9,2.8,2.9c1.3,0,2-0.6,2.4-1.5h4.9C159.2,131.3,156.5,133.5,152.8,133.5z M149.8,124.4h5.8c0-1.6-1.3-2.6-2.8-2.6
		C151.2,121.8,150.1,122.7,149.8,124.4z"/>
	<path d="M169.3,118.1c3.8,0,6.4,2.1,7.2,5.6h-4.9c-0.4-1-1.1-1.7-2.4-1.7c-1.6,0-2.8,1.3-2.8,3.8c0,2.5,1.1,3.8,2.8,3.8
		c1.3,0,2-0.6,2.4-1.7h4.9c-0.8,3.5-3.4,5.6-7.2,5.6c-4.4,0-7.5-3-7.5-7.7C161.8,121.1,164.9,118.1,169.3,118.1z"/>
	<path d="M179.7,122.1h-1.8v-3.8h1.8v-3.7h4.6v3.7h3v3.8h-3v6c0,0.9,0.4,1.3,1.4,1.3h1.6v3.9H185c-3.1,0-5.3-1.3-5.3-5.2V122.1z"/>
	<path d="M194.4,133.3h-4.6v-15h4.6v2.5c1-1.6,2.7-2.7,4.7-2.7v4.9h-1.3c-2.2,0-3.4,0.8-3.4,3.3V133.3z"/>
	<path d="M200.9,114.3c0-1.4,1.1-2.5,2.7-2.5c1.6,0,2.7,1.1,2.7,2.5c0,1.4-1.1,2.5-2.7,2.5C202,116.8,200.9,115.7,200.9,114.3z
		 M201.4,118.3h4.6v15h-4.6V118.3z"/>
	<path d="M215.9,118.1c3.8,0,6.4,2.1,7.2,5.6h-4.9c-0.4-1-1.1-1.7-2.4-1.7c-1.6,0-2.8,1.3-2.8,3.8c0,2.5,1.1,3.8,2.8,3.8
		c1.3,0,2-0.6,2.4-1.7h4.9c-0.8,3.5-3.4,5.6-7.2,5.6c-4.4,0-7.5-3-7.5-7.7C208.4,121.1,211.5,118.1,215.9,118.1z"/>
	<path d="M225.1,114.3c0-1.4,1.1-2.5,2.7-2.5c1.6,0,2.7,1.1,2.7,2.5c0,1.4-1.1,2.5-2.7,2.5C226.2,116.8,225.1,115.7,225.1,114.3z
		 M225.5,118.3h4.6v15h-4.6V118.3z"/>
	<path d="M239.2,118.1c2,0,3.7,0.9,4.6,2.3v-7h4.6v19.9h-4.6v-2.1c-0.8,1.4-2.4,2.4-4.6,2.4c-3.7,0-6.6-3-6.6-7.7
		C232.6,121.1,235.5,118.1,239.2,118.1z M240.5,122.1c-1.7,0-3.3,1.3-3.3,3.7c0,2.4,1.6,3.7,3.3,3.7c1.7,0,3.3-1.3,3.3-3.7
		C243.8,123.4,242.3,122.1,240.5,122.1z"/>
	<path d="M257.4,118.1c2.2,0,3.8,1,4.6,2.3v-2.1h4.6v15H262v-2.1c-0.8,1.3-2.4,2.3-4.6,2.3c-3.7,0-6.6-3-6.6-7.7
		C250.8,121.1,253.7,118.1,257.4,118.1z M258.8,122.1c-1.7,0-3.3,1.3-3.3,3.7c0,2.4,1.6,3.7,3.3,3.7c1.7,0,3.3-1.3,3.3-3.7
		C262,123.4,260.5,122.1,258.8,122.1z"/>
	<path d="M275.7,118.1c2,0,3.7,0.9,4.6,2.3v-7h4.6v19.9h-4.6v-2.1c-0.8,1.4-2.4,2.4-4.6,2.4c-3.7,0-6.6-3-6.6-7.7
		C269.1,121.1,272,118.1,275.7,118.1z M277,122.1c-1.7,0-3.3,1.3-3.3,3.7c0,2.4,1.6,3.7,3.3,3.7c1.7,0,3.3-1.3,3.3-3.7
		C280.3,123.4,278.8,122.1,277,122.1z"/>
</g>
<g>
	<rect x="130.9" y="249.1" class="st15" width="8.5" height="8.5"/>
</g>
<g>
	<rect x="130.9" y="307.2" class="st16" width="8.5" height="8.5"/>
</g>
<g>
	<rect x="130.9" y="365.2" class="st17" width="8.5" height="8.5"/>
</g>
<g>
	<rect x="130.9" y="422.8" class="st18" width="8.5" height="8.5"/>
</g>
<g>
	<rect x="130.9" y="480.3" class="st19" width="8.5" height="8.5"/>
</g>
<g>
	<rect x="292.8" y="373.8" class="st15" width="38.8" height="3.3"/>
</g>
<g>
	<rect x="292.8" y="377.1" class="st16" width="38.8" height="7.4"/>
</g>
<g>
	<rect x="292.8" y="384.5" class="st17" width="38.8" height="21.6"/>
</g>
<g>
	<rect x="292.8" y="406.1" class="st18" width="38.8" height="82.7"/>
</g>
<g>
	<rect x="292.8" y="488.8" class="st19" width="38.8" height="16.6"/>
</g>
<g>
	<rect x="352.6" y="375.9" class="st15" width="38.8" height="5.1"/>
</g>
<g>
	<rect x="352.6" y="380.9" class="st16" width="38.8" height="6.3"/>
</g>
<g>
	<rect x="352.6" y="409.5" class="st18" width="38.8" height="80.3"/>
</g>
<g>
	<rect x="352.6" y="387.3" class="st17" width="38.8" height="22.2"/>
</g>
<g>
	<rect x="352.6" y="489.8" class="st19" width="38.8" height="15.6"/>
</g>
<g>
	<rect x="410.5" y="369" class="st15" width="38.8" height="4.8"/>
</g>
<g>
	<rect x="410.5" y="384.5" class="st17" width="38.8" height="21.6"/>
</g>
<g>
	<rect x="410.5" y="487.5" class="st19" width="38.8" height="17.9"/>
</g>
<g>
	<rect x="410.5" y="406.1" class="st18" width="38.8" height="81.4"/>
</g>
<g>
	<rect x="410.5" y="373.8" class="st16" width="38.8" height="10.7"/>
</g>
<g>
	<rect x="470" y="365.9" class="st15" width="38.8" height="7.9"/>
</g>
<g>
	<rect x="470" y="373.8" class="st16" width="38.8" height="10.7"/>
</g>
<g>
	<rect x="470" y="384.5" class="st17" width="38.8" height="23.1"/>
</g>
<g>
	<rect x="470" y="407.6" class="st18" width="38.8" height="79.8"/>
</g>
<g>
	<rect x="470" y="487.5" class="st19" width="38.8" height="17.9"/>
</g>
<g>
	<rect x="528.3" y="370.9" class="st16" width="38.8" height="13.6"/>
</g>
<g>
	<rect x="528.3" y="361.7" class="st15" width="38.8" height="9.2"/>
</g>
<g>
	<rect x="528.3" y="384.5" class="st17" width="38.8" height="23.1"/>
</g>
<g>
	<rect x="528.3" y="487.5" class="st19" width="38.8" height="17.9"/>
</g>
<g>
	<rect x="528.3" y="407.6" class="st18" width="38.8" height="79.8"/>
</g>
<g>
	<rect x="587.6" y="359.5" class="st16" width="38.8" height="27.7"/>
</g>
<g>
	<rect x="587.6" y="327.8" class="st15" width="38.8" height="31.8"/>
</g>
<g>
	<rect x="587.6" y="487.8" class="st19" width="38.8" height="17.6"/>
</g>
<g>
	<rect x="587.6" y="387.3" class="st17" width="38.8" height="29.3"/>
</g>
<g>
	<rect x="587.6" y="416.6" class="st18" width="38.8" height="71.2"/>
</g>
<g>
	<rect x="646.1" y="345.7" class="st16" width="38.8" height="53.3"/>
</g>
<g>
	<rect x="646.1" y="279.4" class="st15" width="38.8" height="66.3"/>
</g>
<g>
	<rect x="646.1" y="399" class="st17" width="38.8" height="33.5"/>
</g>
<g>
	<rect x="646.1" y="432.5" class="st18" width="38.8" height="57.2"/>
</g>
<g>
	<rect x="646.1" y="489.8" class="st19" width="38.8" height="15.6"/>
</g>
<g>
	<rect x="704.9" y="324.4" class="st16" width="38.8" height="95"/>
</g>
<g>
	<rect x="704.9" y="419.3" class="st17" width="38.8" height="34.5"/>
</g>
<g>
	<rect x="704.9" y="490.2" class="st19" width="38.8" height="15.2"/>
</g>
<g>
	<rect x="704.9" y="222.2" class="st15" width="38.8" height="102.2"/>
</g>
<g>
	<rect x="704.9" y="453.9" class="st18" width="38.8" height="36.3"/>
</g>
<g>
	<circle class="st20" cx="879.9" cy="193.5" r="12.5"/>
</g>
<g>
	<path class="st5" d="M871,195.1c0.8-0.7,1.5-1.4,2.3-2.1c1.5,1.2,2.8,2.5,3.9,4.1c0.2-0.3,0.4-0.5,0.6-0.8c1.5-2.1,3.1-4.2,5.2-5.8
		c2.1-1.7,4.5-2.8,7.2-2.9c0.3,0,0.5,0,0.9,0c-0.3,0.2-0.5,0.3-0.8,0.4c-4.2,2.4-7.5,5.8-10,9.9c-1,1.5-1.8,3.1-2.8,4.7
		c-0.1,0.1-0.1,0.2-0.2,0.4C875.7,200,873.6,197.4,871,195.1z"/>
</g>
<g>
	<circle class="st20" cx="879.9" cy="289.9" r="12.5"/>
</g>
<g>
	<path class="st5" d="M871,291.5c0.8-0.7,1.5-1.4,2.3-2.1c1.5,1.2,2.8,2.5,3.9,4.1c0.2-0.3,0.4-0.5,0.6-0.8c1.5-2.1,3.1-4.2,5.2-5.8
		c2.1-1.7,4.5-2.8,7.2-2.9c0.3,0,0.5,0,0.9,0c-0.3,0.2-0.5,0.3-0.8,0.4c-4.2,2.4-7.5,5.8-10,9.9c-1,1.5-1.8,3.1-2.8,4.7
		c-0.1,0.1-0.1,0.2-0.2,0.4C875.7,296.4,873.6,293.8,871,291.5z"/>
</g>
<g>
	<circle class="st20" cx="879.9" cy="385" r="12.5"/>
</g>
<g>
	<path class="st5" d="M871,386.6c0.8-0.7,1.5-1.4,2.3-2.1c1.5,1.2,2.8,2.5,3.9,4.1c0.2-0.3,0.4-0.5,0.6-0.8c1.5-2.1,3.1-4.2,5.2-5.8
		c2.1-1.7,4.5-2.8,7.2-2.9c0.3,0,0.5,0,0.9,0c-0.3,0.2-0.5,0.3-0.8,0.4c-4.2,2.4-7.5,5.8-10,9.9c-1,1.5-1.8,3.1-2.8,4.7
		c-0.1,0.1-0.1,0.2-0.2,0.4C875.7,391.5,873.6,388.9,871,386.6z"/>
</g>
<g>
	<circle class="st20" cx="879.9" cy="471.5" r="12.5"/>
</g>
<g>
	<path class="st5" d="M871,473.1c0.8-0.7,1.5-1.4,2.3-2.1c1.5,1.2,2.8,2.5,3.9,4.1c0.2-0.3,0.4-0.5,0.6-0.8c1.5-2.1,3.1-4.2,5.2-5.8
		c2.1-1.7,4.5-2.8,7.2-2.9c0.3,0,0.5,0,0.9,0c-0.3,0.2-0.5,0.3-0.8,0.4c-4.2,2.4-7.5,5.8-10,9.9c-1,1.5-1.8,3.1-2.8,4.7
		c-0.1,0.1-0.1,0.2-0.2,0.4C875.7,478,873.6,475.4,871,473.1z"/>
</g>
<g>
	<rect x="268.9" y="504.8" class="st21" width="498.4" height="1"/>
</g>
<g>
	<rect x="104.1" y="82" class="st23" width="4" height="51.3"/>
</g>
</svg>
