<?xml version="1.0" encoding="utf-8"?>
<!-- Generator: Adobe Illustrator 23.0.4, SVG Export Plug-In . SVG Version: 6.00 Build 0)  -->
<svg version="1.1" id="Layer_1" xmlns="http://www.w3.org/2000/svg" xmlns:xlink="http://www.w3.org/1999/xlink" x="0px" y="0px"
	 viewBox="0 0 788.5 498" style="enable-background:new 0 0 788.5 498;" xml:space="preserve">
<style type="text/css">
	.st0{fill:#020202;}
	.st1{fill:#898989;}
	.st2{fill:#DAC423;}
	.st3{fill:#B5C542;}
	.st4{fill:#88C235;}
	.st5{fill:#E7E84F;}
	.st6{fill:#5DA040;}
	.st7{fill:#008C45;}
	.st8{fill:#A29185;}
	.st9{fill:#115B31;}
	.st10{fill:#244930;}
	.st11{fill:#65554A;}
	.st12{fill:#2F2924;}
	.st13{fill:#CECECE;}
	.st14{fill:#66564C;}
	.st15{fill:#22492F;}
	.st16{fill:#5BA241;}
	.st17{fill:#89C235;}
	.st18{fill:#EFE845;}
	.st19{fill:#0C5E30;}
	.st20{fill:#018D45;}
	.st21{opacity:0.95;}
	.st22{clip-path:url(#SVGID_2_);fill:url(#SVGID_3_);}
	.st23{fill:#55AD3F;}
	.st24{fill:#FFFFFF;}
	.st25{font-family:'Calibri';}
	.st26{font-size:20.1776px;}
	.st27{fill:#565656;}
	.st28{font-family:'Calibri-Italic';}
	.st29{font-size:18.7px;}
	.st30{font-size:15.5567px;}
</style>
<g>
	<path class="st0" d="M44.6,420.3c0,0.1,0,0.2,0,0.2s0,0.1-0.1,0.2s-0.1,0.1-0.1,0.1h-0.1h-5h-0.1c0,0-0.1,0-0.1-0.1
		c0,0,0-0.1-0.1-0.2s0-0.1,0-0.2s0-0.2,0-0.2s0-0.1,0.1-0.2c0,0,0-0.1,0.1-0.1h0.1h2v-7.2l-1.8,1.1c-0.1,0-0.2,0.1-0.2,0.1
		c-0.1,0-0.1,0-0.1,0s-0.1-0.1-0.1-0.2s0-0.2,0-0.3c0-0.1,0-0.2,0-0.2c0-0.1,0-0.1,0-0.1s0-0.1,0.1-0.1l0.1-0.1l2.2-1.4
		c0,0,0,0,0.1,0s0.1,0,0.1,0s0.1,0,0.2,0c0.1,0,0.1,0,0.2,0c0.1,0,0.2,0,0.3,0s0.1,0,0.2,0c0,0,0.1,0,0.1,0.1v0.1v8.3h1.7h0.1
		l0.1,0.1c0,0,0,0.1,0.1,0.2C44.6,420.1,44.6,420.2,44.6,420.3z"/>
	<path class="st0" d="M52.3,415.7c0,0.4,0,0.8-0.1,1.2s-0.1,0.8-0.2,1.2c-0.1,0.4-0.3,0.8-0.5,1.1c-0.2,0.3-0.4,0.6-0.7,0.9
		s-0.7,0.5-1.1,0.6c-0.4,0.1-0.9,0.2-1.4,0.2c-0.2,0-0.4,0-0.6,0c-0.2,0-0.4-0.1-0.5-0.1c-0.2,0-0.3-0.1-0.4-0.1
		c-0.1,0-0.2-0.1-0.2-0.1s-0.1-0.1-0.1-0.2s0-0.2,0-0.3c0-0.1,0-0.2,0-0.3c0-0.1,0-0.1,0-0.1s0-0.1,0.1-0.1h0.1c0.1,0,0.1,0,0.2,0.1
		c0.1,0,0.2,0.1,0.4,0.1c0.1,0,0.3,0.1,0.5,0.1s0.4,0.1,0.7,0.1c0.5,0,0.9-0.1,1.2-0.3c0.3-0.2,0.6-0.4,0.8-0.7s0.4-0.7,0.5-1.1
		s0.2-0.8,0.2-1.3c-0.3,0.2-0.6,0.3-0.9,0.4s-0.8,0.2-1.2,0.2c-0.5,0-1-0.1-1.3-0.2c-0.4-0.1-0.6-0.3-0.9-0.6s-0.4-0.5-0.5-0.9
		c-0.1-0.3-0.1-0.7-0.1-1.1s0.1-0.8,0.2-1.2c0.1-0.4,0.3-0.7,0.6-1s0.6-0.5,1-0.7s0.9-0.3,1.4-0.3c0.4,0,0.7,0.1,1.1,0.2
		c0.3,0.1,0.6,0.2,0.8,0.4c0.2,0.2,0.4,0.4,0.6,0.7c0.2,0.3,0.3,0.6,0.4,0.9c0.1,0.3,0.2,0.7,0.2,1.1
		C52.2,414.8,52.3,415.2,52.3,415.7z M51,415.5c0-0.6,0-1.2-0.1-1.6s-0.2-0.8-0.4-1s-0.4-0.5-0.6-0.6s-0.5-0.2-0.8-0.2
		s-0.6,0.1-0.8,0.2s-0.4,0.3-0.6,0.5c-0.1,0.2-0.2,0.4-0.3,0.7s-0.1,0.5-0.1,0.8s0,0.6,0.1,0.8c0.1,0.2,0.2,0.4,0.3,0.6
		s0.3,0.3,0.5,0.4s0.5,0.1,0.8,0.1c0.4,0,0.7-0.1,1.1-0.2C50.4,415.9,50.7,415.7,51,415.5z"/>
	<path class="st0" d="M60,418.4c0,0.4-0.1,0.8-0.2,1.1c-0.1,0.3-0.4,0.6-0.6,0.8s-0.6,0.4-1,0.5s-0.9,0.2-1.4,0.2s-0.9-0.1-1.3-0.2
		s-0.7-0.3-1-0.5s-0.5-0.4-0.6-0.7s-0.2-0.6-0.2-1c0-0.3,0-0.6,0.1-0.8s0.2-0.5,0.4-0.7s0.4-0.4,0.7-0.6s0.6-0.4,0.9-0.5
		c-0.3-0.2-0.6-0.3-0.8-0.5s-0.4-0.4-0.6-0.5c-0.2-0.2-0.3-0.4-0.4-0.6c-0.1-0.2-0.1-0.5-0.1-0.7c0-0.3,0.1-0.6,0.2-0.9
		c0.1-0.3,0.3-0.5,0.5-0.8c0.2-0.2,0.5-0.4,0.9-0.5s0.8-0.2,1.3-0.2s0.9,0.1,1.2,0.2s0.6,0.3,0.9,0.5c0.2,0.2,0.4,0.4,0.5,0.7
		s0.2,0.6,0.2,0.9c0,0.2,0,0.5-0.1,0.7s-0.2,0.4-0.4,0.7s-0.3,0.4-0.6,0.6c-0.2,0.2-0.5,0.3-0.8,0.5c0.3,0.2,0.7,0.3,0.9,0.5
		c0.3,0.2,0.5,0.4,0.7,0.6s0.3,0.4,0.4,0.7C60,417.8,60,418.1,60,418.4z M58.7,418.5c0-0.2,0-0.4-0.1-0.6s-0.2-0.4-0.4-0.5
		c-0.2-0.2-0.4-0.3-0.6-0.5c-0.3-0.1-0.5-0.3-0.9-0.5c-0.3,0.2-0.6,0.3-0.8,0.5s-0.4,0.3-0.6,0.5s-0.3,0.3-0.3,0.5
		c-0.1,0.2-0.1,0.4-0.1,0.6c0,0.5,0.2,0.8,0.5,1.1c0.3,0.3,0.8,0.4,1.5,0.4c0.6,0,1.1-0.1,1.4-0.4C58.6,419.3,58.7,418.9,58.7,418.5
		z M58.4,413.5c0-0.2,0-0.4-0.1-0.6s-0.2-0.3-0.3-0.4s-0.3-0.2-0.5-0.3c-0.2-0.1-0.4-0.1-0.7-0.1c-0.5,0-0.9,0.1-1.2,0.4
		c-0.3,0.2-0.4,0.6-0.4,1c0,0.2,0,0.4,0.1,0.5c0.1,0.2,0.2,0.3,0.3,0.5c0.1,0.1,0.3,0.3,0.5,0.4s0.5,0.3,0.8,0.4
		c0.5-0.3,0.9-0.5,1.1-0.8C58.3,414.2,58.4,413.9,58.4,413.5z"/>
	<path class="st0" d="M67.7,416c0,0.7-0.1,1.4-0.2,2s-0.3,1.1-0.6,1.5c-0.3,0.4-0.6,0.8-1,1s-1,0.4-1.6,0.4s-1.1-0.1-1.5-0.3
		c-0.4-0.2-0.7-0.5-1-0.9c-0.2-0.4-0.4-0.9-0.5-1.5s-0.2-1.3-0.2-2.1c0-0.7,0.1-1.4,0.2-2c0.1-0.6,0.3-1.1,0.6-1.6
		c0.3-0.4,0.6-0.8,1-1s1-0.4,1.6-0.4s1.1,0.1,1.5,0.3c0.4,0.2,0.7,0.5,1,0.9c0.2,0.4,0.4,0.9,0.5,1.5
		C67.7,414.6,67.7,415.2,67.7,416z M66.4,416.1c0-0.5,0-0.9-0.1-1.3s-0.1-0.7-0.2-1s-0.2-0.5-0.3-0.7c-0.1-0.2-0.2-0.4-0.4-0.5
		c-0.1-0.1-0.3-0.2-0.5-0.3c-0.2-0.1-0.4-0.1-0.6-0.1c-0.4,0-0.8,0.1-1,0.3s-0.5,0.5-0.6,0.8s-0.3,0.7-0.3,1.2s-0.1,1-0.1,1.5
		c0,0.7,0,1.3,0.1,1.8s0.2,0.9,0.3,1.2c0.2,0.3,0.4,0.5,0.6,0.7s0.5,0.2,0.9,0.2c0.3,0,0.5,0,0.7-0.1s0.4-0.2,0.5-0.4
		c0.1-0.2,0.3-0.4,0.4-0.6s0.2-0.5,0.2-0.8s0.1-0.6,0.1-0.9C66.4,416.8,66.4,416.5,66.4,416.1z"/>
</g>
<g>
	<path class="st1" d="M41.1,382.1c0,0.7-0.1,1.4-0.2,2s-0.3,1.1-0.6,1.5s-0.6,0.8-1,1s-1,0.4-1.6,0.4s-1.1-0.1-1.5-0.3
		c-0.4-0.2-0.7-0.5-1-0.9c-0.2-0.4-0.4-0.9-0.5-1.5s-0.2-1.3-0.2-2.1c0-0.7,0.1-1.4,0.2-2c0.1-0.6,0.3-1.1,0.6-1.6
		c0.3-0.4,0.6-0.8,1-1s1-0.4,1.6-0.4s1.1,0.1,1.5,0.3c0.4,0.2,0.7,0.5,1,0.9c0.2,0.4,0.4,0.9,0.5,1.5
		C41.1,380.6,41.1,381.3,41.1,382.1z M39.8,382.2c0-0.5,0-0.9-0.1-1.3s-0.1-0.7-0.2-1c-0.1-0.3-0.2-0.5-0.3-0.7s-0.2-0.4-0.4-0.5
		c-0.1-0.1-0.3-0.2-0.5-0.3c-0.2-0.1-0.4-0.1-0.6-0.1c-0.4,0-0.8,0.1-1,0.3s-0.5,0.5-0.6,0.8s-0.3,0.7-0.3,1.2s-0.1,1-0.1,1.5
		c0,0.7,0,1.3,0.1,1.8s0.2,0.9,0.3,1.2c0.2,0.3,0.4,0.5,0.6,0.7s0.5,0.2,0.9,0.2c0.3,0,0.5,0,0.7-0.1s0.4-0.2,0.5-0.4
		c0.1-0.2,0.3-0.4,0.4-0.6s0.2-0.5,0.2-0.8s0.1-0.6,0.1-0.9C39.8,382.9,39.8,382.5,39.8,382.2z"/>
</g>
<g>
	<path class="st1" d="M33.2,343.3c0,0.1,0,0.2,0,0.2s0,0.1-0.1,0.2s-0.1,0.1-0.1,0.1h-0.1h-5h-0.1c0,0-0.1,0-0.1-0.1
		c0,0,0-0.1-0.1-0.2s0-0.1,0-0.2s0-0.2,0-0.2s0-0.1,0.1-0.2c0,0,0-0.1,0.1-0.1h0.1h2v-7.2l-1.8,1.1c-0.1,0-0.2,0.1-0.2,0.1
		c-0.1,0-0.1,0-0.1,0s-0.1-0.1-0.1-0.2s0-0.2,0-0.3c0-0.1,0-0.2,0-0.2c0-0.1,0-0.1,0-0.1s0-0.1,0.1-0.1l0.1-0.1l2.2-1.4
		c0,0,0,0,0.1,0s0.1,0,0.1,0s0.1,0,0.2,0s0.1,0,0.2,0s0.2,0,0.3,0c0.1,0,0.1,0,0.2,0c0,0,0.1,0,0.1,0.1v0.1v8.3H33h0.1l0.1,0.1
		c0,0,0,0.1,0.1,0.2C33.2,343.1,33.2,343.2,33.2,343.3z"/>
	<path class="st1" d="M41.1,339c0,0.7-0.1,1.4-0.2,2s-0.3,1.1-0.6,1.5s-0.6,0.8-1,1s-1,0.4-1.6,0.4s-1.1-0.1-1.5-0.3
		c-0.4-0.2-0.7-0.5-1-0.9c-0.2-0.4-0.4-0.9-0.5-1.5s-0.2-1.3-0.2-2.1c0-0.7,0.1-1.4,0.2-2c0.1-0.6,0.3-1.1,0.6-1.6
		c0.3-0.4,0.6-0.8,1-1s1-0.4,1.6-0.4s1.1,0.1,1.5,0.3c0.4,0.2,0.7,0.5,1,0.9c0.2,0.4,0.4,0.9,0.5,1.5
		C41.1,337.6,41.1,338.3,41.1,339z M39.8,339.1c0-0.5,0-0.9-0.1-1.3s-0.1-0.7-0.2-1c-0.1-0.3-0.2-0.5-0.3-0.7s-0.2-0.4-0.4-0.5
		c-0.1-0.1-0.3-0.2-0.5-0.3c-0.2-0.1-0.4-0.1-0.6-0.1c-0.4,0-0.8,0.1-1,0.3s-0.5,0.5-0.6,0.8s-0.3,0.7-0.3,1.2s-0.1,1-0.1,1.5
		c0,0.7,0,1.3,0.1,1.8s0.2,0.9,0.3,1.2c0.2,0.3,0.4,0.5,0.6,0.7s0.5,0.2,0.9,0.2c0.3,0,0.5,0,0.7-0.1s0.4-0.2,0.5-0.4
		c0.1-0.2,0.3-0.4,0.4-0.6s0.2-0.5,0.2-0.8s0.1-0.6,0.1-0.9C39.8,339.8,39.8,339.5,39.8,339.1z"/>
</g>
<g>
	<path class="st1" d="M33.2,301.9c0,0.1,0,0.2,0,0.2s0,0.1-0.1,0.2l-0.1,0.1h-0.1h-5.2c-0.1,0-0.1,0-0.2,0s-0.1,0-0.1-0.1
		c0,0-0.1-0.1-0.1-0.2s0-0.2,0-0.3c0-0.1,0-0.2,0-0.3c0-0.1,0-0.1,0-0.2s0.1-0.1,0.1-0.2s0.1-0.1,0.1-0.2l1.9-1.9
		c0.4-0.4,0.8-0.9,1.1-1.2c0.3-0.4,0.5-0.7,0.6-1s0.2-0.6,0.3-0.8c0-0.2,0.1-0.5,0.1-0.7s0-0.4-0.1-0.6s-0.2-0.4-0.3-0.5
		c-0.1-0.1-0.3-0.3-0.5-0.3c-0.2-0.1-0.4-0.1-0.7-0.1c-0.3,0-0.6,0-0.8,0.1c-0.2,0.1-0.5,0.2-0.6,0.3c-0.2,0.1-0.3,0.2-0.5,0.3
		c-0.1,0.1-0.2,0.1-0.3,0.1h-0.1l-0.1-0.1c0,0,0-0.1,0-0.2s0-0.2,0-0.3c0-0.1,0-0.1,0-0.2s0-0.1,0-0.1v-0.1l0.1-0.1
		c0.1-0.1,0.2-0.1,0.3-0.2c0.1-0.1,0.3-0.2,0.5-0.3c0.2-0.1,0.5-0.2,0.7-0.2c0.3-0.1,0.5-0.1,0.8-0.1c0.5,0,0.9,0.1,1.2,0.2
		c0.3,0.1,0.6,0.3,0.9,0.5c0.2,0.2,0.4,0.5,0.5,0.8s0.2,0.6,0.2,1c0,0.3,0,0.6-0.1,0.9s-0.2,0.6-0.3,1s-0.4,0.7-0.8,1.2
		s-0.8,0.9-1.3,1.5l-1.5,1.6h4.1h0.1l0.1,0.1c0,0,0,0.1,0.1,0.2S33.2,301.8,33.2,301.9z"/>
	<path class="st1" d="M41.1,297.7c0,0.7-0.1,1.4-0.2,2c-0.1,0.6-0.3,1.1-0.6,1.5s-0.6,0.8-1,1s-1,0.4-1.6,0.4s-1.1-0.1-1.5-0.3
		c-0.4-0.2-0.7-0.5-1-0.9s-0.4-0.9-0.5-1.5s-0.2-1.3-0.2-2.1c0-0.7,0.1-1.4,0.2-2c0.1-0.6,0.3-1.1,0.6-1.6c0.3-0.4,0.6-0.8,1-1
		s1-0.4,1.6-0.4s1.1,0.1,1.5,0.3c0.4,0.2,0.7,0.5,1,0.9s0.4,0.9,0.5,1.5S41.1,296.9,41.1,297.7z M39.8,297.8c0-0.5,0-0.9-0.1-1.3
		c0-0.4-0.1-0.7-0.2-1c-0.1-0.3-0.2-0.5-0.3-0.7s-0.2-0.4-0.4-0.5c-0.1-0.1-0.3-0.2-0.5-0.3c-0.2-0.1-0.4-0.1-0.6-0.1
		c-0.4,0-0.8,0.1-1,0.3s-0.5,0.5-0.6,0.8s-0.3,0.7-0.3,1.2s-0.1,1-0.1,1.5c0,0.7,0,1.3,0.1,1.8s0.2,0.9,0.3,1.2
		c0.2,0.3,0.4,0.5,0.6,0.7c0.2,0.1,0.5,0.2,0.9,0.2c0.3,0,0.5,0,0.7-0.1s0.4-0.2,0.5-0.4c0.1-0.2,0.3-0.4,0.4-0.6
		c0.1-0.2,0.2-0.5,0.2-0.8c0.1-0.3,0.1-0.6,0.1-0.9C39.8,298.5,39.8,298.1,39.8,297.8z"/>
</g>
<g>
	<path class="st1" d="M33.1,258.6c0,0.4-0.1,0.8-0.2,1.2c-0.2,0.3-0.4,0.6-0.7,0.9c-0.3,0.2-0.6,0.4-1,0.6c-0.4,0.1-0.9,0.2-1.4,0.2
		c-0.3,0-0.6,0-0.9-0.1s-0.5-0.1-0.7-0.2s-0.4-0.1-0.5-0.2s-0.2-0.1-0.3-0.2l-0.1-0.1c0,0,0-0.1-0.1-0.1s0-0.1,0-0.2s0-0.2,0-0.3
		c0-0.2,0-0.3,0.1-0.4c0-0.1,0.1-0.1,0.2-0.1c0,0,0.1,0,0.3,0.1s0.3,0.2,0.5,0.3c0.2,0.1,0.5,0.2,0.7,0.3c0.3,0.1,0.6,0.1,0.9,0.1
		s0.6,0,0.9-0.1s0.5-0.2,0.6-0.4c0.2-0.2,0.3-0.3,0.4-0.5s0.1-0.4,0.1-0.7c0-0.3-0.1-0.5-0.2-0.7s-0.3-0.4-0.5-0.6s-0.5-0.3-0.8-0.4
		s-0.7-0.1-1-0.1h-0.9h-0.1c0,0-0.1,0-0.1-0.1c0,0-0.1-0.1-0.1-0.2s0-0.1,0-0.2s0-0.2,0-0.2c0-0.1,0-0.1,0.1-0.1l0.1-0.1h0.1h0.8
		c0.3,0,0.6,0,0.9-0.1s0.5-0.2,0.7-0.4s0.3-0.3,0.4-0.6c0.1-0.2,0.1-0.5,0.1-0.7s0-0.4-0.1-0.6c-0.1-0.2-0.2-0.3-0.3-0.5
		c-0.1-0.1-0.3-0.2-0.5-0.3s-0.4-0.1-0.7-0.1c-0.3,0-0.5,0-0.8,0.1c-0.2,0.1-0.4,0.2-0.6,0.3s-0.3,0.2-0.5,0.3
		c-0.1,0.1-0.2,0.1-0.3,0.1h-0.1c0,0,0,0-0.1-0.1c0,0,0-0.1,0-0.2c0-0.1,0-0.2,0-0.3s0-0.1,0-0.2c0-0.1,0-0.1,0-0.1s0-0.1,0.1-0.1
		s0.1-0.1,0.1-0.1s0.1-0.1,0.3-0.2s0.3-0.2,0.5-0.3s0.4-0.2,0.7-0.2c0.3-0.1,0.6-0.1,0.9-0.1c0.4,0,0.8,0.1,1.2,0.2s0.6,0.3,0.8,0.5
		s0.4,0.5,0.5,0.7c0.1,0.3,0.2,0.6,0.2,0.9c0,0.3,0,0.6-0.1,0.8c-0.1,0.3-0.2,0.5-0.3,0.7c-0.2,0.2-0.3,0.4-0.6,0.5
		c-0.2,0.1-0.5,0.2-0.8,0.3l0,0c0.3,0,0.6,0.1,0.9,0.2s0.5,0.3,0.7,0.5s0.3,0.4,0.5,0.7C33.1,258.1,33.1,258.4,33.1,258.6z"/>
	<path class="st1" d="M41.1,256.6c0,0.7-0.1,1.4-0.2,2s-0.3,1.1-0.6,1.5s-0.6,0.8-1,1s-1,0.4-1.6,0.4s-1.1-0.1-1.5-0.3
		c-0.4-0.2-0.7-0.5-1-0.9c-0.2-0.4-0.4-0.9-0.5-1.5s-0.2-1.3-0.2-2.1c0-0.7,0.1-1.4,0.2-2c0.1-0.6,0.3-1.1,0.6-1.6
		c0.3-0.4,0.6-0.8,1-1s1-0.4,1.6-0.4s1.1,0.1,1.5,0.3s0.7,0.5,1,0.9c0.2,0.4,0.4,0.9,0.5,1.5C41.1,255.1,41.1,255.8,41.1,256.6z
		 M39.8,256.7c0-0.5,0-0.9-0.1-1.3s-0.1-0.7-0.2-1c-0.1-0.3-0.2-0.5-0.3-0.7s-0.2-0.4-0.4-0.5c-0.1-0.1-0.3-0.2-0.5-0.3
		s-0.4-0.1-0.6-0.1c-0.4,0-0.8,0.1-1,0.3s-0.5,0.5-0.6,0.8s-0.3,0.7-0.3,1.2s-0.1,1-0.1,1.5c0,0.7,0,1.3,0.1,1.8s0.2,0.9,0.3,1.2
		c0.2,0.3,0.4,0.5,0.6,0.7s0.5,0.2,0.9,0.2c0.3,0,0.5,0,0.7-0.1s0.4-0.2,0.5-0.4c0.1-0.2,0.3-0.4,0.4-0.6s0.2-0.5,0.2-0.8
		s0.1-0.6,0.1-0.9C39.8,257.4,39.8,257,39.8,256.7z"/>
</g>
<g>
	<path class="st1" d="M33.6,217.7c0,0.2,0,0.3-0.1,0.4s-0.1,0.1-0.2,0.1h-1.1v2v0.1c0,0-0.1,0-0.1,0.1s-0.1,0-0.2,0s-0.2,0-0.3,0
		c-0.1,0-0.2,0-0.3,0s-0.1,0-0.2,0s-0.1,0-0.1-0.1v-0.1v-2h-3.9c-0.1,0-0.1,0-0.1,0s-0.1,0-0.1-0.1c0,0-0.1-0.1-0.1-0.2s0-0.2,0-0.3
		s0-0.2,0-0.2c0-0.1,0-0.1,0-0.2c0-0.1,0-0.1,0.1-0.2c0-0.1,0.1-0.1,0.1-0.2l3.4-5.8l0.1-0.1c0,0,0.1-0.1,0.2-0.1s0.2,0,0.3,0
		c0.1,0,0.2,0,0.4,0c0.2,0,0.3,0,0.4,0s0.2,0,0.3,0s0.1,0,0.2,0.1l0.1,0.1v6.1h1.1c0.1,0,0.1,0,0.2,0.1
		C33.6,217.4,33.6,217.5,33.6,217.7z M31,211.9L31,211.9l-3.1,5.2H31V211.9z"/>
	<path class="st1" d="M41.1,215.6c0,0.7-0.1,1.4-0.2,2s-0.3,1.1-0.6,1.5s-0.6,0.8-1,1s-1,0.4-1.6,0.4s-1.1-0.1-1.5-0.3
		s-0.7-0.5-1-0.9c-0.2-0.4-0.4-0.9-0.5-1.5s-0.2-1.3-0.2-2.1c0-0.7,0.1-1.4,0.2-2c0.1-0.6,0.3-1.1,0.6-1.6c0.3-0.4,0.6-0.8,1-1
		s1-0.4,1.6-0.4s1.1,0.1,1.5,0.3s0.7,0.5,1,0.9c0.2,0.4,0.4,0.9,0.5,1.5C41.1,214.1,41.1,214.8,41.1,215.6z M39.8,215.7
		c0-0.5,0-0.9-0.1-1.3s-0.1-0.7-0.2-1c-0.1-0.3-0.2-0.5-0.3-0.7s-0.2-0.4-0.4-0.5c-0.1-0.1-0.3-0.2-0.5-0.3s-0.4-0.1-0.6-0.1
		c-0.4,0-0.8,0.1-1,0.3s-0.5,0.5-0.6,0.8s-0.3,0.7-0.3,1.2s-0.1,1-0.1,1.5c0,0.7,0,1.3,0.1,1.8s0.2,0.9,0.3,1.2
		c0.2,0.3,0.4,0.5,0.6,0.7s0.5,0.2,0.9,0.2c0.3,0,0.5,0,0.7-0.1s0.4-0.2,0.5-0.4s0.3-0.4,0.4-0.6s0.2-0.5,0.2-0.8s0.1-0.6,0.1-0.9
		C39.8,216.4,39.8,216,39.8,215.7z"/>
</g>
<g>
	<path class="st1" d="M33.2,175.3c0,0.5-0.1,1-0.3,1.4s-0.4,0.7-0.7,1s-0.7,0.5-1.1,0.6s-0.9,0.2-1.4,0.2c-0.3,0-0.6,0-0.8-0.1
		c-0.3,0-0.5-0.1-0.7-0.2c-0.2-0.1-0.4-0.1-0.5-0.2s-0.2-0.1-0.3-0.1l-0.1-0.1v-0.1c0,0,0-0.1,0-0.2s0-0.1,0-0.2c0-0.1,0-0.2,0-0.2
		c0-0.1,0-0.1,0-0.2c0,0,0-0.1,0.1-0.1s0.1,0,0.1,0s0.1,0,0.2,0.1s0.2,0.1,0.4,0.2c0.2,0.1,0.4,0.1,0.6,0.2c0.3,0.1,0.6,0.1,0.9,0.1
		s0.6,0,0.9-0.1s0.5-0.2,0.7-0.4s0.4-0.4,0.5-0.6c0.1-0.3,0.2-0.6,0.2-0.9c0-0.3,0-0.6-0.1-0.8s-0.2-0.4-0.4-0.6
		c-0.2-0.2-0.4-0.3-0.8-0.3c-0.3-0.1-0.7-0.1-1.1-0.1c-0.3,0-0.6,0-0.8,0s-0.4,0-0.6,0c-0.1,0-0.2,0-0.3-0.1s-0.1-0.2-0.1-0.4v-3.9
		c0-0.2,0-0.3,0.1-0.4c0.1-0.1,0.2-0.1,0.3-0.1h4.2h0.1l0.1,0.1c0,0,0,0.1,0.1,0.2c0,0.1,0,0.1,0,0.2c0,0.2,0,0.3-0.1,0.4
		s-0.1,0.1-0.2,0.1h-3.4v2.7c0.2,0,0.3,0,0.5,0s0.4,0,0.6,0c0.5,0,1,0.1,1.4,0.2c0.4,0.1,0.7,0.3,1,0.5c0.3,0.2,0.5,0.5,0.6,0.9
		C33.1,174.5,33.2,174.9,33.2,175.3z"/>
	<path class="st1" d="M41.1,173.6c0,0.7-0.1,1.4-0.2,2s-0.3,1.1-0.6,1.5s-0.6,0.8-1,1s-1,0.4-1.6,0.4s-1.1-0.1-1.5-0.3
		s-0.7-0.5-1-0.9c-0.2-0.4-0.4-0.9-0.5-1.5s-0.2-1.3-0.2-2.1c0-0.7,0.1-1.4,0.2-2c0.1-0.6,0.3-1.1,0.6-1.6c0.3-0.4,0.6-0.8,1-1
		s1-0.4,1.6-0.4s1.1,0.1,1.5,0.3s0.7,0.5,1,0.9c0.2,0.4,0.4,0.9,0.5,1.5C41.1,172.1,41.1,172.8,41.1,173.6z M39.8,173.7
		c0-0.5,0-0.9-0.1-1.3s-0.1-0.7-0.2-1c-0.1-0.3-0.2-0.5-0.3-0.7s-0.2-0.4-0.4-0.5c-0.1-0.1-0.3-0.2-0.5-0.3s-0.4-0.1-0.6-0.1
		c-0.4,0-0.8,0.1-1,0.3s-0.5,0.5-0.6,0.8s-0.3,0.7-0.3,1.2s-0.1,1-0.1,1.5c0,0.7,0,1.3,0.1,1.8s0.2,0.9,0.3,1.2
		c0.2,0.3,0.4,0.5,0.6,0.7s0.5,0.2,0.9,0.2c0.3,0,0.5,0,0.7-0.1s0.4-0.2,0.5-0.4s0.3-0.4,0.4-0.6s0.2-0.5,0.2-0.8s0.1-0.6,0.1-0.9
		C39.8,174.4,39.8,174,39.8,173.7z"/>
</g>
<g>
	<path class="st1" d="M33.4,133c0,0.4-0.1,0.8-0.2,1.2c-0.1,0.4-0.3,0.7-0.6,1s-0.6,0.5-1,0.7c-0.4,0.2-0.9,0.3-1.4,0.3
		c-0.4,0-0.7,0-1-0.1s-0.6-0.2-0.8-0.4s-0.4-0.4-0.6-0.7c-0.1-0.3-0.3-0.6-0.4-0.9s-0.2-0.7-0.2-1.1s-0.1-0.8-0.1-1.3
		c0-0.4,0-0.8,0.1-1.2s0.1-0.8,0.2-1.2s0.3-0.7,0.5-1.1c0.2-0.3,0.4-0.6,0.7-0.9c0.3-0.3,0.6-0.5,1-0.6s0.9-0.2,1.4-0.2
		c0.2,0,0.4,0,0.5,0c0.2,0,0.4,0.1,0.5,0.1c0.2,0,0.3,0.1,0.4,0.1c0.1,0,0.2,0.1,0.2,0.1l0.1,0.1v0.1v0.1c0,0,0,0.1,0,0.2
		s0,0.2,0,0.2c0,0.1,0,0.1,0,0.2c0,0,0,0.1-0.1,0.1s-0.1,0-0.1,0c-0.1,0-0.1,0-0.2-0.1c-0.1,0-0.2-0.1-0.3-0.1
		c-0.1,0-0.3-0.1-0.5-0.1s-0.4-0.1-0.7-0.1c-0.5,0-0.8,0.1-1.2,0.3c-0.3,0.2-0.6,0.4-0.8,0.7c-0.2,0.3-0.4,0.7-0.5,1.1
		c-0.1,0.4-0.2,0.8-0.2,1.3c0.1-0.1,0.3-0.1,0.4-0.2c0.2-0.1,0.3-0.1,0.5-0.2s0.4-0.1,0.6-0.1s0.4-0.1,0.7-0.1
		c0.5,0,0.9,0.1,1.3,0.2c0.4,0.1,0.6,0.3,0.9,0.6c0.2,0.2,0.4,0.5,0.5,0.9C33.4,132.3,33.4,132.6,33.4,133z M32.2,133.1
		c0-0.3,0-0.5-0.1-0.8c-0.1-0.2-0.1-0.4-0.3-0.6c-0.1-0.2-0.3-0.3-0.5-0.4s-0.5-0.1-0.8-0.1c-0.2,0-0.4,0-0.5,0
		c-0.2,0-0.4,0.1-0.5,0.1c-0.2,0.1-0.3,0.1-0.5,0.2c-0.2,0.1-0.3,0.2-0.4,0.2c0,0.6,0,1.2,0.1,1.6c0.1,0.4,0.2,0.8,0.4,1
		c0.2,0.3,0.3,0.4,0.6,0.5c0.2,0.1,0.5,0.2,0.8,0.2s0.6-0.1,0.8-0.2s0.4-0.3,0.6-0.5c0.2-0.2,0.3-0.4,0.3-0.7
		C32.1,133.7,32.2,133.4,32.2,133.1z"/>
	<path class="st1" d="M41.1,131.3c0,0.7-0.1,1.4-0.2,2s-0.3,1.1-0.6,1.5s-0.6,0.8-1,1s-1,0.4-1.6,0.4s-1.1-0.1-1.5-0.3
		s-0.7-0.5-1-0.9c-0.2-0.4-0.4-0.9-0.5-1.5s-0.2-1.3-0.2-2.1c0-0.7,0.1-1.4,0.2-2c0.1-0.6,0.3-1.1,0.6-1.6c0.3-0.4,0.6-0.8,1-1
		s1-0.4,1.6-0.4s1.1,0.1,1.5,0.3c0.4,0.2,0.7,0.5,1,0.9c0.2,0.4,0.4,0.9,0.5,1.5C41.1,129.9,41.1,130.6,41.1,131.3z M39.8,131.4
		c0-0.5,0-0.9-0.1-1.3s-0.1-0.7-0.2-1c-0.1-0.3-0.2-0.5-0.3-0.7s-0.2-0.4-0.4-0.5c-0.1-0.1-0.3-0.2-0.5-0.3
		c-0.2-0.1-0.4-0.1-0.6-0.1c-0.4,0-0.8,0.1-1,0.3c-0.3,0.2-0.5,0.5-0.6,0.8s-0.3,0.7-0.3,1.2s-0.1,1-0.1,1.5c0,0.7,0,1.3,0.1,1.8
		s0.2,0.9,0.3,1.2c0.2,0.3,0.4,0.5,0.6,0.7s0.5,0.2,0.9,0.2c0.3,0,0.5,0,0.7-0.1s0.4-0.2,0.5-0.4s0.3-0.4,0.4-0.6s0.2-0.5,0.2-0.8
		s0.1-0.6,0.1-0.9C39.8,132.1,39.8,131.8,39.8,131.4z"/>
</g>
<g>
	<path class="st0" d="M116.7,420.3c0,0.1,0,0.2,0,0.2s0,0.1-0.1,0.2s-0.1,0.1-0.1,0.1h-0.1h-5h-0.1c0,0-0.1,0-0.1-0.1
		c0,0,0-0.1-0.1-0.2s0-0.1,0-0.2s0-0.2,0-0.2s0-0.1,0.1-0.2c0,0,0-0.1,0.1-0.1h0.1h2v-7.2l-1.8,1.1c-0.1,0-0.2,0.1-0.2,0.1
		c-0.1,0-0.1,0-0.1,0s-0.1-0.1-0.1-0.2s0-0.2,0-0.3c0-0.1,0-0.2,0-0.2c0-0.1,0-0.1,0-0.1s0-0.1,0.1-0.1l0.1-0.1l2.2-1.4
		c0,0,0,0,0.1,0s0.1,0,0.1,0s0.1,0,0.2,0s0.1,0,0.2,0s0.2,0,0.3,0c0.1,0,0.1,0,0.2,0c0,0,0.1,0,0.1,0.1v0.1v8.3h1.7h0.1l0.1,0.1
		c0,0,0,0.1,0.1,0.2C116.7,420.1,116.7,420.2,116.7,420.3z"/>
	<path class="st0" d="M124.4,415.7c0,0.4,0,0.8-0.1,1.2s-0.1,0.8-0.2,1.2c-0.1,0.4-0.3,0.8-0.5,1.1c-0.2,0.3-0.4,0.6-0.7,0.9
		c-0.3,0.3-0.7,0.5-1.1,0.6s-0.9,0.2-1.4,0.2c-0.2,0-0.4,0-0.6,0s-0.4-0.1-0.5-0.1c-0.2,0-0.3-0.1-0.4-0.1s-0.2-0.1-0.2-0.1
		s-0.1-0.1-0.1-0.2s0-0.2,0-0.3c0-0.1,0-0.2,0-0.3c0-0.1,0-0.1,0-0.1s0-0.1,0.1-0.1h0.1c0.1,0,0.1,0,0.2,0.1c0.1,0,0.2,0.1,0.4,0.1
		c0.1,0,0.3,0.1,0.5,0.1s0.4,0.1,0.7,0.1c0.5,0,0.9-0.1,1.2-0.3c0.3-0.2,0.6-0.4,0.8-0.7s0.4-0.7,0.5-1.1s0.2-0.8,0.2-1.3
		c-0.3,0.2-0.6,0.3-0.9,0.4s-0.8,0.2-1.2,0.2c-0.5,0-1-0.1-1.3-0.2c-0.4-0.1-0.6-0.3-0.9-0.6s-0.4-0.5-0.5-0.9
		c-0.1-0.3-0.1-0.7-0.1-1.1s0.1-0.8,0.2-1.2c0.1-0.4,0.3-0.7,0.6-1s0.6-0.5,1-0.7s0.9-0.3,1.4-0.3c0.4,0,0.7,0.1,1.1,0.2
		c0.3,0.1,0.6,0.2,0.8,0.4c0.2,0.2,0.4,0.4,0.6,0.7c0.2,0.3,0.3,0.6,0.4,0.9s0.2,0.7,0.2,1.1C124.3,414.8,124.4,415.2,124.4,415.7z
		 M123.1,415.5c0-0.6,0-1.2-0.1-1.6s-0.2-0.8-0.4-1s-0.4-0.5-0.6-0.6s-0.5-0.2-0.8-0.2s-0.6,0.1-0.8,0.2c-0.2,0.1-0.4,0.3-0.6,0.5
		c-0.1,0.2-0.2,0.4-0.3,0.7s-0.1,0.5-0.1,0.8s0,0.6,0.1,0.8c0.1,0.2,0.2,0.4,0.3,0.6s0.3,0.3,0.5,0.4s0.5,0.1,0.8,0.1
		c0.4,0,0.7-0.1,1.1-0.2C122.5,415.9,122.8,415.7,123.1,415.5z"/>
	<path class="st0" d="M132,415.7c0,0.4,0,0.8-0.1,1.2s-0.1,0.8-0.2,1.2c-0.1,0.4-0.3,0.8-0.5,1.1c-0.2,0.3-0.4,0.6-0.7,0.9
		s-0.7,0.5-1.1,0.6c-0.4,0.1-0.9,0.2-1.4,0.2c-0.2,0-0.4,0-0.6,0s-0.4-0.1-0.5-0.1c-0.2,0-0.3-0.1-0.4-0.1s-0.2-0.1-0.2-0.1
		s-0.1-0.1-0.1-0.2s0-0.2,0-0.3c0-0.1,0-0.2,0-0.3c0-0.1,0-0.1,0-0.1s0-0.1,0.1-0.1h0.1c0.1,0,0.1,0,0.2,0.1c0.1,0,0.2,0.1,0.4,0.1
		c0.1,0,0.3,0.1,0.5,0.1s0.4,0.1,0.7,0.1c0.5,0,0.9-0.1,1.2-0.3c0.3-0.2,0.6-0.4,0.8-0.7s0.4-0.7,0.5-1.1s0.2-0.8,0.2-1.3
		c-0.3,0.2-0.6,0.3-0.9,0.4s-0.8,0.2-1.2,0.2c-0.5,0-1-0.1-1.3-0.2c-0.4-0.1-0.6-0.3-0.9-0.6s-0.4-0.5-0.5-0.9
		c-0.1-0.3-0.1-0.7-0.1-1.1s0.1-0.8,0.2-1.2c0.1-0.4,0.3-0.7,0.6-1s0.6-0.5,1-0.7s0.9-0.3,1.4-0.3c0.4,0,0.7,0.1,1.1,0.2
		c0.3,0.1,0.6,0.2,0.8,0.4c0.2,0.2,0.4,0.4,0.6,0.7c0.2,0.3,0.3,0.6,0.4,0.9c0.1,0.3,0.2,0.7,0.2,1.1
		C131.9,414.8,132,415.2,132,415.7z M130.7,415.5c0-0.6,0-1.2-0.1-1.6s-0.2-0.8-0.4-1s-0.4-0.5-0.6-0.6s-0.5-0.2-0.8-0.2
		s-0.6,0.1-0.8,0.2s-0.4,0.3-0.6,0.5c-0.1,0.2-0.2,0.4-0.3,0.7s-0.1,0.5-0.1,0.8s0,0.6,0.1,0.8c0.1,0.2,0.2,0.4,0.3,0.6
		s0.3,0.3,0.5,0.4c0.2,0.1,0.5,0.1,0.8,0.1c0.4,0,0.7-0.1,1.1-0.2C130.1,415.9,130.4,415.7,130.7,415.5z"/>
	<path class="st0" d="M139.8,416c0,0.7-0.1,1.4-0.2,2s-0.3,1.1-0.6,1.5s-0.6,0.8-1,1s-1,0.4-1.6,0.4s-1.1-0.1-1.5-0.3
		c-0.4-0.2-0.7-0.5-1-0.9c-0.2-0.4-0.4-0.9-0.5-1.5s-0.2-1.3-0.2-2.1c0-0.7,0.1-1.4,0.2-2c0.1-0.6,0.3-1.1,0.6-1.6
		c0.3-0.4,0.6-0.8,1-1s1-0.4,1.6-0.4s1.1,0.1,1.5,0.3c0.4,0.2,0.7,0.5,1,0.9c0.2,0.4,0.4,0.9,0.5,1.5
		C139.8,414.6,139.8,415.2,139.8,416z M138.5,416.1c0-0.5,0-0.9-0.1-1.3s-0.1-0.7-0.2-1c-0.1-0.3-0.2-0.5-0.3-0.7s-0.2-0.4-0.4-0.5
		c-0.1-0.1-0.3-0.2-0.5-0.3c-0.2-0.1-0.4-0.1-0.6-0.1c-0.4,0-0.8,0.1-1,0.3s-0.5,0.5-0.6,0.8s-0.3,0.7-0.3,1.2s-0.1,1-0.1,1.5
		c0,0.7,0,1.3,0.1,1.8s0.2,0.9,0.3,1.2c0.2,0.3,0.4,0.5,0.6,0.7s0.5,0.2,0.9,0.2c0.3,0,0.5,0,0.7-0.1s0.4-0.2,0.5-0.4
		c0.1-0.2,0.3-0.4,0.4-0.6s0.2-0.5,0.2-0.8s0.1-0.6,0.1-0.9C138.5,416.8,138.5,416.5,138.5,416.1z"/>
</g>
<g>
	<path class="st0" d="M194.6,420.2c0,0.1,0,0.2,0,0.2s0,0.1-0.1,0.2l-0.1,0.1h-0.1h-5.2c-0.1,0-0.1,0-0.2,0c-0.1,0-0.1,0-0.1-0.1
		c0,0-0.1-0.1-0.1-0.2s0-0.2,0-0.3c0-0.1,0-0.2,0-0.3c0-0.1,0-0.1,0-0.2s0.1-0.1,0.1-0.2s0.1-0.1,0.1-0.2l1.9-1.9
		c0.4-0.4,0.8-0.9,1.1-1.2s0.5-0.7,0.6-1s0.2-0.6,0.3-0.8c0-0.2,0.1-0.5,0.1-0.7s0-0.4-0.1-0.6s-0.2-0.4-0.3-0.5s-0.3-0.3-0.5-0.3
		s-0.4-0.1-0.7-0.1s-0.6,0-0.8,0.1s-0.5,0.2-0.6,0.3c-0.2,0.1-0.3,0.2-0.5,0.3c-0.1,0.1-0.2,0.1-0.3,0.1H189l-0.1-0.1
		c0,0,0-0.1,0-0.2s0-0.2,0-0.3c0-0.1,0-0.1,0-0.2s0-0.1,0-0.1v-0.1l0.1-0.1c0.1-0.1,0.2-0.1,0.3-0.2s0.3-0.2,0.5-0.3
		c0.2-0.1,0.5-0.2,0.7-0.2c0.3-0.1,0.5-0.1,0.8-0.1c0.5,0,0.9,0.1,1.2,0.2s0.6,0.3,0.9,0.5c0.2,0.2,0.4,0.5,0.5,0.8s0.2,0.6,0.2,1
		c0,0.3,0,0.6-0.1,0.9s-0.2,0.6-0.3,1c-0.2,0.3-0.4,0.7-0.8,1.2c-0.3,0.4-0.8,0.9-1.3,1.5l-1.5,1.6h4.1h0.1l0.1,0.1
		c0,0,0,0.1,0.1,0.2C194.6,420.1,194.6,420.2,194.6,420.2z"/>
	<path class="st0" d="M202.5,416c0,0.7-0.1,1.4-0.2,2s-0.3,1.1-0.6,1.5s-0.6,0.8-1,1s-1,0.4-1.6,0.4s-1.1-0.1-1.5-0.3
		c-0.4-0.2-0.7-0.5-1-0.9c-0.2-0.4-0.4-0.9-0.5-1.5s-0.2-1.3-0.2-2.1c0-0.7,0.1-1.4,0.2-2c0.1-0.6,0.3-1.1,0.6-1.6
		c0.3-0.4,0.6-0.8,1-1s1-0.4,1.6-0.4s1.1,0.1,1.5,0.3c0.4,0.2,0.7,0.5,1,0.9c0.2,0.4,0.4,0.9,0.5,1.5
		C202.5,414.6,202.5,415.2,202.5,416z M201.2,416.1c0-0.5,0-0.9-0.1-1.3s-0.1-0.7-0.2-1c-0.1-0.3-0.2-0.5-0.3-0.7s-0.2-0.4-0.4-0.5
		c-0.1-0.1-0.3-0.2-0.5-0.3c-0.2-0.1-0.4-0.1-0.6-0.1c-0.4,0-0.8,0.1-1,0.3s-0.5,0.5-0.6,0.8s-0.3,0.7-0.3,1.2s-0.1,1-0.1,1.5
		c0,0.7,0,1.3,0.1,1.8s0.2,0.9,0.3,1.2c0.2,0.3,0.4,0.5,0.6,0.7s0.5,0.2,0.9,0.2c0.3,0,0.5,0,0.7-0.1s0.4-0.2,0.5-0.4
		c0.1-0.2,0.3-0.4,0.4-0.6s0.2-0.5,0.2-0.8s0.1-0.6,0.1-0.9C201.2,416.8,201.2,416.5,201.2,416.1z"/>
	<path class="st0" d="M210.1,416c0,0.7-0.1,1.4-0.2,2s-0.3,1.1-0.6,1.5s-0.6,0.8-1,1s-1,0.4-1.6,0.4s-1.1-0.1-1.5-0.3
		c-0.4-0.2-0.7-0.5-1-0.9c-0.2-0.4-0.4-0.9-0.5-1.5s-0.2-1.3-0.2-2.1c0-0.7,0.1-1.4,0.2-2c0.1-0.6,0.3-1.1,0.6-1.6
		c0.3-0.4,0.6-0.8,1-1s1-0.4,1.6-0.4s1.1,0.1,1.5,0.3c0.4,0.2,0.7,0.5,1,0.9c0.2,0.4,0.4,0.9,0.5,1.5
		C210.1,414.6,210.1,415.2,210.1,416z M208.8,416.1c0-0.5,0-0.9-0.1-1.3s-0.1-0.7-0.2-1c-0.1-0.3-0.2-0.5-0.3-0.7s-0.2-0.4-0.4-0.5
		c-0.1-0.1-0.3-0.2-0.5-0.3c-0.2-0.1-0.4-0.1-0.6-0.1c-0.4,0-0.8,0.1-1,0.3s-0.5,0.5-0.6,0.8s-0.3,0.7-0.3,1.2s-0.1,1-0.1,1.5
		c0,0.7,0,1.3,0.1,1.8s0.2,0.9,0.3,1.2c0.2,0.3,0.4,0.5,0.6,0.7s0.5,0.2,0.9,0.2c0.3,0,0.5,0,0.7-0.1s0.4-0.2,0.5-0.4
		c0.1-0.2,0.3-0.4,0.4-0.6s0.2-0.5,0.2-0.8s0.1-0.6,0.1-0.9C208.8,416.8,208.8,416.5,208.8,416.1z"/>
	<path class="st0" d="M217.7,416c0,0.7-0.1,1.4-0.2,2s-0.3,1.1-0.6,1.5s-0.6,0.8-1,1s-1,0.4-1.6,0.4s-1.1-0.1-1.5-0.3
		c-0.4-0.2-0.7-0.5-1-0.9c-0.2-0.4-0.4-0.9-0.5-1.5s-0.2-1.3-0.2-2.1c0-0.7,0.1-1.4,0.2-2c0.1-0.6,0.3-1.1,0.6-1.6
		c0.3-0.4,0.6-0.8,1-1s1-0.4,1.6-0.4s1.1,0.1,1.5,0.3c0.4,0.2,0.7,0.5,1,0.9c0.2,0.4,0.4,0.9,0.5,1.5
		C217.7,414.6,217.7,415.2,217.7,416z M216.4,416.1c0-0.5,0-0.9-0.1-1.3s-0.1-0.7-0.2-1c-0.1-0.3-0.2-0.5-0.3-0.7s-0.2-0.4-0.4-0.5
		c-0.1-0.1-0.3-0.2-0.5-0.3c-0.2-0.1-0.4-0.1-0.6-0.1c-0.4,0-0.8,0.1-1,0.3s-0.5,0.5-0.6,0.8s-0.3,0.7-0.3,1.2s-0.1,1-0.1,1.5
		c0,0.7,0,1.3,0.1,1.8s0.2,0.9,0.3,1.2c0.2,0.3,0.4,0.5,0.6,0.7s0.5,0.2,0.9,0.2c0.3,0,0.5,0,0.7-0.1s0.4-0.2,0.5-0.4
		c0.1-0.2,0.3-0.4,0.4-0.6s0.2-0.5,0.2-0.8s0.1-0.6,0.1-0.9C216.4,416.8,216.4,416.5,216.4,416.1z"/>
</g>
<g>
	<path class="st0" d="M269.3,420.2c0,0.1,0,0.2,0,0.2s0,0.1-0.1,0.2l-0.1,0.1H269h-5.2c-0.1,0-0.1,0-0.2,0s-0.1,0-0.1-0.1
		c0,0-0.1-0.1-0.1-0.2s0-0.2,0-0.3c0-0.1,0-0.2,0-0.3c0-0.1,0-0.1,0-0.2s0.1-0.1,0.1-0.2s0.1-0.1,0.1-0.2l1.9-1.9
		c0.4-0.4,0.8-0.9,1.1-1.2s0.5-0.7,0.6-1s0.2-0.6,0.3-0.8c0-0.2,0.1-0.5,0.1-0.7s0-0.4-0.1-0.6s-0.2-0.4-0.3-0.5
		c-0.1-0.1-0.3-0.3-0.5-0.3s-0.4-0.1-0.7-0.1c-0.3,0-0.6,0-0.8,0.1c-0.2,0.1-0.5,0.2-0.6,0.3c-0.2,0.1-0.3,0.2-0.5,0.3
		c-0.1,0.1-0.2,0.1-0.3,0.1h-0.1l-0.1-0.1c0,0,0-0.1,0-0.2s0-0.2,0-0.3c0-0.1,0-0.1,0-0.2s0-0.1,0-0.1v-0.1l0.1-0.1
		c0.1-0.1,0.2-0.1,0.3-0.2c0.1-0.1,0.3-0.2,0.5-0.3c0.2-0.1,0.5-0.2,0.7-0.2c0.3-0.1,0.5-0.1,0.8-0.1c0.5,0,0.9,0.1,1.2,0.2
		c0.3,0.1,0.6,0.3,0.9,0.5c0.2,0.2,0.4,0.5,0.5,0.8s0.2,0.6,0.2,1c0,0.3,0,0.6-0.1,0.9s-0.2,0.6-0.3,1c-0.2,0.3-0.4,0.7-0.8,1.2
		c-0.3,0.4-0.8,0.9-1.3,1.5l-1.5,1.6h4.1h0.1l0.1,0.1c0,0,0,0.1,0.1,0.2C269.2,420.1,269.3,420.2,269.3,420.2z"/>
	<path class="st0" d="M277.2,416c0,0.7-0.1,1.4-0.2,2s-0.3,1.1-0.6,1.5c-0.3,0.4-0.6,0.8-1,1s-1,0.4-1.6,0.4s-1.1-0.1-1.5-0.3
		c-0.4-0.2-0.7-0.5-1-0.9c-0.2-0.4-0.4-0.9-0.5-1.5s-0.2-1.3-0.2-2.1c0-0.7,0.1-1.4,0.2-2s0.3-1.1,0.6-1.6c0.3-0.4,0.6-0.8,1-1
		s1-0.4,1.6-0.4s1.1,0.1,1.5,0.3c0.4,0.2,0.7,0.5,1,0.9c0.2,0.4,0.4,0.9,0.5,1.5C277.1,414.6,277.2,415.2,277.2,416z M275.9,416.1
		c0-0.5,0-0.9-0.1-1.3s-0.1-0.7-0.2-1s-0.2-0.5-0.3-0.7c-0.1-0.2-0.2-0.4-0.4-0.5c-0.1-0.1-0.3-0.2-0.5-0.3
		c-0.2-0.1-0.4-0.1-0.6-0.1c-0.4,0-0.8,0.1-1,0.3s-0.5,0.5-0.6,0.8s-0.3,0.7-0.3,1.2s-0.1,1-0.1,1.5c0,0.7,0,1.3,0.1,1.8
		s0.2,0.9,0.3,1.2c0.2,0.3,0.4,0.5,0.6,0.7s0.5,0.2,0.9,0.2c0.3,0,0.5,0,0.7-0.1s0.4-0.2,0.5-0.4c0.1-0.2,0.3-0.4,0.4-0.6
		s0.2-0.5,0.2-0.8s0.1-0.6,0.1-0.9C275.9,416.8,275.9,416.5,275.9,416.1z"/>
	<path class="st0" d="M284.5,420.3c0,0.1,0,0.2,0,0.2s0,0.1-0.1,0.2s-0.1,0.1-0.1,0.1h-0.1h-5h-0.1c0,0-0.1,0-0.1-0.1
		c0,0,0-0.1-0.1-0.2s0-0.1,0-0.2s0-0.2,0-0.2s0-0.1,0.1-0.2c0,0,0-0.1,0.1-0.1h0.1h2v-7.2l-1.8,1.1c-0.1,0-0.2,0.1-0.2,0.1
		c-0.1,0-0.1,0-0.1,0s-0.1-0.1-0.1-0.2s0-0.2,0-0.3c0-0.1,0-0.2,0-0.2c0-0.1,0-0.1,0-0.1s0-0.1,0.1-0.1l0.1-0.1l2.2-1.4
		c0,0,0,0,0.1,0s0.1,0,0.1,0s0.1,0,0.2,0s0.1,0,0.2,0s0.2,0,0.3,0c0.1,0,0.1,0,0.2,0c0,0,0.1,0,0.1,0.1v0.1v8.3h1.7h0.1l0.1,0.1
		c0,0,0,0.1,0.1,0.2C284.5,420.1,284.5,420.2,284.5,420.3z"/>
	<path class="st0" d="M292.4,416c0,0.7-0.1,1.4-0.2,2s-0.3,1.1-0.6,1.5c-0.3,0.4-0.6,0.8-1,1s-1,0.4-1.6,0.4s-1.1-0.1-1.5-0.3
		c-0.4-0.2-0.7-0.5-1-0.9c-0.2-0.4-0.4-0.9-0.5-1.5s-0.2-1.3-0.2-2.1c0-0.7,0.1-1.4,0.2-2s0.3-1.1,0.6-1.6c0.3-0.4,0.6-0.8,1-1
		s1-0.4,1.6-0.4s1.1,0.1,1.5,0.3c0.4,0.2,0.7,0.5,1,0.9c0.2,0.4,0.4,0.9,0.5,1.5C292.3,414.6,292.4,415.2,292.4,416z M291.1,416.1
		c0-0.5,0-0.9-0.1-1.3s-0.1-0.7-0.2-1s-0.2-0.5-0.3-0.7c-0.1-0.2-0.2-0.4-0.4-0.5c-0.1-0.1-0.3-0.2-0.5-0.3
		c-0.2-0.1-0.4-0.1-0.6-0.1c-0.4,0-0.8,0.1-1,0.3s-0.5,0.5-0.6,0.8s-0.3,0.7-0.3,1.2s-0.1,1-0.1,1.5c0,0.7,0,1.3,0.1,1.8
		s0.2,0.9,0.3,1.2c0.2,0.3,0.4,0.5,0.6,0.7s0.5,0.2,0.9,0.2c0.3,0,0.5,0,0.7-0.1s0.4-0.2,0.5-0.4c0.1-0.2,0.3-0.4,0.4-0.6
		s0.2-0.5,0.2-0.8s0.1-0.6,0.1-0.9C291.1,416.8,291.1,416.5,291.1,416.1z"/>
</g>
<g>
	<path class="st0" d="M336.4,420.2c0,0.1,0,0.2,0,0.2s0,0.1-0.1,0.2l-0.1,0.1h-0.1h-5.2c-0.1,0-0.1,0-0.2,0s-0.1,0-0.1-0.1
		c0,0-0.1-0.1-0.1-0.2s0-0.2,0-0.3c0-0.1,0-0.2,0-0.3c0-0.1,0-0.1,0-0.2s0.1-0.1,0.1-0.2s0.1-0.1,0.1-0.2l1.9-1.9
		c0.4-0.4,0.8-0.9,1.1-1.2s0.5-0.7,0.6-1s0.2-0.6,0.3-0.8c0-0.2,0.1-0.5,0.1-0.7s0-0.4-0.1-0.6s-0.2-0.4-0.3-0.5
		c-0.1-0.1-0.3-0.3-0.5-0.3s-0.4-0.1-0.7-0.1c-0.3,0-0.6,0-0.8,0.1c-0.2,0.1-0.5,0.2-0.6,0.3c-0.2,0.1-0.3,0.2-0.5,0.3
		c-0.1,0.1-0.2,0.1-0.3,0.1h-0.1l-0.1-0.1c0,0,0-0.1,0-0.2s0-0.2,0-0.3c0-0.1,0-0.1,0-0.2s0-0.1,0-0.1v-0.1l0.1-0.1
		c0.1-0.1,0.2-0.1,0.3-0.2c0.1-0.1,0.3-0.2,0.5-0.3c0.2-0.1,0.5-0.2,0.7-0.2c0.3-0.1,0.5-0.1,0.8-0.1c0.5,0,0.9,0.1,1.2,0.2
		c0.3,0.1,0.6,0.3,0.9,0.5c0.2,0.2,0.4,0.5,0.5,0.8s0.2,0.6,0.2,1c0,0.3,0,0.6-0.1,0.9s-0.2,0.6-0.3,1c-0.2,0.3-0.4,0.7-0.8,1.2
		c-0.3,0.4-0.8,0.9-1.3,1.5l-1.5,1.6h4.1h0.1l0.1,0.1c0,0,0,0.1,0.1,0.2C336.4,420.1,336.4,420.2,336.4,420.2z"/>
	<path class="st0" d="M344.3,416c0,0.7-0.1,1.4-0.2,2s-0.3,1.1-0.6,1.5c-0.3,0.4-0.6,0.8-1,1s-1,0.4-1.6,0.4s-1.1-0.1-1.5-0.3
		c-0.4-0.2-0.7-0.5-1-0.9c-0.2-0.4-0.4-0.9-0.5-1.5s-0.2-1.3-0.2-2.1c0-0.7,0.1-1.4,0.2-2s0.3-1.1,0.6-1.6c0.3-0.4,0.6-0.8,1-1
		s1-0.4,1.6-0.4s1.1,0.1,1.5,0.3c0.4,0.2,0.7,0.5,1,0.9c0.2,0.4,0.4,0.9,0.5,1.5C344.2,414.6,344.3,415.2,344.3,416z M343,416.1
		c0-0.5,0-0.9-0.1-1.3s-0.1-0.7-0.2-1s-0.2-0.5-0.3-0.7c-0.1-0.2-0.2-0.4-0.4-0.5c-0.1-0.1-0.3-0.2-0.5-0.3
		c-0.2-0.1-0.4-0.1-0.6-0.1c-0.4,0-0.8,0.1-1,0.3s-0.5,0.5-0.6,0.8s-0.3,0.7-0.3,1.2s-0.1,1-0.1,1.5c0,0.7,0,1.3,0.1,1.8
		s0.2,0.9,0.3,1.2c0.2,0.3,0.4,0.5,0.6,0.7s0.5,0.2,0.9,0.2c0.3,0,0.5,0,0.7-0.1s0.4-0.2,0.5-0.4c0.1-0.2,0.3-0.4,0.4-0.6
		s0.2-0.5,0.2-0.8s0.1-0.6,0.1-0.9C343,416.8,343,416.5,343,416.1z"/>
	<path class="st0" d="M351.6,420.2c0,0.1,0,0.2,0,0.2s0,0.1-0.1,0.2l-0.1,0.1h-0.1h-5.2c-0.1,0-0.1,0-0.2,0s-0.1,0-0.1-0.1
		c0,0-0.1-0.1-0.1-0.2s0-0.2,0-0.3c0-0.1,0-0.2,0-0.3c0-0.1,0-0.1,0-0.2s0.1-0.1,0.1-0.2s0.1-0.1,0.1-0.2l1.9-1.9
		c0.4-0.4,0.8-0.9,1.1-1.2s0.5-0.7,0.6-1s0.2-0.6,0.3-0.8c0-0.2,0.1-0.5,0.1-0.7s0-0.4-0.1-0.6s-0.2-0.4-0.3-0.5
		c-0.1-0.1-0.3-0.3-0.5-0.3s-0.4-0.1-0.7-0.1c-0.3,0-0.6,0-0.8,0.1c-0.2,0.1-0.5,0.2-0.6,0.3c-0.2,0.1-0.3,0.2-0.5,0.3
		c-0.1,0.1-0.2,0.1-0.3,0.1H346l-0.1-0.1c0,0,0-0.1,0-0.2s0-0.2,0-0.3c0-0.1,0-0.1,0-0.2s0-0.1,0-0.1v-0.1l0.1-0.1
		c0.1-0.1,0.2-0.1,0.3-0.2c0.1-0.1,0.3-0.2,0.5-0.3c0.2-0.1,0.5-0.2,0.7-0.2c0.3-0.1,0.5-0.1,0.8-0.1c0.5,0,0.9,0.1,1.2,0.2
		c0.3,0.1,0.6,0.3,0.9,0.5c0.2,0.2,0.4,0.5,0.5,0.8s0.2,0.6,0.2,1c0,0.3,0,0.6-0.1,0.9s-0.2,0.6-0.3,1c-0.2,0.3-0.4,0.7-0.8,1.2
		c-0.3,0.4-0.8,0.9-1.3,1.5l-1.5,1.6h4.1h0.1l0.1,0.1c0,0,0,0.1,0.1,0.2C351.6,420.1,351.6,420.2,351.6,420.2z"/>
	<path class="st0" d="M359.5,416c0,0.7-0.1,1.4-0.2,2s-0.3,1.1-0.6,1.5c-0.3,0.4-0.6,0.8-1,1s-1,0.4-1.6,0.4s-1.1-0.1-1.5-0.3
		c-0.4-0.2-0.7-0.5-1-0.9c-0.2-0.4-0.4-0.9-0.5-1.5s-0.2-1.3-0.2-2.1c0-0.7,0.1-1.4,0.2-2s0.3-1.1,0.6-1.6c0.3-0.4,0.6-0.8,1-1
		s1-0.4,1.6-0.4s1.1,0.1,1.5,0.3c0.4,0.2,0.7,0.5,1,0.9c0.2,0.4,0.4,0.9,0.5,1.5C359.4,414.6,359.5,415.2,359.5,416z M358.2,416.1
		c0-0.5,0-0.9-0.1-1.3s-0.1-0.7-0.2-1s-0.2-0.5-0.3-0.7c-0.1-0.2-0.2-0.4-0.4-0.5c-0.1-0.1-0.3-0.2-0.5-0.3
		c-0.2-0.1-0.4-0.1-0.6-0.1c-0.4,0-0.8,0.1-1,0.3s-0.5,0.5-0.6,0.8s-0.3,0.7-0.3,1.2s-0.1,1-0.1,1.5c0,0.7,0,1.3,0.1,1.8
		s0.2,0.9,0.3,1.2c0.2,0.3,0.4,0.5,0.6,0.7s0.5,0.2,0.9,0.2c0.3,0,0.5,0,0.7-0.1s0.4-0.2,0.5-0.4c0.1-0.2,0.3-0.4,0.4-0.6
		s0.2-0.5,0.2-0.8s0.1-0.6,0.1-0.9C358.2,416.8,358.2,416.5,358.2,416.1z"/>
</g>
<g>
	<path class="st0" d="M410.3,420.2c0,0.1,0,0.2,0,0.2c0,0.1,0,0.1-0.1,0.2l-0.1,0.1H410h-5.2c-0.1,0-0.1,0-0.2,0s-0.1,0-0.1-0.1
		c0,0-0.1-0.1-0.1-0.2s0-0.2,0-0.3c0-0.1,0-0.2,0-0.3c0-0.1,0-0.1,0-0.2s0.1-0.1,0.1-0.2s0.1-0.1,0.1-0.2l1.9-1.9
		c0.4-0.4,0.8-0.9,1.1-1.2c0.3-0.4,0.5-0.7,0.6-1s0.2-0.6,0.3-0.8c0-0.2,0.1-0.5,0.1-0.7s0-0.4-0.1-0.6s-0.2-0.4-0.3-0.5
		c-0.1-0.1-0.3-0.3-0.5-0.3c-0.2-0.1-0.4-0.1-0.7-0.1c-0.3,0-0.6,0-0.8,0.1c-0.2,0.1-0.5,0.2-0.6,0.3c-0.2,0.1-0.3,0.2-0.5,0.3
		c-0.1,0.1-0.2,0.1-0.3,0.1h-0.1c0,0,0-0.1-0.1-0.1s0-0.1,0-0.2s0-0.2,0-0.3c0-0.1,0-0.1,0-0.2s0-0.1,0-0.1v-0.1l0.1-0.1
		c0.1-0.1,0.2-0.1,0.3-0.2c0.1-0.1,0.3-0.2,0.5-0.3c0.2-0.1,0.5-0.2,0.7-0.2c0.3-0.1,0.5-0.1,0.8-0.1c0.5,0,0.9,0.1,1.2,0.2
		c0.3,0.1,0.6,0.3,0.9,0.5c0.2,0.2,0.4,0.5,0.5,0.8s0.2,0.6,0.2,1c0,0.3,0,0.6-0.1,0.9s-0.2,0.6-0.3,1c-0.2,0.3-0.4,0.7-0.8,1.2
		c-0.3,0.4-0.8,0.9-1.3,1.5l-1.5,1.6h4.1h0.1l0.1,0.1c0,0,0,0.1,0.1,0.2C410.3,420.1,410.3,420.2,410.3,420.2z"/>
	<path class="st0" d="M418.3,416c0,0.7-0.1,1.4-0.2,2s-0.3,1.1-0.6,1.5c-0.3,0.4-0.6,0.8-1,1s-1,0.4-1.6,0.4s-1.1-0.1-1.5-0.3
		c-0.4-0.2-0.7-0.5-1-0.9c-0.2-0.4-0.4-0.9-0.5-1.5s-0.2-1.3-0.2-2.1c0-0.7,0.1-1.4,0.2-2s0.3-1.1,0.6-1.6c0.3-0.4,0.6-0.8,1-1
		s1-0.4,1.6-0.4s1.1,0.1,1.5,0.3c0.4,0.2,0.7,0.5,1,0.9c0.2,0.4,0.4,0.9,0.5,1.5C418.2,414.6,418.3,415.2,418.3,416z M417,416.1
		c0-0.5,0-0.9-0.1-1.3s-0.1-0.7-0.2-1s-0.2-0.5-0.3-0.7c-0.1-0.2-0.2-0.4-0.4-0.5c-0.1-0.1-0.3-0.2-0.5-0.3
		c-0.2-0.1-0.4-0.1-0.6-0.1c-0.4,0-0.8,0.1-1,0.3s-0.5,0.5-0.6,0.8s-0.3,0.7-0.3,1.2s-0.1,1-0.1,1.5c0,0.7,0,1.3,0.1,1.8
		s0.2,0.9,0.3,1.2c0.2,0.3,0.4,0.5,0.6,0.7c0.2,0.1,0.5,0.2,0.9,0.2c0.3,0,0.5,0,0.7-0.1s0.4-0.2,0.5-0.4c0.1-0.2,0.3-0.4,0.4-0.6
		s0.2-0.5,0.2-0.8s0.1-0.6,0.1-0.9C417,416.8,417,416.5,417,416.1z"/>
	<path class="st0" d="M425.5,418.1c0,0.4-0.1,0.8-0.2,1.2c-0.2,0.3-0.4,0.6-0.7,0.9c-0.3,0.2-0.6,0.4-1,0.6
		c-0.4,0.1-0.9,0.2-1.4,0.2c-0.3,0-0.6,0-0.9-0.1s-0.5-0.1-0.7-0.2s-0.4-0.1-0.5-0.2s-0.2-0.1-0.3-0.2l-0.1-0.1c0,0,0-0.1-0.1-0.1
		s0-0.1,0-0.2s0-0.2,0-0.3c0-0.2,0-0.3,0.1-0.4s0.1-0.1,0.2-0.1c0,0,0.1,0,0.3,0.1s0.3,0.2,0.5,0.3c0.2,0.1,0.5,0.2,0.7,0.3
		c0.3,0.1,0.6,0.1,0.9,0.1s0.6,0,0.9-0.1s0.5-0.2,0.6-0.4c0.2-0.2,0.3-0.3,0.4-0.5s0.1-0.4,0.1-0.7c0-0.3-0.1-0.5-0.2-0.7
		s-0.3-0.4-0.5-0.6s-0.5-0.3-0.8-0.4s-0.7-0.1-1-0.1h-0.9h-0.1c0,0-0.1,0-0.1-0.1c0,0-0.1-0.1-0.1-0.2s0-0.1,0-0.2s0-0.2,0-0.2
		c0-0.1,0-0.1,0.1-0.1l0.1-0.1h0.1h0.8c0.3,0,0.6,0,0.9-0.1s0.5-0.2,0.7-0.4c0.2-0.2,0.3-0.3,0.4-0.6c0.1-0.2,0.1-0.5,0.1-0.7
		s0-0.4-0.1-0.6s-0.2-0.3-0.3-0.5c-0.1-0.1-0.3-0.2-0.5-0.3c-0.2-0.1-0.4-0.1-0.7-0.1c-0.3,0-0.5,0-0.8,0.1
		c-0.2,0.1-0.4,0.2-0.6,0.3s-0.3,0.2-0.5,0.3c-0.1,0.1-0.2,0.1-0.3,0.1h-0.1c0,0,0,0-0.1-0.1c0,0,0-0.1,0-0.2s0-0.2,0-0.3
		c0-0.1,0-0.1,0-0.2s0-0.1,0-0.1s0-0.1,0.1-0.1s0.1-0.1,0.1-0.1s0.1-0.1,0.3-0.2s0.3-0.2,0.5-0.3c0.2-0.1,0.4-0.2,0.7-0.2
		c0.3-0.1,0.6-0.1,0.9-0.1c0.4,0,0.8,0.1,1.2,0.2s0.6,0.3,0.8,0.5c0.2,0.2,0.4,0.5,0.5,0.7c0.1,0.3,0.2,0.6,0.2,0.9s0,0.6-0.1,0.8
		c-0.1,0.3-0.2,0.5-0.3,0.7c-0.2,0.2-0.3,0.4-0.6,0.5c-0.2,0.1-0.5,0.2-0.8,0.3l0,0c0.3,0,0.6,0.1,0.9,0.2s0.5,0.3,0.7,0.5
		s0.3,0.4,0.5,0.7C425.4,417.5,425.5,417.8,425.5,418.1z"/>
	<path class="st0" d="M433.5,416c0,0.7-0.1,1.4-0.2,2s-0.3,1.1-0.6,1.5c-0.3,0.4-0.6,0.8-1,1s-1,0.4-1.6,0.4s-1.1-0.1-1.5-0.3
		c-0.4-0.2-0.7-0.5-1-0.9c-0.2-0.4-0.4-0.9-0.5-1.5s-0.2-1.3-0.2-2.1c0-0.7,0.1-1.4,0.2-2s0.3-1.1,0.6-1.6c0.3-0.4,0.6-0.8,1-1
		s1-0.4,1.6-0.4s1.1,0.1,1.5,0.3c0.4,0.2,0.7,0.5,1,0.9c0.2,0.4,0.4,0.9,0.5,1.5C433.4,414.6,433.5,415.2,433.5,416z M432.2,416.1
		c0-0.5,0-0.9-0.1-1.3s-0.1-0.7-0.2-1s-0.2-0.5-0.3-0.7c-0.1-0.2-0.2-0.4-0.4-0.5c-0.1-0.1-0.3-0.2-0.5-0.3
		c-0.2-0.1-0.4-0.1-0.6-0.1c-0.4,0-0.8,0.1-1,0.3s-0.5,0.5-0.6,0.8s-0.3,0.7-0.3,1.2s-0.1,1-0.1,1.5c0,0.7,0,1.3,0.1,1.8
		s0.2,0.9,0.3,1.2c0.2,0.3,0.4,0.5,0.6,0.7c0.2,0.1,0.5,0.2,0.9,0.2c0.3,0,0.5,0,0.7-0.1s0.4-0.2,0.5-0.4c0.1-0.2,0.3-0.4,0.4-0.6
		s0.2-0.5,0.2-0.8s0.1-0.6,0.1-0.9C432.2,416.8,432.2,416.5,432.2,416.1z"/>
</g>
<g>
	<path class="st0" d="M487.7,420.2c0,0.1,0,0.2,0,0.2c0,0.1,0,0.1-0.1,0.2l-0.1,0.1h-0.1h-5.2c-0.1,0-0.1,0-0.2,0s-0.1,0-0.1-0.1
		c0,0-0.1-0.1-0.1-0.2s0-0.2,0-0.3c0-0.1,0-0.2,0-0.3c0-0.1,0-0.1,0-0.2s0.1-0.1,0.1-0.2s0.1-0.1,0.1-0.2l1.9-1.9
		c0.4-0.4,0.8-0.9,1.1-1.2c0.3-0.4,0.5-0.7,0.6-1s0.2-0.6,0.3-0.8c0-0.2,0.1-0.5,0.1-0.7s0-0.4-0.1-0.6s-0.2-0.4-0.3-0.5
		c-0.1-0.1-0.3-0.3-0.5-0.3c-0.2-0.1-0.4-0.1-0.7-0.1c-0.3,0-0.6,0-0.8,0.1c-0.2,0.1-0.5,0.2-0.6,0.3c-0.2,0.1-0.3,0.2-0.5,0.3
		c-0.1,0.1-0.2,0.1-0.3,0.1h-0.1c0,0,0-0.1-0.1-0.1s0-0.1,0-0.2s0-0.2,0-0.3c0-0.1,0-0.1,0-0.2s0-0.1,0-0.1v-0.1l0.1-0.1
		c0.1-0.1,0.2-0.1,0.3-0.2c0.1-0.1,0.3-0.2,0.5-0.3c0.2-0.1,0.5-0.2,0.7-0.2c0.3-0.1,0.5-0.1,0.8-0.1c0.5,0,0.9,0.1,1.2,0.2
		c0.3,0.1,0.6,0.3,0.9,0.5c0.2,0.2,0.4,0.5,0.5,0.8s0.2,0.6,0.2,1c0,0.3,0,0.6-0.1,0.9s-0.2,0.6-0.3,1c-0.2,0.3-0.4,0.7-0.8,1.2
		c-0.3,0.4-0.8,0.9-1.3,1.5l-1.5,1.6h4.1h0.1l0.1,0.1c0,0,0,0.1,0.1,0.2C487.7,420.1,487.7,420.2,487.7,420.2z"/>
	<path class="st0" d="M495.6,416c0,0.7-0.1,1.4-0.2,2s-0.3,1.1-0.6,1.5c-0.3,0.4-0.6,0.8-1,1s-1,0.4-1.6,0.4s-1.1-0.1-1.5-0.3
		c-0.4-0.2-0.7-0.5-1-0.9c-0.2-0.4-0.4-0.9-0.5-1.5s-0.2-1.3-0.2-2.1c0-0.7,0.1-1.4,0.2-2s0.3-1.1,0.6-1.6c0.3-0.4,0.6-0.8,1-1
		s1-0.4,1.6-0.4s1.1,0.1,1.5,0.3c0.4,0.2,0.7,0.5,1,0.9c0.2,0.4,0.4,0.9,0.5,1.5C495.5,414.6,495.6,415.2,495.6,416z M494.3,416.1
		c0-0.5,0-0.9-0.1-1.3s-0.1-0.7-0.2-1s-0.2-0.5-0.3-0.7c-0.1-0.2-0.2-0.4-0.4-0.5c-0.1-0.1-0.3-0.2-0.5-0.3
		c-0.2-0.1-0.4-0.1-0.6-0.1c-0.4,0-0.8,0.1-1,0.3s-0.5,0.5-0.6,0.8s-0.3,0.7-0.3,1.2s-0.1,1-0.1,1.5c0,0.7,0,1.3,0.1,1.8
		s0.2,0.9,0.3,1.2c0.2,0.3,0.4,0.5,0.6,0.7c0.2,0.1,0.5,0.2,0.9,0.2c0.3,0,0.5,0,0.7-0.1s0.4-0.2,0.5-0.4c0.1-0.2,0.3-0.4,0.4-0.6
		s0.2-0.5,0.2-0.8s0.1-0.6,0.1-0.9C494.3,416.8,494.3,416.5,494.3,416.1z"/>
	<path class="st0" d="M503.3,418.1c0,0.2,0,0.3-0.1,0.4s-0.1,0.1-0.2,0.1h-1.1v2v0.1c0,0-0.1,0-0.1,0.1c0,0-0.1,0-0.2,0
		s-0.2,0-0.3,0c-0.1,0-0.2,0-0.3,0c-0.1,0-0.1,0-0.2,0s-0.1,0-0.1-0.1v-0.1v-2h-3.9c-0.1,0-0.1,0-0.1,0s-0.1,0-0.1-0.1
		s-0.1-0.1-0.1-0.2s0-0.2,0-0.3c0-0.1,0-0.2,0-0.2c0-0.1,0-0.1,0-0.2s0-0.1,0.1-0.2c0-0.1,0.1-0.1,0.1-0.2l3.4-5.8l0.1-0.1
		c0,0,0.1-0.1,0.2-0.1s0.2,0,0.3,0c0.1,0,0.2,0,0.4,0c0.2,0,0.3,0,0.4,0s0.2,0,0.3,0c0.1,0,0.1,0,0.2,0.1l0.1,0.1v6.1h1.1
		c0.1,0,0.2,0,0.2,0.1C503.3,417.8,503.3,417.9,503.3,418.1z M500.7,412.4L500.7,412.4l-3.1,5.2h3.1V412.4z"/>
	<path class="st0" d="M510.8,416c0,0.7-0.1,1.4-0.2,2s-0.3,1.1-0.6,1.5c-0.3,0.4-0.6,0.8-1,1s-1,0.4-1.6,0.4s-1.1-0.1-1.5-0.3
		c-0.4-0.2-0.7-0.5-1-0.9c-0.2-0.4-0.4-0.9-0.5-1.5s-0.2-1.3-0.2-2.1c0-0.7,0.1-1.4,0.2-2s0.3-1.1,0.6-1.6c0.3-0.4,0.6-0.8,1-1
		s1-0.4,1.6-0.4s1.1,0.1,1.5,0.3c0.4,0.2,0.7,0.5,1,0.9c0.2,0.4,0.4,0.9,0.5,1.5C510.7,414.6,510.8,415.2,510.8,416z M509.5,416.1
		c0-0.5,0-0.9-0.1-1.3s-0.1-0.7-0.2-1s-0.2-0.5-0.3-0.7c-0.1-0.2-0.2-0.4-0.4-0.5c-0.1-0.1-0.3-0.2-0.5-0.3
		c-0.2-0.1-0.4-0.1-0.6-0.1c-0.4,0-0.8,0.1-1,0.3s-0.5,0.5-0.6,0.8s-0.3,0.7-0.3,1.2s-0.1,1-0.1,1.5c0,0.7,0,1.3,0.1,1.8
		s0.2,0.9,0.3,1.2c0.2,0.3,0.4,0.5,0.6,0.7c0.2,0.1,0.5,0.2,0.9,0.2c0.3,0,0.5,0,0.7-0.1s0.4-0.2,0.5-0.4c0.1-0.2,0.3-0.4,0.4-0.6
		s0.2-0.5,0.2-0.8s0.1-0.6,0.1-0.9C509.5,416.8,509.5,416.5,509.5,416.1z"/>
</g>
<g>
	<path class="st0" d="M559.8,420.2c0,0.1,0,0.2,0,0.2s0,0.1-0.1,0.2l-0.1,0.1h-0.1h-5.2c-0.1,0-0.1,0-0.2,0c-0.1,0-0.1,0-0.1-0.1
		c0,0-0.1-0.1-0.1-0.2s0-0.2,0-0.3c0-0.1,0-0.2,0-0.3c0-0.1,0-0.1,0-0.2s0.1-0.1,0.1-0.2s0.1-0.1,0.1-0.2l1.9-1.9
		c0.4-0.4,0.8-0.9,1.1-1.2s0.5-0.7,0.6-1s0.2-0.6,0.3-0.8c0-0.2,0.1-0.5,0.1-0.7s0-0.4-0.1-0.6s-0.2-0.4-0.3-0.5s-0.3-0.3-0.5-0.3
		s-0.4-0.1-0.7-0.1s-0.6,0-0.8,0.1s-0.5,0.2-0.6,0.3c-0.2,0.1-0.3,0.2-0.5,0.3c-0.1,0.1-0.2,0.1-0.3,0.1h-0.1l-0.1-0.1
		c0,0,0-0.1,0-0.2s0-0.2,0-0.3c0-0.1,0-0.1,0-0.2s0-0.1,0-0.1v-0.1l0.1-0.1c0.1-0.1,0.2-0.1,0.3-0.2s0.3-0.2,0.5-0.3
		c0.2-0.1,0.5-0.2,0.7-0.2c0.3-0.1,0.5-0.1,0.8-0.1c0.5,0,0.9,0.1,1.2,0.2s0.6,0.3,0.9,0.5c0.2,0.2,0.4,0.5,0.5,0.8s0.2,0.6,0.2,1
		c0,0.3,0,0.6-0.1,0.9s-0.2,0.6-0.3,1c-0.2,0.3-0.4,0.7-0.8,1.2c-0.3,0.4-0.8,0.9-1.3,1.5l-1.5,1.6h4.1h0.1l0.1,0.1
		c0,0,0,0.1,0.1,0.2C559.8,420.1,559.8,420.2,559.8,420.2z"/>
	<path class="st0" d="M567.7,416c0,0.7-0.1,1.4-0.2,2s-0.3,1.1-0.6,1.5s-0.6,0.8-1,1s-1,0.4-1.6,0.4s-1.1-0.1-1.5-0.3
		c-0.4-0.2-0.7-0.5-1-0.9c-0.2-0.4-0.4-0.9-0.5-1.5s-0.2-1.3-0.2-2.1c0-0.7,0.1-1.4,0.2-2c0.1-0.6,0.3-1.1,0.6-1.6
		c0.3-0.4,0.6-0.8,1-1s1-0.4,1.6-0.4s1.1,0.1,1.5,0.3c0.4,0.2,0.7,0.5,1,0.9c0.2,0.4,0.4,0.9,0.5,1.5
		C567.6,414.6,567.7,415.2,567.7,416z M566.4,416.1c0-0.5,0-0.9-0.1-1.3s-0.1-0.7-0.2-1c-0.1-0.3-0.2-0.5-0.3-0.7s-0.2-0.4-0.4-0.5
		c-0.1-0.1-0.3-0.2-0.5-0.3c-0.2-0.1-0.4-0.1-0.6-0.1c-0.4,0-0.8,0.1-1,0.3s-0.5,0.5-0.6,0.8s-0.3,0.7-0.3,1.2s-0.1,1-0.1,1.5
		c0,0.7,0,1.3,0.1,1.8s0.2,0.9,0.3,1.2c0.2,0.3,0.4,0.5,0.6,0.7s0.5,0.2,0.9,0.2c0.3,0,0.5,0,0.7-0.1s0.4-0.2,0.5-0.4
		c0.1-0.2,0.3-0.4,0.4-0.6s0.2-0.5,0.2-0.8s0.1-0.6,0.1-0.9C566.4,416.8,566.4,416.5,566.4,416.1z"/>
	<path class="st0" d="M574.9,417.7c0,0.5-0.1,1-0.3,1.4s-0.4,0.7-0.7,1s-0.7,0.5-1.1,0.6c-0.4,0.1-0.9,0.2-1.4,0.2
		c-0.3,0-0.6,0-0.8-0.1c-0.3,0-0.5-0.1-0.7-0.2s-0.4-0.1-0.5-0.2s-0.2-0.1-0.3-0.1l-0.1-0.1v-0.1c0,0,0-0.1,0-0.2s0-0.1,0-0.2
		s0-0.2,0-0.2c0-0.1,0-0.1,0-0.2c0,0,0-0.1,0.1-0.1h0.1c0,0,0.1,0,0.2,0.1c0.1,0.1,0.2,0.1,0.4,0.2s0.4,0.1,0.6,0.2
		c0.3,0.1,0.6,0.1,0.9,0.1c0.3,0,0.6,0,0.9-0.1s0.5-0.2,0.7-0.4c0.2-0.2,0.4-0.4,0.5-0.6c0.1-0.3,0.2-0.6,0.2-0.9s0-0.6-0.1-0.8
		c-0.1-0.2-0.2-0.4-0.4-0.6s-0.4-0.3-0.8-0.3c-0.3-0.1-0.7-0.1-1.1-0.1c-0.3,0-0.6,0-0.8,0s-0.4,0-0.6,0c-0.1,0-0.2,0-0.3-0.1
		s-0.1-0.2-0.1-0.4v-3.9c0-0.2,0-0.3,0.1-0.4s0.2-0.1,0.3-0.1h4.2h0.1l0.1,0.1c0,0,0,0.1,0.1,0.2c0,0.1,0,0.1,0,0.2
		c0,0.2,0,0.3-0.1,0.4s-0.1,0.1-0.2,0.1h-3.4v2.7c0.2,0,0.3,0,0.5,0s0.4,0,0.6,0c0.5,0,1,0.1,1.4,0.2s0.7,0.3,1,0.5s0.5,0.5,0.6,0.9
		C574.9,417,574.9,417.3,574.9,417.7z"/>
	<path class="st0" d="M582.9,416c0,0.7-0.1,1.4-0.2,2c-0.1,0.6-0.3,1.1-0.6,1.5s-0.6,0.8-1,1s-1,0.4-1.6,0.4s-1.1-0.1-1.5-0.3
		c-0.4-0.2-0.7-0.5-1-0.9c-0.2-0.4-0.4-0.9-0.5-1.5s-0.2-1.3-0.2-2.1c0-0.7,0.1-1.4,0.2-2c0.1-0.6,0.3-1.1,0.6-1.6
		c0.3-0.4,0.6-0.8,1-1s1-0.4,1.6-0.4s1.1,0.1,1.5,0.3c0.4,0.2,0.7,0.5,1,0.9c0.2,0.4,0.4,0.9,0.5,1.5
		C582.9,414.6,582.9,415.2,582.9,416z M581.6,416.1c0-0.5,0-0.9-0.1-1.3s-0.1-0.7-0.2-1c-0.1-0.3-0.2-0.5-0.3-0.7s-0.2-0.4-0.4-0.5
		c-0.1-0.1-0.3-0.2-0.5-0.3c-0.2-0.1-0.4-0.1-0.6-0.1c-0.4,0-0.8,0.1-1,0.3s-0.5,0.5-0.6,0.8s-0.3,0.7-0.3,1.2s-0.1,1-0.1,1.5
		c0,0.7,0,1.3,0.1,1.8s0.2,0.9,0.3,1.2c0.2,0.3,0.4,0.5,0.6,0.7c0.2,0.1,0.5,0.2,0.9,0.2c0.3,0,0.5,0,0.7-0.1s0.4-0.2,0.5-0.4
		c0.1-0.2,0.3-0.4,0.4-0.6s0.2-0.5,0.2-0.8s0.1-0.6,0.1-0.9C581.6,416.8,581.6,416.5,581.6,416.1z"/>
</g>
<g>
	<circle class="st2" cx="599.5" cy="139.5" r="10"/>
</g>
<g>
	<circle class="st3" cx="599.5" cy="166.2" r="10"/>
</g>
<g>
	<circle class="st4" cx="599.5" cy="191.9" r="10"/>
</g>
<g>
	<circle class="st5" cx="599.5" cy="216.6" r="10"/>
</g>
<g>
	<circle class="st6" cx="599.5" cy="242.3" r="10"/>
</g>
<g>
	<circle class="st7" cx="599.5" cy="266" r="10"/>
</g>
<g>
	<circle class="st8" cx="599.5" cy="290.8" r="10"/>
</g>
<g>
	<circle class="st9" cx="599.5" cy="315.5" r="10"/>
</g>
<g>
	<circle class="st10" cx="599.5" cy="340.2" r="10"/>
</g>
<g>
	<circle class="st11" cx="599.5" cy="364.9" r="10"/>
</g>
<g>
	<circle class="st12" cx="599.5" cy="389.6" r="10"/>
</g>
<g>
	<rect x="48.3" y="131.7" class="st13" width="528.6" height="1"/>
</g>
<g>
	<rect x="48.3" y="172.9" class="st13" width="528.6" height="1"/>
</g>
<g>
	<rect x="48.3" y="215.1" class="st13" width="528.6" height="1"/>
</g>
<g>
	<rect x="48.3" y="256.6" class="st13" width="528.6" height="1"/>
</g>
<g>
	<rect x="48.3" y="298.2" class="st13" width="528.6" height="1"/>
</g>
<g>
	<rect x="48.3" y="339.9" class="st13" width="528.6" height="1"/>
</g>
<g>
	<path class="st12" d="M411.7,342.1c-36.4-4.4-58.7-0.8-72.8-5c0,0-26.8,2.5-60.1,4.7c0,0-9.9,4.1-15.7,5s-11.6-0.6-19.3,0.8
		s-33.1,6.8-54.6,9.2s-73.9,5.4-84.9,6.5c-7.8,0.8-35.9,3.8-52.5,5.8v11.7h516.6v-10.3c-12.5-1.7-54.1-7.4-80.5-13.7
		C456.7,349.3,448.1,346.5,411.7,342.1z"/>
</g>
<g>
	<path class="st14" d="M447.3,343.8c-3.3-1.4-14.1-3-45.5-6.1c-31.4-3-38.9,1.1-53.2-1.7c-14.3-2.8-20.1-0.3-24.5,0
		s-35.3,2.2-44.4,3.3s-32,3.9-48.5,7.2s-77.2,8.3-86.6,8.3c-9.4,0.1-48.8,3-55.7,4.1c-5.5,0.9-28.1,2.1-37,2.5v7.7
		c16.5-2.1,44.7-5,52.5-5.8c11-1.1,63.4-4.1,84.9-6.5s46.9-7.8,54.6-9.2c7.7-1.4,13.5,0,19.3-0.8s15.7-5,15.7-5
		c33.3-2.1,60.1-4.7,60.1-4.7c14.1,4.1,36.4,0.6,72.8,5s44.9,7.2,76.4,14.7c26.4,6.4,67.9,12.1,80.5,13.7V368
		c-16.9-0.7-52.4-10.2-59.5-11.3C500.8,355.6,450.6,345.2,447.3,343.8z"/>
</g>
<g>
	<path class="st15" d="M399.9,312.9c-45.5,8.3-58.7-7.7-58.7-7.7s-11,6.1-24.8,7.2s-45.9,12.3-53.5,12.6c-2.2,0.1-16.8-2.4-22.1,3.1
		c-5.2,5.5-34.5,12.4-55.4,13.2s-28.1,5.7-53.8,8.5c-25.6,2.8-60.1,5.8-67.5,7.1c-4.4,0.7-9.1,1.3-12.2,1.7v2.9
		c8.9-0.4,31.5-1.6,37-2.5c6.9-1.1,46.3-4.1,55.7-4.1c9.4-0.1,70-5,86.6-8.3s39.4-6.1,48.5-7.2s40-3,44.4-3.3s10.2-2.8,24.5,0
		s21.8-1.4,53.2,1.7c31.4,3,42.2,4.7,45.5,6.1s53.5,11.8,61.7,13.1c7.2,1.1,42.6,10.5,59.5,11.3V339c-12.9-2.2-56.1-9.8-79.4-17
		C461.6,313.5,445.4,304.6,399.9,312.9z"/>
</g>
<g>
	<polygon class="st3" points="135.9,335 215.9,315.4 244.2,302.3 266.7,299 274.3,292.9 326.1,279.5 341.1,266.8 353.8,271.2 
		407.1,243.9 421.2,235.5 462.7,210.6 484.1,199.4 517.1,183.3 568.6,153.7 568.6,134.3 549.9,150.4 520.5,169.3 487.4,192 
		404.2,243 352.5,269.7 341.1,263.8 325.2,276.7 273.1,291.8 266.7,297 244.2,301.3 215.9,313.4 189.6,319.8 133.1,332.6 
		123.7,333.7 79.9,343.5 51.9,348.2 51.9,351.2 116.5,337.3 	"/>
</g>
<g>
	<path class="st2" d="M123.7,333.7l9.4-1.1l56.5-12.8l26.3-6.4l28.4-12.1l22.5-4.2l6.4-5.3l52.1-15.1l15.9-12.9l11.4,5.9l51.7-26.7
		l83.2-51l33.1-22.7l29.4-18.9l18.7-16.1v-3.1c0,0-35.6,31.1-47,34.3c0,0-40.7,28.6-54,36.2S411,236,411,236l-60.4,30.5l-9.5-5.7
		l-14,11.4l-6.4,2.5l-10.5,3.2l-23.8,5.7l-13.3,5.1l-5.7,4.4l-19.1,4.4l-32.4,12.7l-29.2,8.3l-47,10.2l-15.9,1.9L80,341.4l-28,3.2
		v3.5l28-4.7L123.7,333.7z"/>
</g>
<g>
	<path class="st16" d="M501.5,277c0,0-41.5-14.1-64.6-11.5c-23.2,2.6-41.2,4.5-48.7,7.7c0,0-22,1.4-28.8,3.7
		c-6.8,2.3-19.4-5.2-19.4-5.2l-14.3,10.2l-50.1,13.4l-7.1,6.6l-24.6,3.7L215.8,318l-82.4,20.1L52.1,353v1.5l60.1-10.5
		c0,0,14.1-3.3,28.5-4.6s30-4.9,32.5-5.6s33.9-7.9,33.9-7.9s30.9-10.7,38.8-12.8c7.9-2.1,19.7-2.5,19.7-2.5
		c4.9-1.4,9.8-4.6,13.7-5.4s28.1-3.8,36.5-5.7c8.4-1.9,24.9-8.9,24.9-8.9c12.1,4.6,27.8,9.1,54.1,3.4c26.4-5.6,52.5-3.2,59.4-1.1
		s56.4,17.4,84,23c17.1,3.5,26.1,3.9,30.5,3.8v-34.9l-22.2-0.7L501.5,277z"/>
</g>
<g>
	<path class="st17" d="M517.1,183.3l-33,16.2l-21.3,11.2l-41.5,24.9l-14.2,8.4l-53.3,27.2l-12.7-4.3l-15,12.7L274.3,293l-7.5,6.1
		l-22.5,3.2l-28.4,13.1l-80,19.6l-19.4,2.4l-64.6,13.9v1.3l67.3-13.3l14.1-1.8c0,0,82.2-19.8,82.8-20s27.7-12.9,27.7-12.9l23.7-3.5
		l7.9-6.5l49.6-12.7l15.4-12.6c15.6,6.7,15.2,3.8,15.2,3.8l21.6-5.8c0,0,19.7-5.7,23.5-7.6s35.6-15.9,35.6-15.9l57.2-15.3l50.8-12.7
		l24.1-7.1v-54.9L517.1,183.3z"/>
</g>
<g>
	<path class="st18" d="M493.6,228.4l-57.2,15.3c0,0-31.8,14-35.6,15.9c-3.8,1.9-23.5,7.6-23.5,7.6l-21.6,5.8c0,0,0.4,2.9-15.2-3.8
		l-15.4,12.6l-49.6,12.7l-7.9,6.5l-23.7,3.5c0,0-27.1,12.7-27.7,12.9c-0.6,0.2-82.8,20-82.8,20l-14.1,1.8L52,352.5v0.7l81.3-14.9
		l82.4-20.1l28.1-12.4l24.6-3.7l7.1-6.6l50.1-13.4l14.3-10.2c0,0,12.6,7.5,19.4,5.2s28.8-3.7,28.8-3.7c7.5-3.3,25.5-5.2,48.7-7.7
		c23.2-2.6,64.6,11.5,64.6,11.5l45,7.5l22.2,0.7v-76.6l-24.1,7.1L493.6,228.4z"/>
</g>
<g>
	<path class="st19" d="M415.3,296.5c-16.2,4.8-62.7,6.3-75-2.8c0,0-9.6,7.4-21,8.5s-33.9,3.5-37.4,5s-14.2,4.4-18.1,6.8
		s-8.3-3.7-18.1,1.3s-42.6,14-45.7,14.6c-3.1,0.7-39.3,8.1-43.5,9.4l-27.1,2.6l-77.5,14.6v1.9c3.1-0.4,7.8-1,12.2-1.7
		c7.4-1.3,41.9-4.3,67.5-7.1c25.6-2.8,32.8-7.7,53.8-8.5s50.2-7.7,55.4-13.2c5.2-5.5,19.8-3,22.1-3.1c7.5-0.3,39.7-11.5,53.5-12.6
		s24.8-7.2,24.8-7.2s13.2,16,58.7,7.7s61.7,0.6,89.3,9.1c23.3,7.2,66.5,14.8,79.4,17v-12.6c-7.1-0.1-25.5-1.7-62.6-12.6
		C455.5,298.9,431.5,291.7,415.3,296.5z"/>
</g>
<g>
	<path class="st20" d="M538,316.3c-27.6-5.6-77.1-20.9-84-23s-33-4.6-59.4,1.1c-26.4,5.6-42,1.2-54.1-3.4c0,0-16.5,7-24.9,8.9
		s-32.7,4.9-36.5,5.7s-8.8,4-13.7,5.4c0,0-11.8,0.4-19.7,2.5s-38.8,12.8-38.8,12.8s-31.4,7.2-33.9,7.9c-2.5,0.7-18.1,4.4-32.5,5.6
		s-28.5,4.6-28.5,4.6l-60.1,10.5v1.9l77.5-14.6l27.1-2.6c4.2-1.3,40.4-8.7,43.5-9.4c3.1-0.7,35.8-9.6,45.7-14.6
		c9.8-5,14.2,1.1,18.1-1.3s14.6-5.2,18.1-6.8c3.5-1.5,26-3.9,37.4-5s21-8.5,21-8.5c12.2,9.2,58.8,7.6,75,2.8
		c16.2-4.8,40.2,2.4,90.7,17.3c37.1,10.9,55.5,12.5,62.6,12.6v-6.3C564.1,320.2,555.1,319.8,538,316.3z"/>
</g>
<g>
	<path class="st13" d="M569.1,377.2h-1v-5h1V377.2z M569.1,367.2h-1v-5h1V367.2z M569.1,357.2h-1v-5h1V357.2z M569.1,347.2h-1v-5h1
		V347.2z M569.1,337.2h-1v-5h1V337.2z M569.1,327.2h-1v-5h1V327.2z M569.1,317.2h-1v-5h1V317.2z M569.1,307.2h-1v-5h1V307.2z
		 M569.1,297.2h-1v-5h1V297.2z M569.1,287.2h-1v-5h1V287.2z M569.1,277.2h-1v-5h1V277.2z M569.1,267.2h-1v-5h1V267.2z M569.1,257.2
		h-1v-5h1V257.2z M569.1,247.2h-1v-5h1V247.2z M569.1,237.2h-1v-5h1V237.2z M569.1,227.2h-1v-5h1V227.2z M569.1,217.2h-1v-5h1V217.2
		z M569.1,207.2h-1v-5h1V207.2z M569.1,197.2h-1v-5h1V197.2z M569.1,187.2h-1v-5h1V187.2z M569.1,177.2h-1v-5h1V177.2z M569.1,167.2
		h-1v-5h1V167.2z M569.1,157.2h-1v-5h1V157.2z M569.1,147.2h-1v-5h1V147.2z M569.1,137.2h-1v-5h1V137.2z"/>
</g>
<g>
	<path class="st13" d="M496.7,377.2h-1v-5h1V377.2z M496.7,367.2h-1v-5h1V367.2z M496.7,357.2h-1v-5h1V357.2z M496.7,347.2h-1v-5h1
		V347.2z M496.7,337.2h-1v-5h1V337.2z M496.7,327.2h-1v-5h1V327.2z M496.7,317.2h-1v-5h1V317.2z M496.7,307.2h-1v-5h1V307.2z
		 M496.7,297.2h-1v-5h1V297.2z M496.7,287.2h-1v-5h1V287.2z M496.7,277.2h-1v-5h1V277.2z M496.7,267.2h-1v-5h1V267.2z M496.7,257.2
		h-1v-5h1V257.2z M496.7,247.2h-1v-5h1V247.2z M496.7,237.2h-1v-5h1V237.2z M496.7,227.2h-1v-5h1V227.2z M496.7,217.2h-1v-5h1V217.2
		z M496.7,207.2h-1v-5h1V207.2z M496.7,197.2h-1v-5h1V197.2z M496.7,187.2h-1v-5h1V187.2z M496.7,177.2h-1v-5h1V177.2z M496.7,167.2
		h-1v-5h1V167.2z M496.7,157.2h-1v-5h1V157.2z M496.7,147.2h-1v-5h1V147.2z M496.7,137.2h-1v-5h1V137.2z"/>
</g>
<g>
	<path class="st13" d="M422.3,377.2h-1v-5h1V377.2z M422.3,367.2h-1v-5h1V367.2z M422.3,357.2h-1v-5h1V357.2z M422.3,347.2h-1v-5h1
		V347.2z M422.3,337.2h-1v-5h1V337.2z M422.3,327.2h-1v-5h1V327.2z M422.3,317.2h-1v-5h1V317.2z M422.3,307.2h-1v-5h1V307.2z
		 M422.3,297.2h-1v-5h1V297.2z M422.3,287.2h-1v-5h1V287.2z M422.3,277.2h-1v-5h1V277.2z M422.3,267.2h-1v-5h1V267.2z M422.3,257.2
		h-1v-5h1V257.2z M422.3,247.2h-1v-5h1V247.2z M422.3,237.2h-1v-5h1V237.2z M422.3,227.2h-1v-5h1V227.2z M422.3,217.2h-1v-5h1V217.2
		z M422.3,207.2h-1v-5h1V207.2z M422.3,197.2h-1v-5h1V197.2z M422.3,187.2h-1v-5h1V187.2z M422.3,177.2h-1v-5h1V177.2z M422.3,167.2
		h-1v-5h1V167.2z M422.3,157.2h-1v-5h1V157.2z M422.3,147.2h-1v-5h1V147.2z M422.3,137.2h-1v-5h1V137.2z"/>
</g>
<g>
	<path class="st13" d="M348.2,377.2h-1v-5h1V377.2z M348.2,367.2h-1v-5h1V367.2z M348.2,357.2h-1v-5h1V357.2z M348.2,347.2h-1v-5h1
		V347.2z M348.2,337.2h-1v-5h1V337.2z M348.2,327.2h-1v-5h1V327.2z M348.2,317.2h-1v-5h1V317.2z M348.2,307.2h-1v-5h1V307.2z
		 M348.2,297.2h-1v-5h1V297.2z M348.2,287.2h-1v-5h1V287.2z M348.2,277.2h-1v-5h1V277.2z M348.2,267.2h-1v-5h1V267.2z M348.2,257.2
		h-1v-5h1V257.2z M348.2,247.2h-1v-5h1V247.2z M348.2,237.2h-1v-5h1V237.2z M348.2,227.2h-1v-5h1V227.2z M348.2,217.2h-1v-5h1V217.2
		z M348.2,207.2h-1v-5h1V207.2z M348.2,197.2h-1v-5h1V197.2z M348.2,187.2h-1v-5h1V187.2z M348.2,177.2h-1v-5h1V177.2z M348.2,167.2
		h-1v-5h1V167.2z M348.2,157.2h-1v-5h1V157.2z M348.2,147.2h-1v-5h1V147.2z M348.2,137.2h-1v-5h1V137.2z"/>
</g>
<g>
	<path class="st13" d="M274,377.2h-1v-5h1V377.2z M274,367.2h-1v-5h1V367.2z M274,357.2h-1v-5h1V357.2z M274,347.2h-1v-5h1V347.2z
		 M274,337.2h-1v-5h1V337.2z M274,327.2h-1v-5h1V327.2z M274,317.2h-1v-5h1V317.2z M274,307.2h-1v-5h1V307.2z M274,297.2h-1v-5h1
		V297.2z M274,287.2h-1v-5h1V287.2z M274,277.2h-1v-5h1V277.2z M274,267.2h-1v-5h1V267.2z M274,257.2h-1v-5h1V257.2z M274,247.2h-1
		v-5h1V247.2z M274,237.2h-1v-5h1V237.2z M274,227.2h-1v-5h1V227.2z M274,217.2h-1v-5h1V217.2z M274,207.2h-1v-5h1V207.2z
		 M274,197.2h-1v-5h1V197.2z M274,187.2h-1v-5h1V187.2z M274,177.2h-1v-5h1V177.2z M274,167.2h-1v-5h1V167.2z M274,157.2h-1v-5h1
		V157.2z M274,147.2h-1v-5h1V147.2z M274,137.2h-1v-5h1V137.2z"/>
</g>
<g>
	<path class="st13" d="M200.8,377.2h-1v-5h1V377.2z M200.8,367.2h-1v-5h1V367.2z M200.8,357.2h-1v-5h1V357.2z M200.8,347.2h-1v-5h1
		V347.2z M200.8,337.2h-1v-5h1V337.2z M200.8,327.2h-1v-5h1V327.2z M200.8,317.2h-1v-5h1V317.2z M200.8,307.2h-1v-5h1V307.2z
		 M200.8,297.2h-1v-5h1V297.2z M200.8,287.2h-1v-5h1V287.2z M200.8,277.2h-1v-5h1V277.2z M200.8,267.2h-1v-5h1V267.2z M200.8,257.2
		h-1v-5h1V257.2z M200.8,247.2h-1v-5h1V247.2z M200.8,237.2h-1v-5h1V237.2z M200.8,227.2h-1v-5h1V227.2z M200.8,217.2h-1v-5h1V217.2
		z M200.8,207.2h-1v-5h1V207.2z M200.8,197.2h-1v-5h1V197.2z M200.8,187.2h-1v-5h1V187.2z M200.8,177.2h-1v-5h1V177.2z M200.8,167.2
		h-1v-5h1V167.2z M200.8,157.2h-1v-5h1V157.2z M200.8,147.2h-1v-5h1V147.2z M200.8,137.2h-1v-5h1V137.2z"/>
</g>
<g>
	<path class="st13" d="M126.7,377.2h-1v-5h1V377.2z M126.7,367.2h-1v-5h1V367.2z M126.7,357.2h-1v-5h1V357.2z M126.7,347.2h-1v-5h1
		V347.2z M126.7,337.2h-1v-5h1V337.2z M126.7,327.2h-1v-5h1V327.2z M126.7,317.2h-1v-5h1V317.2z M126.7,307.2h-1v-5h1V307.2z
		 M126.7,297.2h-1v-5h1V297.2z M126.7,287.2h-1v-5h1V287.2z M126.7,277.2h-1v-5h1V277.2z M126.7,267.2h-1v-5h1V267.2z M126.7,257.2
		h-1v-5h1V257.2z M126.7,247.2h-1v-5h1V247.2z M126.7,237.2h-1v-5h1V237.2z M126.7,227.2h-1v-5h1V227.2z M126.7,217.2h-1v-5h1V217.2
		z M126.7,207.2h-1v-5h1V207.2z M126.7,197.2h-1v-5h1V197.2z M126.7,187.2h-1v-5h1V187.2z M126.7,177.2h-1v-5h1V177.2z M126.7,167.2
		h-1v-5h1V167.2z M126.7,157.2h-1v-5h1V157.2z M126.7,147.2h-1v-5h1V147.2z M126.7,137.2h-1v-5h1V137.2z"/>
</g>
<g>
	<path class="st13" d="M52.4,377.2h-1v-5h1V377.2z M52.4,367.2h-1v-5h1V367.2z M52.4,357.2h-1v-5h1V357.2z M52.4,347.2h-1v-5h1
		V347.2z M52.4,337.2h-1v-5h1V337.2z M52.4,327.2h-1v-5h1V327.2z M52.4,317.2h-1v-5h1V317.2z M52.4,307.2h-1v-5h1V307.2z
		 M52.4,297.2h-1v-5h1V297.2z M52.4,287.2h-1v-5h1V287.2z M52.4,277.2h-1v-5h1V277.2z M52.4,267.2h-1v-5h1V267.2z M52.4,257.2h-1v-5
		h1V257.2z M52.4,247.2h-1v-5h1V247.2z M52.4,237.2h-1v-5h1V237.2z M52.4,227.2h-1v-5h1V227.2z M52.4,217.2h-1v-5h1V217.2z
		 M52.4,207.2h-1v-5h1V207.2z M52.4,197.2h-1v-5h1V197.2z M52.4,187.2h-1v-5h1V187.2z M52.4,177.2h-1v-5h1V177.2z M52.4,167.2h-1v-5
		h1V167.2z M52.4,157.2h-1v-5h1V157.2z M52.4,147.2h-1v-5h1V147.2z M52.4,137.2h-1v-5h1V137.2z"/>
</g>
<g>
	<g class="st21">
		<g>
			<g>
				<defs>
					<rect id="SVGID_1_" x="295.1" y="48" width="9.3" height="75.8"/>
				</defs>
				<clipPath id="SVGID_2_">
					<use xlink:href="#SVGID_1_"  style="overflow:visible;"/>
				</clipPath>
				
					<radialGradient id="SVGID_3_" cx="-2007.3438" cy="9626.5078" r="116.3316" gradientTransform="matrix(0 -0.3258 7.586514e-02 0 -434.6164 -568.0926)" gradientUnits="userSpaceOnUse">
					<stop  offset="0" style="stop-color:#4D4D4D;stop-opacity:0.5"/>
					<stop  offset="1" style="stop-color:#626366;stop-opacity:0"/>
				</radialGradient>
				<ellipse class="st22" cx="295.7" cy="85.9" rx="8.8" ry="37.9"/>
			</g>
		</g>
	</g>
	<g>
		<path class="st23" d="M644.6,104.5H295.1V64.2h349.5c10.4,0,18.9,8.4,18.9,18.9v2.7C663.4,96.1,655,104.5,644.6,104.5z"/>
	</g>
</g>
<text transform="matrix(0.9539 0 0 1 318.7671 89.9443)" class="st24 st25 st26">Transition in world electricity generation</text>
<text transform="matrix(0.9539 0 0 1 54.0249 444.9448)" class="st27 st28 st29">Source: Energy Transition Outlook 2020 by DNV</text>
<text transform="matrix(0.9539 0 0 1 622.9004 145.2998)" class="st0 st25 st30">Floating offshore wind</text>
<text transform="matrix(0.9539 0 0 1 622.9004 170.2998)" class="st0 st25 st30">Fixed offshore wind</text>
<text transform="matrix(0.9539 0 0 1 622.9004 195.3003)" class="st0 st25 st30">Onshore wind</text>
<text transform="matrix(0.9539 0 0 1 622.9004 220.3003)" class="st0 st25 st30">Solar PV</text>
<text transform="matrix(0.9539 0 0 1 622.9004 245.3003)" class="st0 st25 st30">Hydropower</text>
<text transform="matrix(0.9539 0 0 1 622.9004 270.3003)" class="st0 st25 st30">Biomass</text>
<text transform="matrix(0.9539 0 0 1 622.9004 295.3003)" class="st0 st25 st30">Geothermal</text>
<text transform="matrix(0.9539 0 0 1 622.9004 320.3003)" class="st0 st25 st30">Nuclear</text>
<text transform="matrix(0.9539 0 0 1 622.9004 345.3003)" class="st0 st25 st30">Gas-fired</text>
<text transform="matrix(0.9539 0 0 1 622.9004 370.3003)" class="st0 st25 st30">Oil-fired</text>
<text transform="matrix(0.9539 0 0 1 622.9004 395.3003)" class="st0 st25 st30">Coal-fired</text>
</svg>
